<?xml version="1.0" encoding="utf-8"?>
<!-- Generator: Adobe Illustrator 16.0.0, SVG Export Plug-In . SVG Version: 6.00 Build 0)  -->
<!DOCTYPE svg PUBLIC "-//W3C//DTD SVG 1.1//EN" "http://www.w3.org/Graphics/SVG/1.1/DTD/svg11.dtd">
<svg version="1.1" id="Layer_1" xmlns="http://www.w3.org/2000/svg" xmlns:xlink="http://www.w3.org/1999/xlink" x="0px" y="0px"
	 width="792px" height="612px" viewBox="0 0 792 612" enable-background="new 0 0 792 612" xml:space="preserve">
<g>
	<g>
		<path fill="#2F302F" d="M240.806,310.934v75.889h-16.329l-16.331-41.789v41.789h-15.46v-75.889h15.75l16.426,41.688v-41.688
			H240.806z"/>
	</g>
	<g>
		<path fill="#2F302F" d="M293.562,310.934V325.3h-26.283v13.663h20.87v14.365h-20.87v19.127h26.283v14.367h-44.256v-75.889h17.973
			H293.562z"/>
	</g>
	<g>
		<path fill="#2F302F" d="M320.127,386.822h-18.939v-75.889h18.939V386.822z"/>
	</g>
	<g>
		<path fill="#2F302F" d="M359.165,338.355v-8.299c0-3.035-2.03-6.376-7.055-6.376c-5.702,0-8.02,3.542-8.02,6.376v35.921
			c0,4.756,3.092,8.703,8.02,8.703c5.218,0,7.055-3.036,7.055-7.792v-7.284h-7.635v-14.167h23.384v7.083v14.673
			c0,13.658-7.151,20.541-23.482,20.541c-13.044,0-23.383-7.287-23.383-20.541v-36.428c0-13.66,8.116-20.542,24.35-20.542
			c15.268,0,22.515,7.286,22.515,20.542v7.59H359.165z"/>
	</g>
	<g>
		<path fill="#2F302F" d="M431.533,310.934v75.889h-17.006v-26.814H398.68v26.814h-16.91v-75.889h16.91v34.2h15.848v-34.2H431.533z"
			/>
	</g>
	<g>
		<path fill="#2F302F" d="M488.732,364.259c0,7.386-1.833,12.952-5.408,16.899c-3.479,3.744-8.312,5.664-14.206,5.664h-12.562
			H438.68v-75.889h3.286h7.151h14.589c17.588,0,20.583,10.828,20.583,19.123c0,6.07-1.643,11.03-5.895,14.37
			c1.161,0.707,2.415,1.517,3.384,2.327C484.966,349.79,488.732,355.051,488.732,364.259z M459.746,324.084h-4.928v16.191h4.928
			c5.314,0,9.083-2.73,9.083-8.296C468.829,327.424,466.314,324.084,459.746,324.084z M472.406,363.247
			c0-7.794-3.964-11.538-13.435-11.538h-4.153v22.365h4.638C467.186,374.074,472.406,372.353,472.406,363.247z"/>
	</g>
	<g>
		<path fill="#2F302F" d="M539.364,330.766v36.428c0,13.658-7.15,20.541-23.484,20.541c-13.042,0-23.188-7.186-23.188-20.541
			v-36.428c0-13.66,7.923-20.542,24.254-20.542C532.116,310.224,539.364,317.408,539.364,330.766z M523.611,330.057
			c0-3.035-1.64-6.376-6.958-6.376c-6.182,0-7.923,3.542-7.923,6.376l0.195,35.921c0,4.756,2.222,8.703,7.728,8.703
			c5.412,0,6.958-3.138,6.958-7.896V330.057z"/>
	</g>
	<g>
		<path fill="#2F302F" d="M569.022,360.715h-5.119v26.107H547.67v-75.889h22.609c19.811,0,24.255,12.04,24.255,23.779
			c0,9.51-3.288,18.414-10.438,22.059l15.365,30.051h-17.393L569.022,360.715z M563.903,343.918h4.734
			c4.926,0,10.339-1.417,10.339-9.814c0-7.487-4.928-9.106-10.823-9.106h-4.25V343.918z"/>
	</g>
</g>
<g>
	<g>
		<path fill="#2F302F" d="M240.149,232.455v-11.827c0-4.328-3.096-9.087-10.76-9.087c-8.697,0-12.235,5.049-12.235,9.087v51.202
			c0,6.779,4.717,12.406,12.235,12.406c7.958,0,10.76-4.329,10.76-11.108v-10.383h-11.646v-20.193h35.67v10.096v20.914
			c0,19.471-10.906,29.28-35.817,29.28c-19.899,0-35.67-10.385-35.67-29.28v-51.925c0-19.471,12.381-29.279,37.146-29.279
			c23.288,0,34.342,10.385,34.342,29.279v10.818H240.149z"/>
	</g>
	<g>
		<path fill="#2F302F" d="M346.712,221.636v51.925c0,19.471-10.907,29.28-35.819,29.28c-19.897,0-35.375-10.24-35.375-29.28v-51.925
			c0-19.471,12.087-29.279,36.999-29.279C335.657,192.357,346.712,202.597,346.712,221.636z M322.686,220.627
			c0-4.328-2.506-9.087-10.613-9.087c-9.434,0-12.086,5.049-12.086,9.087l0.295,51.202c0,6.779,3.39,12.406,11.791,12.406
			c8.254,0,10.613-4.472,10.613-11.251V220.627z"/>
	</g>
	<g>
		<path fill="#2F302F" d="M427.775,221.636v51.925c0,19.471-10.904,29.28-35.818,29.28c-19.898,0-35.375-10.24-35.375-29.28v-51.925
			c0-19.471,12.087-29.279,37-29.279C416.722,192.357,427.775,202.597,427.775,221.636z M403.75,220.627
			c0-4.328-2.506-9.087-10.613-9.087c-9.434,0-12.086,5.049-12.086,9.087l0.295,51.202c0,6.779,3.39,12.406,11.791,12.406
			c8.254,0,10.613-4.472,10.613-11.251V220.627z"/>
	</g>
	<g>
		<path fill="#2F302F" d="M508.542,279.042c-2.653,12.116-7.959,22.501-27.71,22.501h-17.394h-24.32V193.367h24.32h19.457
			c14.889,0,23.141,6.635,26.237,22.933C510.754,225.099,510.754,268.369,508.542,279.042z M481.863,222.07
			c-1.325-7.934-6.929-8.365-14.74-8.365h-1.181v67.355h0.592c9.581-0.431,12.823-1.441,14.446-8.654
			C483.634,263.897,482.896,228.848,481.863,222.07z"/>
	</g>
</g>
<g>
	<path fill="#2F302F" d="M366.305,416.229h-1.938v-1.348c-0.835,1-1.956,1.5-3.361,1.5c-1.051,0-1.92-0.297-2.61-0.893
		c-0.69-0.594-1.035-1.389-1.035-2.383s0.368-1.736,1.102-2.23s1.728-0.74,2.981-0.74h2.753v-0.379c0-1.342-0.747-2.014-2.24-2.014
		c-0.938,0-1.912,0.342-2.925,1.025l-0.949-1.33c1.228-0.975,2.62-1.461,4.176-1.461c1.19,0,2.162,0.301,2.915,0.902
		c0.753,0.6,1.13,1.547,1.13,2.838V416.229z M364.177,412.469v-0.854h-2.393c-1.531,0-2.297,0.48-2.297,1.443
		c0,0.494,0.19,0.871,0.57,1.129c0.379,0.26,0.908,0.391,1.585,0.391c0.676,0,1.269-0.189,1.775-0.57
		C363.924,413.627,364.177,413.115,364.177,412.469z"/>
	<path fill="#2F302F" d="M380.924,416.381c-1.405,0-2.614-0.477-3.626-1.434c-1.013-0.955-1.519-2.205-1.519-3.75
		s0.528-2.801,1.585-3.77c1.057-0.967,2.345-1.451,3.864-1.451c1.52,0,2.804,0.525,3.854,1.576l-1.253,1.537
		c-0.874-0.76-1.753-1.139-2.64-1.139c-0.886,0-1.655,0.295-2.307,0.883c-0.652,0.588-0.978,1.348-0.978,2.277
		c0,0.932,0.322,1.719,0.968,2.365c0.645,0.645,1.439,0.967,2.383,0.967c0.943,0,1.832-0.43,2.668-1.291l1.253,1.367
		C383.949,415.762,382.531,416.381,380.924,416.381z"/>
	<path fill="#2F302F" d="M396.607,414.871c-1.013,1.008-2.279,1.51-3.798,1.51c-1.519,0-2.785-0.502-3.797-1.51
		c-1.013-1.006-1.519-2.236-1.519-3.693c0-1.455,0.506-2.686,1.519-3.691c1.013-1.008,2.279-1.51,3.797-1.51
		c1.519,0,2.785,0.502,3.798,1.51c1.013,1.006,1.519,2.236,1.519,3.691C398.126,412.635,397.62,413.865,396.607,414.871z
		 M390.521,413.561c0.602,0.615,1.364,0.922,2.288,0.922s1.687-0.307,2.288-0.922c0.601-0.613,0.902-1.406,0.902-2.383
		c0-0.973-0.301-1.768-0.902-2.383c-0.602-0.613-1.364-0.92-2.288-0.92s-1.687,0.307-2.288,0.92
		c-0.601,0.615-0.901,1.41-0.901,2.383C389.62,412.154,389.92,412.947,390.521,413.561z"/>
	<path fill="#2F302F" d="M403.652,410.76v5.469h-2.127v-10.102h2.127v1.844c0.303-0.621,0.762-1.107,1.376-1.463
		c0.614-0.354,1.274-0.531,1.984-0.531c1.595,0,2.677,0.658,3.247,1.975c0.999-1.316,2.246-1.975,3.74-1.975
		c1.14,0,2.06,0.348,2.763,1.043c0.702,0.697,1.054,1.703,1.054,3.02v6.189h-2.127v-5.543c0-1.861-0.772-2.793-2.316-2.793
		c-0.721,0-1.352,0.232-1.889,0.693c-0.539,0.463-0.82,1.137-0.846,2.023v5.619h-2.126v-5.543c0-0.963-0.172-1.668-0.513-2.117
		c-0.342-0.449-0.88-0.676-1.614-0.676c-0.733,0-1.373,0.246-1.917,0.732C403.924,409.113,403.652,409.824,403.652,410.76z"/>
	<path fill="#2F302F" d="M423.892,410.76v5.469h-2.127v-10.102h2.127v1.844c0.304-0.621,0.763-1.107,1.376-1.463
		c0.614-0.354,1.275-0.531,1.984-0.531c1.596,0,2.678,0.658,3.247,1.975c0.999-1.316,2.246-1.975,3.74-1.975
		c1.14,0,2.06,0.348,2.763,1.043c0.703,0.697,1.054,1.703,1.054,3.02v6.189h-2.126v-5.543c0-1.861-0.772-2.793-2.317-2.793
		c-0.721,0-1.352,0.232-1.889,0.693c-0.539,0.463-0.819,1.137-0.845,2.023v5.619h-2.127v-5.543c0-0.963-0.171-1.668-0.513-2.117
		s-0.88-0.676-1.614-0.676c-0.733,0-1.373,0.246-1.917,0.732C424.163,409.113,423.892,409.824,423.892,410.76z"/>
	<path fill="#2F302F" d="M449.068,411.596v-5.469h2.126v10.102h-2.126v-1.84c-0.342,0.619-0.812,1.107-1.415,1.461
		c-0.601,0.354-1.25,0.531-1.945,0.531c-1.14,0-2.061-0.348-2.763-1.045c-0.703-0.695-1.054-1.701-1.054-3.018v-6.191h2.126v5.545
		c0,1.861,0.772,2.791,2.317,2.791c0.733,0,1.373-0.244,1.917-0.73S449.068,412.533,449.068,411.596z"/>
	<path fill="#2F302F" d="M457.385,410.76v5.469h-2.127v-10.102h2.127v1.844c0.342-0.621,0.813-1.107,1.415-1.463
		c0.601-0.354,1.25-0.531,1.946-0.531c1.139,0,2.06,0.348,2.763,1.043c0.702,0.697,1.054,1.703,1.054,3.02v6.189h-2.127v-5.543
		c0-1.861-0.771-2.793-2.316-2.793c-0.734,0-1.373,0.246-1.917,0.732C457.657,409.113,457.385,409.824,457.385,410.76z"/>
	<path fill="#2F302F" d="M468.645,404.115c-0.266-0.266-0.398-0.582-0.398-0.949s0.133-0.684,0.398-0.949s0.583-0.398,0.949-0.398
		c0.367,0,0.685,0.133,0.95,0.398s0.398,0.582,0.398,0.949s-0.133,0.684-0.398,0.949s-0.583,0.398-0.95,0.398
		C469.228,404.514,468.91,404.381,468.645,404.115z M470.639,416.229h-2.127v-10.102h2.127V416.229z"/>
	<path fill="#2F302F" d="M477.322,407.836v5.127c0,0.482,0.126,0.863,0.379,1.148c0.254,0.285,0.608,0.428,1.063,0.428
		c0.456,0,0.893-0.221,1.311-0.664l0.873,1.5c-0.747,0.67-1.572,1.006-2.478,1.006s-1.678-0.312-2.316-0.939
		c-0.64-0.627-0.96-1.471-0.96-2.535v-5.07h-1.271v-1.709h1.271v-3.17h2.128v3.17h2.658v1.709H477.322z"/>
	<path fill="#2F302F" d="M484.897,420.254c-0.925,0-1.76-0.334-2.507-1.006l0.969-1.729c0.442,0.418,0.901,0.627,1.376,0.627
		s0.861-0.17,1.158-0.512c0.298-0.342,0.446-0.717,0.446-1.121c0-0.178-1.36-3.639-4.082-10.387h2.278l3.02,7.443l3.019-7.443h2.278
		l-4.898,12.002c-0.291,0.658-0.709,1.176-1.254,1.557C486.156,420.064,485.555,420.254,484.897,420.254z"/>
	<path fill="#2F302F" d="M503.827,410.76v5.469h-2.128v-10.102h2.128v1.844c0.341-0.621,0.812-1.107,1.414-1.463
		c0.602-0.354,1.25-0.531,1.946-0.531c1.139,0,2.06,0.348,2.763,1.043c0.702,0.697,1.054,1.703,1.054,3.02v6.189h-2.127v-5.543
		c0-1.861-0.771-2.793-2.316-2.793c-0.734,0-1.373,0.246-1.917,0.732C504.099,409.113,503.827,409.824,503.827,410.76z"/>
	<path fill="#2F302F" d="M524.352,412.109h-7.918c0.051,0.734,0.387,1.326,1.007,1.775s1.329,0.674,2.127,0.674
		c1.266,0,2.228-0.398,2.886-1.197l1.215,1.33c-1.088,1.127-2.506,1.689-4.253,1.689c-1.417,0-2.623-0.471-3.616-1.414
		c-0.995-0.943-1.491-2.209-1.491-3.799c0-1.588,0.506-2.85,1.52-3.787c1.013-0.936,2.205-1.404,3.578-1.404
		c1.374,0,2.542,0.414,3.504,1.242c0.962,0.83,1.442,1.973,1.442,3.428V412.109z M516.434,410.438h5.792
		c0-0.848-0.267-1.5-0.798-1.955s-1.187-0.684-1.965-0.684s-1.479,0.238-2.098,0.711
		C516.744,408.984,516.434,409.627,516.434,410.438z"/>
	<path fill="#2F302F" d="M530.22,407.836v5.127c0,0.482,0.126,0.863,0.379,1.148c0.254,0.285,0.608,0.428,1.063,0.428
		c0.456,0,0.893-0.221,1.311-0.664l0.873,1.5c-0.747,0.67-1.572,1.006-2.478,1.006s-1.678-0.312-2.316-0.939
		c-0.64-0.627-0.96-1.471-0.96-2.535v-5.07h-1.271v-1.709h1.271v-3.17h2.128v3.17h2.658v1.709H530.22z"/>
	<path fill="#2F302F" d="M541.251,416.229h-2.432l-3.493-10.102h2.202l2.507,7.635l2.506-7.635h2.203l2.506,7.635l2.506-7.635h2.203
		l-3.494,10.102h-2.43l-2.393-6.91L541.251,416.229z"/>
	<path fill="#2F302F" d="M563.143,414.871c-1.013,1.008-2.278,1.51-3.798,1.51c-1.519,0-2.784-0.502-3.797-1.51
		c-1.014-1.006-1.52-2.236-1.52-3.693c0-1.455,0.506-2.686,1.52-3.691c1.013-1.008,2.278-1.51,3.797-1.51
		c1.52,0,2.785,0.502,3.798,1.51c1.013,1.006,1.519,2.236,1.519,3.691C564.661,412.635,564.155,413.865,563.143,414.871z
		 M557.057,413.561c0.602,0.615,1.364,0.922,2.288,0.922s1.687-0.307,2.288-0.922c0.601-0.613,0.902-1.406,0.902-2.383
		c0-0.973-0.302-1.768-0.902-2.383c-0.602-0.613-1.364-0.92-2.288-0.92s-1.687,0.307-2.288,0.92
		c-0.601,0.615-0.901,1.41-0.901,2.383C556.155,412.154,556.456,412.947,557.057,413.561z"/>
	<path fill="#2F302F" d="M573.358,408.121c-1.051,0-1.843,0.342-2.373,1.025c-0.532,0.684-0.798,1.602-0.798,2.754v4.328h-2.127
		v-10.102h2.127v2.033c0.341-0.633,0.807-1.152,1.396-1.557c0.589-0.406,1.212-0.615,1.87-0.627l0.02,2.145
		C573.435,408.121,573.396,408.121,573.358,408.121z"/>
	<path fill="#2F302F" d="M578.712,416.229h-2.128v-14.088h2.128v8.279l4.101-4.293h2.736l-3.838,4.008l4.121,6.094h-2.582l-3-4.424
		l-1.538,1.557V416.229z"/>
</g>
<g>
	<g>
		<path fill-rule="evenodd" clip-rule="evenodd" fill="#2F302F" d="M516.404,263.771c0.669-0.812,1.285-1.696,2.012-2.424
			c5.164-5.153,10.347-10.28,15.529-15.407c3.968-3.925,7.949-7.831,11.919-11.751c2.635-2.605,5.247-5.243,7.9-7.822
			c2.337-2.271,5.625-2.261,7.962,0.035c4.014,3.942,7.996,7.93,11.991,11.896c0.08,0.08,0.171,0.14,0.369,0.299
			c0.024-0.376,0.056-0.641,0.056-0.906c0.004-3.424,0-6.851,0.004-10.275c0.003-1.941,0.508-2.544,2.121-2.546
			c2.971-0.002,5.941-0.003,8.908,0c1.522,0.002,2.065,0.645,2.065,2.463c0.004,7.818,0.007,15.635-0.011,23.453
			c-0.003,0.643,0.168,1.067,0.575,1.465c3.392,3.319,6.777,6.644,10.145,9.999c0.425,0.424,0.735,1.011,1.101,1.522
			c0,0.367,0,0.732,0,1.098c-1.079,1.574-2.152,3.156-3.238,4.721c-0.938,1.348-1.776,1.467-2.933,0.333
			c-3.082-3.028-6.141-6.089-9.208-9.132c-2.699-2.678-5.405-5.348-8.104-8.022c-2.787-2.757-5.573-5.515-8.357-8.275
			c-3.004-2.978-6.01-5.954-9.001-8.947c-0.352-0.351-0.6-0.36-0.958-0.003c-2.737,2.746-5.487,5.475-8.236,8.203
			c-2.734,2.711-5.472,5.415-8.207,8.122c-2.753,2.725-5.503,5.45-8.256,8.174c-3.07,3.042-6.142,6.085-9.212,9.128
			c-0.354,0.35-0.699,0.721-1.074,1.036c-0.863,0.726-1.654,0.671-2.348-0.28c-1.203-1.652-2.345-3.367-3.514-5.056
			C516.404,264.503,516.404,264.137,516.404,263.771z"/>
	</g>
	<g>
		<path fill-rule="evenodd" clip-rule="evenodd" fill="#2F302F" d="M564.298,302.839c0-7.831,0-15.538,0-23.331
			c-0.261-0.023-0.468-0.058-0.677-0.058c-3.918-0.003-7.833,0.015-11.751-0.018c-0.599-0.005-0.728,0.219-0.725,0.891
			c0.02,7.141,0.013,14.28,0.013,21.422c0,0.332,0,0.663,0,1.094c-0.318,0-0.556,0-0.789,0c-6.162,0-12.321,0.002-18.482-0.002
			c-2.368-0.001-3.671-1.542-3.674-4.373c-0.004-9.363,0.003-18.727-0.013-28.092c-0.002-0.726,0.202-1.183,0.678-1.643
			c4.506-4.38,8.988-8.796,13.479-13.198c4.052-3.968,8.111-7.927,12.163-11.896c1.052-1.029,2.093-2.072,3.188-3.157
			c0.963,0.925,1.917,1.834,2.862,2.756c2.343,2.289,4.68,4.581,7.017,6.875c2.998,2.945,5.991,5.897,8.993,8.839
			c2.538,2.492,5.088,4.975,7.634,7.463c0.898,0.878,1.821,1.727,2.675,2.663c0.227,0.25,0.334,0.778,0.338,1.179
			c0.021,5.101,0.014,10.202,0.014,15.301c0,4.29,0.004,8.578,0,12.869c-0.004,2.88-1.285,4.41-3.706,4.412
			c-6.157,0.004-12.318,0.002-18.479,0.002C564.84,302.839,564.624,302.839,564.298,302.839z"/>
	</g>
</g>
</svg>
