<?xml version="1.0" encoding="UTF-8" standalone="no"?>
<!DOCTYPE svg PUBLIC "-//W3C//DTD SVG 1.1//EN" "http://www.w3.org/Graphics/SVG/1.1/DTD/svg11.dtd">
<svg version="1.1" xmlns="http://www.w3.org/2000/svg" xmlns:xlink="http://www.w3.org/1999/xlink" preserveAspectRatio="xMidYMid meet" viewBox="0 0 640 640" width="640" height="640"><defs><path d="M354.08 259.29C357.25 259.29 359.82 256.71 359.82 253.55C359.82 250.38 357.25 247.81 354.08 247.81C350.91 247.81 348.34 250.38 348.34 253.55C348.34 256.71 350.91 259.29 354.08 259.29Z" id="erTNFyU65"></path><path d="M256.44 311.77L246.68 311.77L246.68 265.4L256.44 265.4C256.44 270.47 256.44 273.29 256.44 273.85C258.01 271 260.17 268.77 262.94 267.14C265.69 265.51 268.67 264.7 271.87 264.7C277.1 264.7 281.33 266.3 284.55 269.49C287.78 272.69 289.39 277.31 289.39 283.35C289.39 285.25 289.39 294.72 289.39 311.77L279.63 311.77C279.63 296.5 279.63 288.01 279.63 286.32C279.63 277.78 276.09 273.5 268.99 273.5C265.62 273.5 262.69 274.62 260.19 276.86C257.69 279.1 256.44 282.37 256.44 286.67C256.44 290.01 256.44 298.38 256.44 311.77Z" id="a3QnyRJuMU"></path><path d="M320.54 264.71L321 264.73L321.46 264.75L321.92 264.78L322.37 264.82L322.82 264.87L323.27 264.92L323.71 264.98L324.15 265.05L324.59 265.13L325.02 265.21L325.45 265.3L325.87 265.39L326.3 265.5L326.71 265.61L327.13 265.73L327.54 265.85L327.95 265.98L328.35 266.12L328.75 266.27L329.15 266.42L329.54 266.58L329.93 266.75L330.32 266.93L330.7 267.11L331.08 267.3L331.46 267.49L331.83 267.7L332.2 267.91L332.56 268.13L332.92 268.35L333.28 268.58L333.63 268.82L333.99 269.07L334.33 269.32L334.68 269.58L335.02 269.85L335.35 270.12L335.69 270.41L336.01 270.69L336.33 270.99L336.64 271.29L336.94 271.59L337.24 271.9L337.52 272.22L337.8 272.54L338.07 272.86L338.33 273.19L338.58 273.53L338.83 273.87L339.06 274.22L339.29 274.57L339.51 274.93L339.72 275.3L339.93 275.66L340.12 276.04L340.31 276.42L340.48 276.8L340.65 277.2L340.82 277.59L340.97 277.99L341.11 278.4L341.25 278.81L341.38 279.23L341.5 279.65L341.61 280.08L341.71 280.52L341.81 280.95L341.9 281.4L341.98 281.85L342.05 282.3L342.11 282.77L342.16 283.23L342.21 283.7L342.24 284.18L342.27 284.66L342.29 285.15L342.31 285.64L342.31 286.14L342.31 292.85L305.96 292.85L305.98 293.1L306 293.35L306.03 293.6L306.07 293.85L306.11 294.09L306.15 294.33L306.2 294.56L306.25 294.8L306.31 295.03L306.38 295.26L306.45 295.49L306.52 295.71L306.6 295.93L306.68 296.15L306.77 296.37L306.86 296.59L306.96 296.8L307.06 297.01L307.17 297.22L307.29 297.42L307.4 297.62L307.53 297.82L307.65 298.02L307.79 298.22L307.92 298.41L308.07 298.6L308.21 298.79L308.37 298.97L308.52 299.16L308.69 299.34L308.85 299.51L309.02 299.69L309.2 299.86L309.38 300.03L309.57 300.2L309.76 300.37L309.96 300.53L310.16 300.69L310.36 300.85L310.58 301.01L310.79 301.16L311.01 301.31L311.22 301.45L311.44 301.59L311.66 301.73L311.89 301.86L312.11 301.99L312.33 302.12L312.56 302.24L312.79 302.36L313.02 302.47L313.25 302.58L313.48 302.69L313.72 302.79L313.95 302.89L314.19 302.99L314.43 303.08L314.67 303.16L314.91 303.25L315.15 303.33L315.4 303.4L315.65 303.47L315.89 303.54L316.14 303.61L316.39 303.67L316.65 303.72L316.9 303.77L317.16 303.82L317.41 303.87L317.67 303.91L317.93 303.94L318.19 303.98L318.46 304.01L318.72 304.03L318.99 304.05L319.26 304.07L319.53 304.08L319.8 304.09L320.07 304.1L320.34 304.1L320.78 304.1L321.2 304.09L321.63 304.07L322.04 304.05L322.46 304.02L322.86 303.98L323.26 303.93L323.66 303.88L324.05 303.82L324.44 303.76L324.82 303.69L325.19 303.61L325.56 303.52L325.93 303.43L326.29 303.33L326.64 303.22L326.99 303.11L327.34 302.99L327.68 302.86L328.01 302.73L328.34 302.59L328.66 302.44L328.98 302.28L329.3 302.12L329.6 301.95L329.91 301.78L330.2 301.6L330.5 301.41L330.78 301.21L331.06 301.01L331.34 300.8L331.61 300.58L331.88 300.36L332.14 300.13L332.39 299.89L332.64 299.65L332.89 299.4L333.13 299.14L333.36 298.88L333.59 298.61L339.17 304.71L338.8 305.09L338.41 305.47L338.02 305.83L337.63 306.18L337.23 306.53L336.82 306.86L336.41 307.19L335.99 307.5L335.57 307.81L335.14 308.11L334.71 308.39L334.27 308.67L333.82 308.93L333.37 309.19L332.91 309.44L332.45 309.68L331.98 309.9L331.51 310.12L331.03 310.33L330.54 310.53L330.05 310.72L329.55 310.9L329.05 311.07L328.54 311.23L328.03 311.38L327.51 311.52L326.98 311.65L326.45 311.77L325.92 311.88L325.38 311.98L324.83 312.08L324.27 312.16L323.72 312.23L323.15 312.29L322.58 312.35L322 312.39L321.42 312.43L320.84 312.45L320.24 312.46L319.64 312.47L319.16 312.46L318.67 312.45L318.2 312.43L317.72 312.4L317.25 312.37L316.78 312.32L316.32 312.27L315.85 312.21L315.4 312.14L314.94 312.06L314.49 311.98L314.05 311.88L313.61 311.78L313.17 311.67L312.73 311.56L312.3 311.43L311.87 311.3L311.45 311.15L311.03 311L310.61 310.85L310.2 310.68L309.79 310.5L309.38 310.32L308.98 310.13L308.58 309.93L308.18 309.73L307.79 309.51L307.4 309.29L307.02 309.06L306.64 308.82L306.26 308.57L305.89 308.31L305.52 308.05L305.15 307.78L304.79 307.5L304.43 307.21L304.08 306.91L303.73 306.61L303.38 306.3L303.04 305.98L302.7 305.65L302.37 305.31L302.05 304.98L301.74 304.63L301.43 304.28L301.14 303.93L300.85 303.57L300.57 303.2L300.3 302.83L300.04 302.45L299.79 302.07L299.55 301.68L299.31 301.28L299.08 300.89L298.87 300.48L298.66 300.07L298.46 299.65L298.26 299.23L298.08 298.8L297.9 298.37L297.74 297.93L297.58 297.49L297.43 297.04L297.29 296.58L297.15 296.12L297.03 295.65L296.92 295.18L296.81 294.7L296.71 294.22L296.62 293.73L296.54 293.24L296.47 292.74L296.4 292.23L296.35 291.72L296.3 291.2L296.26 290.68L296.23 290.15L296.21 289.62L296.2 289.08L296.19 288.54L296.2 287.99L296.21 287.46L296.23 286.92L296.26 286.4L296.3 285.87L296.35 285.36L296.41 284.85L296.47 284.34L296.55 283.84L296.63 283.35L296.72 282.86L296.82 282.38L296.93 281.9L297.05 281.43L297.17 280.97L297.31 280.51L297.45 280.05L297.6 279.6L297.77 279.16L297.94 278.72L298.11 278.29L298.3 277.86L298.5 277.44L298.7 277.03L298.92 276.62L299.14 276.21L299.37 275.82L299.61 275.42L299.86 275.04L300.12 274.65L300.38 274.28L300.66 273.91L300.94 273.54L301.23 273.18L301.53 272.83L301.84 272.48L302.16 272.14L302.49 271.8L302.82 271.47L303.17 271.15L303.52 270.83L303.87 270.52L304.23 270.22L304.59 269.92L304.95 269.64L305.32 269.36L305.68 269.09L306.06 268.83L306.43 268.57L306.81 268.33L307.19 268.09L307.58 267.86L307.96 267.64L308.35 267.42L308.75 267.22L309.14 267.02L309.54 266.83L309.95 266.65L310.35 266.47L310.76 266.31L311.18 266.15L311.59 266L312.01 265.86L312.43 265.73L312.86 265.6L313.28 265.49L313.71 265.38L314.15 265.28L314.59 265.18L315.03 265.1L315.47 265.02L315.92 264.95L316.37 264.89L316.82 264.84L317.28 264.8L317.73 264.76L318.2 264.73L318.66 264.71L319.13 264.7L319.6 264.7L320.07 264.7L320.54 264.71ZM318.24 273.14L317.44 273.24L316.66 273.37L315.9 273.55L315.14 273.76L314.4 274.01L313.67 274.3L312.96 274.63L312.26 275L311.57 275.41L310.89 275.85L310.23 276.33L309.59 276.85L309.01 277.39L308.48 277.97L308 278.56L307.57 279.19L307.2 279.84L306.87 280.53L306.59 281.23L306.36 281.97L306.19 282.73L306.06 283.52L305.98 284.34L305.96 285.18L332.55 285.18L332.52 284.3L332.46 283.45L332.35 282.63L332.2 281.84L332 281.09L331.77 280.37L331.48 279.68L331.16 279.02L330.79 278.39L330.38 277.8L329.92 277.23L329.42 276.7L328.88 276.2L328.31 275.74L327.72 275.31L327.1 274.92L326.47 274.57L325.82 274.25L325.14 273.97L324.45 273.73L323.73 273.53L323 273.36L322.24 273.23L321.47 273.14L320.68 273.08L319.86 273.06L319.04 273.08L318.24 273.14Z" id="e1UnTgcdIe"></path><path d="M349.2 311.77L349.2 265.39L358.96 265.39L358.96 311.77L349.2 311.77Z" id="aCChPA6QT"></path><path d="M388.33 264.71L388.78 264.74L389.23 264.77L389.67 264.81L390.1 264.86L390.53 264.93L390.96 265L391.39 265.08L391.8 265.17L392.22 265.27L392.63 265.38L393.04 265.5L393.44 265.62L393.83 265.76L394.23 265.91L394.62 266.06L395 266.23L395.38 266.41L395.76 266.59L396.13 266.78L396.5 266.99L396.86 267.2L397.22 267.42L397.57 267.66L397.92 267.9L398.27 268.15L398.61 268.41L398.95 268.68L399.28 268.96L399.61 269.25L399.93 269.55L400.25 269.86L400.57 270.17L400.88 270.5L401.19 270.84L401.49 271.18L401.79 271.54L402.08 271.9L402.37 272.28L402.37 265.39L412.14 265.39L412.14 305.84L412.13 306.45L412.12 307.06L412.1 307.65L412.07 308.24L412.03 308.82L411.99 309.39L411.93 309.96L411.87 310.51L411.8 311.06L411.72 311.61L411.63 312.14L411.54 312.67L411.43 313.18L411.32 313.7L411.2 314.2L411.07 314.69L410.93 315.18L410.79 315.66L410.63 316.13L410.47 316.6L410.3 317.06L410.12 317.51L409.93 317.95L409.74 318.38L409.53 318.81L409.32 319.23L409.1 319.64L408.87 320.04L408.63 320.44L408.39 320.82L408.13 321.2L407.87 321.58L407.6 321.94L407.32 322.3L407.03 322.65L406.73 322.99L406.43 323.32L406.12 323.65L405.8 323.97L405.47 324.28L405.13 324.58L404.79 324.88L404.45 325.17L404.1 325.45L403.74 325.72L403.38 325.99L403.02 326.24L402.65 326.49L402.28 326.74L401.9 326.97L401.51 327.2L401.13 327.41L400.73 327.63L400.34 327.83L399.93 328.03L399.53 328.21L399.12 328.39L398.7 328.57L398.28 328.73L397.85 328.89L397.42 329.04L396.99 329.18L396.55 329.32L396.1 329.44L395.65 329.56L395.2 329.67L394.74 329.78L394.27 329.87L393.81 329.96L393.33 330.04L392.85 330.12L392.37 330.18L391.88 330.24L391.39 330.29L390.89 330.33L390.39 330.37L389.89 330.39L389.37 330.41L388.86 330.42L388.34 330.43L387.82 330.42L387.3 330.41L386.78 330.39L386.27 330.36L385.75 330.32L385.24 330.28L384.74 330.23L384.23 330.17L383.73 330.1L383.23 330.02L382.73 329.93L382.24 329.84L381.75 329.74L381.26 329.63L380.77 329.51L380.29 329.38L379.81 329.25L379.33 329.1L378.85 328.95L378.38 328.79L377.9 328.62L377.44 328.45L376.97 328.26L376.5 328.07L376.04 327.87L375.58 327.66L375.13 327.45L374.67 327.22L374.22 326.99L373.77 326.75L373.33 326.5L372.88 326.24L372.44 325.98L372 325.7L371.56 325.42L371.13 325.13L370.7 324.83L370.27 324.53L369.84 324.21L369.42 323.89L374.04 316.48L374.38 316.73L374.72 316.98L375.06 317.22L375.4 317.46L375.74 317.68L376.08 317.91L376.42 318.12L376.77 318.33L377.11 318.53L377.45 318.73L377.79 318.92L378.13 319.1L378.47 319.28L378.82 319.45L379.16 319.61L379.5 319.77L379.84 319.92L380.19 320.07L380.53 320.2L380.87 320.34L381.22 320.46L381.56 320.58L381.9 320.69L382.25 320.8L382.59 320.9L382.94 320.99L383.28 321.08L383.62 321.16L383.97 321.23L384.31 321.3L384.66 321.36L385 321.42L385.35 321.47L385.69 321.51L386.04 321.54L386.38 321.57L386.73 321.59L387.08 321.61L387.42 321.62L387.77 321.62L388.11 321.62L388.45 321.61L388.79 321.6L389.13 321.59L389.46 321.57L389.78 321.54L390.11 321.51L390.43 321.48L390.74 321.44L391.05 321.4L391.36 321.35L391.67 321.3L391.97 321.25L392.27 321.19L392.56 321.12L392.85 321.05L393.14 320.98L393.42 320.9L393.7 320.82L393.98 320.73L394.25 320.64L394.52 320.54L394.79 320.44L395.05 320.34L395.31 320.23L395.56 320.11L395.81 319.99L396.06 319.87L396.31 319.74L396.55 319.61L396.78 319.48L397.02 319.34L397.25 319.19L397.47 319.04L397.69 318.89L397.91 318.73L398.13 318.57L398.34 318.4L398.55 318.23L398.75 318.05L398.95 317.87L399.15 317.68L399.34 317.49L399.52 317.29L399.7 317.09L399.88 316.88L400.05 316.67L400.21 316.45L400.37 316.22L400.53 315.99L400.68 315.76L400.82 315.52L400.96 315.27L401.09 315.02L401.22 314.77L401.35 314.51L401.47 314.24L401.58 313.97L401.69 313.69L401.79 313.41L401.89 313.12L401.99 312.82L402.07 312.53L402.16 312.22L402.24 311.91L402.31 311.6L402.38 311.28L402.44 310.95L402.5 310.62L402.55 310.29L402.6 309.94L402.64 309.6L402.68 309.24L402.72 308.89L402.74 308.52L402.77 308.16L402.78 307.78L402.8 307.4L402.8 307.02L402.81 306.63L402.81 300.7L402.7 300.9L402.58 301.11L402.47 301.31L402.35 301.5L402.23 301.7L402.11 301.89L401.99 302.08L401.86 302.27L401.73 302.46L401.6 302.65L401.47 302.83L401.33 303.01L401.19 303.19L401.05 303.37L400.91 303.54L400.76 303.71L400.62 303.88L400.47 304.05L400.31 304.22L400.16 304.38L400 304.55L399.84 304.71L399.68 304.86L399.52 305.02L399.35 305.17L399.18 305.33L399.01 305.48L398.84 305.62L398.66 305.77L398.48 305.91L398.3 306.06L398.12 306.2L397.94 306.33L397.75 306.47L397.56 306.6L397.37 306.73L397.17 306.86L396.98 306.99L396.78 307.11L396.57 307.24L396.37 307.36L396.17 307.48L395.96 307.59L395.75 307.7L395.55 307.81L395.34 307.92L395.13 308.02L394.91 308.12L394.7 308.21L394.48 308.31L394.27 308.4L394.05 308.48L393.83 308.57L393.61 308.65L393.39 308.73L393.17 308.8L392.95 308.87L392.72 308.94L392.5 309.01L392.27 309.07L392.04 309.13L391.81 309.18L391.58 309.24L391.35 309.29L391.12 309.34L390.88 309.38L390.64 309.42L390.41 309.46L390.17 309.49L389.93 309.53L389.69 309.56L389.45 309.58L389.2 309.6L388.96 309.62L388.71 309.64L388.47 309.65L388.22 309.67L387.97 309.67L387.72 309.68L387.46 309.68L387 309.67L386.55 309.66L386.1 309.64L385.65 309.61L385.21 309.58L384.77 309.53L384.33 309.48L383.9 309.42L383.47 309.35L383.05 309.28L382.63 309.19L382.22 309.1L381.81 309L381.4 308.89L381 308.77L380.6 308.65L380.21 308.51L379.82 308.37L379.43 308.22L379.05 308.07L378.67 307.9L378.3 307.73L377.93 307.55L377.57 307.36L377.21 307.16L376.85 306.95L376.5 306.74L376.15 306.52L375.81 306.29L375.47 306.05L375.13 305.8L374.8 305.55L374.47 305.29L374.15 305.02L373.83 304.74L373.52 304.45L373.2 304.16L372.9 303.86L372.6 303.55L372.3 303.23L372 302.9L371.72 302.57L371.44 302.24L371.17 301.91L370.91 301.57L370.65 301.22L370.4 300.87L370.16 300.52L369.93 300.17L369.7 299.81L369.48 299.44L369.27 299.08L369.07 298.7L368.87 298.33L368.68 297.95L368.5 297.57L368.33 297.18L368.16 296.79L368 296.39L367.85 295.99L367.7 295.59L367.57 295.18L367.44 294.77L367.32 294.36L367.2 293.94L367.09 293.52L366.99 293.09L366.9 292.66L366.82 292.22L366.74 291.79L366.67 291.34L366.6 290.9L366.55 290.45L366.5 289.99L366.46 289.54L366.43 289.07L366.4 288.61L366.38 288.14L366.37 287.66L366.37 287.19L366.37 286.71L366.38 286.23L366.4 285.77L366.43 285.3L366.46 284.84L366.5 284.38L366.55 283.93L366.6 283.48L366.67 283.03L366.74 282.59L366.82 282.15L366.9 281.72L366.99 281.28L367.09 280.86L367.2 280.44L367.32 280.02L367.44 279.6L367.57 279.19L367.7 278.78L367.85 278.38L368 277.98L368.16 277.59L368.33 277.2L368.5 276.81L368.68 276.43L368.87 276.05L369.07 275.67L369.27 275.3L369.48 274.93L369.7 274.57L369.93 274.21L370.16 273.85L370.4 273.5L370.65 273.15L370.91 272.81L371.17 272.47L371.44 272.13L371.72 271.8L372 271.47L372.3 271.15L372.6 270.83L372.9 270.52L373.2 270.22L373.51 269.92L373.83 269.63L374.15 269.36L374.47 269.09L374.8 268.82L375.13 268.57L375.46 268.32L375.8 268.09L376.15 267.86L376.49 267.64L376.85 267.42L377.2 267.22L377.56 267.02L377.92 266.83L378.29 266.65L378.66 266.47L379.04 266.31L379.42 266.15L379.81 266L380.19 265.86L380.59 265.73L380.98 265.6L381.38 265.49L381.79 265.38L382.2 265.28L382.61 265.18L383.03 265.1L383.45 265.02L383.87 264.95L384.3 264.89L384.74 264.84L385.17 264.79L385.61 264.76L386.06 264.73L386.51 264.71L386.96 264.7L387.42 264.69L387.88 264.7L388.33 264.71ZM387.59 272.6L386.93 272.67L386.29 272.78L385.67 272.91L385.06 273.07L384.47 273.27L383.9 273.49L383.34 273.74L382.8 274.02L382.28 274.33L381.77 274.67L381.28 275.04L380.81 275.44L380.35 275.87L379.91 276.33L379.49 276.81L379.08 277.32L378.71 277.84L378.35 278.37L378.02 278.9L377.72 279.45L377.44 280.01L377.18 280.58L376.95 281.15L376.74 281.74L376.56 282.34L376.4 282.94L376.26 283.56L376.15 284.19L376.07 284.83L376.01 285.47L375.97 286.13L375.96 286.8L375.97 287.46L376.01 288.12L376.07 288.76L376.15 289.4L376.26 290.02L376.4 290.63L376.56 291.23L376.74 291.82L376.95 292.4L377.18 292.97L377.44 293.53L377.72 294.08L378.02 294.61L378.35 295.14L378.71 295.65L379.08 296.15L379.49 296.65L379.91 297.12L380.35 297.56L380.81 297.98L381.28 298.37L381.78 298.72L382.28 299.05L382.81 299.35L383.35 299.63L383.91 299.87L384.49 300.09L385.08 300.27L385.69 300.43L386.32 300.56L386.96 300.66L387.62 300.73L388.3 300.77L388.99 300.79L389.69 300.77L390.37 300.73L391.03 300.66L391.68 300.57L392.31 300.44L392.92 300.29L393.52 300.11L394.11 299.9L394.68 299.66L395.23 299.4L395.77 299.11L396.29 298.79L396.8 298.44L397.29 298.07L397.76 297.67L398.22 297.24L398.67 296.78L399.09 296.3L399.49 295.81L399.86 295.3L400.21 294.78L400.53 294.25L400.82 293.7L401.09 293.14L401.33 292.57L401.55 291.98L401.75 291.38L401.91 290.77L402.05 290.14L402.17 289.5L402.26 288.84L402.32 288.17L402.36 287.49L402.37 286.79L402.36 286.1L402.32 285.42L402.26 284.74L402.17 284.09L402.05 283.44L401.91 282.81L401.74 282.19L401.54 281.58L401.32 280.99L401.07 280.4L400.8 279.83L400.5 279.28L400.18 278.73L399.83 278.2L399.45 277.68L399.05 277.18L398.62 276.68L398.17 276.21L397.71 275.77L397.23 275.35L396.74 274.96L396.23 274.61L395.7 274.28L395.17 273.98L394.61 273.7L394.04 273.46L393.46 273.24L392.86 273.06L392.25 272.9L391.62 272.77L390.97 272.67L390.31 272.6L389.64 272.56L388.95 272.54L388.26 272.56L387.59 272.6Z" id="djPSUnDR3"></path><path d="M432.19 311.77L422.42 311.77L422.42 247.18L432.19 247.18C432.19 263.18 432.19 272.07 432.19 273.85C433.58 271 435.69 268.77 438.51 267.14C441.33 265.51 444.36 264.7 447.62 264.7C452.85 264.7 457.08 266.3 460.3 269.49C463.53 272.69 465.14 277.31 465.14 283.35C465.14 285.25 465.14 294.72 465.14 311.77L455.38 311.77C455.38 296.5 455.38 288.01 455.38 286.32C455.38 277.78 451.83 273.5 444.74 273.5C441.37 273.5 438.43 274.62 435.94 276.86C433.44 279.1 432.19 282.37 432.19 286.67C432.19 290.01 432.19 298.38 432.19 311.77Z" id="a1mD7QCWTG"></path><path d="M484.96 273.07L485.25 272.64L485.55 272.23L485.85 271.83L486.16 271.44L486.47 271.06L486.79 270.69L487.11 270.33L487.44 269.99L487.77 269.65L488.1 269.32L488.44 269.01L488.78 268.71L489.13 268.42L489.48 268.14L489.84 267.87L490.2 267.61L490.57 267.36L490.94 267.12L491.31 266.9L491.69 266.68L492.08 266.48L492.46 266.29L492.86 266.1L493.25 265.93L493.66 265.77L494.06 265.63L494.47 265.49L494.89 265.36L495.31 265.25L495.73 265.14L496.16 265.05L496.59 264.96L497.03 264.89L497.47 264.83L497.92 264.78L498.37 264.74L498.82 264.72L499.28 264.7L499.75 264.7L500.21 264.7L500.67 264.71L501.13 264.73L501.59 264.76L502.04 264.8L502.49 264.84L502.93 264.89L503.37 264.95L503.81 265.02L504.24 265.1L504.67 265.18L505.1 265.28L505.53 265.38L505.95 265.49L506.36 265.6L506.78 265.73L507.19 265.86L507.6 266L508 266.15L508.4 266.31L508.8 266.47L509.19 266.65L509.58 266.83L509.97 267.02L510.35 267.22L510.73 267.42L511.11 267.64L511.48 267.86L511.85 268.09L512.22 268.33L512.58 268.57L512.94 268.83L513.3 269.09L513.65 269.36L514 269.64L514.35 269.92L514.69 270.22L515.03 270.52L515.37 270.83L515.7 271.15L516.03 271.47L516.35 271.8L516.66 272.14L516.96 272.48L517.25 272.83L517.54 273.18L517.82 273.54L518.09 273.9L518.35 274.27L518.6 274.64L518.84 275.02L519.08 275.4L519.31 275.79L519.53 276.19L519.74 276.59L519.94 276.99L520.14 277.4L520.32 277.82L520.5 278.24L520.67 278.67L520.83 279.1L520.99 279.54L521.13 279.98L521.27 280.43L521.4 280.88L521.52 281.34L521.63 281.8L521.73 282.27L521.83 282.75L521.91 283.23L521.99 283.71L522.06 284.2L522.13 284.7L522.18 285.2L522.23 285.71L522.26 286.22L522.29 286.74L522.31 287.26L522.32 287.79L522.33 288.32L522.32 288.85L522.31 289.38L522.29 289.91L522.26 290.42L522.23 290.94L522.18 291.45L522.13 291.95L522.07 292.45L522 292.94L521.92 293.43L521.83 293.91L521.74 294.39L521.63 294.87L521.52 295.34L521.4 295.8L521.28 296.26L521.14 296.71L521 297.16L520.84 297.6L520.68 298.04L520.51 298.47L520.34 298.9L520.15 299.33L519.96 299.74L519.76 300.16L519.55 300.57L519.33 300.97L519.1 301.37L518.87 301.76L518.63 302.15L518.38 302.53L518.12 302.91L517.85 303.28L517.57 303.65L517.29 304.02L517 304.37L516.7 304.73L516.39 305.07L516.07 305.42L515.75 305.76L515.42 306.09L515.08 306.41L514.75 306.73L514.41 307.03L514.07 307.33L513.72 307.62L513.38 307.9L513.03 308.17L512.67 308.44L512.32 308.69L511.96 308.94L511.6 309.18L511.24 309.41L510.87 309.63L510.5 309.85L510.13 310.05L509.76 310.25L509.38 310.44L509 310.62L508.62 310.79L508.23 310.95L507.85 311.11L507.45 311.26L507.06 311.4L506.67 311.53L506.27 311.65L505.87 311.76L505.46 311.87L505.05 311.96L504.65 312.05L504.23 312.13L503.82 312.2L503.4 312.26L502.98 312.32L502.56 312.36L502.13 312.4L501.7 312.43L501.27 312.45L500.84 312.46L500.4 312.47L499.96 312.46L499.53 312.45L499.1 312.43L498.67 312.39L498.24 312.35L497.81 312.3L497.39 312.23L496.97 312.16L496.55 312.08L496.13 311.99L495.72 311.89L495.31 311.78L494.9 311.66L494.49 311.53L494.08 311.39L493.68 311.24L493.28 311.08L492.88 310.92L492.48 310.74L492.09 310.55L491.69 310.35L491.3 310.15L490.92 309.93L490.53 309.71L490.15 309.47L489.77 309.23L489.39 308.97L489.01 308.71L488.64 308.44L488.27 308.15L487.9 307.86L487.53 307.56L487.16 307.25L486.8 306.93L486.44 306.6L486.08 306.26L485.72 305.91L485.37 305.55L485.02 305.18L484.67 304.8L484.67 311.77L474.9 311.77L474.9 247.09L484.67 247.09L484.67 273.5L484.96 273.07ZM497.08 273.3L496.46 273.36L495.85 273.46L495.25 273.58L494.66 273.73L494.09 273.91L493.52 274.11L492.97 274.34L492.43 274.6L491.9 274.89L491.38 275.2L490.87 275.54L490.37 275.9L489.89 276.3L489.41 276.72L488.95 277.17L488.5 277.64L488.07 278.14L487.66 278.65L487.28 279.17L486.92 279.71L486.58 280.26L486.27 280.82L485.99 281.4L485.73 282L485.49 282.6L485.28 283.22L485.1 283.85L484.94 284.5L484.8 285.16L484.69 285.83L484.6 286.52L484.54 287.22L484.5 287.94L484.49 288.67L484.5 289.4L484.54 290.11L484.6 290.81L484.69 291.5L484.8 292.17L484.94 292.82L485.1 293.46L485.28 294.09L485.49 294.7L485.73 295.29L485.99 295.87L486.27 296.44L486.58 296.99L486.92 297.53L487.28 298.05L487.66 298.55L488.07 299.05L488.5 299.52L488.95 299.98L489.41 300.41L489.89 300.82L490.37 301.19L490.86 301.55L491.37 301.87L491.88 302.17L492.41 302.45L492.95 302.69L493.5 302.92L494.05 303.11L494.62 303.28L495.2 303.43L495.79 303.54L496.4 303.63L497.01 303.7L497.63 303.74L498.27 303.75L498.9 303.74L499.53 303.7L500.14 303.63L500.75 303.54L501.35 303.43L501.94 303.29L502.52 303.12L503.09 302.93L503.65 302.71L504.2 302.46L504.74 302.19L505.28 301.89L505.8 301.57L506.32 301.22L506.83 300.85L507.32 300.45L507.81 300.02L508.29 299.57L508.75 299.09L509.19 298.61L509.6 298.1L509.98 297.58L510.33 297.05L510.66 296.5L510.97 295.94L511.24 295.36L511.49 294.76L511.72 294.15L511.92 293.52L512.09 292.88L512.23 292.23L512.35 291.55L512.44 290.87L512.51 290.16L512.55 289.45L512.56 288.71L512.55 287.98L512.51 287.26L512.45 286.55L512.36 285.86L512.24 285.18L512.1 284.52L511.93 283.87L511.74 283.23L511.52 282.61L511.27 282L511 281.41L510.7 280.83L510.38 280.26L510.03 279.71L509.66 279.17L509.26 278.65L508.83 278.14L508.38 277.64L507.91 277.17L507.43 276.72L506.94 276.3L506.44 275.9L505.93 275.54L505.4 275.2L504.87 274.89L504.33 274.6L503.78 274.34L503.22 274.11L502.64 273.91L502.06 273.73L501.47 273.58L500.87 273.46L500.25 273.36L499.63 273.3L499 273.25L498.35 273.24L497.71 273.25L497.08 273.3Z" id="e1xlrhYxlG"></path><path d="M552.39 264.73L553.06 264.76L553.73 264.82L554.4 264.89L555.05 264.97L555.7 265.07L556.34 265.19L556.97 265.32L557.59 265.47L558.21 265.63L558.82 265.8L559.42 266L560.01 266.2L560.6 266.43L561.17 266.67L561.74 266.92L562.31 267.19L562.86 267.48L563.41 267.78L563.94 268.09L564.48 268.42L565 268.77L565.51 269.13L566.02 269.51L566.52 269.9L567.01 270.31L567.5 270.73L567.97 271.17L568.44 271.63L568.9 272.09L569.34 272.56L569.77 273.04L570.18 273.53L570.57 274.02L570.95 274.52L571.32 275.03L571.67 275.54L572 276.06L572.32 276.59L572.62 277.13L572.91 277.67L573.18 278.21L573.43 278.77L573.67 279.33L573.9 279.9L574.11 280.48L574.3 281.06L574.48 281.65L574.64 282.24L574.79 282.85L574.92 283.46L575.04 284.07L575.14 284.7L575.23 285.33L575.29 285.96L575.35 286.61L575.39 287.26L575.41 287.92L575.42 288.58L575.41 289.25L575.39 289.91L575.35 290.56L575.29 291.2L575.23 291.84L575.14 292.47L575.04 293.09L574.92 293.71L574.79 294.32L574.64 294.92L574.48 295.52L574.3 296.11L574.11 296.69L573.9 297.26L573.67 297.83L573.43 298.4L573.18 298.95L572.91 299.5L572.62 300.04L572.32 300.57L572 301.1L571.67 301.62L571.32 302.14L570.95 302.64L570.57 303.14L570.18 303.64L569.77 304.12L569.34 304.6L568.9 305.07L568.44 305.54L567.98 305.99L567.5 306.43L567.01 306.86L566.52 307.26L566.02 307.66L565.51 308.03L565 308.4L564.48 308.74L563.94 309.07L563.41 309.39L562.86 309.69L562.31 309.97L561.74 310.24L561.17 310.5L560.6 310.74L560.01 310.96L559.42 311.17L558.82 311.36L558.21 311.54L557.59 311.7L556.97 311.85L556.34 311.98L555.7 312.09L555.05 312.19L554.4 312.28L553.73 312.35L553.06 312.4L552.39 312.44L551.7 312.46L551.01 312.47L550.31 312.46L549.63 312.44L548.95 312.4L548.28 312.35L547.62 312.28L546.96 312.19L546.31 312.09L545.67 311.98L545.04 311.85L544.42 311.7L543.8 311.54L543.19 311.36L542.59 311.17L542 310.96L541.42 310.74L540.84 310.5L540.27 310.24L539.71 309.97L539.15 309.69L538.61 309.39L538.07 309.07L537.54 308.74L537.01 308.4L536.5 308.03L535.99 307.66L535.49 307.26L535 306.86L534.52 306.43L534.04 305.99L533.57 305.54L533.11 305.07L532.67 304.6L532.24 304.12L531.83 303.63L531.44 303.14L531.06 302.64L530.69 302.13L530.35 301.62L530.01 301.1L529.69 300.57L529.39 300.04L529.11 299.5L528.83 298.95L528.58 298.39L528.34 297.83L528.11 297.26L527.91 296.69L527.71 296.11L527.53 295.52L527.37 294.92L527.22 294.32L527.09 293.71L526.98 293.09L526.87 292.47L526.79 291.84L526.72 291.2L526.67 290.56L526.63 289.91L526.6 289.25L526.6 288.58L526.6 287.92L526.63 287.26L526.67 286.61L526.72 285.96L526.79 285.33L526.87 284.7L526.98 284.07L527.09 283.46L527.22 282.85L527.37 282.24L527.53 281.65L527.71 281.06L527.9 280.48L528.11 279.9L528.34 279.33L528.58 278.77L528.83 278.21L529.11 277.67L529.39 277.13L529.69 276.59L530.01 276.06L530.35 275.54L530.69 275.03L531.06 274.52L531.44 274.02L531.83 273.53L532.24 273.04L532.67 272.56L533.11 272.09L533.57 271.63L534.04 271.17L534.52 270.73L535 270.31L535.49 269.9L535.99 269.51L536.5 269.13L537.01 268.77L537.54 268.42L538.07 268.09L538.61 267.78L539.15 267.47L539.71 267.19L540.27 266.92L540.84 266.67L541.42 266.43L542 266.2L542.59 266L543.19 265.8L543.8 265.63L544.42 265.47L545.04 265.32L545.67 265.19L546.31 265.07L546.96 264.97L547.62 264.89L548.28 264.82L548.95 264.76L549.63 264.73L550.31 264.7L551.01 264.7L551.7 264.7L552.39 264.73ZM549.62 273.47L548.95 273.53L548.29 273.62L547.64 273.74L547.01 273.88L546.39 274.05L545.79 274.25L545.2 274.47L544.62 274.72L544.06 274.99L543.51 275.29L542.97 275.62L542.45 275.97L541.94 276.35L541.45 276.76L540.97 277.19L540.5 277.64L540.06 278.12L539.63 278.61L539.24 279.12L538.87 279.65L538.52 280.18L538.2 280.74L537.91 281.31L537.64 281.89L537.4 282.49L537.18 283.11L536.99 283.74L536.82 284.39L536.68 285.05L536.57 285.72L536.48 286.42L536.42 287.12L536.38 287.85L536.36 288.58L536.38 289.32L536.42 290.04L536.48 290.75L536.57 291.44L536.68 292.12L536.82 292.78L536.99 293.43L537.18 294.06L537.4 294.68L537.64 295.28L537.91 295.86L538.2 296.43L538.52 296.98L538.87 297.52L539.24 298.05L539.63 298.55L540.06 299.05L540.5 299.52L540.97 299.98L541.45 300.41L541.94 300.82L542.45 301.19L542.97 301.55L543.51 301.87L544.06 302.17L544.62 302.45L545.2 302.69L545.79 302.92L546.39 303.11L547.01 303.28L547.64 303.43L548.29 303.54L548.95 303.63L549.62 303.7L550.31 303.74L551.01 303.75L551.71 303.74L552.39 303.7L553.07 303.63L553.73 303.54L554.37 303.43L555 303.28L555.62 303.11L556.22 302.92L556.82 302.69L557.39 302.45L557.96 302.17L558.5 301.87L559.04 301.55L559.56 301.19L560.07 300.82L560.56 300.41L561.05 299.98L561.51 299.52L561.96 299.05L562.38 298.55L562.78 298.05L563.15 297.52L563.49 296.98L563.81 296.43L564.11 295.86L564.38 295.28L564.62 294.68L564.84 294.06L565.03 293.43L565.2 292.78L565.34 292.12L565.45 291.44L565.54 290.75L565.6 290.04L565.64 289.32L565.66 288.58L565.64 287.85L565.6 287.12L565.54 286.42L565.45 285.72L565.34 285.05L565.2 284.39L565.03 283.74L564.84 283.11L564.62 282.49L564.38 281.89L564.11 281.31L563.81 280.74L563.49 280.18L563.15 279.65L562.78 279.12L562.38 278.61L561.96 278.12L561.51 277.64L561.05 277.19L560.56 276.76L560.07 276.35L559.56 275.97L559.04 275.62L558.5 275.29L557.96 274.99L557.39 274.72L556.82 274.47L556.22 274.25L555.62 274.05L555 273.89L554.37 273.74L553.73 273.62L553.07 273.53L552.39 273.47L551.71 273.43L551.01 273.42L550.31 273.43L549.62 273.47Z" id="c1O5FmXQwL"></path><path d="M596.08 279.26C593.64 282.39 592.42 286.61 592.42 291.9C592.42 293.22 592.42 299.85 592.42 311.77L582.65 311.77L582.65 265.39L592.42 265.39C592.42 270.99 592.42 274.1 592.42 274.72C593.99 271.82 596.13 269.43 598.83 267.58C601.53 265.71 604.39 264.76 607.41 264.7C607.42 265.68 607.49 273.56 607.5 274.55C607.33 274.55 607.15 274.55 606.98 274.55C602.15 274.55 598.52 276.12 596.08 279.26Z" id="a2sb4mOuwq"></path><path d="M52.26 264.63L52.71 264.65L53.16 264.68L53.6 264.73L54.03 264.78L54.46 264.84L54.89 264.91L55.32 264.99L55.73 265.08L56.15 265.18L56.56 265.29L56.97 265.41L57.37 265.54L57.76 265.68L58.16 265.82L58.55 265.98L58.93 266.14L59.31 266.32L59.69 266.5L60.06 266.7L60.43 266.9L60.79 267.12L61.15 267.34L61.5 267.57L61.85 267.81L62.2 268.06L62.54 268.33L62.88 268.6L63.21 268.88L63.54 269.16L63.86 269.46L64.18 269.77L64.5 270.09L64.81 270.42L65.12 270.75L65.42 271.1L65.72 271.45L66.01 271.82L66.3 272.19L66.3 265.31L76.07 265.31L76.07 305.76L76.06 306.37L76.05 306.97L76.03 307.57L76 308.15L75.96 308.73L75.92 309.31L75.86 309.87L75.8 310.43L75.73 310.98L75.65 311.52L75.56 312.05L75.47 312.58L75.36 313.1L75.25 313.61L75.13 314.11L75 314.61L74.86 315.09L74.72 315.57L74.56 316.05L74.4 316.51L74.23 316.97L74.05 317.42L73.86 317.86L73.66 318.29L73.46 318.72L73.25 319.14L73.03 319.55L72.8 319.95L72.56 320.35L72.31 320.74L72.06 321.12L71.8 321.49L71.53 321.85L71.25 322.21L70.96 322.56L70.67 322.9L70.36 323.24L70.05 323.56L69.73 323.88L69.4 324.19L69.06 324.5L68.72 324.79L68.38 325.08L68.03 325.36L67.67 325.63L67.31 325.9L66.95 326.16L66.58 326.41L66.2 326.65L65.83 326.88L65.44 327.11L65.05 327.33L64.66 327.54L64.26 327.74L63.86 327.94L63.46 328.13L63.04 328.31L62.63 328.48L62.21 328.65L61.78 328.8L61.35 328.95L60.91 329.1L60.47 329.23L60.03 329.36L59.58 329.48L59.12 329.59L58.67 329.69L58.2 329.79L57.73 329.88L57.26 329.96L56.78 330.03L56.3 330.09L55.81 330.15L55.32 330.2L54.82 330.24L54.32 330.28L53.81 330.31L53.3 330.32L52.79 330.34L52.27 330.34L51.74 330.34L51.22 330.32L50.71 330.3L50.19 330.27L49.68 330.24L49.17 330.19L48.67 330.14L48.16 330.08L47.66 330.01L47.16 329.93L46.66 329.85L46.17 329.75L45.68 329.65L45.19 329.54L44.7 329.42L44.22 329.29L43.74 329.16L43.26 329.02L42.78 328.87L42.31 328.71L41.83 328.54L41.36 328.36L40.9 328.18L40.43 327.99L39.97 327.79L39.51 327.58L39.06 327.36L38.6 327.14L38.15 326.9L37.7 326.66L37.25 326.41L36.81 326.16L36.37 325.89L35.93 325.62L35.49 325.33L35.06 325.04L34.63 324.75L34.2 324.44L33.77 324.12L33.35 323.8L37.97 316.39L38.31 316.65L38.65 316.89L38.99 317.13L39.33 317.37L39.67 317.6L40.01 317.82L40.35 318.03L40.69 318.24L41.04 318.45L41.38 318.64L41.72 318.83L42.06 319.02L42.4 319.19L42.74 319.36L43.09 319.53L43.43 319.68L43.77 319.84L44.12 319.98L44.46 320.12L44.8 320.25L45.14 320.38L45.49 320.49L45.83 320.61L46.18 320.71L46.52 320.81L46.86 320.91L47.21 320.99L47.55 321.07L47.9 321.15L48.24 321.22L48.59 321.28L48.93 321.33L49.28 321.38L49.62 321.42L49.97 321.46L50.31 321.49L50.66 321.51L51.01 321.52L51.35 321.53L51.7 321.54L52.04 321.53L52.38 321.53L52.72 321.52L53.06 321.5L53.39 321.48L53.71 321.46L54.04 321.43L54.36 321.39L54.67 321.36L54.98 321.31L55.29 321.27L55.6 321.22L55.9 321.16L56.2 321.1L56.49 321.03L56.78 320.97L57.07 320.89L57.35 320.81L57.63 320.73L57.91 320.64L58.18 320.55L58.45 320.46L58.72 320.36L58.98 320.25L59.24 320.14L59.49 320.03L59.74 319.91L59.99 319.79L60.24 319.66L60.48 319.53L60.71 319.39L60.95 319.25L61.18 319.1L61.4 318.95L61.63 318.8L61.84 318.64L62.06 318.48L62.27 318.31L62.48 318.14L62.68 317.96L62.88 317.78L63.08 317.59L63.27 317.4L63.45 317.21L63.63 317L63.81 316.79L63.98 316.58L64.14 316.36L64.3 316.14L64.46 315.91L64.61 315.67L64.75 315.43L64.89 315.19L65.03 314.94L65.15 314.68L65.28 314.42L65.4 314.15L65.51 313.88L65.62 313.6L65.73 313.32L65.82 313.03L65.92 312.74L66.01 312.44L66.09 312.14L66.17 311.83L66.24 311.51L66.31 311.19L66.37 310.86L66.43 310.53L66.49 310.2L66.53 309.86L66.58 309.51L66.61 309.16L66.65 308.8L66.68 308.44L66.7 308.07L66.72 307.69L66.73 307.32L66.74 306.93L66.74 306.54L66.74 300.61L66.63 300.82L66.52 301.02L66.4 301.22L66.28 301.42L66.16 301.61L66.04 301.81L65.92 302L65.79 302.19L65.66 302.37L65.53 302.56L65.4 302.74L65.26 302.92L65.12 303.1L64.98 303.28L64.84 303.45L64.69 303.63L64.55 303.8L64.4 303.97L64.24 304.13L64.09 304.3L63.93 304.46L63.77 304.62L63.61 304.78L63.45 304.93L63.28 305.09L63.11 305.24L62.94 305.39L62.77 305.54L62.59 305.68L62.41 305.83L62.23 305.97L62.05 306.11L61.87 306.25L61.68 306.38L61.49 306.52L61.3 306.65L61.1 306.78L60.91 306.9L60.71 307.03L60.51 307.15L60.3 307.27L60.1 307.39L59.89 307.5L59.69 307.62L59.48 307.72L59.27 307.83L59.06 307.93L58.84 308.03L58.63 308.13L58.42 308.22L58.2 308.31L57.98 308.4L57.76 308.48L57.55 308.56L57.32 308.64L57.1 308.72L56.88 308.79L56.65 308.86L56.43 308.92L56.2 308.98L55.97 309.04L55.74 309.1L55.51 309.15L55.28 309.2L55.05 309.25L54.81 309.3L54.58 309.34L54.34 309.37L54.1 309.41L53.86 309.44L53.62 309.47L53.38 309.5L53.13 309.52L52.89 309.54L52.64 309.56L52.4 309.57L52.15 309.58L51.9 309.59L51.65 309.59L51.39 309.59L50.94 309.59L50.48 309.58L50.03 309.56L49.58 309.53L49.14 309.49L48.7 309.45L48.26 309.4L47.83 309.34L47.4 309.27L46.98 309.19L46.56 309.11L46.15 309.01L45.74 308.91L45.33 308.8L44.93 308.69L44.53 308.56L44.14 308.43L43.75 308.29L43.36 308.14L42.98 307.98L42.61 307.82L42.23 307.64L41.86 307.46L41.5 307.27L41.14 307.07L40.78 306.87L40.43 306.65L40.08 306.43L39.74 306.2L39.4 305.97L39.06 305.72L38.73 305.46L38.4 305.2L38.08 304.93L37.76 304.65L37.44 304.37L37.13 304.07L36.83 303.77L36.52 303.46L36.23 303.14L35.93 302.82L35.65 302.49L35.37 302.16L35.1 301.82L34.84 301.48L34.58 301.14L34.33 300.79L34.09 300.44L33.86 300.08L33.63 299.72L33.41 299.36L33.2 298.99L33 298.62L32.8 298.24L32.61 297.86L32.43 297.48L32.26 297.09L32.09 296.7L31.93 296.31L31.78 295.91L31.64 295.5L31.5 295.1L31.37 294.69L31.25 294.27L31.13 293.85L31.02 293.43L30.92 293L30.83 292.57L30.75 292.14L30.67 291.7L30.6 291.26L30.54 290.81L30.48 290.36L30.43 289.91L30.39 289.45L30.36 288.99L30.33 288.52L30.31 288.05L30.3 287.58L30.3 287.1L30.3 286.62L30.31 286.15L30.33 285.68L30.36 285.21L30.39 284.75L30.43 284.3L30.48 283.84L30.54 283.39L30.6 282.95L30.67 282.5L30.75 282.06L30.83 281.63L30.92 281.2L31.02 280.77L31.13 280.35L31.25 279.93L31.37 279.52L31.5 279.11L31.64 278.7L31.78 278.3L31.93 277.9L32.09 277.5L32.26 277.11L32.43 276.72L32.61 276.34L32.8 275.96L33 275.59L33.2 275.21L33.41 274.85L33.63 274.48L33.86 274.12L34.09 273.77L34.33 273.41L34.58 273.07L34.84 272.72L35.1 272.38L35.37 272.05L35.65 271.71L35.93 271.38L36.23 271.06L36.52 270.74L36.83 270.43L37.13 270.13L37.44 269.83L37.76 269.55L38.08 269.27L38.4 269L38.73 268.74L39.06 268.48L39.39 268.24L39.73 268L40.08 267.77L40.43 267.55L40.78 267.33L41.13 267.13L41.49 266.93L41.86 266.74L42.22 266.56L42.6 266.39L42.97 266.22L43.35 266.06L43.74 265.91L44.12 265.77L44.52 265.64L44.91 265.52L45.31 265.4L45.72 265.29L46.13 265.19L46.54 265.1L46.96 265.01L47.38 264.93L47.8 264.87L48.23 264.81L48.67 264.75L49.1 264.71L49.55 264.67L49.99 264.64L50.44 264.62L50.89 264.61L51.35 264.61L51.81 264.61L52.26 264.63ZM51.51 272.52L50.86 272.59L50.22 272.69L49.59 272.83L48.99 272.99L48.4 273.18L47.83 273.4L47.27 273.65L46.73 273.93L46.21 274.24L45.7 274.58L45.21 274.95L44.74 275.35L44.28 275.78L43.84 276.24L43.42 276.73L43.01 277.23L42.63 277.75L42.28 278.28L41.95 278.82L41.65 279.36L41.36 279.92L41.11 280.49L40.88 281.06L40.67 281.65L40.49 282.25L40.33 282.86L40.19 283.47L40.08 284.1L40 284.74L39.94 285.38L39.9 286.04L39.89 286.71L39.9 287.37L39.94 288.03L40 288.68L40.08 289.31L40.19 289.93L40.33 290.54L40.49 291.15L40.67 291.74L40.88 292.32L41.11 292.88L41.36 293.44L41.65 293.99L41.95 294.52L42.28 295.05L42.64 295.56L43.01 296.07L43.42 296.56L43.84 297.03L44.28 297.48L44.74 297.89L45.21 298.28L45.71 298.64L46.21 298.97L46.74 299.27L47.28 299.54L47.84 299.78L48.42 300L49.01 300.18L49.62 300.34L50.24 300.47L50.89 300.57L51.55 300.64L52.22 300.69L52.92 300.7L53.61 300.69L54.29 300.65L54.96 300.58L55.6 300.48L56.23 300.35L56.85 300.2L57.45 300.02L58.04 299.81L58.61 299.58L59.16 299.31L59.7 299.02L60.22 298.7L60.73 298.35L61.22 297.98L61.69 297.58L62.15 297.15L62.6 296.69L63.02 296.21L63.42 295.72L63.79 295.21L64.13 294.69L64.45 294.16L64.75 293.62L65.02 293.06L65.26 292.48L65.48 291.89L65.67 291.29L65.84 290.68L65.98 290.05L66.1 289.41L66.19 288.76L66.25 288.09L66.29 287.4L66.3 286.71L66.29 286.01L66.25 285.33L66.19 284.66L66.09 284L65.98 283.35L65.83 282.72L65.67 282.1L65.47 281.49L65.25 280.9L65 280.32L64.73 279.75L64.43 279.19L64.11 278.64L63.76 278.11L63.38 277.59L62.98 277.09L62.55 276.59L62.1 276.12L61.64 275.68L61.16 275.26L60.67 274.88L60.16 274.52L59.63 274.19L59.09 273.89L58.54 273.62L57.97 273.37L57.39 273.16L56.79 272.97L56.17 272.81L55.54 272.69L54.9 272.58L54.24 272.51L53.56 272.47L52.87 272.46L52.18 272.47L51.51 272.52Z" id="a26sm52iAV"></path><path d="M109.09 264.64L109.76 264.68L110.44 264.73L111.1 264.8L111.75 264.89L112.4 264.99L113.04 265.1L113.67 265.23L114.29 265.38L114.91 265.54L115.52 265.72L116.12 265.91L116.71 266.12L117.3 266.34L117.88 266.58L118.44 266.83L119.01 267.1L119.56 267.39L120.11 267.69L120.65 268L121.18 268.34L121.7 268.68L122.21 269.04L122.72 269.42L123.22 269.81L123.71 270.22L124.2 270.65L124.68 271.08L125.14 271.54L125.6 272L126.04 272.48L126.47 272.96L126.88 273.44L127.28 273.94L127.66 274.44L128.02 274.94L128.37 275.46L128.7 275.98L129.02 276.5L129.32 277.04L129.61 277.58L129.88 278.13L130.14 278.68L130.38 279.24L130.6 279.81L130.81 280.39L131 280.97L131.18 281.56L131.34 282.16L131.49 282.76L131.62 283.37L131.74 283.99L131.84 284.61L131.93 285.24L132 285.88L132.05 286.52L132.09 287.17L132.11 287.83L132.12 288.5L132.11 289.16L132.09 289.82L132.05 290.47L132 291.11L131.93 291.75L131.84 292.38L131.74 293.01L131.62 293.62L131.49 294.23L131.34 294.83L131.18 295.43L131 296.02L130.81 296.6L130.6 297.18L130.38 297.75L130.14 298.31L129.88 298.86L129.61 299.41L129.32 299.95L129.02 300.49L128.7 301.01L128.37 301.53L128.02 302.05L127.66 302.55L127.28 303.05L126.88 303.55L126.47 304.03L126.04 304.51L125.6 304.98L125.14 305.45L124.68 305.9L124.2 306.34L123.71 306.77L123.22 307.17L122.72 307.57L122.22 307.94L121.7 308.31L121.18 308.65L120.65 308.98L120.11 309.3L119.56 309.6L119.01 309.89L118.45 310.16L117.88 310.41L117.3 310.65L116.71 310.87L116.12 311.08L115.52 311.27L114.91 311.45L114.3 311.61L113.67 311.76L113.04 311.89L112.4 312L111.75 312.1L111.1 312.19L110.44 312.26L109.76 312.31L109.09 312.35L108.4 312.37L107.71 312.38L107.01 312.37L106.33 312.35L105.65 312.31L104.98 312.26L104.32 312.19L103.66 312.1L103.02 312L102.38 311.89L101.75 311.76L101.12 311.61L100.51 311.45L99.9 311.27L99.3 311.08L98.7 310.87L98.12 310.65L97.54 310.41L96.97 310.16L96.41 309.89L95.86 309.6L95.31 309.3L94.77 308.98L94.24 308.65L93.72 308.31L93.2 307.94L92.7 307.57L92.2 307.17L91.7 306.77L91.22 306.34L90.74 305.9L90.27 305.45L89.82 304.98L89.37 304.51L88.95 304.03L88.54 303.55L88.14 303.05L87.76 302.55L87.4 302.05L87.05 301.53L86.72 301.01L86.4 300.49L86.1 299.95L85.81 299.41L85.54 298.86L85.28 298.31L85.04 297.75L84.82 297.18L84.61 296.6L84.41 296.02L84.24 295.43L84.07 294.83L83.93 294.23L83.79 293.62L83.68 293.01L83.58 292.38L83.49 291.75L83.42 291.11L83.37 290.47L83.33 289.82L83.31 289.16L83.3 288.5L83.31 287.83L83.33 287.17L83.37 286.52L83.42 285.88L83.49 285.24L83.58 284.61L83.68 283.99L83.79 283.37L83.93 282.76L84.07 282.16L84.24 281.56L84.41 280.97L84.61 280.39L84.82 279.81L85.04 279.24L85.28 278.68L85.54 278.13L85.81 277.58L86.1 277.04L86.4 276.5L86.72 275.98L87.05 275.46L87.4 274.94L87.76 274.44L88.14 273.94L88.54 273.44L88.95 272.96L89.37 272.48L89.82 272L90.27 271.54L90.74 271.08L91.22 270.65L91.7 270.22L92.2 269.81L92.7 269.42L93.2 269.04L93.72 268.68L94.24 268.34L94.77 268L95.31 267.69L95.86 267.39L96.41 267.1L96.97 266.83L97.54 266.58L98.12 266.34L98.7 266.12L99.3 265.91L99.9 265.72L100.51 265.54L101.12 265.38L101.75 265.23L102.38 265.1L103.02 264.99L103.66 264.89L104.32 264.8L104.98 264.73L105.65 264.68L106.33 264.64L107.01 264.62L107.71 264.61L108.4 264.62L109.09 264.64ZM106.32 273.38L105.65 273.44L104.99 273.53L104.34 273.65L103.71 273.8L103.09 273.97L102.49 274.16L101.9 274.38L101.32 274.63L100.76 274.91L100.21 275.21L99.68 275.53L99.15 275.88L98.65 276.26L98.15 276.67L97.67 277.1L97.21 277.55L96.76 278.03L96.34 278.52L95.94 279.03L95.57 279.56L95.22 280.1L94.9 280.65L94.61 281.22L94.34 281.8L94.1 282.4L93.88 283.02L93.69 283.65L93.52 284.3L93.38 284.96L93.27 285.63L93.18 286.33L93.11 287.03L93.08 287.76L93.06 288.5L93.08 289.23L93.11 289.96L93.18 290.66L93.27 291.36L93.38 292.03L93.52 292.69L93.69 293.34L93.88 293.97L94.1 294.59L94.34 295.19L94.61 295.77L94.9 296.34L95.22 296.89L95.57 297.43L95.94 297.96L96.34 298.46L96.76 298.96L97.21 299.43L97.67 299.89L98.15 300.32L98.65 300.73L99.15 301.11L99.68 301.46L100.21 301.78L100.76 302.09L101.32 302.36L101.9 302.61L102.49 302.83L103.1 303.02L103.71 303.19L104.34 303.34L104.99 303.46L105.65 303.55L106.32 303.61L107.01 303.65L107.71 303.66L108.41 303.65L109.09 303.61L109.77 303.55L110.43 303.46L111.07 303.34L111.7 303.19L112.32 303.02L112.93 302.83L113.52 302.61L114.09 302.36L114.66 302.09L115.21 301.78L115.74 301.46L116.26 301.11L116.77 300.73L117.27 300.32L117.75 299.89L118.22 299.43L118.66 298.96L119.08 298.46L119.48 297.96L119.85 297.43L120.2 296.89L120.51 296.34L120.81 295.77L121.08 295.19L121.32 294.59L121.54 293.97L121.73 293.34L121.89 292.69L122.04 292.03L122.15 291.36L122.24 290.66L122.3 289.96L122.34 289.23L122.36 288.5L122.34 287.76L122.3 287.03L122.24 286.33L122.15 285.63L122.04 284.96L121.89 284.3L121.73 283.65L121.54 283.02L121.32 282.4L121.08 281.8L120.81 281.22L120.51 280.65L120.2 280.09L119.85 279.56L119.48 279.03L119.08 278.52L118.66 278.03L118.22 277.55L117.75 277.1L117.27 276.67L116.77 276.26L116.26 275.88L115.74 275.53L115.21 275.21L114.66 274.91L114.09 274.63L113.52 274.38L112.93 274.16L112.32 273.97L111.7 273.8L111.07 273.65L110.43 273.53L109.77 273.44L109.09 273.38L108.41 273.34L107.71 273.33L107.01 273.34L106.32 273.38Z" id="fjmJjEG96"></path><path d="M162.09 264.64L162.77 264.68L163.44 264.73L164.1 264.8L164.76 264.89L165.4 264.99L166.04 265.1L166.68 265.23L167.3 265.38L167.91 265.54L168.52 265.72L169.12 265.91L169.72 266.12L170.3 266.34L170.88 266.58L171.45 266.83L172.01 267.1L172.56 267.39L173.11 267.69L173.65 268L174.18 268.34L174.7 268.68L175.22 269.04L175.73 269.42L176.23 269.81L176.72 270.22L177.2 270.65L177.68 271.08L178.15 271.54L178.61 272L179.05 272.48L179.47 272.96L179.88 273.44L180.28 273.94L180.66 274.44L181.02 274.94L181.37 275.46L181.7 275.98L182.02 276.5L182.32 277.04L182.61 277.58L182.88 278.13L183.14 278.68L183.38 279.24L183.6 279.81L183.81 280.39L184.01 280.97L184.18 281.56L184.35 282.16L184.49 282.76L184.63 283.37L184.74 283.99L184.84 284.61L184.93 285.24L185 285.88L185.05 286.52L185.09 287.17L185.11 287.83L185.12 288.5L185.11 289.16L185.09 289.82L185.05 290.47L185 291.11L184.93 291.75L184.84 292.38L184.74 293.01L184.63 293.62L184.49 294.23L184.35 294.83L184.18 295.43L184.01 296.02L183.81 296.6L183.6 297.18L183.38 297.75L183.14 298.31L182.88 298.86L182.61 299.41L182.32 299.95L182.02 300.49L181.7 301.01L181.37 301.53L181.02 302.05L180.66 302.55L180.28 303.05L179.88 303.55L179.47 304.03L179.05 304.51L178.61 304.98L178.15 305.45L177.68 305.9L177.2 306.34L176.72 306.77L176.23 307.17L175.73 307.57L175.22 307.94L174.7 308.31L174.18 308.65L173.65 308.98L173.11 309.3L172.56 309.6L172.01 309.89L171.45 310.16L170.88 310.41L170.3 310.65L169.72 310.87L169.12 311.08L168.52 311.27L167.92 311.45L167.3 311.61L166.68 311.76L166.04 311.89L165.4 312L164.76 312.1L164.1 312.19L163.44 312.26L162.77 312.31L162.09 312.35L161.4 312.37L160.71 312.38L160.02 312.37L159.33 312.35L158.65 312.31L157.98 312.26L157.32 312.19L156.67 312.1L156.02 312L155.38 311.89L154.75 311.76L154.13 311.61L153.51 311.45L152.9 311.27L152.3 311.08L151.71 310.87L151.12 310.65L150.55 310.41L149.98 310.16L149.41 309.89L148.86 309.6L148.31 309.3L147.78 308.98L147.25 308.65L146.72 308.31L146.21 307.94L145.7 307.57L145.2 307.17L144.71 306.77L144.22 306.34L143.75 305.9L143.28 305.45L142.82 304.98L142.38 304.51L141.95 304.03L141.54 303.55L141.15 303.05L140.77 302.55L140.4 302.05L140.05 301.53L139.72 301.01L139.4 300.49L139.1 299.95L138.81 299.41L138.54 298.86L138.29 298.31L138.05 297.75L137.82 297.18L137.61 296.6L137.42 296.02L137.24 295.43L137.08 294.83L136.93 294.23L136.8 293.62L136.68 293.01L136.58 292.38L136.5 291.75L136.43 291.11L136.37 290.47L136.33 289.82L136.31 289.16L136.3 288.5L136.31 287.83L136.33 287.17L136.37 286.52L136.43 285.88L136.5 285.24L136.58 284.61L136.68 283.99L136.8 283.37L136.93 282.76L137.08 282.16L137.24 281.56L137.42 280.97L137.61 280.39L137.82 279.81L138.05 279.24L138.29 278.68L138.54 278.13L138.81 277.58L139.1 277.04L139.4 276.5L139.72 275.98L140.05 275.46L140.4 274.94L140.77 274.44L141.15 273.94L141.54 273.44L141.95 272.96L142.38 272.48L142.82 272L143.28 271.54L143.75 271.08L144.22 270.65L144.71 270.22L145.2 269.81L145.7 269.42L146.21 269.04L146.72 268.68L147.25 268.34L147.78 268L148.31 267.69L148.86 267.39L149.41 267.1L149.98 266.83L150.55 266.58L151.12 266.34L151.71 266.12L152.3 265.91L152.9 265.72L153.51 265.54L154.13 265.38L154.75 265.23L155.38 265.1L156.02 264.99L156.67 264.89L157.32 264.8L157.98 264.73L158.65 264.68L159.33 264.64L160.02 264.62L160.71 264.61L161.4 264.62L162.09 264.64ZM159.33 273.38L158.65 273.44L157.99 273.53L157.35 273.65L156.72 273.8L156.1 273.97L155.49 274.16L154.9 274.38L154.33 274.63L153.76 274.91L153.22 275.21L152.68 275.53L152.16 275.88L151.65 276.26L151.16 276.67L150.67 277.1L150.21 277.55L149.76 278.03L149.34 278.52L148.94 279.03L148.57 279.56L148.23 280.1L147.91 280.65L147.61 281.22L147.34 281.8L147.1 282.4L146.88 283.02L146.69 283.65L146.53 284.3L146.39 284.96L146.27 285.63L146.18 286.33L146.12 287.03L146.08 287.76L146.07 288.5L146.08 289.23L146.12 289.96L146.18 290.66L146.27 291.36L146.39 292.03L146.53 292.69L146.69 293.34L146.88 293.97L147.1 294.59L147.34 295.19L147.61 295.77L147.91 296.34L148.23 296.89L148.57 297.43L148.94 297.96L149.34 298.46L149.76 298.96L150.21 299.43L150.67 299.89L151.16 300.32L151.65 300.73L152.16 301.11L152.68 301.46L153.22 301.78L153.76 302.09L154.33 302.36L154.9 302.61L155.49 302.83L156.1 303.02L156.72 303.19L157.35 303.34L157.99 303.46L158.65 303.55L159.33 303.61L160.01 303.65L160.71 303.66L161.41 303.65L162.1 303.61L162.77 303.55L163.43 303.46L164.08 303.34L164.71 303.19L165.33 303.02L165.93 302.83L166.52 302.61L167.1 302.36L167.66 302.09L168.21 301.78L168.74 301.46L169.27 301.11L169.78 300.73L170.27 300.32L170.75 299.89L171.22 299.43L171.67 298.96L172.09 298.46L172.48 297.96L172.86 297.43L173.2 296.89L173.52 296.34L173.81 295.77L174.08 295.19L174.32 294.59L174.54 293.97L174.73 293.34L174.9 292.69L175.04 292.03L175.15 291.36L175.24 290.66L175.31 289.96L175.35 289.23L175.36 288.5L175.35 287.76L175.31 287.03L175.24 286.33L175.15 285.63L175.04 284.96L174.9 284.3L174.73 283.65L174.54 283.02L174.32 282.4L174.08 281.8L173.81 281.22L173.52 280.65L173.2 280.09L172.86 279.56L172.48 279.03L172.09 278.52L171.67 278.03L171.22 277.55L170.75 277.1L170.27 276.67L169.78 276.26L169.27 275.88L168.74 275.53L168.21 275.21L167.66 274.91L167.1 274.63L166.52 274.38L165.93 274.16L165.33 273.97L164.71 273.8L164.08 273.65L163.43 273.53L162.77 273.44L162.1 273.38L161.41 273.34L160.71 273.33L160.01 273.34L159.33 273.38Z" id="aHJg3QEFd"></path><path d="M227.05 311.68L227.05 304.71L226.78 305.09L226.5 305.46L226.21 305.82L225.92 306.17L225.62 306.51L225.32 306.84L225.01 307.16L224.69 307.47L224.37 307.77L224.04 308.06L223.7 308.35L223.36 308.62L223.01 308.88L222.66 309.14L222.3 309.38L221.93 309.62L221.56 309.84L221.18 310.06L220.8 310.26L220.41 310.46L220.01 310.65L219.6 310.83L219.19 310.99L218.78 311.15L218.36 311.3L217.93 311.44L217.49 311.57L217.05 311.69L216.6 311.8L216.15 311.9L215.69 311.99L215.22 312.07L214.75 312.14L214.27 312.21L213.79 312.26L213.3 312.3L212.8 312.34L212.3 312.36L211.79 312.37L211.27 312.38L210.84 312.38L210.4 312.36L209.97 312.34L209.54 312.31L209.11 312.28L208.68 312.23L208.26 312.18L207.84 312.11L207.43 312.04L207.01 311.97L206.6 311.88L206.2 311.78L205.79 311.68L205.39 311.57L204.99 311.45L204.59 311.32L204.2 311.18L203.81 311.04L203.42 310.89L203.04 310.72L202.65 310.55L202.28 310.38L201.9 310.19L201.53 310L201.15 309.79L200.79 309.58L200.42 309.36L200.06 309.13L199.7 308.9L199.34 308.65L198.99 308.4L198.64 308.14L198.29 307.87L197.94 307.59L197.6 307.31L197.26 307.01L196.93 306.71L196.59 306.4L196.26 306.08L195.93 305.76L195.61 305.42L195.29 305.08L194.99 304.74L194.69 304.39L194.4 304.03L194.12 303.67L193.84 303.31L193.58 302.94L193.32 302.56L193.07 302.18L192.83 301.79L192.6 301.4L192.37 301.01L192.16 300.6L191.95 300.2L191.75 299.79L191.56 299.37L191.37 298.94L191.2 298.52L191.03 298.08L190.87 297.64L190.72 297.2L190.57 296.75L190.44 296.3L190.31 295.84L190.19 295.37L190.08 294.9L189.98 294.43L189.89 293.95L189.8 293.46L189.72 292.97L189.66 292.48L189.59 291.97L189.54 291.47L189.5 290.96L189.46 290.44L189.43 289.92L189.41 289.39L189.4 288.86L189.39 288.32L189.4 287.78L189.41 287.25L189.43 286.72L189.46 286.2L189.5 285.69L189.55 285.18L189.6 284.67L189.66 284.17L189.73 283.68L189.81 283.19L189.9 282.7L190 282.23L190.1 281.75L190.22 281.29L190.34 280.83L190.47 280.37L190.61 279.92L190.75 279.47L190.91 279.03L191.07 278.6L191.24 278.17L191.42 277.75L191.61 277.33L191.81 276.92L192.02 276.51L192.23 276.11L192.45 275.71L192.68 275.32L192.92 274.94L193.17 274.56L193.43 274.18L193.69 273.81L193.96 273.45L194.24 273.09L194.53 272.74L194.83 272.39L195.14 272.05L195.45 271.72L195.77 271.38L196.11 271.06L196.44 270.74L196.78 270.43L197.13 270.13L197.47 269.83L197.82 269.55L198.18 269.27L198.53 269L198.89 268.74L199.26 268.48L199.62 268.24L199.99 268L200.37 267.77L200.74 267.55L201.12 267.33L201.5 267.13L201.89 266.93L202.28 266.74L202.67 266.56L203.06 266.39L203.46 266.22L203.86 266.06L204.27 265.91L204.68 265.77L205.09 265.64L205.5 265.51L205.92 265.4L206.34 265.29L206.76 265.19L207.19 265.1L207.62 265.01L208.05 264.93L208.49 264.87L208.93 264.8L209.37 264.75L209.82 264.71L210.27 264.67L210.72 264.64L211.18 264.62L211.64 264.61L212.1 264.61L212.56 264.61L213.02 264.63L213.47 264.65L213.92 264.69L214.37 264.73L214.81 264.78L215.24 264.85L215.67 264.92L216.1 265L216.52 265.1L216.93 265.2L217.35 265.31L217.75 265.44L218.16 265.57L218.56 265.71L218.95 265.86L219.34 266.02L219.73 266.2L220.11 266.38L220.48 266.57L220.85 266.77L221.22 266.98L221.58 267.2L221.94 267.43L222.29 267.67L222.64 267.92L222.99 268.18L223.33 268.45L223.66 268.73L223.99 269.02L224.32 269.32L224.64 269.63L224.96 269.95L225.27 270.28L225.58 270.62L225.88 270.96L226.18 271.32L226.48 271.69L226.77 272.07L227.05 272.46L227.05 247L236.82 247L236.82 311.68L227.05 311.68ZM212.09 273.21L211.47 273.28L210.85 273.37L210.25 273.5L209.66 273.65L209.07 273.82L208.5 274.03L207.94 274.26L207.39 274.52L206.85 274.81L206.32 275.13L205.79 275.47L205.28 275.84L204.78 276.24L204.29 276.67L203.81 277.12L203.34 277.6L202.89 278.1L202.46 278.61L202.06 279.14L201.69 279.68L201.34 280.24L201.02 280.81L200.72 281.39L200.45 281.99L200.2 282.6L199.98 283.22L199.79 283.86L199.62 284.51L199.48 285.18L199.36 285.86L199.27 286.55L199.21 287.26L199.17 287.98L199.16 288.71L199.17 289.45L199.21 290.16L199.27 290.87L199.37 291.55L199.49 292.23L199.63 292.88L199.8 293.52L200 294.15L200.23 294.76L200.48 295.36L200.75 295.94L201.06 296.5L201.39 297.05L201.74 297.58L202.12 298.1L202.53 298.61L202.97 299.09L203.43 299.57L203.91 300.02L204.4 300.44L204.89 300.84L205.4 301.22L205.92 301.57L206.44 301.89L206.98 302.19L207.52 302.46L208.07 302.71L208.63 302.92L209.2 303.12L209.78 303.29L210.37 303.43L210.97 303.55L211.58 303.64L212.19 303.7L212.82 303.74L213.45 303.75L214.09 303.74L214.71 303.7L215.32 303.63L215.92 303.54L216.52 303.43L217.1 303.28L217.67 303.11L218.22 302.92L218.77 302.69L219.31 302.45L219.84 302.17L220.35 301.87L220.86 301.55L221.35 301.19L221.83 300.82L222.3 300.41L222.77 299.98L223.22 299.52L223.65 299.05L224.06 298.55L224.44 298.05L224.8 297.53L225.14 296.99L225.44 296.44L225.73 295.87L225.99 295.29L226.22 294.7L226.43 294.09L226.62 293.46L226.78 292.82L226.92 292.17L227.03 291.5L227.12 290.81L227.18 290.11L227.21 289.4L227.23 288.67L227.21 287.94L227.18 287.22L227.12 286.52L227.03 285.83L226.92 285.16L226.78 284.5L226.62 283.85L226.43 283.21L226.22 282.59L225.99 281.98L225.73 281.39L225.44 280.81L225.14 280.24L224.8 279.68L224.44 279.14L224.06 278.61L223.65 278.1L223.22 277.6L222.77 277.12L222.3 276.67L221.83 276.24L221.35 275.84L220.85 275.47L220.34 275.13L219.82 274.81L219.29 274.52L218.75 274.26L218.2 274.03L217.63 273.82L217.06 273.65L216.47 273.5L215.87 273.37L215.26 273.28L214.64 273.21L214.01 273.17L213.37 273.15L212.72 273.17L212.09 273.21Z" id="a2MT3O3bFc"></path><path d="M83.08 326.24C83.38 326.11 84.86 325.48 87.54 324.34C90.19 323.16 91.67 322.51 91.97 322.38C92.28 323.07 100.03 339.07 134.17 339.07C168.48 339.07 177.1 322.89 177.45 322.2C178.32 322.62 185.29 326 186.17 326.42C185.73 327.34 175.05 348.76 134.17 348.76C93.15 348.76 83.47 327.16 83.08 326.24Z" id="b1ObtwA7b"></path><path d="M345.05 365.38L343.74 362.4L337.17 362.4L335.85 365.38L333.49 365.38L339.27 352.26L341.64 352.26L347.42 365.38L345.05 365.38ZM342.84 360.36L340.45 354.95L338.07 360.36L342.84 360.36Z" id="auSw8ePYU"></path><path d="M364.45 362.99C365 362.74 365.58 362.33 366.18 361.76C366.32 361.91 367.46 363.08 367.6 363.22C366.21 364.77 364.53 365.54 362.54 365.54C360.56 365.54 358.91 364.9 357.6 363.62C356.3 362.35 355.64 360.73 355.64 358.78C355.64 356.83 356.31 355.2 357.64 353.89C358.97 352.6 360.66 351.94 362.69 351.94C364.73 351.94 366.42 352.69 367.79 354.2C367.65 354.35 366.52 355.58 366.38 355.74C365.76 355.13 365.16 354.72 364.61 354.48C364.05 354.24 363.4 354.12 362.65 354.12C361.32 354.12 360.2 354.55 359.31 355.41C358.4 356.27 357.95 357.36 357.95 358.7C357.95 360.03 358.4 361.14 359.29 362.04C360.19 362.93 361.25 363.38 362.48 363.38C363.24 363.38 363.89 363.25 364.45 362.99Z" id="b15bxHOUtj"></path><path d="M378.54 352.07L379.2 352.22L379.83 352.43L380.43 352.7L381 353.04L381.55 353.43L382.06 353.89L382.52 354.39L382.93 354.92L383.27 355.48L383.55 356.07L383.77 356.69L383.92 357.34L384.02 358.02L384.05 358.73L384.02 359.44L383.92 360.12L383.77 360.77L383.55 361.39L383.27 361.98L382.93 362.54L382.52 363.07L382.06 363.57L381.55 364.03L381 364.42L380.43 364.76L379.83 365.03L379.2 365.24L378.54 365.4L377.85 365.49L377.14 365.52L376.42 365.49L375.73 365.4L375.07 365.24L374.44 365.03L373.84 364.76L373.27 364.42L372.73 364.03L372.22 363.57L371.75 363.07L371.35 362.54L371.01 361.98L370.73 361.39L370.51 360.77L370.35 360.12L370.26 359.44L370.23 358.73L370.26 358.02L370.35 357.34L370.51 356.69L370.73 356.07L371.01 355.48L371.35 354.92L371.75 354.39L372.22 353.89L372.73 353.43L373.27 353.04L373.84 352.7L374.44 352.43L375.07 352.22L375.73 352.07L376.42 351.97L377.14 351.94L377.85 351.97L378.54 352.07ZM375.67 354.19L375.02 354.47L374.41 354.86L373.85 355.36L373.36 355.94L372.99 356.57L372.72 357.24L372.56 357.96L372.5 358.73L372.56 359.5L372.72 360.22L372.99 360.89L373.36 361.52L373.85 362.1L374.41 362.6L375.02 362.99L375.67 363.27L376.38 363.43L377.14 363.49L377.89 363.43L378.6 363.27L379.26 362.99L379.87 362.6L380.43 362.1L380.92 361.52L381.29 360.89L381.56 360.22L381.72 359.5L381.77 358.73L381.72 357.96L381.56 357.24L381.29 356.57L380.92 355.94L380.43 355.36L379.87 354.86L379.26 354.47L378.6 354.19L377.89 354.02L377.14 353.97L376.38 354.02L375.67 354.19Z" id="dDSl6JGud"></path><path d="M387.9 365.39L387.9 352.26L391.35 352.26L395.31 360.5L399.27 352.26L402.71 352.26L402.71 365.39L400.49 365.39L400.49 355.13L395.91 364.24L394.67 364.24L390.11 355.13L390.11 365.39L387.9 365.39Z" id="aaQXs9eUH"></path><path d="M407.4 365.39L407.4 352.26L410.86 352.26L414.82 360.5L418.78 352.26L422.22 352.26L422.22 365.39L420 365.39L420 355.13L415.42 364.24L414.18 364.24L409.62 355.13L409.62 365.39L407.4 365.39Z" id="a2sNY44Wpu"></path><path d="M432.3 363.43C433.32 363.43 434.14 363.08 434.74 362.38C435.34 361.68 435.64 360.73 435.64 359.53C435.64 359.04 435.64 356.62 435.64 352.26L437.85 352.26C437.85 356.68 437.85 359.13 437.85 359.62C437.85 361.51 437.34 362.97 436.29 363.99C435.25 365.01 433.92 365.52 432.29 365.52C430.67 365.52 429.33 365.01 428.3 363.99C427.26 362.97 426.74 361.51 426.74 359.62C426.74 359.13 426.74 356.68 426.74 352.26L428.95 352.26C428.95 356.62 428.95 359.04 428.95 359.53C428.96 360.73 429.26 361.68 429.85 362.38C430.46 363.08 431.27 363.43 432.3 363.43Z" id="a2Gjp0XRw"></path><path d="M454.43 352.26L454.43 365.39L452.03 365.39L444.59 355.81L444.59 365.39L442.38 365.39L442.38 352.26L444.59 352.26L452.22 362.06L452.22 352.26L454.43 352.26Z" id="c10kyx01Ve"></path><path d="M461.34 352.26L461.34 365.39L459.12 365.39L459.12 352.26L461.34 352.26Z" id="c8fvrSOswt"></path><path d="M470.99 365.39L468.78 365.39L468.78 354.29L464.8 354.29L464.8 352.26L474.97 352.26L474.97 354.29L470.99 354.29L470.99 365.39Z" id="b1Q3Sgd1yR"></path><path d="M481.33 365.39L481.33 360.2L476.45 352.26L478.87 352.26L482.46 358.23L486.05 352.26L488.47 352.26L483.59 360.2L483.59 365.39L481.33 365.39Z" id="b2kvuXELQu"></path><path d="M509.44 352.26L509.44 365.39L507.04 365.39L499.6 355.81L499.6 365.39L497.39 365.39L497.39 352.26L499.6 352.26L507.23 362.06L507.23 352.26L509.44 352.26Z" id="b134ja3Stz"></path><path d="M523.35 354.35L516.35 354.35L516.35 357.82L522.64 357.82L522.64 359.79L516.35 359.79L516.35 363.3L523.57 363.3L523.57 365.39L514.13 365.39L514.13 352.26L523.35 352.26L523.35 354.35Z" id="diKR02ghM"></path><path d="M532.42 365.39L530.2 365.39L530.2 354.29L526.22 354.29L526.22 352.26L536.4 352.26L536.4 354.29L532.42 354.29L532.42 365.39Z" id="e5GPwmqlS"></path><path d="M546.87 352.26L548.86 352.26L551.79 361.71L555.1 352.26L557.48 352.26L552.9 365.39L550.7 365.39L547.94 356.39L547.79 356.39L545.04 365.39L542.84 365.39L538.26 352.26L540.64 352.26L543.95 361.71L546.87 352.26Z" id="ljqdfNUiI"></path><path d="M567.92 352.07L568.58 352.22L569.21 352.43L569.81 352.7L570.38 353.04L570.92 353.43L571.43 353.89L571.9 354.39L572.3 354.92L572.64 355.48L572.92 356.07L573.14 356.69L573.3 357.34L573.39 358.02L573.42 358.73L573.39 359.44L573.3 360.12L573.14 360.77L572.92 361.39L572.64 361.98L572.3 362.54L571.9 363.07L571.43 363.57L570.92 364.03L570.38 364.42L569.81 364.76L569.21 365.03L568.58 365.24L567.92 365.4L567.23 365.49L566.51 365.52L565.79 365.49L565.1 365.4L564.45 365.24L563.82 365.03L563.22 364.76L562.65 364.42L562.1 364.03L561.59 363.57L561.13 363.07L560.72 362.54L560.38 361.98L560.1 361.39L559.88 360.77L559.73 360.12L559.63 359.44L559.6 358.73L559.63 358.02L559.73 357.34L559.88 356.69L560.1 356.07L560.38 355.48L560.72 354.92L561.13 354.39L561.59 353.89L562.1 353.43L562.65 353.04L563.22 352.7L563.82 352.43L564.45 352.22L565.1 352.07L565.79 351.97L566.51 351.94L567.23 351.97L567.92 352.07ZM565.05 354.19L564.39 354.47L563.78 354.86L563.22 355.36L562.73 355.94L562.36 356.57L562.09 357.24L561.93 357.96L561.88 358.73L561.93 359.5L562.09 360.22L562.36 360.89L562.73 361.52L563.22 362.1L563.78 362.6L564.39 362.99L565.05 363.27L565.75 363.43L566.51 363.49L567.27 363.43L567.97 363.27L568.63 362.99L569.24 362.6L569.81 362.1L570.29 361.52L570.67 360.89L570.93 360.22L571.09 359.5L571.15 358.73L571.09 357.96L570.93 357.24L570.66 356.57L570.29 355.94L569.81 355.36L569.24 354.86L568.63 354.47L567.97 354.19L567.27 354.02L566.51 353.97L565.75 354.02L565.05 354.19Z" id="d5SMoDnT9"></path><path d="M583.19 352.3L583.66 352.34L584.11 352.4L584.53 352.47L584.92 352.56L585.28 352.67L585.62 352.8L585.92 352.94L586.2 353.1L586.45 353.28L586.68 353.47L586.88 353.68L587.06 353.92L587.22 354.17L587.36 354.45L587.48 354.74L587.57 355.06L587.65 355.4L587.7 355.75L587.73 356.13L587.74 356.52L587.72 357.09L587.65 357.62L587.53 358.12L587.37 358.57L587.16 358.98L586.9 359.35L586.6 359.68L586.24 359.98L585.85 360.23L585.4 360.44L584.91 360.62L588.35 365.39L585.53 365.39L582.39 360.98L579.48 360.98L579.48 365.39L577.27 365.39L577.27 352.26L582.15 352.26L582.68 352.27L583.19 352.3ZM579.48 358.97L582.25 358.97L583.11 358.93L583.82 358.82L584.38 358.64L584.79 358.39L585.09 358.05L585.3 357.63L585.43 357.11L585.47 356.51L585.43 355.92L585.3 355.43L585.08 355.04L584.78 354.75L584.36 354.54L583.81 354.39L583.12 354.3L582.3 354.27L579.48 354.27L579.48 358.97Z" id="fvRDVW38N"></path><path d="M594.2 352.26L594.2 358.66L600.21 352.26L603.03 352.26L597.75 358.01L603.1 365.39L600.47 365.39L596.12 359.64L594.2 361.71L594.2 365.39L591.99 365.39L591.99 352.26L594.2 352.26Z" id="d1pRESXkr4"></path></defs><g><g><g><use xlink:href="#erTNFyU65" opacity="1" fill="#ffffff" fill-opacity="1"></use><g><use xlink:href="#erTNFyU65" opacity="1" fill-opacity="0" stroke="#000000" stroke-width="1" stroke-opacity="0"></use></g></g><g><use xlink:href="#a3QnyRJuMU" opacity="1" fill="#ffffff" fill-opacity="1"></use><g><use xlink:href="#a3QnyRJuMU" opacity="1" fill-opacity="0" stroke="#000000" stroke-width="1" stroke-opacity="0"></use></g></g><g><use xlink:href="#e1UnTgcdIe" opacity="1" fill="#ffffff" fill-opacity="1"></use><g><use xlink:href="#e1UnTgcdIe" opacity="1" fill-opacity="0" stroke="#000000" stroke-width="1" stroke-opacity="0"></use></g></g><g><use xlink:href="#aCChPA6QT" opacity="1" fill="#ffffff" fill-opacity="1"></use><g><use xlink:href="#aCChPA6QT" opacity="1" fill-opacity="0" stroke="#000000" stroke-width="1" stroke-opacity="0"></use></g></g><g><use xlink:href="#djPSUnDR3" opacity="1" fill="#ffffff" fill-opacity="1"></use><g><use xlink:href="#djPSUnDR3" opacity="1" fill-opacity="0" stroke="#000000" stroke-width="1" stroke-opacity="0"></use></g></g><g><use xlink:href="#a1mD7QCWTG" opacity="1" fill="#ffffff" fill-opacity="1"></use><g><use xlink:href="#a1mD7QCWTG" opacity="1" fill-opacity="0" stroke="#000000" stroke-width="1" stroke-opacity="0"></use></g></g><g><use xlink:href="#e1xlrhYxlG" opacity="1" fill="#ffffff" fill-opacity="1"></use><g><use xlink:href="#e1xlrhYxlG" opacity="1" fill-opacity="0" stroke="#000000" stroke-width="1" stroke-opacity="0"></use></g></g><g><use xlink:href="#c1O5FmXQwL" opacity="1" fill="#ffffff" fill-opacity="1"></use><g><use xlink:href="#c1O5FmXQwL" opacity="1" fill-opacity="0" stroke="#000000" stroke-width="1" stroke-opacity="0"></use></g></g><g><use xlink:href="#a2sb4mOuwq" opacity="1" fill="#ffffff" fill-opacity="1"></use><g><use xlink:href="#a2sb4mOuwq" opacity="1" fill-opacity="0" stroke="#000000" stroke-width="1" stroke-opacity="0"></use></g></g><g><use xlink:href="#a26sm52iAV" opacity="1" fill="#ffffff" fill-opacity="1"></use><g><use xlink:href="#a26sm52iAV" opacity="1" fill-opacity="0" stroke="#000000" stroke-width="1" stroke-opacity="0"></use></g></g><g><use xlink:href="#fjmJjEG96" opacity="1" fill="#ffffff" fill-opacity="1"></use><g><use xlink:href="#fjmJjEG96" opacity="1" fill-opacity="0" stroke="#000000" stroke-width="1" stroke-opacity="0"></use></g></g><g><use xlink:href="#aHJg3QEFd" opacity="1" fill="#ffffff" fill-opacity="1"></use><g><use xlink:href="#aHJg3QEFd" opacity="1" fill-opacity="0" stroke="#000000" stroke-width="1" stroke-opacity="0"></use></g></g><g><use xlink:href="#a2MT3O3bFc" opacity="1" fill="#ffffff" fill-opacity="1"></use><g><use xlink:href="#a2MT3O3bFc" opacity="1" fill-opacity="0" stroke="#000000" stroke-width="1" stroke-opacity="0"></use></g></g><g><use xlink:href="#b1ObtwA7b" opacity="1" fill="#ffffff" fill-opacity="1"></use><g><use xlink:href="#b1ObtwA7b" opacity="1" fill-opacity="0" stroke="#000000" stroke-width="1" stroke-opacity="0"></use></g></g><g><use xlink:href="#auSw8ePYU" opacity="1" fill="#ffffff" fill-opacity="1"></use><g><use xlink:href="#auSw8ePYU" opacity="1" fill-opacity="0" stroke="#000000" stroke-width="1" stroke-opacity="0"></use></g></g><g><use xlink:href="#b15bxHOUtj" opacity="1" fill="#ffffff" fill-opacity="1"></use><g><use xlink:href="#b15bxHOUtj" opacity="1" fill-opacity="0" stroke="#000000" stroke-width="1" stroke-opacity="0"></use></g></g><g><use xlink:href="#dDSl6JGud" opacity="1" fill="#ffffff" fill-opacity="1"></use><g><use xlink:href="#dDSl6JGud" opacity="1" fill-opacity="0" stroke="#000000" stroke-width="1" stroke-opacity="0"></use></g></g><g><use xlink:href="#aaQXs9eUH" opacity="1" fill="#ffffff" fill-opacity="1"></use><g><use xlink:href="#aaQXs9eUH" opacity="1" fill-opacity="0" stroke="#000000" stroke-width="1" stroke-opacity="0"></use></g></g><g><use xlink:href="#a2sNY44Wpu" opacity="1" fill="#ffffff" fill-opacity="1"></use><g><use xlink:href="#a2sNY44Wpu" opacity="1" fill-opacity="0" stroke="#000000" stroke-width="1" stroke-opacity="0"></use></g></g><g><use xlink:href="#a2Gjp0XRw" opacity="1" fill="#ffffff" fill-opacity="1"></use><g><use xlink:href="#a2Gjp0XRw" opacity="1" fill-opacity="0" stroke="#000000" stroke-width="1" stroke-opacity="0"></use></g></g><g><use xlink:href="#c10kyx01Ve" opacity="1" fill="#ffffff" fill-opacity="1"></use><g><use xlink:href="#c10kyx01Ve" opacity="1" fill-opacity="0" stroke="#000000" stroke-width="1" stroke-opacity="0"></use></g></g><g><use xlink:href="#c8fvrSOswt" opacity="1" fill="#ffffff" fill-opacity="1"></use><g><use xlink:href="#c8fvrSOswt" opacity="1" fill-opacity="0" stroke="#000000" stroke-width="1" stroke-opacity="0"></use></g></g><g><use xlink:href="#b1Q3Sgd1yR" opacity="1" fill="#ffffff" fill-opacity="1"></use><g><use xlink:href="#b1Q3Sgd1yR" opacity="1" fill-opacity="0" stroke="#000000" stroke-width="1" stroke-opacity="0"></use></g></g><g><use xlink:href="#b2kvuXELQu" opacity="1" fill="#ffffff" fill-opacity="1"></use><g><use xlink:href="#b2kvuXELQu" opacity="1" fill-opacity="0" stroke="#000000" stroke-width="1" stroke-opacity="0"></use></g></g><g><use xlink:href="#b134ja3Stz" opacity="1" fill="#ffffff" fill-opacity="1"></use><g><use xlink:href="#b134ja3Stz" opacity="1" fill-opacity="0" stroke="#000000" stroke-width="1" stroke-opacity="0"></use></g></g><g><use xlink:href="#diKR02ghM" opacity="1" fill="#ffffff" fill-opacity="1"></use><g><use xlink:href="#diKR02ghM" opacity="1" fill-opacity="0" stroke="#000000" stroke-width="1" stroke-opacity="0"></use></g></g><g><use xlink:href="#e5GPwmqlS" opacity="1" fill="#ffffff" fill-opacity="1"></use><g><use xlink:href="#e5GPwmqlS" opacity="1" fill-opacity="0" stroke="#000000" stroke-width="1" stroke-opacity="0"></use></g></g><g><use xlink:href="#ljqdfNUiI" opacity="1" fill="#ffffff" fill-opacity="1"></use><g><use xlink:href="#ljqdfNUiI" opacity="1" fill-opacity="0" stroke="#000000" stroke-width="1" stroke-opacity="0"></use></g></g><g><use xlink:href="#d5SMoDnT9" opacity="1" fill="#ffffff" fill-opacity="1"></use><g><use xlink:href="#d5SMoDnT9" opacity="1" fill-opacity="0" stroke="#000000" stroke-width="1" stroke-opacity="0"></use></g></g><g><use xlink:href="#fvRDVW38N" opacity="1" fill="#ffffff" fill-opacity="1"></use><g><use xlink:href="#fvRDVW38N" opacity="1" fill-opacity="0" stroke="#000000" stroke-width="1" stroke-opacity="0"></use></g></g><g><use xlink:href="#d1pRESXkr4" opacity="1" fill="#ffffff" fill-opacity="1"></use><g><use xlink:href="#d1pRESXkr4" opacity="1" fill-opacity="0" stroke="#000000" stroke-width="1" stroke-opacity="0"></use></g></g></g></g></svg>