<?xml version="1.0" encoding="UTF-8" standalone="no"?>
<!DOCTYPE svg PUBLIC "-//W3C//DTD SVG 1.1//EN" "http://www.w3.org/Graphics/SVG/1.1/DTD/svg11.dtd">
<svg version="1.1" xmlns="http://www.w3.org/2000/svg" xmlns:xlink="http://www.w3.org/1999/xlink" preserveAspectRatio="xMidYMid meet" viewBox="43.29899999999997 245.99700000000007 578.5700000000002 122" width="574.57" height="118"><defs><path d="M366.61 259.23C369.76 259.23 372.31 256.67 372.31 253.52C372.31 250.36 369.76 247.8 366.61 247.8C363.45 247.8 360.89 250.36 360.89 253.52C360.89 256.67 363.45 259.23 366.61 259.23Z" id="a1g2KLsu5Q"></path><path d="M269.41 311.48L259.69 311.48L259.69 265.31L269.41 265.31C269.41 270.36 269.41 273.17 269.41 273.73C270.97 270.89 273.13 268.67 275.88 267.05C278.62 265.43 281.58 264.62 284.77 264.62C289.98 264.62 294.19 266.21 297.4 269.39C300.61 272.57 302.21 277.17 302.21 283.19C302.21 285.07 302.21 294.5 302.21 311.48L292.49 311.48C292.49 296.27 292.49 287.83 292.49 286.14C292.49 277.64 288.97 273.38 281.91 273.38C278.55 273.38 275.63 274.5 273.14 276.72C270.65 278.95 269.41 282.2 269.41 286.49C269.41 289.82 269.41 298.15 269.41 311.48Z" id="biNU2YRkq"></path><path d="M333.22 264.63L333.68 264.65L334.14 264.67L334.59 264.7L335.04 264.74L335.49 264.79L335.94 264.84L336.38 264.9L336.81 264.97L337.25 265.04L337.68 265.13L338.1 265.22L338.53 265.31L338.95 265.41L339.36 265.52L339.78 265.64L340.18 265.77L340.59 265.9L340.99 266.04L341.39 266.18L341.79 266.33L342.18 266.49L342.57 266.66L342.95 266.84L343.33 267.02L343.71 267.2L344.08 267.4L344.45 267.6L344.82 267.81L345.18 268.03L345.54 268.25L345.9 268.48L346.25 268.72L346.6 268.97L346.95 269.22L347.29 269.48L347.63 269.74L347.96 270.02L348.29 270.3L348.62 270.59L348.94 270.88L349.25 271.18L349.55 271.48L349.84 271.79L350.12 272.1L350.4 272.42L350.67 272.74L350.93 273.07L351.18 273.41L351.42 273.75L351.66 274.1L351.88 274.45L352.1 274.8L352.31 275.17L352.51 275.53L352.71 275.91L352.89 276.29L353.07 276.67L353.24 277.06L353.4 277.45L353.55 277.85L353.7 278.26L353.83 278.67L353.96 279.08L354.08 279.5L354.19 279.93L354.3 280.36L354.39 280.8L354.48 281.24L354.55 281.69L354.62 282.14L354.69 282.6L354.74 283.07L354.79 283.54L354.82 284.01L354.85 284.49L354.87 284.98L354.88 285.47L354.89 285.96L354.89 292.64L318.7 292.64L318.72 292.89L318.75 293.14L318.78 293.39L318.81 293.63L318.85 293.87L318.89 294.11L318.94 294.35L319 294.58L319.05 294.81L319.12 295.04L319.19 295.27L319.26 295.49L319.34 295.71L319.42 295.93L319.51 296.15L319.6 296.36L319.7 296.57L319.8 296.78L319.91 296.99L320.02 297.19L320.14 297.39L320.26 297.59L320.39 297.79L320.52 297.98L320.66 298.18L320.8 298.37L320.95 298.55L321.1 298.74L321.26 298.92L321.42 299.1L321.58 299.28L321.75 299.45L321.93 299.62L322.11 299.79L322.3 299.96L322.49 300.12L322.68 300.29L322.88 300.45L323.09 300.6L323.3 300.76L323.51 300.91L323.73 301.06L323.94 301.2L324.16 301.35L324.38 301.48L324.6 301.61L324.82 301.74L325.05 301.87L325.27 301.99L325.5 302.11L325.73 302.22L325.96 302.33L326.19 302.44L326.42 302.54L326.66 302.64L326.9 302.73L327.13 302.82L327.37 302.91L327.61 302.99L327.86 303.07L328.1 303.15L328.34 303.22L328.59 303.28L328.84 303.35L329.09 303.41L329.34 303.46L329.59 303.52L329.85 303.56L330.1 303.61L330.36 303.65L330.62 303.68L330.88 303.72L331.14 303.75L331.41 303.77L331.67 303.79L331.94 303.81L332.21 303.82L332.48 303.83L332.75 303.84L333.02 303.84L333.45 303.84L333.88 303.83L334.3 303.81L334.71 303.79L335.12 303.76L335.53 303.72L335.93 303.67L336.32 303.62L336.71 303.56L337.1 303.5L337.48 303.43L337.85 303.35L338.22 303.26L338.58 303.17L338.94 303.07L339.29 302.97L339.64 302.85L339.98 302.73L340.32 302.61L340.65 302.47L340.98 302.33L341.3 302.19L341.62 302.03L341.93 301.87L342.24 301.7L342.54 301.53L342.84 301.35L343.13 301.16L343.41 300.97L343.69 300.76L343.97 300.55L344.24 300.34L344.5 300.12L344.76 299.89L345.02 299.65L345.27 299.41L345.51 299.16L345.75 298.9L345.98 298.64L346.21 298.37L351.77 304.45L351.39 304.83L351.01 305.2L350.62 305.56L350.23 305.91L349.83 306.26L349.42 306.59L349.01 306.91L348.6 307.23L348.18 307.53L347.75 307.83L347.32 308.11L346.88 308.39L346.44 308.65L345.99 308.91L345.53 309.15L345.07 309.39L344.61 309.62L344.13 309.83L343.66 310.04L343.17 310.24L342.68 310.43L342.19 310.61L341.69 310.78L341.18 310.94L340.67 311.08L340.16 311.22L339.63 311.36L339.1 311.48L338.57 311.59L338.03 311.69L337.49 311.78L336.93 311.86L336.38 311.93L335.82 312L335.25 312.05L334.68 312.09L334.1 312.13L333.51 312.15L332.92 312.17L332.33 312.17L331.84 312.17L331.36 312.15L330.88 312.13L330.41 312.11L329.94 312.07L329.47 312.03L329.01 311.97L328.55 311.91L328.1 311.84L327.65 311.77L327.2 311.68L326.75 311.59L326.31 311.49L325.88 311.38L325.44 311.26L325.01 311.14L324.59 311L324.17 310.86L323.75 310.71L323.33 310.55L322.92 310.39L322.51 310.22L322.11 310.03L321.71 309.84L321.31 309.65L320.92 309.44L320.53 309.23L320.14 309L319.76 308.77L319.38 308.53L319.01 308.29L318.63 308.03L318.27 307.77L317.9 307.5L317.54 307.22L317.18 306.93L316.83 306.64L316.48 306.34L316.13 306.03L315.79 305.71L315.46 305.38L315.13 305.05L314.81 304.71L314.5 304.37L314.2 304.02L313.9 303.67L313.62 303.31L313.34 302.94L313.07 302.57L312.81 302.2L312.56 301.82L312.32 301.43L312.08 301.04L311.86 300.64L311.64 300.24L311.43 299.83L311.23 299.41L311.04 298.99L310.86 298.57L310.68 298.14L310.52 297.7L310.36 297.26L310.21 296.81L310.07 296.36L309.94 295.9L309.81 295.43L309.7 294.96L309.59 294.49L309.5 294.01L309.41 293.52L309.33 293.03L309.25 292.53L309.19 292.03L309.13 291.52L309.09 291L309.05 290.48L309.02 289.96L309 289.43L308.98 288.89L308.98 288.35L308.98 287.81L309 287.27L309.02 286.74L309.05 286.22L309.09 285.7L309.14 285.18L309.19 284.67L309.26 284.17L309.33 283.68L309.41 283.18L309.51 282.7L309.61 282.22L309.71 281.74L309.83 281.27L309.96 280.81L310.09 280.35L310.23 279.9L310.39 279.45L310.55 279.01L310.72 278.58L310.89 278.15L311.08 277.72L311.28 277.3L311.48 276.89L311.69 276.48L311.91 276.08L312.14 275.68L312.38 275.29L312.63 274.91L312.89 274.53L313.15 274.15L313.42 273.79L313.71 273.42L314 273.06L314.3 272.71L314.6 272.37L314.92 272.03L315.25 271.69L315.58 271.36L315.92 271.04L316.27 270.72L316.62 270.41L316.98 270.11L317.34 269.82L317.7 269.53L318.06 269.26L318.43 268.99L318.8 268.73L319.17 268.47L319.55 268.23L319.93 267.99L320.31 267.76L320.7 267.54L321.09 267.33L321.48 267.12L321.87 266.93L322.27 266.74L322.67 266.56L323.08 266.39L323.48 266.22L323.89 266.06L324.31 265.92L324.73 265.78L325.15 265.64L325.57 265.52L325.99 265.4L326.42 265.29L326.86 265.19L327.29 265.1L327.73 265.02L328.17 264.94L328.61 264.87L329.06 264.81L329.51 264.76L329.97 264.71L330.42 264.68L330.88 264.65L331.35 264.63L331.81 264.62L332.28 264.61L332.75 264.62L333.22 264.63ZM330.92 273.02L330.14 273.12L329.36 273.25L328.6 273.43L327.84 273.64L327.11 273.89L326.38 274.18L325.67 274.51L324.97 274.87L324.28 275.28L323.61 275.72L322.95 276.2L322.32 276.71L321.74 277.26L321.22 277.82L320.74 278.42L320.31 279.04L319.93 279.69L319.61 280.37L319.33 281.08L319.1 281.81L318.93 282.57L318.8 283.35L318.73 284.17L318.7 285.01L345.17 285.01L345.15 284.13L345.08 283.28L344.97 282.47L344.82 281.69L344.63 280.93L344.39 280.22L344.11 279.53L343.79 278.87L343.42 278.25L343.01 277.66L342.56 277.09L342.06 276.57L341.52 276.07L340.95 275.61L340.36 275.18L339.75 274.79L339.12 274.44L338.47 274.13L337.8 273.85L337.11 273.61L336.4 273.41L335.67 273.24L334.91 273.11L334.14 273.02L333.35 272.96L332.54 272.95L331.73 272.96L330.92 273.02Z" id="a1MMtvRjvs"></path><path d="M361.74 311.48L361.74 265.31L371.46 265.31L371.46 311.48L361.74 311.48Z" id="d2Ofd6YLPy"></path><path d="M400.7 264.63L401.15 264.66L401.59 264.69L402.03 264.73L402.46 264.78L402.89 264.84L403.32 264.92L403.74 265L404.16 265.09L404.57 265.18L404.98 265.29L405.38 265.41L405.78 265.54L406.18 265.68L406.57 265.82L406.96 265.98L407.34 266.14L407.72 266.32L408.09 266.5L408.46 266.69L408.83 266.9L409.19 267.11L409.55 267.33L409.9 267.56L410.25 267.8L410.59 268.05L410.93 268.31L411.27 268.58L411.6 268.86L411.93 269.15L412.25 269.45L412.57 269.75L412.88 270.07L413.19 270.39L413.5 270.73L413.8 271.07L414.1 271.43L414.39 271.79L414.68 272.16L414.68 265.31L424.4 265.31L424.4 305.57L424.39 306.18L424.38 306.78L424.36 307.38L424.33 307.96L424.29 308.54L424.25 309.11L424.19 309.67L424.13 310.23L424.06 310.77L423.98 311.31L423.89 311.84L423.8 312.37L423.69 312.88L423.58 313.39L423.46 313.89L423.33 314.39L423.2 314.87L423.05 315.35L422.9 315.82L422.74 316.28L422.57 316.74L422.39 317.18L422.2 317.62L422.01 318.06L421.8 318.48L421.59 318.9L421.37 319.31L421.14 319.71L420.91 320.1L420.66 320.49L420.41 320.87L420.15 321.24L419.88 321.6L419.6 321.96L419.31 322.3L419.02 322.64L418.72 322.98L418.4 323.3L418.08 323.62L417.76 323.93L417.42 324.23L417.08 324.53L416.74 324.81L416.39 325.09L416.04 325.36L415.68 325.63L415.32 325.88L414.95 326.13L414.58 326.37L414.2 326.61L413.82 326.83L413.44 327.05L413.04 327.26L412.65 327.46L412.25 327.66L411.84 327.84L411.43 328.02L411.02 328.2L410.6 328.36L410.18 328.52L409.75 328.67L409.31 328.81L408.88 328.94L408.43 329.07L407.99 329.19L407.53 329.3L407.08 329.4L406.62 329.5L406.15 329.58L405.68 329.66L405.2 329.74L404.72 329.8L404.24 329.86L403.75 329.91L403.25 329.95L402.75 329.99L402.25 330.01L401.74 330.03L401.22 330.04L400.71 330.05L400.19 330.04L399.67 330.03L399.15 330.01L398.64 329.98L398.13 329.95L397.63 329.9L397.12 329.85L396.62 329.79L396.12 329.72L395.62 329.64L395.13 329.55L394.64 329.46L394.15 329.36L393.66 329.25L393.17 329.13L392.69 329.01L392.21 328.87L391.74 328.73L391.26 328.58L390.79 328.42L390.32 328.25L389.85 328.08L389.39 327.89L388.93 327.7L388.47 327.5L388.01 327.3L387.56 327.08L387.1 326.86L386.65 326.63L386.21 326.39L385.76 326.14L385.32 325.88L384.88 325.62L384.44 325.34L384.01 325.06L383.58 324.77L383.15 324.48L382.72 324.17L382.3 323.86L381.87 323.54L386.47 316.16L386.81 316.42L387.15 316.66L387.49 316.9L387.83 317.14L388.17 317.36L388.51 317.58L388.85 317.8L389.19 318.01L389.53 318.21L389.87 318.4L390.21 318.59L390.55 318.77L390.89 318.95L391.23 319.12L391.57 319.28L391.91 319.44L392.25 319.59L392.59 319.73L392.93 319.87L393.28 320L393.62 320.13L393.96 320.25L394.3 320.36L394.64 320.46L394.99 320.56L395.33 320.66L395.67 320.74L396.01 320.82L396.36 320.9L396.7 320.96L397.04 321.02L397.39 321.08L397.73 321.13L398.07 321.17L398.42 321.2L398.76 321.23L399.11 321.25L399.45 321.27L399.79 321.28L400.14 321.28L400.48 321.28L400.82 321.27L401.16 321.26L401.49 321.25L401.82 321.23L402.14 321.2L402.47 321.17L402.78 321.14L403.1 321.1L403.41 321.06L403.72 321.01L404.02 320.96L404.32 320.91L404.62 320.85L404.91 320.78L405.2 320.71L405.49 320.64L405.77 320.56L406.05 320.48L406.32 320.39L406.59 320.3L406.86 320.21L407.13 320.11L407.39 320L407.64 319.89L407.9 319.78L408.15 319.66L408.39 319.54L408.64 319.41L408.88 319.28L409.11 319.15L409.34 319.01L409.57 318.86L409.8 318.71L410.02 318.56L410.24 318.4L410.45 318.24L410.66 318.07L410.87 317.9L411.07 317.73L411.27 317.54L411.47 317.36L411.66 317.17L411.84 316.97L412.02 316.77L412.19 316.56L412.36 316.35L412.53 316.13L412.69 315.91L412.84 315.68L412.99 315.45L413.13 315.21L413.27 314.96L413.4 314.71L413.53 314.46L413.66 314.2L413.77 313.93L413.89 313.66L414 313.39L414.1 313.1L414.2 312.82L414.29 312.52L414.38 312.23L414.46 311.92L414.54 311.62L414.61 311.3L414.68 310.98L414.75 310.66L414.8 310.33L414.86 310L414.9 309.66L414.95 309.31L414.99 308.96L415.02 308.61L415.05 308.24L415.07 307.88L415.09 307.51L415.1 307.13L415.11 306.75L415.11 306.36L415.11 300.46L415 300.66L414.89 300.86L414.77 301.06L414.66 301.25L414.54 301.45L414.42 301.64L414.29 301.83L414.17 302.02L414.04 302.21L413.91 302.39L413.78 302.57L413.64 302.75L413.5 302.93L413.36 303.11L413.22 303.28L413.08 303.45L412.93 303.62L412.78 303.79L412.63 303.96L412.47 304.12L412.32 304.28L412.16 304.44L412 304.6L411.84 304.76L411.67 304.91L411.5 305.06L411.33 305.21L411.16 305.36L410.98 305.5L410.81 305.65L410.63 305.79L410.45 305.93L410.26 306.06L410.07 306.2L409.89 306.33L409.69 306.46L409.5 306.59L409.3 306.72L409.11 306.84L408.91 306.96L408.7 307.08L408.5 307.2L408.29 307.31L408.09 307.43L407.88 307.53L407.67 307.64L407.46 307.74L407.25 307.84L407.04 307.93L406.82 308.03L406.61 308.12L406.39 308.2L406.18 308.29L405.96 308.37L405.74 308.44L405.52 308.52L405.29 308.59L405.07 308.66L404.85 308.72L404.62 308.79L404.39 308.85L404.16 308.9L403.93 308.95L403.7 309L403.47 309.05L403.24 309.1L403 309.14L402.77 309.17L402.53 309.21L402.29 309.24L402.05 309.27L401.81 309.3L401.57 309.32L401.32 309.34L401.08 309.36L400.83 309.37L400.59 309.38L400.34 309.39L400.09 309.39L399.84 309.39L399.38 309.39L398.92 309.38L398.48 309.36L398.03 309.33L397.59 309.29L397.15 309.25L396.72 309.2L396.29 309.14L395.86 309.07L395.44 308.99L395.03 308.91L394.61 308.82L394.21 308.72L393.8 308.61L393.4 308.49L393.01 308.37L392.61 308.23L392.23 308.09L391.84 307.94L391.46 307.79L391.09 307.62L390.72 307.45L390.35 307.27L389.99 307.08L389.63 306.88L389.27 306.68L388.92 306.47L388.57 306.25L388.23 306.02L387.89 305.78L387.56 305.54L387.23 305.28L386.9 305.02L386.58 304.75L386.26 304.48L385.95 304.19L385.64 303.9L385.34 303.6L385.04 303.29L384.74 302.97L384.45 302.65L384.16 302.32L383.89 301.99L383.62 301.66L383.35 301.32L383.1 300.97L382.85 300.63L382.61 300.28L382.38 299.92L382.16 299.57L381.94 299.2L381.73 298.84L381.52 298.47L381.33 298.09L381.14 297.72L380.96 297.34L380.79 296.95L380.62 296.56L380.46 296.17L380.31 295.77L380.17 295.37L380.03 294.96L379.9 294.55L379.78 294.14L379.67 293.72L379.56 293.3L379.46 292.88L379.37 292.45L379.28 292.02L379.2 291.58L379.13 291.14L379.07 290.7L379.02 290.25L378.97 289.8L378.93 289.34L378.89 288.88L378.87 288.42L378.85 287.95L378.84 287.48L378.84 287L378.84 286.53L378.85 286.06L378.87 285.59L378.89 285.13L378.93 284.67L378.97 284.21L379.02 283.76L379.07 283.31L379.13 282.87L379.2 282.43L379.28 281.99L379.37 281.56L379.46 281.13L379.56 280.7L379.67 280.28L379.78 279.87L379.9 279.45L380.03 279.04L380.17 278.64L380.31 278.24L380.46 277.84L380.62 277.45L380.79 277.06L380.96 276.67L381.14 276.29L381.33 275.91L381.52 275.54L381.73 275.17L381.94 274.8L382.16 274.44L382.38 274.08L382.61 273.73L382.85 273.38L383.1 273.03L383.35 272.69L383.62 272.35L383.89 272.02L384.16 271.69L384.45 271.36L384.74 271.04L385.04 270.72L385.34 270.41L385.64 270.11L385.95 269.82L386.26 269.53L386.58 269.25L386.9 268.99L387.23 268.73L387.56 268.47L387.89 268.23L388.23 267.99L388.57 267.76L388.92 267.54L389.27 267.33L389.62 267.12L389.98 266.93L390.34 266.74L390.71 266.56L391.08 266.38L391.45 266.22L391.83 266.06L392.21 265.92L392.6 265.77L392.99 265.64L393.38 265.52L393.78 265.4L394.19 265.29L394.59 265.19L395 265.1L395.42 265.02L395.84 264.94L396.26 264.87L396.69 264.81L397.12 264.76L397.56 264.71L397.99 264.68L398.44 264.65L398.89 264.63L399.34 264.62L399.79 264.61L400.25 264.62L400.7 264.63ZM399.96 272.48L399.3 272.56L398.67 272.66L398.05 272.79L397.44 272.96L396.86 273.15L396.29 273.37L395.73 273.62L395.2 273.9L394.67 274.21L394.17 274.54L393.68 274.91L393.21 275.31L392.76 275.74L392.32 276.19L391.9 276.68L391.49 277.18L391.12 277.7L390.77 278.22L390.44 278.76L390.13 279.3L389.85 279.86L389.6 280.42L389.37 281L389.16 281.58L388.98 282.18L388.82 282.78L388.69 283.4L388.58 284.02L388.49 284.65L388.43 285.3L388.39 285.95L388.38 286.61L388.39 287.28L388.43 287.93L388.49 288.57L388.58 289.2L388.69 289.82L388.82 290.43L388.98 291.03L389.16 291.62L389.37 292.2L389.6 292.76L389.85 293.32L390.13 293.86L390.44 294.39L390.77 294.92L391.12 295.43L391.49 295.93L391.9 296.42L392.32 296.89L392.76 297.33L393.21 297.75L393.68 298.13L394.17 298.49L394.68 298.82L395.2 299.12L395.74 299.39L396.3 299.63L396.87 299.84L397.46 300.03L398.07 300.19L398.69 300.31L399.33 300.41L399.99 300.48L400.67 300.53L401.36 300.54L402.05 300.53L402.72 300.49L403.38 300.42L404.03 300.32L404.66 300.2L405.27 300.05L405.87 299.87L406.45 299.66L407.02 299.42L407.57 299.16L408.1 298.87L408.62 298.55L409.13 298.21L409.62 297.84L410.09 297.44L410.55 297.01L410.99 296.55L411.41 296.07L411.81 295.59L412.18 295.08L412.52 294.56L412.84 294.03L413.13 293.49L413.4 292.93L413.64 292.36L413.86 291.78L414.05 291.18L414.22 290.57L414.36 289.94L414.47 289.3L414.56 288.65L414.63 287.99L414.66 287.31L414.68 286.61L414.66 285.92L414.63 285.24L414.56 284.57L414.47 283.92L414.35 283.28L414.21 282.65L414.04 282.03L413.85 281.42L413.63 280.83L413.38 280.25L413.11 279.68L412.82 279.13L412.49 278.59L412.14 278.06L411.77 277.54L411.37 277.04L410.94 276.55L410.5 276.08L410.04 275.64L409.56 275.22L409.07 274.84L408.56 274.48L408.04 274.15L407.5 273.85L406.95 273.58L406.38 273.34L405.8 273.13L405.21 272.94L404.6 272.78L403.97 272.65L403.33 272.55L402.67 272.48L402 272.44L401.31 272.43L400.63 272.44L399.96 272.48Z" id="amehCwhP"></path><path d="M444.36 311.48L434.64 311.48L434.64 247.17L444.36 247.17C444.36 263.11 444.36 271.96 444.36 273.73C445.74 270.89 447.84 268.67 450.65 267.05C453.46 265.43 456.47 264.62 459.71 264.62C464.92 264.62 469.13 266.21 472.34 269.39C475.55 272.57 477.16 277.17 477.16 283.19C477.16 285.07 477.16 294.5 477.16 311.48L467.44 311.48C467.44 296.27 467.44 287.83 467.44 286.14C467.44 277.64 463.91 273.38 456.85 273.38C453.5 273.38 450.57 274.5 448.09 276.72C445.6 278.95 444.36 282.2 444.36 286.49C444.36 289.82 444.36 298.15 444.36 311.48Z" id="auOKSsrGa"></path><path d="M496.89 272.95L497.18 272.53L497.48 272.12L497.78 271.72L498.08 271.33L498.39 270.95L498.71 270.58L499.03 270.23L499.35 269.88L499.68 269.55L500.01 269.22L500.35 268.91L500.69 268.61L501.04 268.32L501.39 268.04L501.75 267.77L502.11 267.51L502.47 267.27L502.84 267.03L503.21 266.81L503.59 266.59L503.97 266.39L504.36 266.2L504.75 266.02L505.14 265.85L505.54 265.69L505.95 265.54L506.36 265.4L506.77 265.28L507.19 265.16L507.61 265.06L508.04 264.97L508.47 264.88L508.9 264.81L509.34 264.75L509.79 264.7L510.23 264.66L510.69 264.64L511.15 264.62L511.61 264.61L512.07 264.62L512.53 264.63L512.99 264.65L513.44 264.68L513.89 264.71L514.33 264.76L514.78 264.81L515.22 264.87L515.65 264.94L516.08 265.02L516.51 265.1L516.94 265.19L517.36 265.29L517.78 265.4L518.19 265.52L518.61 265.64L519.02 265.78L519.42 265.92L519.82 266.06L520.22 266.22L520.62 266.39L521.01 266.56L521.4 266.74L521.78 266.93L522.16 267.12L522.54 267.33L522.92 267.54L523.29 267.76L523.66 267.99L524.02 268.23L524.38 268.47L524.74 268.73L525.1 268.99L525.45 269.26L525.8 269.53L526.14 269.82L526.48 270.11L526.82 270.41L527.16 270.72L527.49 271.04L527.81 271.36L528.13 271.69L528.44 272.02L528.74 272.36L529.03 272.71L529.32 273.06L529.6 273.42L529.86 273.78L530.12 274.14L530.37 274.51L530.62 274.89L530.85 275.27L531.08 275.66L531.3 276.05L531.51 276.45L531.71 276.86L531.9 277.26L532.09 277.68L532.27 278.1L532.44 278.52L532.6 278.95L532.75 279.39L532.89 279.83L533.03 280.27L533.16 280.73L533.28 281.18L533.39 281.64L533.49 282.11L533.59 282.58L533.67 283.06L533.75 283.54L533.82 284.03L533.88 284.53L533.94 285.03L533.98 285.53L534.02 286.04L534.05 286.55L534.07 287.08L534.08 287.6L534.09 288.13L534.08 288.66L534.07 289.19L534.05 289.71L534.02 290.23L533.98 290.74L533.94 291.24L533.89 291.75L533.82 292.24L533.75 292.73L533.68 293.22L533.59 293.7L533.5 294.18L533.39 294.65L533.28 295.11L533.16 295.58L533.04 296.03L532.9 296.48L532.76 296.93L532.61 297.37L532.45 297.81L532.28 298.24L532.1 298.67L531.92 299.09L531.73 299.5L531.53 299.92L531.32 300.32L531.1 300.72L530.88 301.12L530.64 301.51L530.4 301.9L530.15 302.28L529.89 302.66L529.63 303.03L529.35 303.39L529.07 303.76L528.78 304.11L528.48 304.46L528.17 304.81L527.86 305.15L527.54 305.49L527.21 305.82L526.87 306.14L526.54 306.45L526.2 306.76L525.86 307.05L525.52 307.34L525.17 307.62L524.83 307.89L524.47 308.16L524.12 308.41L523.76 308.66L523.41 308.9L523.04 309.13L522.68 309.35L522.31 309.56L521.94 309.77L521.57 309.96L521.2 310.15L520.82 310.33L520.44 310.5L520.05 310.66L519.67 310.82L519.28 310.96L518.89 311.1L518.49 311.23L518.1 311.35L517.7 311.47L517.3 311.57L516.89 311.67L516.48 311.75L516.07 311.83L515.66 311.9L515.24 311.97L514.83 312.02L514.4 312.07L513.98 312.1L513.55 312.13L513.12 312.15L512.69 312.17L512.26 312.17L511.82 312.17L511.39 312.15L510.96 312.13L510.53 312.09L510.11 312.05L509.68 312L509.26 311.94L508.84 311.87L508.42 311.78L508.01 311.69L507.6 311.59L507.19 311.48L506.78 311.36L506.37 311.24L505.97 311.1L505.57 310.95L505.17 310.79L504.77 310.62L504.37 310.45L503.98 310.26L503.59 310.07L503.2 309.86L502.82 309.65L502.43 309.42L502.05 309.19L501.67 308.95L501.3 308.69L500.92 308.43L500.55 308.16L500.18 307.88L499.81 307.59L499.44 307.28L499.08 306.97L498.72 306.65L498.36 306.33L498 305.99L497.65 305.64L497.3 305.28L496.95 304.91L496.6 304.54L496.6 311.48L486.88 311.48L486.88 247.09L496.6 247.09L496.6 273.38L496.89 272.95ZM508.95 273.18L508.33 273.24L507.72 273.34L507.13 273.46L506.54 273.61L505.97 273.78L505.41 273.99L504.86 274.22L504.32 274.47L503.79 274.76L503.28 275.07L502.77 275.41L502.28 275.77L501.79 276.16L501.32 276.58L500.86 277.03L500.41 277.5L499.98 278L499.57 278.5L499.19 279.03L498.84 279.56L498.5 280.11L498.2 280.67L497.91 281.25L497.65 281.84L497.42 282.44L497.21 283.05L497.03 283.69L496.87 284.33L496.73 284.99L496.62 285.66L496.53 286.34L496.47 287.04L496.43 287.75L496.42 288.48L496.43 289.2L496.47 289.92L496.53 290.61L496.62 291.29L496.73 291.96L496.87 292.61L497.03 293.25L497.21 293.87L497.42 294.48L497.65 295.07L497.91 295.65L498.2 296.21L498.5 296.76L498.84 297.3L499.19 297.82L499.58 298.32L499.98 298.81L500.41 299.28L500.86 299.74L501.32 300.17L501.79 300.57L502.27 300.95L502.77 301.3L503.27 301.62L503.78 301.92L504.3 302.19L504.84 302.44L505.38 302.66L505.94 302.86L506.51 303.03L507.08 303.17L507.67 303.28L508.27 303.38L508.88 303.44L509.5 303.48L510.13 303.49L510.76 303.48L511.39 303.44L512 303.38L512.61 303.29L513.2 303.17L513.79 303.03L514.36 302.86L514.93 302.67L515.49 302.45L516.04 302.21L516.58 301.94L517.11 301.64L517.64 301.32L518.15 300.97L518.65 300.6L519.15 300.2L519.64 299.78L520.11 299.33L520.57 298.86L521 298.37L521.41 297.87L521.79 297.35L522.15 296.82L522.47 296.28L522.78 295.71L523.05 295.14L523.3 294.54L523.52 293.94L523.72 293.31L523.89 292.67L524.04 292.02L524.15 291.35L524.25 290.67L524.31 289.97L524.35 289.25L524.36 288.52L524.35 287.79L524.31 287.08L524.25 286.37L524.16 285.68L524.04 285.01L523.9 284.35L523.73 283.7L523.54 283.07L523.32 282.45L523.08 281.84L522.81 281.25L522.51 280.68L522.19 280.11L521.85 279.56L521.47 279.03L521.07 278.51L520.65 278L520.2 277.5L519.73 277.03L519.25 276.58L518.77 276.16L518.27 275.77L517.76 275.41L517.24 275.07L516.71 274.76L516.17 274.47L515.62 274.22L515.06 273.99L514.49 273.78L513.91 273.61L513.32 273.46L512.72 273.34L512.11 273.24L511.49 273.18L510.86 273.13L510.22 273.12L509.58 273.13L508.95 273.18Z" id="a2iBTXG5bZ"></path><path d="M564.01 264.65L564.68 264.68L565.35 264.74L566.01 264.81L566.66 264.89L567.3 264.99L567.94 265.11L568.57 265.24L569.19 265.38L569.8 265.54L570.41 265.72L571.01 265.91L571.6 266.12L572.18 266.34L572.75 266.58L573.32 266.83L573.88 267.1L574.43 267.38L574.98 267.68L575.51 268L576.04 268.33L576.56 268.67L577.07 269.03L577.58 269.41L578.08 269.8L578.57 270.2L579.05 270.62L579.52 271.06L579.99 271.51L580.45 271.98L580.89 272.45L581.31 272.92L581.72 273.41L582.11 273.9L582.49 274.4L582.85 274.9L583.2 275.41L583.53 275.93L583.85 276.46L584.15 276.99L584.43 277.53L584.7 278.07L584.96 278.63L585.2 279.18L585.42 279.75L585.63 280.32L585.82 280.9L586 281.49L586.16 282.08L586.31 282.68L586.44 283.29L586.56 283.9L586.66 284.53L586.74 285.15L586.81 285.79L586.86 286.43L586.9 287.08L586.93 287.73L586.93 288.39L586.93 289.06L586.9 289.71L586.86 290.36L586.81 291L586.74 291.63L586.66 292.26L586.56 292.88L586.44 293.5L586.31 294.1L586.16 294.7L586 295.3L585.82 295.88L585.63 296.46L585.42 297.04L585.2 297.6L584.96 298.16L584.7 298.71L584.43 299.26L584.15 299.8L583.85 300.33L583.53 300.85L583.2 301.37L582.85 301.88L582.49 302.39L582.11 302.89L581.72 303.38L581.31 303.86L580.89 304.34L580.45 304.81L579.99 305.27L579.52 305.72L579.05 306.16L578.57 306.58L578.08 306.99L577.58 307.38L577.07 307.76L576.56 308.12L576.04 308.46L575.51 308.79L574.98 309.11L574.43 309.4L573.88 309.69L573.32 309.96L572.75 310.21L572.18 310.45L571.6 310.67L571.01 310.88L570.41 311.07L569.8 311.24L569.19 311.4L568.57 311.55L567.94 311.68L567.3 311.8L566.66 311.89L566.01 311.98L565.35 312.05L564.68 312.1L564.01 312.14L563.32 312.16L562.63 312.17L561.94 312.16L561.26 312.14L560.58 312.1L559.92 312.05L559.26 311.98L558.61 311.89L557.96 311.8L557.33 311.68L556.7 311.55L556.08 311.4L555.46 311.24L554.86 311.07L554.26 310.88L553.67 310.67L553.09 310.45L552.51 310.21L551.94 309.96L551.39 309.69L550.83 309.4L550.29 309.11L549.75 308.79L549.23 308.46L548.7 308.12L548.19 307.76L547.69 307.38L547.19 306.99L546.7 306.58L546.22 306.16L545.74 305.72L545.28 305.27L544.82 304.81L544.38 304.34L543.96 303.86L543.55 303.38L543.15 302.89L542.78 302.39L542.41 301.88L542.07 301.37L541.73 300.85L541.42 300.33L541.12 299.8L540.83 299.26L540.56 298.71L540.31 298.16L540.07 297.6L539.85 297.04L539.64 296.46L539.44 295.88L539.27 295.3L539.1 294.7L538.96 294.1L538.83 293.5L538.71 292.88L538.61 292.26L538.53 291.63L538.46 291L538.4 290.36L538.36 289.71L538.34 289.06L538.33 288.39L538.34 287.73L538.36 287.08L538.4 286.43L538.46 285.79L538.53 285.15L538.61 284.53L538.71 283.9L538.83 283.29L538.96 282.68L539.1 282.08L539.27 281.49L539.44 280.9L539.64 280.32L539.84 279.75L540.07 279.18L540.31 278.63L540.56 278.07L540.83 277.53L541.12 276.99L541.42 276.46L541.73 275.93L542.07 275.41L542.41 274.9L542.78 274.4L543.15 273.9L543.55 273.41L543.96 272.92L544.38 272.45L544.82 271.98L545.28 271.51L545.74 271.06L546.22 270.62L546.7 270.2L547.19 269.8L547.69 269.41L548.19 269.03L548.7 268.67L549.22 268.32L549.75 267.99L550.29 267.68L550.83 267.38L551.38 267.1L551.94 266.83L552.51 266.58L553.09 266.34L553.67 266.12L554.26 265.91L554.86 265.72L555.46 265.54L556.08 265.38L556.7 265.24L557.33 265.1L557.96 264.99L558.61 264.89L559.26 264.81L559.92 264.74L560.58 264.68L561.26 264.65L561.94 264.62L562.63 264.61L563.32 264.62L564.01 264.65ZM561.25 273.35L560.58 273.41L559.93 273.5L559.28 273.62L558.66 273.76L558.04 273.93L557.44 274.13L556.85 274.35L556.28 274.59L555.72 274.87L555.17 275.17L554.64 275.49L554.12 275.84L553.61 276.22L553.12 276.62L552.64 277.05L552.18 277.5L551.73 277.98L551.31 278.47L550.92 278.98L550.55 279.5L550.21 280.03L549.89 280.58L549.6 281.15L549.33 281.73L549.09 282.33L548.87 282.94L548.68 283.57L548.51 284.22L548.37 284.87L548.26 285.55L548.17 286.24L548.11 286.94L548.07 287.66L548.06 288.39L548.07 289.13L548.11 289.85L548.17 290.55L548.26 291.24L548.37 291.92L548.51 292.57L548.68 293.22L548.87 293.85L549.09 294.46L549.33 295.06L549.6 295.64L549.89 296.2L550.21 296.76L550.55 297.29L550.92 297.81L551.31 298.32L551.73 298.81L552.18 299.28L552.64 299.74L553.12 300.17L553.61 300.57L554.12 300.95L554.64 301.3L555.17 301.62L555.72 301.92L556.28 302.19L556.85 302.44L557.44 302.66L558.04 302.86L558.66 303.03L559.28 303.17L559.93 303.28L560.58 303.38L561.25 303.44L561.94 303.48L562.63 303.49L563.33 303.48L564.01 303.44L564.68 303.38L565.34 303.28L565.98 303.17L566.61 303.03L567.23 302.86L567.83 302.66L568.42 302.44L568.99 302.19L569.55 301.92L570.1 301.62L570.63 301.3L571.15 300.95L571.66 300.57L572.15 300.17L572.63 299.74L573.09 299.28L573.54 298.81L573.96 298.32L574.35 297.81L574.72 297.29L575.06 296.76L575.38 296.2L575.67 295.64L575.94 295.06L576.18 294.46L576.4 293.85L576.59 293.22L576.76 292.57L576.9 291.92L577.01 291.24L577.1 290.55L577.16 289.85L577.2 289.13L577.22 288.39L577.2 287.66L577.16 286.94L577.1 286.24L577.01 285.55L576.9 284.87L576.76 284.22L576.59 283.57L576.4 282.94L576.18 282.33L575.94 281.73L575.67 281.15L575.38 280.58L575.06 280.03L574.72 279.5L574.35 278.98L573.96 278.47L573.54 277.98L573.09 277.5L572.63 277.05L572.15 276.62L571.66 276.22L571.15 275.84L570.63 275.49L570.1 275.17L569.55 274.87L568.99 274.59L568.42 274.35L567.83 274.13L567.23 273.93L566.61 273.76L565.98 273.62L565.34 273.5L564.68 273.41L564.01 273.35L563.33 273.31L562.63 273.29L561.94 273.31L561.25 273.35Z" id="a7DMNDvFK"></path><path d="M607.5 279.11C605.07 282.23 603.86 286.43 603.86 291.69C603.86 293.01 603.86 299.61 603.86 311.48L594.13 311.48L594.13 265.31L603.86 265.31C603.86 270.88 603.86 273.98 603.86 274.6C605.42 271.7 607.55 269.33 610.24 267.48C612.92 265.63 615.77 264.67 618.78 264.62C618.79 265.6 618.86 273.44 618.87 274.42C618.69 274.42 618.52 274.42 618.35 274.42C613.55 274.42 609.93 275.98 607.5 279.11Z" id="a1dBTbfees"></path><path d="M66.16 264.55L66.61 264.57L67.05 264.6L67.49 264.65L67.92 264.7L68.35 264.76L68.78 264.83L69.2 264.91L69.62 265L70.03 265.1L70.44 265.21L70.84 265.33L71.24 265.45L71.64 265.59L72.03 265.74L72.42 265.89L72.8 266.06L73.18 266.23L73.55 266.42L73.92 266.61L74.29 266.81L74.65 267.02L75.01 267.25L75.36 267.48L75.71 267.72L76.05 267.97L76.39 268.23L76.73 268.5L77.06 268.78L77.39 269.06L77.71 269.36L78.03 269.67L78.34 269.98L78.65 270.31L78.96 270.64L79.26 270.99L79.56 271.34L79.85 271.71L80.14 272.08L80.14 265.22L89.86 265.22L89.86 305.49L89.85 306.1L89.84 306.7L89.82 307.29L89.79 307.87L89.75 308.45L89.71 309.02L89.65 309.58L89.59 310.14L89.52 310.69L89.44 311.22L89.36 311.76L89.26 312.28L89.16 312.8L89.04 313.3L88.92 313.81L88.79 314.3L88.66 314.78L88.51 315.26L88.36 315.73L88.2 316.2L88.03 316.65L87.85 317.1L87.66 317.54L87.47 317.97L87.26 318.39L87.05 318.81L86.83 319.22L86.6 319.62L86.37 320.01L86.12 320.4L85.87 320.78L85.61 321.15L85.34 321.51L85.06 321.87L84.78 322.22L84.48 322.56L84.18 322.89L83.87 323.22L83.55 323.53L83.22 323.84L82.89 324.14L82.55 324.44L82.2 324.73L81.85 325L81.5 325.28L81.14 325.54L80.78 325.8L80.41 326.05L80.04 326.29L79.66 326.52L79.28 326.74L78.9 326.96L78.51 327.17L78.11 327.38L77.71 327.57L77.3 327.76L76.89 327.94L76.48 328.11L76.06 328.27L75.64 328.43L75.21 328.58L74.77 328.72L74.34 328.86L73.89 328.98L73.45 329.1L72.99 329.21L72.54 329.31L72.07 329.41L71.61 329.5L71.14 329.58L70.66 329.65L70.18 329.72L69.7 329.77L69.21 329.82L68.71 329.86L68.21 329.9L67.71 329.93L67.2 329.95L66.68 329.96L66.17 329.96L65.65 329.96L65.13 329.94L64.62 329.92L64.1 329.9L63.59 329.86L63.09 329.81L62.58 329.76L62.08 329.7L61.58 329.63L61.08 329.55L60.59 329.47L60.1 329.37L59.61 329.27L59.12 329.16L58.64 329.05L58.15 328.92L57.67 328.79L57.2 328.64L56.72 328.49L56.25 328.33L55.78 328.17L55.31 327.99L54.85 327.81L54.39 327.62L53.93 327.42L53.47 327.21L53.02 327L52.56 326.77L52.11 326.54L51.67 326.3L51.22 326.05L50.78 325.8L50.34 325.53L49.9 325.26L49.47 324.98L49.04 324.69L48.61 324.39L48.18 324.09L47.76 323.77L47.33 323.45L51.93 316.08L52.27 316.33L52.61 316.57L52.95 316.81L53.29 317.05L53.63 317.28L53.97 317.5L54.31 317.71L54.65 317.92L54.99 318.12L55.33 318.32L55.67 318.5L56.01 318.69L56.35 318.86L56.69 319.03L57.03 319.2L57.37 319.35L57.71 319.5L58.05 319.65L58.39 319.79L58.74 319.92L59.08 320.04L59.42 320.16L59.76 320.27L60.1 320.38L60.45 320.48L60.79 320.57L61.13 320.66L61.47 320.74L61.82 320.81L62.16 320.88L62.5 320.94L62.85 320.99L63.19 321.04L63.53 321.08L63.88 321.12L64.22 321.15L64.57 321.17L64.91 321.18L65.26 321.19L65.6 321.2L65.94 321.2L66.28 321.19L66.62 321.18L66.95 321.16L67.28 321.14L67.61 321.12L67.93 321.09L68.25 321.06L68.56 321.02L68.87 320.98L69.18 320.93L69.48 320.88L69.78 320.82L70.08 320.76L70.37 320.7L70.66 320.63L70.95 320.55L71.23 320.48L71.51 320.39L71.78 320.31L72.06 320.22L72.32 320.12L72.59 320.02L72.85 319.92L73.11 319.81L73.36 319.69L73.61 319.58L73.86 319.45L74.1 319.33L74.34 319.2L74.58 319.06L74.81 318.92L75.04 318.78L75.26 318.63L75.48 318.47L75.7 318.32L75.91 318.15L76.13 317.99L76.33 317.82L76.54 317.64L76.74 317.46L76.93 317.27L77.12 317.08L77.3 316.89L77.48 316.68L77.66 316.48L77.83 316.26L77.99 316.05L78.15 315.82L78.3 315.59L78.45 315.36L78.59 315.12L78.73 314.88L78.87 314.63L79 314.37L79.12 314.11L79.24 313.85L79.35 313.58L79.46 313.3L79.56 313.02L79.66 312.73L79.76 312.44L79.84 312.14L79.93 311.84L80.01 311.53L80.08 311.22L80.15 310.9L80.21 310.57L80.27 310.24L80.32 309.91L80.37 309.57L80.41 309.22L80.45 308.87L80.48 308.52L80.51 308.16L80.53 307.79L80.55 307.42L80.56 307.04L80.57 306.66L80.57 306.27L80.57 300.37L80.46 300.57L80.35 300.77L80.24 300.97L80.12 301.17L80 301.36L79.88 301.56L79.76 301.75L79.63 301.94L79.5 302.12L79.37 302.31L79.24 302.49L79.1 302.67L78.96 302.85L78.82 303.02L78.68 303.2L78.54 303.37L78.39 303.54L78.24 303.71L78.09 303.87L77.94 304.04L77.78 304.2L77.62 304.36L77.46 304.52L77.3 304.67L77.13 304.82L76.96 304.98L76.79 305.12L76.62 305.27L76.45 305.42L76.27 305.56L76.09 305.7L75.91 305.84L75.72 305.98L75.54 306.11L75.35 306.24L75.16 306.38L74.96 306.5L74.77 306.63L74.57 306.75L74.37 306.88L74.17 307L73.96 307.11L73.76 307.23L73.55 307.34L73.34 307.45L73.14 307.55L72.93 307.65L72.71 307.75L72.5 307.85L72.29 307.94L72.07 308.03L71.86 308.12L71.64 308.2L71.42 308.28L71.2 308.36L70.98 308.43L70.76 308.51L70.53 308.57L70.31 308.64L70.08 308.7L69.86 308.76L69.63 308.82L69.4 308.87L69.17 308.92L68.93 308.97L68.7 309.01L68.47 309.05L68.23 309.09L67.99 309.13L67.75 309.16L67.51 309.19L67.27 309.21L67.03 309.23L66.79 309.25L66.54 309.27L66.3 309.28L66.05 309.3L65.8 309.3L65.55 309.31L65.3 309.31L64.84 309.3L64.39 309.29L63.94 309.27L63.49 309.24L63.05 309.21L62.61 309.16L62.18 309.11L61.75 309.05L61.33 308.98L60.91 308.91L60.49 308.82L60.08 308.73L59.67 308.63L59.26 308.52L58.86 308.41L58.47 308.28L58.08 308.15L57.69 308.01L57.3 307.86L56.92 307.7L56.55 307.54L56.18 307.37L55.81 307.19L55.45 307L55.09 306.8L54.73 306.6L54.38 306.38L54.04 306.16L53.69 305.93L53.36 305.7L53.02 305.45L52.69 305.2L52.37 304.94L52.04 304.67L51.73 304.39L51.41 304.11L51.1 303.81L50.8 303.51L50.5 303.2L50.2 302.89L49.91 302.56L49.62 302.24L49.35 301.9L49.08 301.57L48.82 301.23L48.56 300.89L48.31 300.54L48.07 300.19L47.84 299.84L47.62 299.48L47.4 299.12L47.19 298.75L46.99 298.38L46.79 298.01L46.6 297.63L46.42 297.25L46.25 296.86L46.08 296.47L45.92 296.08L45.77 295.68L45.63 295.28L45.49 294.88L45.36 294.47L45.24 294.06L45.13 293.64L45.02 293.22L44.92 292.79L44.83 292.37L44.74 291.93L44.67 291.5L44.6 291.06L44.53 290.61L44.48 290.16L44.43 289.71L44.39 289.26L44.36 288.8L44.33 288.33L44.31 287.87L44.3 287.39L44.3 286.92L44.3 286.44L44.31 285.97L44.33 285.5L44.36 285.04L44.39 284.58L44.43 284.13L44.48 283.67L44.53 283.23L44.6 282.78L44.67 282.34L44.75 281.91L44.83 281.47L44.92 281.04L45.02 280.62L45.13 280.2L45.24 279.78L45.36 279.37L45.49 278.96L45.63 278.56L45.77 278.15L45.92 277.76L46.08 277.36L46.25 276.97L46.42 276.59L46.6 276.21L46.79 275.83L46.99 275.46L47.19 275.09L47.4 274.72L47.62 274.36L47.84 274L48.07 273.65L48.31 273.29L48.56 272.95L48.82 272.61L49.08 272.27L49.35 271.93L49.62 271.6L49.91 271.27L50.2 270.95L50.5 270.63L50.8 270.32L51.1 270.02L51.41 269.73L51.73 269.45L52.04 269.17L52.36 268.9L52.69 268.64L53.02 268.39L53.35 268.14L53.69 267.9L54.03 267.68L54.38 267.45L54.73 267.24L55.08 267.04L55.44 266.84L55.8 266.65L56.17 266.47L56.54 266.3L56.91 266.13L57.29 265.98L57.68 265.83L58.06 265.69L58.45 265.56L58.85 265.43L59.25 265.31L59.65 265.21L60.06 265.11L60.47 265.01L60.88 264.93L61.3 264.85L61.72 264.78L62.15 264.72L62.58 264.67L63.02 264.63L63.46 264.59L63.9 264.56L64.35 264.54L64.8 264.53L65.26 264.53L65.71 264.53L66.16 264.55ZM65.42 272.4L64.76 272.47L64.13 272.58L63.51 272.71L62.9 272.87L62.32 273.06L61.75 273.28L61.19 273.53L60.66 273.81L60.13 274.12L59.63 274.46L59.14 274.83L58.67 275.22L58.22 275.65L57.78 276.11L57.36 276.59L56.96 277.1L56.58 277.61L56.23 278.14L55.9 278.67L55.59 279.22L55.31 279.77L55.06 280.33L54.83 280.91L54.62 281.49L54.44 282.09L54.28 282.69L54.15 283.31L54.04 283.93L53.95 284.57L53.89 285.21L53.86 285.86L53.84 286.53L53.86 287.19L53.89 287.84L53.95 288.49L54.04 289.12L54.15 289.74L54.28 290.35L54.44 290.94L54.62 291.53L54.83 292.11L55.06 292.67L55.31 293.23L55.59 293.77L55.9 294.31L56.23 294.83L56.58 295.34L56.96 295.84L57.36 296.33L57.78 296.8L58.22 297.25L58.67 297.66L59.15 298.04L59.64 298.4L60.14 298.73L60.66 299.03L61.2 299.3L61.76 299.54L62.33 299.76L62.92 299.94L63.53 300.1L64.15 300.23L64.79 300.33L65.45 300.4L66.12 300.44L66.82 300.46L67.51 300.44L68.18 300.4L68.84 300.33L69.49 300.24L70.12 300.11L70.73 299.96L71.33 299.78L71.91 299.57L72.48 299.34L73.03 299.07L73.56 298.78L74.08 298.47L74.59 298.12L75.08 297.75L75.55 297.35L76.01 296.92L76.45 296.46L76.87 295.99L77.26 295.5L77.64 294.99L77.98 294.48L78.3 293.95L78.59 293.4L78.86 292.85L79.1 292.27L79.32 291.69L79.51 291.09L79.68 290.48L79.82 289.86L79.93 289.22L80.02 288.56L80.09 287.9L80.13 287.22L80.14 286.53L80.12 285.83L80.09 285.15L80.02 284.49L79.93 283.83L79.81 283.19L79.67 282.56L79.5 281.94L79.31 281.34L79.09 280.74L78.85 280.16L78.57 279.6L78.28 279.04L77.95 278.5L77.61 277.97L77.23 277.46L76.83 276.95L76.41 276.46L75.96 275.99L75.5 275.55L75.02 275.13L74.53 274.75L74.02 274.39L73.5 274.07L72.96 273.77L72.41 273.5L71.84 273.25L71.26 273.04L70.67 272.85L70.05 272.7L69.43 272.57L68.79 272.47L68.13 272.4L67.46 272.35L66.77 272.34L66.08 272.35L65.42 272.4Z" id="dTs8aU8XS"></path><path d="M122.73 264.56L123.4 264.6L124.07 264.65L124.73 264.72L125.38 264.8L126.03 264.9L126.66 265.02L127.29 265.15L127.91 265.29L128.53 265.46L129.13 265.63L129.73 265.82L130.32 266.03L130.9 266.25L131.48 266.49L132.04 266.74L132.6 267.01L133.15 267.3L133.7 267.59L134.23 267.91L134.76 268.24L135.28 268.58L135.8 268.94L136.3 269.32L136.8 269.71L137.29 270.12L137.77 270.54L138.24 270.97L138.71 271.43L139.17 271.89L139.61 272.36L140.03 272.84L140.44 273.32L140.83 273.81L141.21 274.31L141.57 274.81L141.92 275.33L142.25 275.84L142.57 276.37L142.87 276.9L143.16 277.44L143.43 277.99L143.68 278.54L143.92 279.1L144.14 279.66L144.35 280.24L144.54 280.82L144.72 281.4L144.88 282L145.03 282.6L145.16 283.2L145.28 283.82L145.38 284.44L145.46 285.07L145.53 285.7L145.59 286.34L145.63 286.99L145.65 287.65L145.66 288.31L145.65 288.97L145.63 289.62L145.59 290.27L145.53 290.91L145.46 291.55L145.38 292.17L145.28 292.8L145.16 293.41L145.03 294.02L144.88 294.62L144.72 295.21L144.54 295.8L144.35 296.38L144.14 296.95L143.92 297.52L143.68 298.07L143.43 298.63L143.16 299.17L142.87 299.71L142.57 300.24L142.25 300.77L141.92 301.29L141.57 301.8L141.21 302.3L140.83 302.8L140.44 303.29L140.03 303.77L139.61 304.25L139.17 304.72L138.71 305.18L138.25 305.64L137.77 306.07L137.29 306.49L136.8 306.9L136.3 307.29L135.8 307.67L135.28 308.03L134.76 308.37L134.23 308.7L133.7 309.02L133.15 309.32L132.6 309.6L132.04 309.87L131.48 310.12L130.9 310.36L130.32 310.58L129.73 310.79L129.13 310.98L128.53 311.16L127.91 311.32L127.29 311.46L126.66 311.59L126.03 311.71L125.38 311.81L124.73 311.89L124.07 311.96L123.4 312.01L122.73 312.05L122.04 312.08L121.35 312.08L120.66 312.08L119.98 312.05L119.31 312.01L118.64 311.96L117.98 311.89L117.33 311.81L116.68 311.71L116.05 311.59L115.42 311.46L114.8 311.32L114.19 311.16L113.58 310.98L112.98 310.79L112.39 310.58L111.81 310.36L111.24 310.12L110.67 309.87L110.11 309.6L109.56 309.32L109.01 309.02L108.48 308.7L107.95 308.37L107.43 308.03L106.92 307.67L106.41 307.29L105.91 306.9L105.42 306.49L104.94 306.07L104.47 305.64L104 305.18L103.55 304.72L103.11 304.25L102.68 303.77L102.27 303.29L101.88 302.8L101.5 302.3L101.14 301.8L100.79 301.29L100.46 300.77L100.14 300.24L99.84 299.71L99.56 299.17L99.29 298.63L99.03 298.07L98.79 297.51L98.57 296.95L98.36 296.38L98.17 295.8L97.99 295.21L97.83 294.62L97.68 294.02L97.55 293.41L97.44 292.8L97.33 292.17L97.25 291.55L97.18 290.91L97.13 290.27L97.09 289.62L97.07 288.97L97.06 288.31L97.07 287.65L97.09 286.99L97.13 286.34L97.18 285.7L97.25 285.07L97.33 284.44L97.44 283.82L97.55 283.2L97.68 282.6L97.83 282L97.99 281.4L98.17 280.82L98.36 280.24L98.57 279.66L98.79 279.1L99.03 278.54L99.29 277.99L99.56 277.44L99.84 276.9L100.14 276.37L100.46 275.84L100.79 275.33L101.14 274.81L101.5 274.31L101.88 273.81L102.27 273.32L102.68 272.84L103.11 272.36L103.55 271.89L104 271.43L104.47 270.97L104.94 270.54L105.42 270.12L105.91 269.71L106.41 269.32L106.92 268.94L107.43 268.58L107.95 268.24L108.48 267.91L109.01 267.59L109.56 267.3L110.11 267.01L110.67 266.74L111.24 266.49L111.81 266.25L112.39 266.03L112.98 265.82L113.58 265.63L114.19 265.46L114.8 265.29L115.42 265.15L116.05 265.02L116.68 264.9L117.33 264.8L117.98 264.72L118.64 264.65L119.31 264.6L119.98 264.56L120.66 264.54L121.35 264.53L122.04 264.54L122.73 264.56ZM119.97 273.26L119.3 273.32L118.65 273.41L118.01 273.53L117.38 273.67L116.76 273.84L116.16 274.04L115.57 274.26L115 274.51L114.44 274.78L113.89 275.08L113.36 275.4L112.84 275.75L112.33 276.13L111.84 276.53L111.37 276.96L110.9 277.41L110.46 277.89L110.04 278.38L109.64 278.89L109.27 279.41L108.93 279.94L108.61 280.5L108.32 281.06L108.05 281.64L107.81 282.24L107.59 282.85L107.4 283.48L107.23 284.13L107.09 284.78L106.98 285.46L106.89 286.15L106.83 286.85L106.79 287.57L106.78 288.31L106.79 289.04L106.83 289.76L106.89 290.47L106.98 291.15L107.09 291.83L107.23 292.49L107.4 293.13L107.59 293.76L107.81 294.37L108.05 294.97L108.32 295.55L108.61 296.12L108.93 296.67L109.27 297.2L109.64 297.72L110.04 298.23L110.46 298.72L110.9 299.2L111.37 299.65L111.84 300.08L112.33 300.48L112.84 300.86L113.36 301.21L113.89 301.54L114.44 301.83L115 302.11L115.57 302.35L116.16 302.57L116.76 302.77L117.38 302.94L118.01 303.08L118.65 303.2L119.31 303.29L119.97 303.35L120.66 303.39L121.35 303.41L122.05 303.39L122.73 303.35L123.4 303.29L124.06 303.2L124.7 303.08L125.33 302.94L125.95 302.77L126.55 302.57L127.14 302.35L127.71 302.11L128.27 301.83L128.82 301.54L129.35 301.21L129.87 300.86L130.38 300.48L130.87 300.08L131.35 299.65L131.82 299.2L132.26 298.72L132.68 298.23L133.07 297.72L133.44 297.2L133.79 296.67L134.1 296.12L134.4 295.55L134.66 294.97L134.9 294.37L135.12 293.76L135.31 293.13L135.48 292.49L135.62 291.83L135.73 291.15L135.82 290.47L135.88 289.76L135.92 289.04L135.94 288.31L135.92 287.57L135.88 286.85L135.82 286.15L135.73 285.46L135.62 284.78L135.48 284.13L135.31 283.48L135.12 282.85L134.9 282.24L134.66 281.64L134.4 281.06L134.1 280.5L133.79 279.94L133.44 279.41L133.07 278.89L132.68 278.38L132.26 277.89L131.82 277.41L131.35 276.96L130.87 276.53L130.38 276.13L129.87 275.75L129.35 275.4L128.82 275.08L128.27 274.78L127.71 274.51L127.14 274.26L126.55 274.04L125.95 273.84L125.33 273.67L124.7 273.53L124.06 273.41L123.4 273.32L122.73 273.26L122.05 273.22L121.35 273.21L120.66 273.22L119.97 273.26Z" id="c2Kq7GSSh"></path><path d="M175.49 264.56L176.17 264.6L176.83 264.65L177.49 264.72L178.14 264.8L178.79 264.9L179.42 265.02L180.05 265.15L180.67 265.29L181.29 265.46L181.89 265.63L182.49 265.82L183.08 266.03L183.66 266.25L184.24 266.49L184.8 266.74L185.36 267.01L185.92 267.3L186.46 267.59L187 267.91L187.52 268.24L188.04 268.58L188.56 268.94L189.06 269.32L189.56 269.71L190.05 270.12L190.53 270.54L191.01 270.97L191.47 271.43L191.93 271.89L192.37 272.36L192.79 272.84L193.2 273.32L193.59 273.81L193.97 274.31L194.34 274.81L194.68 275.33L195.01 275.84L195.33 276.37L195.63 276.9L195.92 277.44L196.19 277.99L196.44 278.54L196.68 279.1L196.9 279.66L197.11 280.24L197.31 280.82L197.48 281.4L197.64 282L197.79 282.6L197.92 283.2L198.04 283.82L198.14 284.44L198.22 285.07L198.29 285.7L198.35 286.34L198.39 286.99L198.41 287.65L198.42 288.31L198.41 288.97L198.39 289.62L198.35 290.27L198.29 290.91L198.22 291.55L198.14 292.17L198.04 292.8L197.92 293.41L197.79 294.02L197.64 294.62L197.48 295.21L197.31 295.8L197.11 296.38L196.9 296.95L196.68 297.52L196.44 298.07L196.19 298.63L195.92 299.17L195.63 299.71L195.33 300.24L195.01 300.77L194.68 301.29L194.34 301.8L193.97 302.3L193.6 302.8L193.2 303.29L192.79 303.77L192.37 304.25L191.93 304.72L191.47 305.18L191.01 305.64L190.53 306.07L190.05 306.49L189.56 306.9L189.06 307.29L188.56 307.67L188.04 308.03L187.52 308.37L187 308.7L186.46 309.02L185.92 309.32L185.36 309.6L184.81 309.87L184.24 310.12L183.66 310.36L183.08 310.58L182.49 310.79L181.89 310.98L181.29 311.16L180.67 311.32L180.05 311.46L179.42 311.59L178.79 311.71L178.14 311.81L177.49 311.89L176.83 311.96L176.17 312.01L175.49 312.05L174.81 312.08L174.12 312.08L173.43 312.08L172.74 312.05L172.07 312.01L171.4 311.96L170.74 311.89L170.09 311.81L169.45 311.71L168.81 311.59L168.18 311.46L167.56 311.32L166.95 311.16L166.34 310.98L165.74 310.79L165.15 310.58L164.57 310.36L164 310.12L163.43 309.87L162.87 309.6L162.32 309.32L161.78 309.02L161.24 308.7L160.71 308.37L160.19 308.03L159.68 307.67L159.17 307.29L158.68 306.9L158.19 306.49L157.7 306.07L157.23 305.64L156.76 305.18L156.31 304.72L155.87 304.25L155.44 303.77L155.03 303.29L154.64 302.8L154.26 302.3L153.9 301.8L153.55 301.29L153.22 300.77L152.9 300.24L152.6 299.71L152.32 299.17L152.05 298.63L151.79 298.07L151.56 297.51L151.33 296.95L151.12 296.38L150.93 295.8L150.75 295.21L150.59 294.62L150.44 294.02L150.31 293.41L150.2 292.8L150.1 292.17L150.01 291.55L149.94 290.91L149.89 290.27L149.85 289.62L149.83 288.97L149.82 288.31L149.83 287.65L149.85 286.99L149.89 286.34L149.94 285.7L150.01 285.07L150.1 284.44L150.2 283.82L150.31 283.2L150.44 282.6L150.59 282L150.75 281.4L150.93 280.82L151.12 280.24L151.33 279.66L151.56 279.1L151.79 278.54L152.05 277.99L152.32 277.44L152.6 276.9L152.9 276.37L153.22 275.84L153.55 275.33L153.9 274.81L154.26 274.31L154.64 273.81L155.03 273.32L155.44 272.84L155.87 272.36L156.31 271.89L156.76 271.43L157.23 270.97L157.7 270.54L158.19 270.12L158.68 269.71L159.17 269.32L159.68 268.94L160.19 268.58L160.71 268.24L161.24 267.91L161.78 267.59L162.32 267.3L162.87 267.01L163.43 266.74L164 266.49L164.57 266.25L165.15 266.03L165.74 265.82L166.34 265.63L166.95 265.46L167.56 265.29L168.18 265.15L168.81 265.02L169.45 264.9L170.09 264.8L170.74 264.72L171.4 264.65L172.07 264.6L172.74 264.56L173.43 264.54L174.12 264.53L174.81 264.54L175.49 264.56ZM172.74 273.26L172.07 273.32L171.41 273.41L170.77 273.53L170.14 273.67L169.53 273.84L168.92 274.04L168.34 274.26L167.76 274.51L167.2 274.78L166.66 275.08L166.12 275.4L165.6 275.75L165.1 276.13L164.6 276.53L164.13 276.96L163.66 277.41L163.22 277.89L162.8 278.38L162.4 278.89L162.03 279.41L161.69 279.94L161.37 280.5L161.08 281.06L160.81 281.64L160.57 282.24L160.35 282.85L160.16 283.48L160 284.13L159.86 284.78L159.74 285.46L159.65 286.15L159.59 286.85L159.55 287.57L159.54 288.31L159.55 289.04L159.59 289.76L159.65 290.47L159.74 291.15L159.86 291.83L160 292.49L160.16 293.13L160.35 293.76L160.57 294.37L160.81 294.97L161.08 295.55L161.37 296.12L161.69 296.67L162.03 297.2L162.4 297.72L162.8 298.23L163.22 298.72L163.66 299.2L164.13 299.65L164.6 300.08L165.1 300.48L165.6 300.86L166.12 301.21L166.66 301.54L167.2 301.83L167.76 302.11L168.34 302.35L168.92 302.57L169.53 302.77L170.14 302.94L170.77 303.08L171.41 303.2L172.07 303.29L172.74 303.35L173.42 303.39L174.12 303.41L174.81 303.39L175.5 303.35L176.17 303.29L176.82 303.2L177.47 303.08L178.09 302.94L178.71 302.77L179.31 302.57L179.9 302.35L180.47 302.11L181.03 301.83L181.58 301.54L182.11 301.21L182.63 300.86L183.14 300.48L183.63 300.08L184.11 299.65L184.58 299.2L185.02 298.72L185.44 298.23L185.84 297.72L186.21 297.2L186.55 296.67L186.87 296.12L187.16 295.55L187.43 294.97L187.67 294.37L187.88 293.76L188.08 293.13L188.24 292.49L188.38 291.83L188.49 291.15L188.58 290.47L188.65 289.76L188.69 289.04L188.7 288.31L188.69 287.57L188.65 286.85L188.58 286.15L188.49 285.46L188.38 284.78L188.24 284.13L188.08 283.48L187.88 282.85L187.67 282.24L187.43 281.64L187.16 281.06L186.87 280.5L186.55 279.94L186.21 279.41L185.84 278.89L185.44 278.38L185.02 277.89L184.58 277.41L184.11 276.96L183.63 276.53L183.14 276.13L182.63 275.75L182.11 275.4L181.58 275.08L181.03 274.78L180.47 274.51L179.9 274.26L179.31 274.04L178.71 273.84L178.09 273.67L177.47 273.53L176.82 273.41L176.17 273.32L175.5 273.26L174.81 273.22L174.12 273.21L173.42 273.22L172.74 273.26Z" id="jFSd0VipT"></path><path d="M240.16 311.39L240.16 304.45L239.88 304.82L239.61 305.19L239.32 305.55L239.03 305.9L238.73 306.23L238.43 306.56L238.12 306.88L237.81 307.19L237.48 307.49L237.16 307.79L236.82 308.07L236.48 308.34L236.14 308.6L235.78 308.85L235.43 309.1L235.06 309.33L234.69 309.56L234.31 309.77L233.93 309.98L233.54 310.17L233.14 310.36L232.74 310.53L232.33 310.7L231.92 310.86L231.5 311.01L231.07 311.15L230.64 311.27L230.2 311.39L229.75 311.5L229.3 311.6L228.85 311.69L228.38 311.78L227.91 311.85L227.44 311.91L226.95 311.96L226.46 312L225.97 312.04L225.47 312.06L224.96 312.08L224.45 312.08L224.01 312.08L223.58 312.06L223.15 312.04L222.72 312.02L222.29 311.98L221.87 311.93L221.45 311.88L221.03 311.82L220.62 311.75L220.21 311.67L219.8 311.58L219.39 311.49L218.99 311.39L218.59 311.27L218.19 311.16L217.8 311.03L217.41 310.89L217.02 310.75L216.63 310.59L216.25 310.43L215.87 310.26L215.49 310.09L215.12 309.9L214.74 309.71L214.38 309.51L214.01 309.3L213.65 309.08L213.28 308.85L212.93 308.62L212.57 308.37L212.22 308.12L211.87 307.86L211.52 307.59L211.18 307.32L210.84 307.03L210.5 306.74L210.17 306.44L209.83 306.13L209.5 305.81L209.18 305.49L208.86 305.15L208.54 304.82L208.24 304.47L207.94 304.13L207.65 303.77L207.37 303.42L207.1 303.05L206.83 302.68L206.58 302.31L206.33 301.93L206.09 301.54L205.86 301.16L205.63 300.76L205.42 300.36L205.21 299.96L205.01 299.54L204.82 299.13L204.64 298.71L204.46 298.28L204.3 297.85L204.14 297.41L203.99 296.97L203.84 296.53L203.71 296.07L203.58 295.62L203.47 295.15L203.36 294.69L203.25 294.21L203.16 293.73L203.08 293.25L203 292.76L202.93 292.27L202.87 291.77L202.82 291.27L202.77 290.76L202.73 290.24L202.71 289.72L202.69 289.2L202.67 288.67L202.67 288.13L202.67 287.6L202.69 287.07L202.71 286.54L202.74 286.02L202.77 285.51L202.82 285L202.87 284.5L202.94 284L203.01 283.51L203.09 283.02L203.17 282.54L203.27 282.07L203.37 281.6L203.49 281.13L203.61 280.67L203.74 280.22L203.88 279.77L204.02 279.33L204.18 278.89L204.34 278.46L204.51 278.03L204.69 277.61L204.88 277.19L205.07 276.78L205.28 276.38L205.49 275.98L205.71 275.58L205.94 275.19L206.18 274.81L206.43 274.43L206.68 274.06L206.94 273.69L207.22 273.33L207.5 272.97L207.78 272.62L208.08 272.28L208.39 271.94L208.7 271.6L209.02 271.27L209.35 270.95L209.69 270.63L210.03 270.32L210.37 270.02L210.71 269.73L211.06 269.44L211.41 269.17L211.77 268.9L212.13 268.64L212.49 268.38L212.85 268.14L213.22 267.9L213.59 267.67L213.96 267.45L214.34 267.24L214.72 267.04L215.11 266.84L215.49 266.65L215.88 266.47L216.28 266.3L216.67 266.13L217.07 265.98L217.47 265.83L217.88 265.69L218.29 265.55L218.7 265.43L219.12 265.31L219.54 265.21L219.96 265.11L220.38 265.01L220.81 264.93L221.24 264.85L221.68 264.78L222.12 264.72L222.56 264.67L223 264.63L223.45 264.59L223.9 264.56L224.35 264.54L224.81 264.53L225.27 264.53L225.73 264.53L226.19 264.55L226.64 264.57L227.09 264.6L227.53 264.65L227.96 264.7L228.4 264.77L228.83 264.84L229.25 264.92L229.67 265.02L230.08 265.12L230.49 265.23L230.9 265.35L231.3 265.48L231.7 265.63L232.09 265.78L232.48 265.94L232.86 266.11L233.24 266.29L233.62 266.48L233.99 266.68L234.35 266.89L234.71 267.11L235.07 267.34L235.42 267.58L235.77 267.83L236.11 268.09L236.45 268.36L236.78 268.63L237.11 268.92L237.44 269.22L237.76 269.53L238.07 269.84L238.38 270.17L238.69 270.51L238.99 270.85L239.29 271.21L239.58 271.58L239.87 271.95L240.16 272.34L240.16 247L249.87 247L249.87 311.39L240.16 311.39ZM225.26 273.09L224.64 273.16L224.03 273.25L223.43 273.38L222.84 273.53L222.26 273.7L221.69 273.91L221.13 274.14L220.58 274.4L220.04 274.69L219.51 275L218.99 275.34L218.49 275.71L217.99 276.11L217.5 276.53L217.02 276.98L216.55 277.46L216.1 277.96L215.68 278.47L215.28 279L214.91 279.54L214.56 280.09L214.24 280.66L213.94 281.24L213.67 281.83L213.43 282.44L213.21 283.06L213.02 283.69L212.85 284.34L212.71 285.01L212.59 285.68L212.5 286.37L212.44 287.08L212.4 287.79L212.39 288.52L212.4 289.25L212.44 289.97L212.5 290.67L212.6 291.35L212.71 292.02L212.86 292.67L213.03 293.31L213.23 293.94L213.45 294.54L213.7 295.14L213.98 295.71L214.28 296.28L214.61 296.82L214.96 297.35L215.34 297.87L215.75 298.37L216.18 298.86L216.64 299.33L217.12 299.78L217.6 300.2L218.1 300.6L218.6 300.97L219.12 301.32L219.64 301.64L220.17 301.94L220.71 302.21L221.26 302.45L221.82 302.67L222.39 302.86L222.96 303.03L223.55 303.17L224.15 303.29L224.75 303.38L225.36 303.44L225.99 303.48L226.62 303.49L227.25 303.48L227.87 303.44L228.48 303.38L229.08 303.29L229.67 303.17L230.24 303.03L230.81 302.86L231.37 302.66L231.91 302.44L232.45 302.19L232.97 301.92L233.48 301.62L233.99 301.3L234.48 300.95L234.96 300.57L235.43 300.17L235.89 299.74L236.34 299.28L236.77 298.81L237.18 298.32L237.56 297.82L237.91 297.3L238.25 296.76L238.56 296.21L238.84 295.65L239.1 295.07L239.33 294.48L239.54 293.87L239.73 293.25L239.89 292.61L240.02 291.96L240.13 291.29L240.22 290.61L240.28 289.92L240.32 289.21L240.33 288.48L240.32 287.75L240.28 287.04L240.22 286.34L240.13 285.66L240.02 284.98L239.89 284.32L239.73 283.68L239.54 283.05L239.33 282.43L239.1 281.82L238.84 281.23L238.56 280.65L238.25 280.09L237.91 279.53L237.56 279L237.18 278.47L236.77 277.96L236.34 277.46L235.89 276.98L235.43 276.53L234.96 276.11L234.47 275.71L233.98 275.34L233.48 275L232.96 274.69L232.43 274.4L231.89 274.14L231.34 273.91L230.78 273.7L230.21 273.53L229.62 273.38L229.03 273.25L228.42 273.16L227.8 273.09L227.17 273.05L226.53 273.03L225.89 273.05L225.26 273.09Z" id="a8BP5Y26t3"></path><path d="M96.84 325.88C97.14 325.75 98.62 325.12 101.28 323.99C103.92 322.82 105.39 322.17 105.68 322.04C106 322.72 113.71 338.65 147.69 338.65C181.85 338.65 190.43 322.55 190.77 321.86C191.64 322.28 198.59 325.64 199.45 326.06C199.02 326.97 188.39 348.29 147.69 348.29C106.86 348.29 97.23 326.79 96.84 325.88Z" id="e27E407g8M"></path><path d="M357.62 364.84L356.31 361.88L349.77 361.88L348.46 364.84L346.11 364.84L351.87 351.78L354.22 351.78L359.98 364.84L357.62 364.84ZM355.41 359.84L353.04 354.45L350.67 359.84L355.41 359.84Z" id="e1PHhkJ8zh"></path><path d="M376.92 362.46C377.47 362.21 378.05 361.8 378.65 361.24C378.79 361.39 379.92 362.55 380.07 362.69C378.68 364.23 377 365 375.03 365C373.05 365 371.42 364.36 370.11 363.09C368.81 361.82 368.16 360.21 368.16 358.27C368.16 356.33 368.82 354.71 370.15 353.41C371.47 352.11 373.15 351.47 375.18 351.47C377.2 351.47 378.89 352.21 380.25 353.71C380.11 353.86 378.99 355.09 378.85 355.24C378.23 354.64 377.64 354.22 377.09 353.99C376.53 353.75 375.88 353.63 375.13 353.63C373.81 353.63 372.7 354.06 371.81 354.91C370.91 355.77 370.46 356.86 370.46 358.19C370.46 359.51 370.91 360.62 371.8 361.51C372.68 362.4 373.74 362.84 374.96 362.84C375.72 362.84 376.37 362.72 376.92 362.46Z" id="d1yaJl9Z20"></path><path d="M390.96 351.59L391.61 351.74L392.24 351.95L392.84 352.22L393.41 352.55L393.95 352.95L394.46 353.4L394.92 353.9L395.32 354.43L395.66 354.98L395.94 355.57L396.16 356.19L396.31 356.84L396.4 357.51L396.44 358.22L396.4 358.93L396.31 359.6L396.16 360.25L395.94 360.87L395.66 361.46L395.32 362.01L394.92 362.54L394.46 363.04L393.95 363.49L393.41 363.89L392.84 364.22L392.24 364.49L391.61 364.7L390.96 364.86L390.27 364.95L389.56 364.98L388.84 364.95L388.16 364.86L387.5 364.7L386.88 364.49L386.28 364.22L385.71 363.89L385.17 363.49L384.66 363.04L384.2 362.54L383.79 362.01L383.45 361.46L383.17 360.87L382.96 360.25L382.8 359.6L382.71 358.93L382.68 358.22L382.71 357.51L382.8 356.84L382.96 356.19L383.17 355.57L383.45 354.98L383.79 354.43L384.2 353.9L384.66 353.4L385.17 352.95L385.71 352.55L386.28 352.22L386.88 351.95L387.5 351.74L388.16 351.59L388.84 351.5L389.56 351.47L390.27 351.5L390.96 351.59ZM388.1 353.7L387.44 353.98L386.84 354.37L386.28 354.86L385.8 355.44L385.42 356.07L385.16 356.74L385 357.46L384.94 358.22L385 358.98L385.16 359.7L385.42 360.37L385.8 361L386.28 361.57L386.84 362.07L387.44 362.46L388.1 362.74L388.8 362.9L389.56 362.96L390.31 362.9L391.01 362.74L391.67 362.46L392.28 362.07L392.84 361.57L393.32 361L393.69 360.37L393.96 359.7L394.12 358.98L394.17 358.22L394.12 357.46L393.96 356.74L393.69 356.07L393.32 355.44L392.84 354.86L392.28 354.37L391.67 353.98L391.01 353.7L390.31 353.54L389.56 353.48L388.8 353.54L388.1 353.7Z" id="b7ygmRVMO"></path><path d="M400.27 364.85L400.27 351.78L403.71 351.78L407.65 359.99L411.59 351.78L415.01 351.78L415.01 364.85L412.81 364.85L412.81 354.64L408.24 363.7L407.01 363.7L402.47 354.64L402.47 364.85L400.27 364.85Z" id="a6vOVlpnM"></path><path d="M419.68 364.85L419.68 351.78L423.12 351.78L427.06 359.99L431.01 351.78L434.43 351.78L434.43 364.85L432.22 364.85L432.22 354.64L427.66 363.7L426.43 363.7L421.89 354.64L421.89 364.85L419.68 364.85Z" id="bybHQeqdj"></path><path d="M444.46 362.9C445.48 362.9 446.3 362.55 446.89 361.86C447.49 361.16 447.79 360.21 447.79 359.02C447.79 358.53 447.79 356.12 447.79 351.78L449.99 351.78C449.99 356.18 449.99 358.62 449.99 359.11C449.99 360.99 449.48 362.44 448.44 363.45C447.41 364.47 446.08 364.98 444.46 364.98C442.85 364.98 441.52 364.47 440.48 363.45C439.45 362.44 438.93 360.99 438.93 359.11C438.93 358.62 438.93 356.18 438.93 351.78L441.14 351.78C441.14 356.12 441.14 358.53 441.14 359.02C441.14 360.21 441.44 361.16 442.03 361.86C442.63 362.55 443.44 362.9 444.46 362.9Z" id="ecZvkH5H7"></path><path d="M466.5 351.78L466.5 364.85L464.11 364.85L456.71 355.31L456.71 364.85L454.5 364.85L454.5 351.78L456.71 351.78L464.29 361.54L464.29 351.78L466.5 351.78Z" id="eQhBQze7K"></path><path d="M473.38 351.78L473.38 364.85L471.17 364.85L471.17 351.78L473.38 351.78Z" id="dUce75eWA"></path><path d="M482.98 364.85L480.78 364.85L480.78 353.8L476.82 353.8L476.82 351.78L486.94 351.78L486.94 353.8L482.98 353.8L482.98 364.85Z" id="b4ikMl5fE"></path><path d="M493.28 364.85L493.28 359.69L488.42 351.78L490.83 351.78L494.4 357.73L497.97 351.78L500.38 351.78L495.52 359.69L495.52 364.85L493.28 364.85Z" id="b17Id0c6gZ"></path><path d="M521.25 351.78L521.25 364.85L518.86 364.85L511.46 355.31L511.46 364.85L509.26 364.85L509.26 351.78L511.46 351.78L519.05 361.54L519.05 351.78L521.25 351.78Z" id="b3sH02Arh"></path><path d="M535.1 353.86L528.13 353.86L528.13 357.31L534.39 357.31L534.39 359.28L528.13 359.28L528.13 362.77L535.33 362.77L535.33 364.85L525.93 364.85L525.93 351.78L535.1 351.78L535.1 353.86Z" id="dAlQBlWlG"></path><path d="M544.13 364.85L541.92 364.85L541.92 353.8L537.96 353.8L537.96 351.78L548.09 351.78L548.09 353.8L544.13 353.8L544.13 364.85Z" id="dDqKCwlRw"></path><path d="M558.52 351.78L560.5 351.78L563.41 361.18L566.7 351.78L569.08 351.78L564.52 364.85L562.33 364.85L559.58 355.89L559.44 355.89L556.69 364.85L554.5 364.85L549.94 351.78L552.32 351.78L555.6 361.18L558.52 351.78Z" id="g4TWGxVhQ"></path><path d="M579.47 351.59L580.12 351.74L580.75 351.95L581.35 352.22L581.91 352.55L582.45 352.95L582.96 353.4L583.43 353.9L583.83 354.43L584.17 354.98L584.45 355.57L584.67 356.19L584.82 356.84L584.92 357.51L584.95 358.22L584.92 358.93L584.82 359.6L584.67 360.25L584.45 360.87L584.17 361.46L583.83 362.01L583.43 362.54L582.96 363.04L582.45 363.49L581.91 363.89L581.35 364.22L580.75 364.49L580.12 364.7L579.47 364.86L578.78 364.95L578.07 364.98L577.35 364.95L576.67 364.86L576.01 364.7L575.38 364.49L574.79 364.22L574.22 363.89L573.68 363.49L573.17 363.04L572.71 362.54L572.3 362.01L571.96 361.46L571.68 360.87L571.47 360.25L571.31 359.6L571.22 358.93L571.19 358.22L571.22 357.51L571.31 356.84L571.47 356.19L571.68 355.57L571.96 354.98L572.3 354.43L572.71 353.9L573.17 353.4L573.68 352.95L574.22 352.55L574.79 352.22L575.38 351.95L576.01 351.74L576.67 351.59L577.35 351.5L578.07 351.47L578.78 351.5L579.47 351.59ZM576.61 353.7L575.95 353.98L575.35 354.37L574.79 354.86L574.31 355.44L573.93 356.07L573.67 356.74L573.51 357.46L573.45 358.22L573.51 358.98L573.67 359.7L573.93 360.37L574.31 361L574.79 361.57L575.35 362.07L575.95 362.46L576.61 362.74L577.31 362.9L578.07 362.96L578.82 362.9L579.52 362.74L580.18 362.46L580.79 362.07L581.35 361.57L581.83 361L582.2 360.37L582.47 359.7L582.63 358.98L582.68 358.22L582.63 357.46L582.47 356.74L582.2 356.07L581.83 355.44L581.35 354.86L580.79 354.37L580.18 353.98L579.52 353.7L578.82 353.54L578.07 353.48L577.31 353.54L576.61 353.7Z" id="a2OR0Lxns"></path><path d="M594.76 351.82L595.28 351.87L595.75 351.94L596.2 352.03L596.61 352.14L596.99 352.28L597.33 352.43L597.64 352.6L597.92 352.79L598.16 353.01L598.38 353.24L598.57 353.51L598.74 353.79L598.88 354.1L599 354.44L599.09 354.8L599.15 355.18L599.19 355.59L599.2 356.02L599.17 356.65L599.09 357.22L598.95 357.75L598.75 358.23L598.5 358.66L598.19 359.04L597.82 359.38L597.4 359.67L596.92 359.91L596.38 360.1L599.8 364.85L597 364.85L593.88 360.46L590.98 360.46L590.98 364.85L588.78 364.85L588.78 351.78L593.63 351.78L594.22 351.79L594.76 351.82ZM590.98 358.45L593.73 358.45L594.59 358.42L595.3 358.31L595.86 358.13L596.27 357.88L596.56 357.54L596.77 357.12L596.9 356.61L596.94 356.02L596.9 355.43L596.77 354.94L596.55 354.55L596.25 354.26L595.84 354.05L595.29 353.9L594.6 353.81L593.78 353.78L590.98 353.78L590.98 358.45Z" id="d8KT1Yhdh"></path><path d="M605.63 351.78L605.63 358.16L611.61 351.78L614.41 351.78L609.16 357.5L614.49 364.85L611.87 364.85L607.54 359.13L605.63 361.18L605.63 364.85L603.43 364.85L603.43 351.78L605.63 351.78Z" id="c2pKMbdDK"></path></defs><g><g><use xlink:href="#a1g2KLsu5Q" opacity="1" fill="#ffffff" fill-opacity="1"></use><g><use xlink:href="#a1g2KLsu5Q" opacity="1" fill-opacity="0" stroke="#000000" stroke-width="1" stroke-opacity="0"></use></g></g><g><use xlink:href="#biNU2YRkq" opacity="1" fill="#ffffff" fill-opacity="1"></use><g><use xlink:href="#biNU2YRkq" opacity="1" fill-opacity="0" stroke="#000000" stroke-width="1" stroke-opacity="0"></use></g></g><g><use xlink:href="#a1MMtvRjvs" opacity="1" fill="#ffffff" fill-opacity="1"></use><g><use xlink:href="#a1MMtvRjvs" opacity="1" fill-opacity="0" stroke="#000000" stroke-width="1" stroke-opacity="0"></use></g></g><g><use xlink:href="#d2Ofd6YLPy" opacity="1" fill="#ffffff" fill-opacity="1"></use><g><use xlink:href="#d2Ofd6YLPy" opacity="1" fill-opacity="0" stroke="#000000" stroke-width="1" stroke-opacity="0"></use></g></g><g><use xlink:href="#amehCwhP" opacity="1" fill="#ffffff" fill-opacity="1"></use><g><use xlink:href="#amehCwhP" opacity="1" fill-opacity="0" stroke="#000000" stroke-width="1" stroke-opacity="0"></use></g></g><g><use xlink:href="#auOKSsrGa" opacity="1" fill="#ffffff" fill-opacity="1"></use><g><use xlink:href="#auOKSsrGa" opacity="1" fill-opacity="0" stroke="#000000" stroke-width="1" stroke-opacity="0"></use></g></g><g><use xlink:href="#a2iBTXG5bZ" opacity="1" fill="#ffffff" fill-opacity="1"></use><g><use xlink:href="#a2iBTXG5bZ" opacity="1" fill-opacity="0" stroke="#000000" stroke-width="1" stroke-opacity="0"></use></g></g><g><use xlink:href="#a7DMNDvFK" opacity="1" fill="#ffffff" fill-opacity="1"></use><g><use xlink:href="#a7DMNDvFK" opacity="1" fill-opacity="0" stroke="#000000" stroke-width="1" stroke-opacity="0"></use></g></g><g><use xlink:href="#a1dBTbfees" opacity="1" fill="#ffffff" fill-opacity="1"></use><g><use xlink:href="#a1dBTbfees" opacity="1" fill-opacity="0" stroke="#000000" stroke-width="1" stroke-opacity="0"></use></g></g><g><use xlink:href="#dTs8aU8XS" opacity="1" fill="#ffffff" fill-opacity="1"></use><g><use xlink:href="#dTs8aU8XS" opacity="1" fill-opacity="0" stroke="#000000" stroke-width="1" stroke-opacity="0"></use></g></g><g><use xlink:href="#c2Kq7GSSh" opacity="1" fill="#ffffff" fill-opacity="1"></use><g><use xlink:href="#c2Kq7GSSh" opacity="1" fill-opacity="0" stroke="#000000" stroke-width="1" stroke-opacity="0"></use></g></g><g><use xlink:href="#jFSd0VipT" opacity="1" fill="#ffffff" fill-opacity="1"></use><g><use xlink:href="#jFSd0VipT" opacity="1" fill-opacity="0" stroke="#000000" stroke-width="1" stroke-opacity="0"></use></g></g><g><use xlink:href="#a8BP5Y26t3" opacity="1" fill="#ffffff" fill-opacity="1"></use><g><use xlink:href="#a8BP5Y26t3" opacity="1" fill-opacity="0" stroke="#000000" stroke-width="1" stroke-opacity="0"></use></g></g><g><use xlink:href="#e27E407g8M" opacity="1" fill="#ffffff" fill-opacity="1"></use><g><use xlink:href="#e27E407g8M" opacity="1" fill-opacity="0" stroke="#000000" stroke-width="1" stroke-opacity="0"></use></g></g><g><use xlink:href="#e1PHhkJ8zh" opacity="1" fill="#ffffff" fill-opacity="1"></use><g><use xlink:href="#e1PHhkJ8zh" opacity="1" fill-opacity="0" stroke="#000000" stroke-width="1" stroke-opacity="0"></use></g></g><g><use xlink:href="#d1yaJl9Z20" opacity="1" fill="#ffffff" fill-opacity="1"></use><g><use xlink:href="#d1yaJl9Z20" opacity="1" fill-opacity="0" stroke="#000000" stroke-width="1" stroke-opacity="0"></use></g></g><g><use xlink:href="#b7ygmRVMO" opacity="1" fill="#ffffff" fill-opacity="1"></use><g><use xlink:href="#b7ygmRVMO" opacity="1" fill-opacity="0" stroke="#000000" stroke-width="1" stroke-opacity="0"></use></g></g><g><use xlink:href="#a6vOVlpnM" opacity="1" fill="#ffffff" fill-opacity="1"></use><g><use xlink:href="#a6vOVlpnM" opacity="1" fill-opacity="0" stroke="#000000" stroke-width="1" stroke-opacity="0"></use></g></g><g><use xlink:href="#bybHQeqdj" opacity="1" fill="#ffffff" fill-opacity="1"></use><g><use xlink:href="#bybHQeqdj" opacity="1" fill-opacity="0" stroke="#000000" stroke-width="1" stroke-opacity="0"></use></g></g><g><use xlink:href="#ecZvkH5H7" opacity="1" fill="#ffffff" fill-opacity="1"></use><g><use xlink:href="#ecZvkH5H7" opacity="1" fill-opacity="0" stroke="#000000" stroke-width="1" stroke-opacity="0"></use></g></g><g><use xlink:href="#eQhBQze7K" opacity="1" fill="#ffffff" fill-opacity="1"></use><g><use xlink:href="#eQhBQze7K" opacity="1" fill-opacity="0" stroke="#000000" stroke-width="1" stroke-opacity="0"></use></g></g><g><use xlink:href="#dUce75eWA" opacity="1" fill="#ffffff" fill-opacity="1"></use><g><use xlink:href="#dUce75eWA" opacity="1" fill-opacity="0" stroke="#000000" stroke-width="1" stroke-opacity="0"></use></g></g><g><use xlink:href="#b4ikMl5fE" opacity="1" fill="#ffffff" fill-opacity="1"></use><g><use xlink:href="#b4ikMl5fE" opacity="1" fill-opacity="0" stroke="#000000" stroke-width="1" stroke-opacity="0"></use></g></g><g><use xlink:href="#b17Id0c6gZ" opacity="1" fill="#ffffff" fill-opacity="1"></use><g><use xlink:href="#b17Id0c6gZ" opacity="1" fill-opacity="0" stroke="#000000" stroke-width="1" stroke-opacity="0"></use></g></g><g><use xlink:href="#b3sH02Arh" opacity="1" fill="#ffffff" fill-opacity="1"></use><g><use xlink:href="#b3sH02Arh" opacity="1" fill-opacity="0" stroke="#000000" stroke-width="1" stroke-opacity="0"></use></g></g><g><use xlink:href="#dAlQBlWlG" opacity="1" fill="#ffffff" fill-opacity="1"></use><g><use xlink:href="#dAlQBlWlG" opacity="1" fill-opacity="0" stroke="#000000" stroke-width="1" stroke-opacity="0"></use></g></g><g><use xlink:href="#dDqKCwlRw" opacity="1" fill="#ffffff" fill-opacity="1"></use><g><use xlink:href="#dDqKCwlRw" opacity="1" fill-opacity="0" stroke="#000000" stroke-width="1" stroke-opacity="0"></use></g></g><g><use xlink:href="#g4TWGxVhQ" opacity="1" fill="#ffffff" fill-opacity="1"></use><g><use xlink:href="#g4TWGxVhQ" opacity="1" fill-opacity="0" stroke="#000000" stroke-width="1" stroke-opacity="0"></use></g></g><g><use xlink:href="#a2OR0Lxns" opacity="1" fill="#ffffff" fill-opacity="1"></use><g><use xlink:href="#a2OR0Lxns" opacity="1" fill-opacity="0" stroke="#000000" stroke-width="1" stroke-opacity="0"></use></g></g><g><use xlink:href="#d8KT1Yhdh" opacity="1" fill="#ffffff" fill-opacity="1"></use><g><use xlink:href="#d8KT1Yhdh" opacity="1" fill-opacity="0" stroke="#000000" stroke-width="1" stroke-opacity="0"></use></g></g><g><use xlink:href="#c2pKMbdDK" opacity="1" fill="#ffffff" fill-opacity="1"></use><g><use xlink:href="#c2pKMbdDK" opacity="1" fill-opacity="0" stroke="#000000" stroke-width="1" stroke-opacity="0"></use></g></g></g></svg>