<?xml version="1.0" encoding="utf-8"?>
<!-- Generator: Adobe Illustrator 16.0.0, SVG Export Plug-In . SVG Version: 6.00 Build 0)  -->
<!DOCTYPE svg PUBLIC "-//W3C//DTD SVG 1.1//EN" "http://www.w3.org/Graphics/SVG/1.1/DTD/svg11.dtd">
<svg version="1.1" id="Layer_1" xmlns="http://www.w3.org/2000/svg" xmlns:xlink="http://www.w3.org/1999/xlink" x="0px" y="0px"
	 width="792px" height="612px" viewBox="0 0 792 612" enable-background="new 0 0 792 612" xml:space="preserve">
<g>
	<g>
		<path fill="#393A39" d="M333.629,285.691v25.5h-9.713v-47.106h9.713v8.589c1.56-2.891,3.715-5.165,6.461-6.817
			c2.745-1.652,5.709-2.478,8.892-2.478c5.202,0,9.408,1.623,12.619,4.868c3.21,3.248,4.812,7.941,4.812,14.081v28.864H356.7
			v-25.854c0-8.678-3.529-13.017-10.582-13.017c-3.353,0-6.274,1.138-8.758,3.409C334.872,278.002,333.629,281.323,333.629,285.691z
			"/>
	</g>
	<g>
		<path fill="#393A39" d="M419.058,291.98h-36.165c0.229,3.422,1.761,6.182,4.595,8.276c2.831,2.098,6.071,3.143,9.715,3.143
			c5.779,0,10.174-1.858,13.182-5.576l5.551,6.196c-4.974,5.256-11.448,7.881-19.427,7.881c-6.479,0-11.985-2.199-16.523-6.595
			c-4.54-4.399-6.807-10.301-6.807-17.709s2.312-13.296,6.936-17.666c4.628-4.368,10.076-6.551,16.351-6.551
			c6.272,0,11.606,1.932,16.001,5.797c4.396,3.867,6.593,9.197,6.593,15.984V291.98z M382.893,284.187h26.45
			c0-3.954-1.213-6.996-3.645-9.121c-2.425-2.126-5.418-3.188-8.975-3.188c-3.554,0-6.751,1.107-9.584,3.319
			C384.308,277.413,382.893,280.409,382.893,284.187z"/>
	</g>
	<g>
		<path fill="#393A39" d="M435.623,311.191h-9.715v-47.106h9.715V311.191z"/>
	</g>
	<g>
		<path fill="#393A39" d="M488.524,264.085v41.086c0,8.325-2.211,14.569-6.634,18.727c-4.425,4.162-10.104,6.242-17.042,6.242
			c-6.938,0-13.212-2.211-18.822-6.641l4.597-7.523c4.513,3.48,9.065,5.223,13.661,5.223c4.598,0,8.239-1.213,10.928-3.631
			c2.689-2.422,4.032-6.287,4.032-11.6v-6.021c-1.445,2.775-3.513,4.99-6.2,6.642c-2.69,1.654-5.711,2.48-9.063,2.48
			c-6.128,0-11.159-2.183-15.091-6.553c-3.934-4.37-5.897-9.799-5.897-16.293c0-6.492,1.964-11.922,5.897-16.292
			c3.932-4.368,8.946-6.551,15.048-6.551c6.098,0,11.059,2.567,14.874,7.703v-6.997H488.524z M452.533,285.825
			c0,3.867,1.172,7.201,3.513,10.005c2.341,2.805,5.491,4.206,9.451,4.206c3.962,0,7.168-1.358,9.629-4.072
			c2.457-2.716,3.686-6.097,3.686-10.139s-1.244-7.467-3.729-10.271c-2.487-2.803-5.696-4.206-9.629-4.206
			c-3.932,0-7.067,1.447-9.408,4.339C453.705,278.578,452.533,281.958,452.533,285.825z"/>
	</g>
	<g>
		<path fill="#393A39" d="M508.472,285.691v25.5h-9.713v-65.613h9.713v27.095c1.389-2.891,3.482-5.165,6.29-6.817
			c2.802-1.652,5.822-2.478,9.061-2.478c5.206,0,9.412,1.623,12.62,4.868c3.209,3.248,4.813,7.941,4.813,14.081v28.864h-9.715
			v-25.854c0-8.678-3.526-13.017-10.579-13.017c-3.355,0-6.274,1.138-8.761,3.409C509.716,278.002,508.472,281.323,508.472,285.691z
			"/>
	</g>
	<g>
		<path fill="#393A39" d="M575.687,263.379c6.184,0,11.477,2.183,15.871,6.551c4.393,4.37,6.592,10.182,6.592,17.443
			c0,7.262-2.186,13.165-6.547,17.711c-4.367,4.544-9.456,6.816-15.266,6.816c-5.812,0-11.029-2.596-15.655-7.792v7.083h-9.715
			v-65.7h9.715v26.829C564.497,266.359,569.498,263.379,575.687,263.379z M560.509,287.726c0,4.487,1.33,8.162,3.988,11.025
			c2.659,2.863,5.898,4.295,9.715,4.295s7.14-1.418,9.973-4.251c2.832-2.832,4.25-6.508,4.25-11.023
			c0-4.515-1.387-8.265-4.161-11.245c-2.777-2.981-6.104-4.472-9.976-4.472c-3.874,0-7.142,1.491-9.801,4.472
			C561.839,279.507,560.509,283.242,560.509,287.726z"/>
	</g>
	<g>
		<path fill="#393A39" d="M644.029,304.862c-4.628,4.693-10.408,7.039-17.347,7.039c-6.939,0-12.721-2.346-17.346-7.039
			c-4.626-4.692-6.939-10.434-6.939-17.222s2.313-12.531,6.939-17.224c4.625-4.693,10.406-7.038,17.346-7.038
			c6.938,0,12.719,2.344,17.347,7.038c4.624,4.693,6.936,10.436,6.936,17.224S648.653,300.169,644.029,304.862z M616.232,298.751
			c2.745,2.863,6.229,4.295,10.45,4.295c4.221,0,7.703-1.432,10.449-4.295c2.747-2.863,4.121-6.566,4.121-11.111
			c0-4.547-1.374-8.251-4.121-11.113c-2.746-2.864-6.229-4.294-10.449-4.294c-4.222,0-7.705,1.43-10.45,4.294
			c-2.749,2.862-4.121,6.566-4.121,11.113C612.111,292.185,613.483,295.888,616.232,298.751z"/>
	</g>
	<g>
		<path fill="#393A39" d="M682.362,273.382c-4.799,0-8.413,1.596-10.842,4.783c-2.427,3.188-3.64,7.468-3.64,12.839v20.188h-9.715
			v-47.106h9.715v9.476c1.56-2.951,3.683-5.372,6.374-7.262c2.687-1.888,5.535-2.863,8.541-2.92l0.088,10.003
			C682.71,273.382,682.536,273.382,682.362,273.382z"/>
	</g>
</g>
<g>
	<path fill="#393A39" d="M373.135,352.648c1.351,0,2.508,0.479,3.468,1.432c0.961,0.957,1.438,2.227,1.438,3.811
		c0,1.588-0.476,2.877-1.43,3.873c-0.954,0.992-2.064,1.49-3.335,1.49s-2.41-0.566-3.422-1.705v1.549h-2.122V348.74h2.122v5.863
		C370.688,353.299,371.781,352.648,373.135,352.648z M369.816,357.969c0,0.982,0.292,1.785,0.872,2.41
		c0.581,0.625,1.29,0.938,2.124,0.938s1.56-0.309,2.181-0.926c0.617-0.621,0.927-1.426,0.927-2.41c0-0.986-0.304-1.807-0.909-2.457
		c-0.607-0.65-1.334-0.979-2.181-0.979s-1.561,0.328-2.142,0.979C370.108,356.174,369.816,356.99,369.816,357.969z"/>
	<path fill="#393A39" d="M385.756,354.836c-1.05,0-1.838,0.348-2.367,1.045c-0.532,0.695-0.798,1.629-0.798,2.805v4.412h-2.123
		v-10.293h2.123v2.07c0.342-0.648,0.805-1.176,1.393-1.588c0.588-0.41,1.212-0.625,1.868-0.639l0.018,2.188
		C385.833,354.836,385.793,354.836,385.756,354.836z"/>
	<path fill="#393A39" d="M388.127,350.752c-0.269-0.271-0.4-0.594-0.4-0.967s0.132-0.697,0.4-0.967
		c0.264-0.27,0.579-0.41,0.946-0.41c0.365,0,0.683,0.141,0.946,0.41c0.266,0.27,0.399,0.594,0.399,0.967s-0.134,0.695-0.399,0.967
		c-0.264,0.27-0.581,0.406-0.946,0.406C388.706,351.158,388.391,351.021,388.127,350.752z M390.113,363.098h-2.121v-10.293h2.121
		V363.098z"/>
	<path fill="#393A39" d="M395.308,357.523v5.574h-2.123v-10.293h2.123v1.875c0.34-0.633,0.812-1.127,1.413-1.49
		c0.6-0.361,1.247-0.541,1.942-0.541c1.135,0,2.054,0.355,2.757,1.064c0.701,0.709,1.05,1.734,1.05,3.074v6.311h-2.121v-5.65
		c0-1.896-0.771-2.844-2.312-2.844c-0.733,0-1.372,0.25-1.915,0.744C395.577,355.846,395.308,356.57,395.308,357.523z"/>
	<path fill="#393A39" d="M414.751,352.805v8.979c0,1.818-0.48,3.184-1.449,4.092c-0.966,0.91-2.207,1.363-3.724,1.363
		s-2.887-0.482-4.113-1.449l1.005-1.646c0.985,0.76,1.981,1.143,2.986,1.143s1.8-0.264,2.388-0.795
		c0.588-0.527,0.881-1.373,0.881-2.535v-1.314c-0.315,0.605-0.769,1.09-1.354,1.451c-0.589,0.361-1.247,0.541-1.981,0.541
		c-1.337,0-2.438-0.477-3.298-1.432c-0.859-0.953-1.287-2.139-1.287-3.561c0-1.418,0.428-2.604,1.287-3.561
		c0.86-0.953,1.955-1.432,3.29-1.432c1.331,0,2.414,0.561,3.249,1.684v-1.527H414.751z M406.889,357.553
		c0,0.844,0.254,1.576,0.766,2.188c0.512,0.613,1.199,0.92,2.065,0.92s1.566-0.297,2.105-0.891c0.534-0.594,0.805-1.33,0.805-2.217
		c0-0.883-0.272-1.629-0.814-2.244c-0.543-0.611-1.245-0.918-2.103-0.918c-0.862,0-1.547,0.314-2.059,0.949
		C407.143,355.971,406.889,356.709,406.889,357.553z"/>
	<path fill="#393A39" d="M417.957,350.752c-0.269-0.271-0.399-0.594-0.399-0.967s0.131-0.697,0.399-0.967
		c0.264-0.27,0.579-0.41,0.946-0.41s0.683,0.141,0.948,0.41c0.265,0.27,0.397,0.594,0.397,0.967s-0.133,0.695-0.397,0.967
		c-0.266,0.27-0.581,0.406-0.948,0.406S418.221,351.021,417.957,350.752z M419.945,363.098h-2.123v-10.293h2.123V363.098z"/>
	<path fill="#393A39" d="M425.139,357.523v5.574h-2.124v-10.293h2.124v1.875c0.341-0.633,0.812-1.127,1.412-1.49
		c0.599-0.361,1.247-0.541,1.943-0.541c1.136,0,2.054,0.355,2.756,1.064c0.7,0.709,1.053,1.734,1.053,3.074v6.311h-2.124v-5.65
		c0-1.896-0.769-2.844-2.311-2.844c-0.733,0-1.371,0.25-1.915,0.744C425.409,355.846,425.139,356.57,425.139,357.523z"/>
	<path fill="#393A39" d="M444.584,352.805v8.979c0,1.818-0.483,3.184-1.451,4.092c-0.966,0.91-2.207,1.363-3.724,1.363
		s-2.887-0.482-4.113-1.449l1.004-1.646c0.987,0.76,1.983,1.143,2.985,1.143c1.007,0,1.802-0.264,2.389-0.795
		c0.588-0.527,0.881-1.373,0.881-2.535v-1.314c-0.315,0.605-0.768,1.09-1.354,1.451c-0.588,0.361-1.248,0.541-1.982,0.541
		c-1.337,0-2.438-0.477-3.297-1.432c-0.859-0.953-1.288-2.139-1.288-3.561c0-1.418,0.429-2.604,1.288-3.561
		c0.859-0.953,1.956-1.432,3.288-1.432s2.418,0.561,3.25,1.684v-1.527H444.584z M436.718,357.553c0,0.844,0.255,1.576,0.767,2.188
		c0.514,0.613,1.199,0.92,2.065,0.92c0.865,0,1.567-0.297,2.105-0.891s0.805-1.33,0.805-2.217c0-0.883-0.272-1.629-0.814-2.244
		c-0.543-0.611-1.245-0.918-2.103-0.918c-0.862,0-1.545,0.314-2.059,0.949C436.973,355.971,436.718,356.709,436.718,357.553z"/>
	<path fill="#393A39" d="M457.317,363.254c-1.401,0-2.607-0.49-3.619-1.463c-1.01-0.975-1.516-2.248-1.516-3.822
		c0-1.572,0.527-2.855,1.584-3.838c1.053-0.988,2.34-1.482,3.855-1.482c1.517,0,2.798,0.533,3.849,1.607l-1.253,1.564
		c-0.872-0.773-1.75-1.16-2.634-1.16s-1.652,0.301-2.303,0.902c-0.65,0.6-0.976,1.373-0.976,2.32s0.322,1.752,0.966,2.408
		c0.645,0.658,1.438,0.986,2.378,0.986c0.941,0,1.831-0.438,2.665-1.314l1.249,1.393
		C460.338,362.619,458.923,363.254,457.317,363.254z"/>
	<path fill="#393A39" d="M471.987,361.713c-1.011,1.027-2.274,1.541-3.791,1.541c-1.518,0-2.779-0.514-3.791-1.541
		c-1.01-1.025-1.516-2.279-1.516-3.76c0-1.484,0.506-2.738,1.516-3.766c1.012-1.025,2.273-1.539,3.791-1.539
		c1.517,0,2.78,0.514,3.791,1.539c1.01,1.027,1.514,2.281,1.514,3.766C473.501,359.434,472.997,360.688,471.987,361.713z
		 M465.913,360.379c0.601,0.625,1.362,0.938,2.283,0.938c0.922,0,1.682-0.312,2.285-0.938c0.6-0.625,0.898-1.434,0.898-2.426
		c0-0.996-0.299-1.805-0.898-2.43c-0.604-0.627-1.363-0.939-2.285-0.939c-0.921,0-1.683,0.312-2.283,0.939
		c-0.6,0.625-0.899,1.434-0.899,2.43C465.014,358.945,465.313,359.754,465.913,360.379z"/>
	<path fill="#393A39" d="M478.032,357.523v5.574h-2.121v-10.293h2.121v1.875c0.304-0.633,0.762-1.127,1.374-1.49
		c0.613-0.361,1.275-0.541,1.981-0.541c1.594,0,2.673,0.672,3.241,2.012c0.998-1.34,2.243-2.012,3.731-2.012
		c1.141,0,2.059,0.355,2.761,1.064c0.699,0.709,1.051,1.734,1.051,3.074v6.311h-2.122v-5.65c0-1.896-0.771-2.844-2.314-2.844
		c-0.72,0-1.349,0.236-1.885,0.705c-0.537,0.471-0.817,1.16-0.844,2.061v5.729h-2.123v-5.65c0-0.979-0.17-1.699-0.51-2.158
		c-0.343-0.455-0.878-0.686-1.611-0.686c-0.734,0-1.371,0.25-1.915,0.744C478.305,355.846,478.032,356.57,478.032,357.523z"/>
	<path fill="#393A39" d="M497.249,357.523v5.574h-2.122v-10.293h2.122v1.875c0.305-0.633,0.761-1.127,1.377-1.49
		c0.612-0.361,1.272-0.541,1.979-0.541c1.594,0,2.675,0.672,3.243,2.012c0.997-1.34,2.242-2.012,3.732-2.012
		c1.137,0,2.056,0.355,2.757,1.064s1.054,1.734,1.054,3.074v6.311h-2.124v-5.65c0-1.896-0.77-2.844-2.312-2.844
		c-0.72,0-1.348,0.236-1.886,0.705c-0.535,0.471-0.816,1.16-0.844,2.061v5.729h-2.123v-5.65c0-0.979-0.169-1.699-0.51-2.158
		c-0.342-0.455-0.879-0.686-1.611-0.686c-0.735,0-1.372,0.25-1.917,0.744C497.523,355.846,497.249,356.57,497.249,357.523z"/>
	<path fill="#393A39" d="M521.396,358.375v-5.57h2.123v10.293h-2.123v-1.877c-0.343,0.633-0.812,1.129-1.413,1.49
		c-0.598,0.361-1.247,0.543-1.942,0.543c-1.138,0-2.056-0.355-2.756-1.064c-0.703-0.713-1.055-1.734-1.055-3.078v-6.307h2.125v5.648
		c0,1.896,0.769,2.844,2.312,2.844c0.732,0,1.37-0.248,1.915-0.746C521.123,360.057,521.396,359.332,521.396,358.375z"/>
	<path fill="#393A39" d="M528.708,357.523v5.574h-2.119v-10.293h2.119v1.875c0.344-0.633,0.813-1.127,1.414-1.49
		c0.602-0.361,1.248-0.541,1.943-0.541c1.137,0,2.057,0.355,2.758,1.064s1.052,1.734,1.052,3.074v6.311h-2.122v-5.65
		c0-1.896-0.771-2.844-2.312-2.844c-0.735,0-1.372,0.25-1.916,0.744C528.982,355.846,528.708,356.57,528.708,357.523z"/>
	<path fill="#393A39" d="M538.965,350.752c-0.266-0.271-0.399-0.594-0.399-0.967s0.134-0.697,0.399-0.967
		c0.265-0.27,0.581-0.41,0.945-0.41c0.37,0,0.684,0.141,0.948,0.41c0.266,0.27,0.398,0.594,0.398,0.967s-0.133,0.695-0.398,0.967
		c-0.265,0.27-0.578,0.406-0.948,0.406C539.546,351.158,539.229,351.021,538.965,350.752z M540.954,363.098h-2.123v-10.293h2.123
		V363.098z"/>
	<path fill="#393A39" d="M546.639,354.545v5.225c0,0.49,0.127,0.879,0.381,1.172c0.25,0.289,0.604,0.434,1.061,0.434
		c0.454,0,0.892-0.227,1.307-0.68l0.873,1.533c-0.745,0.684-1.571,1.025-2.475,1.025s-1.673-0.32-2.312-0.959
		c-0.637-0.641-0.956-1.498-0.956-2.582v-5.168h-1.271v-1.74h1.271v-3.234h2.122v3.234h2.653v1.74H546.639z"/>
	<path fill="#393A39" d="M552.08,350.752c-0.267-0.271-0.399-0.594-0.399-0.967s0.133-0.697,0.399-0.967
		c0.265-0.27,0.581-0.41,0.945-0.41c0.368,0,0.685,0.141,0.948,0.41s0.397,0.594,0.397,0.967s-0.134,0.695-0.397,0.967
		c-0.264,0.27-0.58,0.406-0.948,0.406C552.661,351.158,552.345,351.021,552.08,350.752z M554.068,363.098h-2.123v-10.293h2.123
		V363.098z"/>
	<path fill="#393A39" d="M566.52,358.898h-7.9c0.048,0.75,0.384,1.354,1.002,1.812c0.621,0.455,1.327,0.684,2.122,0.684
		c1.264,0,2.225-0.406,2.882-1.219l1.213,1.354c-1.087,1.148-2.503,1.725-4.246,1.725c-1.415,0-2.618-0.48-3.609-1.443
		c-0.991-0.959-1.487-2.252-1.487-3.869s0.504-2.904,1.517-3.861c1.009-0.953,2.2-1.432,3.572-1.432
		c1.369,0,2.536,0.422,3.495,1.268c0.961,0.846,1.44,2.008,1.44,3.492V358.898z M558.619,357.193h5.777
		c0-0.861-0.265-1.525-0.795-1.99s-1.183-0.697-1.964-0.697c-0.774,0-1.473,0.244-2.092,0.725
		C558.928,355.715,558.619,356.371,558.619,357.193z"/>
	<path fill="#393A39" d="M576.035,360.021c0,0.98-0.349,1.764-1.043,2.352c-0.694,0.586-1.586,0.881-2.674,0.881
		c-0.731,0-1.493-0.137-2.282-0.406c-0.79-0.271-1.488-0.652-2.094-1.143l1.023-1.684c1.176,0.902,2.312,1.354,3.411,1.354
		c0.48,0,0.858-0.115,1.137-0.34c0.278-0.223,0.417-0.512,0.417-0.859c0-0.516-0.672-0.98-2.009-1.395
		c-0.102-0.037-0.178-0.064-0.227-0.076c-2.099-0.58-3.147-1.547-3.147-2.902c0-0.955,0.363-1.721,1.091-2.293
		c0.726-0.574,1.671-0.861,2.834-0.861c1.16,0,2.26,0.35,3.298,1.045l-0.797,1.607c-0.82-0.557-1.715-0.834-2.674-0.834
		c-0.506,0-0.914,0.094-1.229,0.283c-0.317,0.186-0.476,0.465-0.476,0.84c0,0.334,0.165,0.58,0.493,0.736
		c0.229,0.113,0.547,0.225,0.958,0.328c0.41,0.104,0.774,0.205,1.088,0.309c0.317,0.105,0.625,0.219,0.921,0.35
		c0.297,0.129,0.615,0.309,0.957,0.543C575.693,358.32,576.035,359.039,576.035,360.021z"/>
	<path fill="#393A39" d="M586.248,354.545v5.225c0,0.49,0.127,0.879,0.38,1.172c0.252,0.289,0.607,0.434,1.062,0.434
		c0.455,0,0.892-0.227,1.31-0.68l0.871,1.533c-0.747,0.684-1.571,1.025-2.475,1.025c-0.904,0-1.674-0.32-2.312-0.959
		c-0.64-0.641-0.958-1.498-0.958-2.582v-5.168h-1.271v-1.74h1.271v-3.234h2.122v3.234h2.652v1.74H586.248z"/>
	<path fill="#393A39" d="M599.916,361.713c-1.012,1.027-2.275,1.541-3.792,1.541s-2.781-0.514-3.789-1.541
		c-1.012-1.025-1.518-2.279-1.518-3.76c0-1.484,0.506-2.738,1.518-3.766c1.008-1.025,2.272-1.539,3.789-1.539
		s2.78,0.514,3.792,1.539c1.009,1.027,1.515,2.281,1.515,3.766C601.431,359.434,600.925,360.688,599.916,361.713z M593.841,360.379
		c0.6,0.625,1.36,0.938,2.283,0.938c0.922,0,1.682-0.312,2.283-0.938c0.6-0.625,0.901-1.434,0.901-2.426
		c0-0.996-0.302-1.805-0.901-2.43c-0.602-0.627-1.361-0.939-2.283-0.939c-0.923,0-1.684,0.312-2.283,0.939
		c-0.6,0.625-0.898,1.434-0.898,2.43C592.942,358.945,593.241,359.754,593.841,360.379z"/>
	<path fill="#393A39" d="M613.162,352.805v8.979c0,1.818-0.483,3.184-1.451,4.092c-0.965,0.91-2.208,1.363-3.724,1.363
		c-1.515,0-2.887-0.482-4.113-1.449l1.006-1.646c0.985,0.76,1.98,1.143,2.985,1.143c1.003,0,1.8-0.264,2.388-0.795
		c0.587-0.527,0.881-1.373,0.881-2.535v-1.314c-0.318,0.605-0.769,1.09-1.356,1.451s-1.248,0.541-1.979,0.541
		c-1.341,0-2.439-0.477-3.298-1.432c-0.86-0.953-1.288-2.139-1.288-3.561c0-1.418,0.428-2.604,1.288-3.561
		c0.858-0.953,1.956-1.432,3.288-1.432c1.334,0,2.416,0.561,3.25,1.684v-1.527H613.162z M605.296,357.553
		c0,0.844,0.256,1.576,0.768,2.188c0.512,0.613,1.201,0.92,2.067,0.92c0.865,0,1.566-0.297,2.103-0.891
		c0.537-0.594,0.805-1.33,0.805-2.217c0-0.883-0.272-1.629-0.812-2.244c-0.545-0.611-1.246-0.918-2.106-0.918
		c-0.857,0-1.544,0.314-2.056,0.949C605.552,355.971,605.296,356.709,605.296,357.553z"/>
	<path fill="#393A39" d="M625.613,358.898h-7.901c0.05,0.75,0.383,1.354,1.003,1.812c0.618,0.455,1.326,0.684,2.123,0.684
		c1.262,0,2.222-0.406,2.881-1.219l1.212,1.354c-1.085,1.148-2.502,1.725-4.246,1.725c-1.414,0-2.617-0.48-3.608-1.443
		c-0.994-0.959-1.488-2.252-1.488-3.869s0.506-2.904,1.515-3.861c1.011-0.953,2.205-1.432,3.572-1.432
		c1.371,0,2.538,0.422,3.498,1.268c0.961,0.846,1.44,2.008,1.44,3.492V358.898z M617.712,357.193h5.779
		c0-0.861-0.268-1.525-0.795-1.99c-0.531-0.465-1.186-0.697-1.965-0.697c-0.775,0-1.473,0.244-2.093,0.725
		C618.021,355.715,617.712,356.371,617.712,357.193z"/>
	<path fill="#393A39" d="M630.483,354.545v5.225c0,0.49,0.127,0.879,0.379,1.172c0.254,0.289,0.607,0.434,1.062,0.434
		c0.453,0,0.89-0.227,1.309-0.68l0.871,1.533c-0.746,0.684-1.569,1.025-2.474,1.025c-0.903,0-1.674-0.32-2.312-0.959
		c-0.639-0.641-0.958-1.498-0.958-2.582v-5.168h-1.271v-1.74h1.271v-3.234h2.122v3.234h2.654v1.74H630.483z"/>
	<path fill="#393A39" d="M637.912,357.523v5.574h-2.123V348.76h2.123v5.92c0.303-0.633,0.762-1.127,1.374-1.49
		c0.613-0.361,1.274-0.541,1.98-0.541c1.138,0,2.057,0.355,2.757,1.064s1.055,1.734,1.055,3.074v6.311h-2.125v-5.65
		c0-1.896-0.769-2.844-2.312-2.844c-0.734,0-1.37,0.25-1.914,0.744C638.185,355.846,637.912,356.57,637.912,357.523z"/>
	<path fill="#393A39" d="M657.414,358.898h-7.901c0.048,0.75,0.385,1.354,1.005,1.812c0.618,0.455,1.324,0.684,2.121,0.684
		c1.263,0,2.224-0.406,2.883-1.219l1.21,1.354c-1.087,1.148-2.5,1.725-4.246,1.725c-1.414,0-2.619-0.48-3.609-1.443
		c-0.991-0.959-1.486-2.252-1.486-3.869s0.505-2.904,1.516-3.861c1.01-0.953,2.201-1.432,3.572-1.432
		c1.37,0,2.535,0.422,3.497,1.268c0.96,0.846,1.439,2.008,1.439,3.492V358.898z M649.513,357.193h5.779
		c0-0.861-0.266-1.525-0.797-1.99c-0.529-0.465-1.184-0.697-1.961-0.697c-0.775,0-1.475,0.244-2.096,0.725
		C649.822,355.715,649.513,356.371,649.513,357.193z"/>
	<path fill="#393A39" d="M665.032,354.836c-1.048,0-1.837,0.348-2.368,1.045c-0.529,0.695-0.795,1.629-0.795,2.805v4.412h-2.122
		v-10.293h2.122v2.07c0.339-0.648,0.805-1.176,1.394-1.588c0.584-0.41,1.207-0.625,1.865-0.639l0.02,2.188
		C665.11,354.836,665.071,354.836,665.032,354.836z"/>
	<path fill="#393A39" d="M666.539,362.828c-0.271-0.283-0.407-0.629-0.407-1.025c0-0.4,0.137-0.74,0.407-1.018
		c0.272-0.277,0.604-0.414,0.995-0.414c0.393,0,0.728,0.137,1.005,0.414c0.279,0.277,0.417,0.617,0.417,1.018
		c0,0.396-0.138,0.742-0.417,1.025c-0.277,0.283-0.612,0.426-1.005,0.426C667.144,363.254,666.812,363.111,666.539,362.828z"/>
</g>
<g>
	<g>
		<path fill="#393A39" d="M154.182,263.996v41.086c0,8.325-2.212,14.567-6.635,18.727c-4.423,4.162-10.104,6.244-17.043,6.244
			c-6.938,0-13.213-2.215-18.82-6.641l4.597-7.527c4.51,3.482,9.063,5.225,13.66,5.225s8.239-1.209,10.928-3.633
			c2.688-2.422,4.032-6.285,4.032-11.597v-6.021c-1.445,2.777-3.512,4.988-6.2,6.641c-2.69,1.654-5.711,2.48-9.063,2.48
			c-6.129,0-11.16-2.183-15.091-6.553c-3.932-4.367-5.897-9.798-5.897-16.295c0-6.492,1.965-11.921,5.897-16.29
			c3.932-4.369,8.948-6.553,15.048-6.553c6.098,0,11.059,2.567,14.874,7.704v-6.996H154.182z M118.189,285.736
			c0,3.867,1.17,7.201,3.513,10.004c2.341,2.806,5.492,4.207,9.452,4.207c3.961,0,7.168-1.356,9.627-4.072
			c2.457-2.717,3.687-6.097,3.687-10.139c0-4.044-1.244-7.468-3.731-10.274c-2.486-2.804-5.695-4.206-9.626-4.206
			c-3.932,0-7.068,1.448-9.409,4.34C119.36,278.489,118.189,281.868,118.189,285.736z"/>
	</g>
	<g>
		<path fill="#393A39" d="M203.008,304.771c-4.627,4.694-10.406,7.04-17.345,7.04c-6.939,0-12.721-2.346-17.345-7.04
			c-4.626-4.692-6.939-10.433-6.939-17.223c0-6.787,2.313-12.528,6.939-17.222c4.624-4.693,10.406-7.039,17.345-7.039
			c6.939,0,12.718,2.346,17.345,7.039c4.625,4.693,6.938,10.435,6.938,17.222C209.947,294.338,207.634,300.079,203.008,304.771z
			 M175.212,298.663c2.746,2.863,6.23,4.295,10.451,4.295c4.22,0,7.704-1.432,10.451-4.295c2.745-2.862,4.12-6.566,4.12-11.114
			c0-4.543-1.375-8.248-4.12-11.111c-2.748-2.862-6.231-4.295-10.451-4.295c-4.221,0-7.706,1.433-10.451,4.295
			c-2.747,2.863-4.12,6.568-4.12,11.111C171.092,292.096,172.465,295.8,175.212,298.663z"/>
	</g>
	<g>
		<path fill="#393A39" d="M255.739,304.771c-4.624,4.694-10.405,7.04-17.345,7.04c-6.937,0-12.719-2.346-17.345-7.04
			c-4.625-4.692-6.938-10.433-6.938-17.223c0-6.787,2.313-12.528,6.938-17.222c4.626-4.693,10.408-7.039,17.345-7.039
			c6.94,0,12.721,2.346,17.345,7.039c4.627,4.693,6.94,10.435,6.94,17.222C262.679,294.338,260.366,300.079,255.739,304.771z
			 M227.942,298.663c2.747,2.863,6.231,4.295,10.451,4.295c4.222,0,7.705-1.432,10.453-4.295c2.745-2.862,4.119-6.566,4.119-11.114
			c0-4.543-1.374-8.248-4.119-11.111c-2.748-2.862-6.231-4.295-10.453-4.295c-4.22,0-7.705,1.433-10.451,4.295
			c-2.746,2.863-4.118,6.568-4.118,11.111C223.824,292.096,225.196,295.8,227.942,298.663z"/>
	</g>
	<g>
		<path fill="#393A39" d="M273.432,305.082c-4.338-4.484-6.505-10.389-6.505-17.708c0-7.319,2.227-13.164,6.679-17.532
			c4.452-4.369,9.759-6.553,15.915-6.553s11.113,2.655,14.873,7.968v-25.854h9.714v65.702h-9.714v-7.084
			c-3.583,5.196-8.815,7.792-15.697,7.792C282.857,311.811,277.767,309.568,273.432,305.082z M276.641,287.771
			c0,4.516,1.417,8.19,4.249,11.025c2.832,2.833,6.158,4.251,9.973,4.251s7.055-1.432,9.714-4.295
			c2.659-2.863,3.989-6.538,3.989-11.025c0-4.484-1.331-8.234-3.989-11.245c-2.659-3.009-5.927-4.516-9.801-4.516
			c-3.872,0-7.198,1.507-9.973,4.516C278.03,279.492,276.641,283.254,276.641,287.771z"/>
	</g>
</g>
<g>
	<path fill="#393A39" d="M211.984,348.453c-40.616,0-50.159-21.76-50.547-22.688l8.29-3.668c0.313,0.701,8.069,17.133,42.257,17.133
		c34.352,0,42.976-16.598,43.327-17.305l8.132,4.02C263.014,326.865,252.468,348.453,211.984,348.453z"/>
</g>
</svg>
