<?xml version="1.0" encoding="UTF-8" standalone="no"?>
<!DOCTYPE svg PUBLIC "-//W3C//DTD SVG 1.1//EN" "http://www.w3.org/Graphics/SVG/1.1/DTD/svg11.dtd">
<svg version="1.1" xmlns="http://www.w3.org/2000/svg" xmlns:xlink="http://www.w3.org/1999/xlink" preserveAspectRatio="xMidYMid meet" viewBox="27.537095238095166 156.5208095238095 577.201 101.76099999999994" width="577" height="70"><defs><path d="M351.32 168.81C354.49 168.81 357.05 166.24 357.05 163.07C357.05 159.9 354.49 157.33 351.32 157.33C348.15 157.33 345.58 159.9 345.58 163.07C345.58 166.24 348.15 168.81 351.32 168.81Z" id="c29CmuYPfn"></path><path d="M253.68 221.3L243.91 221.3L243.91 174.92L253.68 174.92C253.68 179.99 253.68 182.81 253.68 183.37C255.25 180.53 257.41 178.29 260.17 176.66C262.93 175.04 265.91 174.22 269.11 174.22C274.34 174.22 278.57 175.82 281.79 179.02C285.02 182.21 286.63 186.83 286.63 192.88C286.63 194.77 286.63 204.24 286.63 221.3L276.87 221.3C276.87 206.02 276.87 197.54 276.87 195.84C276.87 187.3 273.32 183.03 266.23 183.03C262.86 183.03 259.93 184.15 257.43 186.38C254.93 188.62 253.68 191.89 253.68 196.19C253.68 199.54 253.68 207.91 253.68 221.3Z" id="j1sM7FDqQA"></path><path d="M317.78 174.23L318.24 174.25L318.7 174.28L319.16 174.31L319.61 174.35L320.06 174.39L320.51 174.45L320.95 174.51L321.39 174.58L321.83 174.65L322.26 174.73L322.69 174.82L323.11 174.92L323.53 175.02L323.95 175.13L324.37 175.25L324.78 175.38L325.19 175.51L325.59 175.65L325.99 175.79L326.39 175.95L326.78 176.11L327.17 176.28L327.56 176.45L327.94 176.63L328.32 176.82L328.69 177.02L329.07 177.22L329.43 177.43L329.8 177.65L330.16 177.87L330.52 178.11L330.87 178.34L331.22 178.59L331.57 178.84L331.91 179.1L332.25 179.37L332.59 179.65L332.92 179.93L333.25 180.22L333.57 180.51L333.88 180.81L334.18 181.11L334.48 181.42L334.76 181.74L335.04 182.06L335.31 182.39L335.57 182.72L335.82 183.05L336.07 183.4L336.3 183.74L336.53 184.1L336.75 184.46L336.96 184.82L337.16 185.19L337.36 185.56L337.54 185.94L337.72 186.33L337.89 186.72L338.05 187.12L338.21 187.52L338.35 187.92L338.49 188.34L338.62 188.75L338.74 189.18L338.85 189.61L338.95 190.04L339.05 190.48L339.13 190.92L339.21 191.37L339.28 191.83L339.35 192.29L339.4 192.76L339.45 193.23L339.48 193.7L339.51 194.19L339.53 194.67L339.54 195.17L339.55 195.67L339.55 202.38L303.2 202.38L303.22 202.63L303.24 202.88L303.27 203.12L303.31 203.37L303.34 203.61L303.39 203.85L303.44 204.09L303.49 204.32L303.55 204.55L303.61 204.78L303.68 205.01L303.76 205.24L303.84 205.46L303.92 205.68L304.01 205.9L304.1 206.11L304.2 206.32L304.3 206.53L304.41 206.74L304.52 206.95L304.64 207.15L304.76 207.35L304.89 207.55L305.03 207.74L305.16 207.93L305.31 208.12L305.45 208.31L305.61 208.5L305.76 208.68L305.92 208.86L306.09 209.04L306.26 209.21L306.44 209.39L306.62 209.56L306.81 209.73L307 209.89L307.2 210.05L307.4 210.22L307.6 210.37L307.81 210.53L308.03 210.68L308.24 210.83L308.46 210.98L308.68 211.12L308.9 211.26L309.12 211.39L309.35 211.52L309.57 211.64L309.8 211.77L310.03 211.88L310.26 212L310.49 212.11L310.72 212.21L310.95 212.32L311.19 212.42L311.43 212.51L311.67 212.6L311.91 212.69L312.15 212.77L312.39 212.85L312.64 212.93L312.88 213L313.13 213.07L313.38 213.13L313.63 213.19L313.88 213.25L314.14 213.3L314.39 213.35L314.65 213.39L314.91 213.43L315.17 213.47L315.43 213.5L315.7 213.53L315.96 213.56L316.23 213.58L316.49 213.59L316.76 213.61L317.03 213.62L317.31 213.62L317.58 213.62L318.01 213.62L318.44 213.61L318.86 213.59L319.28 213.57L319.69 213.54L320.1 213.5L320.5 213.46L320.9 213.4L321.29 213.35L321.68 213.28L322.06 213.21L322.43 213.13L322.8 213.04L323.17 212.95L323.53 212.85L323.88 212.75L324.23 212.63L324.58 212.51L324.92 212.38L325.25 212.25L325.58 212.11L325.9 211.96L326.22 211.81L326.53 211.65L326.84 211.48L327.14 211.3L327.44 211.12L327.73 210.93L328.02 210.74L328.3 210.53L328.58 210.32L328.85 210.11L329.12 209.88L329.38 209.65L329.63 209.42L329.88 209.17L330.13 208.92L330.37 208.67L330.6 208.4L330.83 208.13L336.41 214.23L336.03 214.62L335.65 214.99L335.26 215.35L334.87 215.71L334.47 216.05L334.06 216.39L333.65 216.71L333.23 217.03L332.81 217.33L332.38 217.63L331.94 217.92L331.5 218.19L331.06 218.46L330.61 218.72L330.15 218.96L329.69 219.2L329.22 219.43L328.74 219.65L328.26 219.85L327.78 220.05L327.29 220.24L326.79 220.42L326.29 220.59L325.78 220.75L325.27 220.9L324.75 221.04L324.22 221.17L323.69 221.29L323.16 221.41L322.61 221.51L322.07 221.6L321.51 221.68L320.95 221.76L320.39 221.82L319.82 221.87L319.24 221.92L318.66 221.95L318.07 221.97L317.48 221.99L316.88 221.99L316.4 221.99L315.91 221.98L315.43 221.96L314.96 221.93L314.49 221.89L314.02 221.85L313.55 221.79L313.09 221.73L312.64 221.66L312.18 221.59L311.73 221.5L311.29 221.41L310.84 221.31L310.4 221.2L309.97 221.08L309.54 220.95L309.11 220.82L308.69 220.68L308.26 220.53L307.85 220.37L307.43 220.2L307.02 220.03L306.62 219.85L306.22 219.66L305.82 219.46L305.42 219.25L305.03 219.03L304.64 218.81L304.26 218.58L303.88 218.34L303.5 218.09L303.13 217.84L302.76 217.57L302.39 217.3L302.03 217.02L301.67 216.73L301.32 216.44L300.96 216.13L300.62 215.82L300.27 215.5L299.94 215.17L299.61 214.84L299.29 214.5L298.97 214.16L298.67 213.81L298.37 213.45L298.09 213.09L297.81 212.72L297.54 212.35L297.28 211.97L297.03 211.59L296.78 211.2L296.55 210.81L296.32 210.41L296.1 210L295.89 209.59L295.69 209.18L295.5 208.75L295.32 208.33L295.14 207.89L294.97 207.45L294.82 207.01L294.67 206.56L294.53 206.11L294.39 205.64L294.27 205.18L294.15 204.71L294.05 204.23L293.95 203.74L293.86 203.26L293.78 202.76L293.7 202.26L293.64 201.76L293.58 201.25L293.54 200.73L293.5 200.21L293.47 199.68L293.45 199.15L293.43 198.61L293.43 198.06L293.43 197.52L293.45 196.98L293.47 196.45L293.5 195.92L293.54 195.4L293.59 194.88L293.64 194.37L293.71 193.87L293.78 193.37L293.87 192.87L293.96 192.39L294.06 191.9L294.17 191.43L294.28 190.95L294.41 190.49L294.55 190.03L294.69 189.57L294.84 189.13L295 188.68L295.17 188.25L295.35 187.81L295.54 187.39L295.74 186.97L295.94 186.55L296.16 186.14L296.38 185.74L296.61 185.34L296.85 184.95L297.1 184.56L297.35 184.18L297.62 183.8L297.89 183.43L298.18 183.07L298.47 182.71L298.77 182.35L299.08 182.01L299.4 181.66L299.73 181.33L300.06 181L300.41 180.67L300.76 180.35L301.11 180.04L301.47 179.74L301.82 179.45L302.19 179.16L302.55 178.88L302.92 178.61L303.29 178.35L303.67 178.1L304.05 177.85L304.43 177.61L304.81 177.38L305.2 177.16L305.59 176.95L305.99 176.74L306.38 176.54L306.78 176.35L307.19 176.17L307.59 176L308 175.83L308.41 175.68L308.83 175.53L309.25 175.39L309.67 175.25L310.09 175.13L310.52 175.01L310.95 174.9L311.39 174.8L311.82 174.71L312.26 174.62L312.71 174.55L313.15 174.48L313.6 174.42L314.06 174.36L314.51 174.32L314.97 174.28L315.43 174.26L315.9 174.23L316.37 174.22L316.84 174.22L317.31 174.22L317.78 174.23ZM315.48 182.67L314.68 182.76L313.9 182.9L313.14 183.07L312.38 183.28L311.64 183.54L310.91 183.83L310.2 184.16L309.49 184.52L308.8 184.93L308.13 185.37L307.46 185.86L306.83 186.37L306.25 186.92L305.72 187.49L305.24 188.09L304.81 188.71L304.43 189.37L304.11 190.05L303.83 190.76L303.6 191.49L303.42 192.26L303.3 193.04L303.22 193.86L303.2 194.71L329.78 194.71L329.76 193.82L329.7 192.97L329.59 192.15L329.44 191.37L329.24 190.61L329 189.89L328.72 189.2L328.4 188.54L328.03 187.91L327.62 187.32L327.16 186.76L326.66 186.23L326.12 185.73L325.55 185.26L324.95 184.83L324.34 184.44L323.71 184.09L323.05 183.78L322.38 183.5L321.69 183.26L320.97 183.05L320.24 182.88L319.48 182.75L318.71 182.66L317.91 182.61L317.1 182.59L316.28 182.61L315.48 182.67Z" id="bAkS1iJQb"></path><path d="M346.43 221.29L346.43 174.92L356.2 174.92L356.2 221.29L346.43 221.29Z" id="b7eugWXQQ"></path><path d="M385.57 174.24L386.02 174.26L386.46 174.29L386.9 174.34L387.34 174.39L387.77 174.45L388.2 174.52L388.62 174.6L389.04 174.69L389.46 174.79L389.87 174.9L390.27 175.02L390.68 175.15L391.07 175.28L391.47 175.43L391.85 175.59L392.24 175.75L392.62 175.93L393 176.11L393.37 176.31L393.73 176.51L394.1 176.73L394.46 176.95L394.81 177.18L395.16 177.42L395.51 177.67L395.85 177.93L396.19 178.2L396.52 178.48L396.85 178.77L397.17 179.07L397.49 179.38L397.81 179.7L398.12 180.02L398.43 180.36L398.73 180.71L399.03 181.06L399.32 181.43L399.61 181.8L399.61 174.92L409.37 174.92L409.37 215.37L409.37 215.98L409.36 216.58L409.34 217.18L409.31 217.76L409.27 218.34L409.22 218.92L409.17 219.48L409.11 220.04L409.04 220.59L408.96 221.13L408.87 221.66L408.77 222.19L408.67 222.71L408.56 223.22L408.44 223.72L408.31 224.22L408.17 224.71L408.02 225.19L407.87 225.66L407.71 226.12L407.54 226.58L407.36 227.03L407.17 227.47L406.97 227.91L406.77 228.33L406.56 228.75L406.34 229.16L406.11 229.56L405.87 229.96L405.62 230.35L405.37 230.73L405.11 231.1L404.84 231.47L404.56 231.82L404.27 232.17L403.97 232.51L403.67 232.85L403.36 233.17L403.03 233.49L402.71 233.8L402.37 234.11L402.03 234.4L401.68 234.69L401.33 234.97L400.98 235.24L400.62 235.51L400.26 235.77L399.89 236.02L399.51 236.26L399.13 236.49L398.75 236.72L398.36 236.94L397.97 237.15L397.57 237.35L397.17 237.55L396.76 237.74L396.35 237.92L395.94 238.09L395.52 238.26L395.09 238.41L394.66 238.56L394.22 238.71L393.78 238.84L393.34 238.97L392.89 239.09L392.44 239.2L391.98 239.3L391.51 239.4L391.04 239.49L390.57 239.57L390.09 239.64L389.61 239.7L389.12 239.76L388.63 239.81L388.13 239.85L387.63 239.89L387.12 239.92L386.61 239.94L386.1 239.95L385.58 239.95L385.05 239.95L384.53 239.93L384.02 239.91L383.5 239.89L382.99 239.85L382.48 239.8L381.98 239.75L381.47 239.69L380.97 239.62L380.47 239.54L379.97 239.46L379.48 239.36L378.99 239.26L378.5 239.15L378.01 239.03L377.53 238.9L377.04 238.77L376.57 238.63L376.09 238.48L375.61 238.32L375.14 238.15L374.67 237.97L374.21 237.79L373.74 237.6L373.28 237.4L372.82 237.19L372.37 236.97L371.91 236.75L371.46 236.51L371.01 236.27L370.56 236.02L370.12 235.77L369.68 235.5L369.24 235.23L368.8 234.94L368.37 234.65L367.94 234.36L367.51 234.05L367.08 233.73L366.66 233.41L371.28 226L371.62 226.26L371.96 226.5L372.3 226.75L372.64 226.98L372.98 227.21L373.32 227.43L373.66 227.65L374 227.85L374.35 228.06L374.69 228.25L375.03 228.44L375.37 228.63L375.71 228.8L376.05 228.97L376.4 229.14L376.74 229.29L377.08 229.45L377.42 229.59L377.77 229.73L378.11 229.86L378.45 229.99L378.8 230.1L379.14 230.22L379.49 230.32L379.83 230.42L380.17 230.52L380.52 230.6L380.86 230.68L381.21 230.76L381.55 230.83L381.9 230.89L382.24 230.94L382.59 230.99L382.93 231.03L383.28 231.07L383.62 231.1L383.97 231.12L384.31 231.13L384.66 231.14L385.01 231.15L385.35 231.14L385.69 231.14L386.03 231.13L386.36 231.11L386.69 231.09L387.02 231.07L387.34 231.04L387.66 231L387.98 230.97L388.29 230.92L388.6 230.88L388.91 230.83L389.21 230.77L389.51 230.71L389.8 230.64L390.09 230.58L390.38 230.5L390.66 230.42L390.94 230.34L391.22 230.25L391.49 230.16L391.76 230.07L392.03 229.97L392.29 229.86L392.55 229.75L392.8 229.64L393.05 229.52L393.3 229.4L393.54 229.27L393.78 229.14L394.02 229L394.25 228.86L394.48 228.71L394.71 228.56L394.93 228.41L395.15 228.25L395.37 228.09L395.58 227.92L395.79 227.75L395.99 227.57L396.19 227.39L396.39 227.2L396.58 227.01L396.76 226.81L396.94 226.61L397.12 226.4L397.29 226.19L397.45 225.97L397.61 225.75L397.76 225.52L397.91 225.28L398.06 225.04L398.2 224.8L398.33 224.55L398.46 224.29L398.59 224.03L398.7 223.76L398.82 223.49L398.93 223.21L399.03 222.93L399.13 222.64L399.22 222.35L399.31 222.05L399.4 221.75L399.48 221.44L399.55 221.12L399.62 220.8L399.68 220.48L399.74 220.15L399.79 219.81L399.84 219.47L399.88 219.12L399.92 218.77L399.95 218.41L399.98 218.05L400 217.68L400.02 217.31L400.03 216.93L400.04 216.54L400.05 216.15L400.05 210.22L399.94 210.43L399.82 210.63L399.71 210.83L399.59 211.03L399.47 211.22L399.35 211.42L399.23 211.61L399.1 211.8L398.97 211.98L398.84 212.17L398.71 212.35L398.57 212.53L398.43 212.71L398.29 212.89L398.15 213.06L398 213.24L397.86 213.41L397.71 213.58L397.55 213.74L397.4 213.91L397.24 214.07L397.08 214.23L396.92 214.39L396.76 214.54L396.59 214.7L396.42 214.85L396.25 215L396.08 215.15L395.9 215.29L395.72 215.44L395.54 215.58L395.36 215.72L395.17 215.86L394.99 215.99L394.8 216.13L394.61 216.26L394.41 216.39L394.21 216.51L394.01 216.64L393.81 216.76L393.61 216.88L393.41 217L393.2 217.11L392.99 217.23L392.78 217.33L392.57 217.44L392.36 217.54L392.15 217.64L391.94 217.74L391.72 217.83L391.51 217.92L391.29 218.01L391.07 218.09L390.85 218.17L390.63 218.25L390.41 218.32L390.19 218.4L389.96 218.46L389.73 218.53L389.51 218.59L389.28 218.65L389.05 218.71L388.82 218.76L388.59 218.81L388.35 218.86L388.12 218.9L387.88 218.94L387.65 218.98L387.41 219.02L387.17 219.05L386.93 219.08L386.68 219.11L386.44 219.13L386.2 219.15L385.95 219.16L385.7 219.18L385.45 219.19L385.21 219.2L384.95 219.2L384.7 219.2L384.24 219.2L383.79 219.19L383.33 219.17L382.89 219.14L382.44 219.1L382 219.06L381.57 219.01L381.14 218.94L380.71 218.88L380.29 218.8L379.87 218.71L379.46 218.62L379.05 218.52L378.64 218.41L378.24 218.3L377.84 218.17L377.45 218.04L377.06 217.9L376.67 217.75L376.29 217.59L375.91 217.42L375.54 217.25L375.17 217.07L374.81 216.88L374.45 216.68L374.09 216.48L373.74 216.26L373.39 216.04L373.05 215.81L372.71 215.57L372.37 215.33L372.04 215.07L371.71 214.81L371.39 214.54L371.07 214.26L370.75 213.98L370.44 213.68L370.14 213.38L369.83 213.07L369.54 212.75L369.24 212.43L368.96 212.1L368.68 211.77L368.41 211.43L368.15 211.09L367.89 210.75L367.64 210.4L367.4 210.05L367.17 209.69L366.94 209.33L366.72 208.97L366.51 208.6L366.31 208.23L366.11 207.85L365.92 207.47L365.74 207.09L365.57 206.7L365.4 206.31L365.24 205.92L365.09 205.52L364.94 205.11L364.81 204.71L364.68 204.3L364.55 203.88L364.44 203.46L364.33 203.04L364.23 202.61L364.14 202.18L364.05 201.75L363.98 201.31L363.91 200.87L363.84 200.42L363.79 199.97L363.74 199.52L363.7 199.06L363.66 198.6L363.64 198.13L363.62 197.66L363.61 197.19L363.61 196.71L363.61 196.23L363.62 195.76L363.64 195.29L363.66 194.82L363.7 194.36L363.74 193.9L363.79 193.45L363.84 193L363.91 192.55L363.98 192.11L364.05 191.67L364.14 191.24L364.23 190.81L364.33 190.38L364.44 189.96L364.55 189.54L364.68 189.13L364.81 188.72L364.94 188.31L365.09 187.91L365.24 187.51L365.4 187.11L365.57 186.72L365.74 186.33L365.92 185.95L366.11 185.57L366.31 185.19L366.51 184.82L366.72 184.46L366.94 184.09L367.17 183.73L367.4 183.38L367.64 183.02L367.89 182.68L368.15 182.33L368.41 181.99L368.68 181.66L368.96 181.32L369.24 180.99L369.54 180.67L369.83 180.35L370.14 180.04L370.44 179.74L370.75 179.44L371.07 179.16L371.39 178.88L371.71 178.61L372.04 178.35L372.37 178.09L372.7 177.85L373.04 177.61L373.38 177.38L373.73 177.16L374.08 176.95L374.44 176.74L374.8 176.54L375.16 176.35L375.53 176.17L375.9 176L376.28 175.83L376.66 175.67L377.04 175.53L377.43 175.38L377.82 175.25L378.22 175.13L378.62 175.01L379.03 174.9L379.43 174.8L379.85 174.71L380.26 174.62L380.69 174.54L381.11 174.48L381.54 174.42L381.97 174.36L382.41 174.32L382.85 174.28L383.3 174.25L383.75 174.23L384.2 174.22L384.66 174.22L385.12 174.22L385.57 174.24ZM384.82 182.12L384.17 182.2L383.53 182.3L382.9 182.44L382.3 182.6L381.71 182.79L381.14 183.01L380.58 183.26L380.04 183.54L379.52 183.85L379.01 184.19L378.52 184.56L378.05 184.96L377.59 185.39L377.15 185.85L376.73 186.34L376.32 186.84L375.94 187.36L375.59 187.89L375.26 188.43L374.95 188.98L374.67 189.53L374.42 190.1L374.19 190.68L373.98 191.26L373.79 191.86L373.64 192.47L373.5 193.09L373.39 193.71L373.31 194.35L373.24 195L373.21 195.65L373.2 196.32L373.21 196.99L373.24 197.64L373.31 198.29L373.39 198.92L373.5 199.54L373.64 200.15L373.79 200.76L373.98 201.35L374.19 201.93L374.42 202.49L374.67 203.05L374.95 203.6L375.26 204.14L375.59 204.66L375.94 205.17L376.32 205.68L376.73 206.17L377.15 206.64L377.59 207.09L378.05 207.5L378.52 207.89L379.01 208.25L379.52 208.58L380.05 208.88L380.59 209.15L381.15 209.39L381.72 209.61L382.32 209.8L382.93 209.95L383.55 210.08L384.2 210.18L384.86 210.25L385.54 210.3L386.23 210.31L386.92 210.3L387.6 210.26L388.27 210.19L388.91 210.09L389.55 209.96L390.16 209.81L390.76 209.63L391.35 209.42L391.92 209.19L392.47 208.92L393.01 208.63L393.53 208.31L394.04 207.97L394.53 207.59L395 207.19L395.46 206.76L395.91 206.3L396.33 205.82L396.73 205.33L397.1 204.83L397.44 204.31L397.77 203.77L398.06 203.23L398.33 202.67L398.57 202.09L398.79 201.51L398.98 200.9L399.15 200.29L399.29 199.66L399.41 199.02L399.5 198.37L399.56 197.7L399.6 197.01L399.61 196.32L399.6 195.62L399.56 194.94L399.49 194.27L399.4 193.61L399.29 192.96L399.14 192.33L398.97 191.71L398.78 191.1L398.56 190.51L398.31 189.93L398.04 189.36L397.74 188.8L397.42 188.26L397.07 187.73L396.69 187.21L396.29 186.7L395.86 186.21L395.41 185.74L394.95 185.29L394.47 184.88L393.98 184.49L393.47 184.13L392.94 183.8L392.4 183.5L391.85 183.23L391.28 182.98L390.7 182.77L390.1 182.58L389.48 182.42L388.85 182.3L388.21 182.19L387.55 182.12L386.87 182.08L386.19 182.07L385.5 182.08L384.82 182.12Z" id="e1M7HBXCb0"></path><path d="M429.43 221.3L419.66 221.3L419.66 156.7L429.43 156.7C429.43 172.7 429.43 181.6 429.43 183.37C430.82 180.53 432.93 178.29 435.75 176.66C438.57 175.04 441.6 174.22 444.86 174.22C450.09 174.22 454.31 175.82 457.54 179.02C460.77 182.21 462.38 186.83 462.38 192.88C462.38 194.77 462.38 204.24 462.38 221.3L452.61 221.3C452.61 206.02 452.61 197.54 452.61 195.84C452.61 187.3 449.07 183.03 441.98 183.03C438.61 183.03 435.67 184.15 433.18 186.38C430.67 188.62 429.43 191.89 429.43 196.19C429.43 199.54 429.43 207.91 429.43 221.3Z" id="bH4FgBNfU"></path><path d="M482.2 182.59L482.49 182.17L482.79 181.75L483.09 181.35L483.4 180.96L483.71 180.58L484.03 180.21L484.35 179.86L484.68 179.51L485.01 179.17L485.34 178.85L485.68 178.53L486.02 178.23L486.37 177.94L486.72 177.66L487.08 177.39L487.44 177.13L487.81 176.88L488.18 176.65L488.55 176.42L488.93 176.21L489.31 176L489.7 175.81L490.09 175.63L490.49 175.46L490.89 175.3L491.3 175.15L491.71 175.01L492.13 174.89L492.54 174.77L492.97 174.66L493.4 174.57L493.83 174.49L494.27 174.42L494.71 174.36L495.16 174.31L495.61 174.27L496.06 174.24L496.52 174.22L496.99 174.22L497.45 174.22L497.91 174.23L498.37 174.26L498.83 174.28L499.28 174.32L499.72 174.36L500.17 174.42L500.61 174.48L501.05 174.55L501.48 174.62L501.91 174.71L502.34 174.8L502.76 174.9L503.19 175.01L503.6 175.13L504.02 175.25L504.43 175.38L504.83 175.53L505.24 175.68L505.64 175.83L506.04 176L506.43 176.17L506.82 176.35L507.21 176.54L507.59 176.74L507.97 176.95L508.35 177.16L508.72 177.38L509.09 177.61L509.46 177.85L509.82 178.09L510.18 178.35L510.54 178.61L510.89 178.88L511.24 179.16L511.59 179.45L511.93 179.74L512.27 180.04L512.61 180.35L512.94 180.67L513.27 181L513.59 181.33L513.9 181.66L514.2 182L514.49 182.35L514.78 182.7L515.06 183.06L515.32 183.42L515.59 183.79L515.84 184.16L516.08 184.54L516.32 184.93L516.55 185.32L516.77 185.71L516.98 186.11L517.18 186.52L517.38 186.93L517.56 187.34L517.74 187.76L517.91 188.19L518.07 188.62L518.22 189.06L518.37 189.5L518.51 189.95L518.63 190.4L518.75 190.86L518.87 191.33L518.97 191.8L519.07 192.27L519.15 192.75L519.23 193.24L519.3 193.73L519.36 194.22L519.42 194.72L519.46 195.23L519.5 195.74L519.53 196.26L519.55 196.78L519.56 197.31L519.57 197.84L519.56 198.38L519.55 198.91L519.53 199.43L519.5 199.95L519.46 200.46L519.42 200.97L519.37 201.47L519.3 201.97L519.23 202.47L519.16 202.95L519.07 203.44L518.97 203.92L518.87 204.39L518.76 204.86L518.64 205.32L518.51 205.78L518.38 206.23L518.23 206.68L518.08 207.13L517.92 207.56L517.75 208L517.58 208.43L517.39 208.85L517.2 209.27L517 209.68L516.79 210.09L516.57 210.49L516.34 210.89L516.11 211.28L515.86 211.67L515.61 212.06L515.35 212.43L515.09 212.81L514.81 213.18L514.53 213.54L514.24 213.9L513.94 214.25L513.63 214.6L513.31 214.94L512.99 215.28L512.66 215.61L512.32 215.93L511.99 216.25L511.65 216.56L511.3 216.85L510.96 217.14L510.61 217.42L510.26 217.7L509.91 217.96L509.56 218.22L509.2 218.47L508.84 218.7L508.47 218.93L508.11 219.16L507.74 219.37L507.37 219.58L506.99 219.77L506.62 219.96L506.24 220.14L505.86 220.32L505.47 220.48L505.08 220.63L504.69 220.78L504.3 220.92L503.9 221.05L503.51 221.17L503.1 221.28L502.7 221.39L502.29 221.49L501.88 221.57L501.47 221.65L501.06 221.72L500.64 221.79L500.22 221.84L499.79 221.89L499.37 221.93L498.94 221.96L498.51 221.98L498.07 221.99L497.64 221.99L497.2 221.99L496.77 221.97L496.33 221.95L495.9 221.92L495.48 221.87L495.05 221.82L494.63 221.76L494.21 221.69L493.79 221.6L493.37 221.51L492.96 221.41L492.54 221.3L492.13 221.18L491.73 221.05L491.32 220.91L490.92 220.77L490.52 220.61L490.12 220.44L489.72 220.26L489.33 220.08L488.93 219.88L488.54 219.67L488.16 219.46L487.77 219.23L487.39 219L487.01 218.75L486.63 218.5L486.25 218.23L485.88 217.96L485.5 217.68L485.13 217.39L484.77 217.08L484.4 216.77L484.04 216.45L483.68 216.12L483.32 215.78L482.96 215.43L482.61 215.07L482.26 214.7L481.91 214.32L481.91 221.3L472.14 221.3L472.14 156.61L481.91 156.61L481.91 183.03L482.2 182.59ZM494.31 182.82L493.69 182.89L493.08 182.98L492.49 183.1L491.9 183.25L491.32 183.43L490.76 183.63L490.21 183.87L489.67 184.12L489.13 184.41L488.62 184.72L488.11 185.06L487.61 185.43L487.13 185.82L486.65 186.24L486.19 186.69L485.74 187.17L485.31 187.66L484.9 188.17L484.51 188.7L484.16 189.23L483.82 189.78L483.51 190.35L483.23 190.93L482.97 191.52L482.73 192.12L482.52 192.74L482.34 193.38L482.18 194.02L482.04 194.68L481.93 195.36L481.84 196.05L481.78 196.75L481.74 197.46L481.73 198.19L481.74 198.92L481.78 199.64L481.84 200.34L481.93 201.02L482.04 201.69L482.18 202.34L482.34 202.98L482.52 203.61L482.73 204.22L482.97 204.82L483.23 205.4L483.51 205.96L483.82 206.51L484.16 207.05L484.51 207.57L484.9 208.08L485.31 208.57L485.74 209.05L486.19 209.5L486.65 209.93L487.13 210.34L487.61 210.72L488.1 211.07L488.61 211.4L489.12 211.7L489.65 211.97L490.19 212.22L490.73 212.44L491.29 212.64L491.86 212.81L492.44 212.95L493.03 213.07L493.63 213.16L494.25 213.22L494.87 213.26L495.5 213.27L496.14 213.26L496.76 213.22L497.38 213.16L497.99 213.07L498.59 212.95L499.18 212.81L499.75 212.64L500.33 212.45L500.89 212.23L501.44 211.98L501.98 211.71L502.52 211.42L503.04 211.09L503.56 210.74L504.06 210.37L504.56 209.97L505.05 209.54L505.53 209.09L505.99 208.62L506.43 208.13L506.83 207.63L507.22 207.11L507.57 206.57L507.9 206.02L508.21 205.46L508.48 204.88L508.73 204.28L508.96 203.67L509.15 203.05L509.33 202.41L509.47 201.75L509.59 201.08L509.68 200.39L509.75 199.69L509.79 198.97L509.8 198.24L509.79 197.5L509.75 196.78L509.68 196.08L509.59 195.39L509.48 194.71L509.34 194.04L509.17 193.39L508.97 192.76L508.75 192.14L508.51 191.53L508.24 190.93L507.94 190.35L507.62 189.79L507.27 189.24L506.9 188.7L506.5 188.17L506.07 187.66L505.62 187.17L505.15 186.69L504.67 186.24L504.18 185.82L503.67 185.43L503.16 185.06L502.64 184.72L502.11 184.41L501.57 184.12L501.02 183.87L500.46 183.63L499.88 183.43L499.3 183.25L498.71 183.1L498.1 182.98L497.49 182.89L496.87 182.82L496.23 182.78L495.59 182.76L494.95 182.78L494.31 182.82Z" id="c3hpASmbI"></path><path d="M549.62 174.25L550.3 174.29L550.97 174.34L551.64 174.41L552.29 174.5L552.94 174.6L553.58 174.71L554.21 174.84L554.83 174.99L555.45 175.15L556.06 175.33L556.66 175.52L557.25 175.73L557.83 175.95L558.41 176.19L558.98 176.44L559.54 176.71L560.1 177L560.64 177.3L561.18 177.62L561.71 177.95L562.24 178.29L562.75 178.65L563.26 179.03L563.76 179.42L564.25 179.83L564.74 180.26L565.21 180.7L565.68 181.15L566.14 181.62L566.58 182.09L567.01 182.57L567.42 183.05L567.81 183.55L568.19 184.05L568.56 184.55L568.91 185.07L569.24 185.59L569.56 186.12L569.86 186.65L570.15 187.19L570.42 187.74L570.67 188.29L570.91 188.86L571.14 189.42L571.35 190L571.54 190.58L571.72 191.17L571.88 191.77L572.03 192.37L572.16 192.98L572.28 193.6L572.38 194.22L572.46 194.85L572.53 195.49L572.59 196.13L572.63 196.78L572.65 197.44L572.66 198.11L572.65 198.77L572.63 199.43L572.59 200.08L572.53 200.72L572.46 201.36L572.38 201.99L572.28 202.62L572.16 203.23L572.03 203.84L571.88 204.45L571.72 205.04L571.54 205.63L571.35 206.21L571.14 206.79L570.91 207.36L570.67 207.92L570.42 208.47L570.15 209.02L569.86 209.56L569.56 210.1L569.24 210.62L568.91 211.15L568.56 211.66L568.19 212.17L567.81 212.67L567.42 213.16L567.01 213.65L566.58 214.12L566.14 214.6L565.68 215.06L565.21 215.52L564.74 215.96L564.25 216.38L563.76 216.79L563.26 217.18L562.75 217.56L562.24 217.92L561.71 218.27L561.18 218.6L560.64 218.91L560.1 219.21L559.54 219.5L558.98 219.77L558.41 220.02L557.84 220.26L557.25 220.48L556.66 220.69L556.06 220.88L555.45 221.06L554.83 221.22L554.21 221.37L553.58 221.5L552.94 221.62L552.29 221.72L551.64 221.8L550.97 221.87L550.3 221.92L549.62 221.96L548.94 221.99L548.24 221.99L547.55 221.99L546.86 221.96L546.19 221.92L545.52 221.87L544.85 221.8L544.2 221.72L543.55 221.62L542.91 221.5L542.28 221.37L541.66 221.22L541.04 221.06L540.43 220.88L539.83 220.69L539.24 220.48L538.65 220.26L538.08 220.02L537.51 219.77L536.95 219.5L536.39 219.21L535.84 218.91L535.31 218.6L534.78 218.27L534.25 217.92L533.74 217.56L533.23 217.18L532.73 216.79L532.24 216.38L531.75 215.96L531.28 215.52L530.81 215.06L530.35 214.6L529.91 214.12L529.48 213.65L529.07 213.16L528.68 212.67L528.3 212.17L527.93 211.66L527.58 211.15L527.25 210.62L526.93 210.1L526.63 209.56L526.34 209.02L526.07 208.47L525.82 207.92L525.58 207.36L525.35 206.79L525.14 206.21L524.95 205.63L524.77 205.04L524.61 204.45L524.46 203.84L524.33 203.23L524.21 202.62L524.11 201.99L524.03 201.36L523.96 200.72L523.9 200.08L523.87 199.43L523.84 198.77L523.83 198.11L523.84 197.44L523.87 196.78L523.9 196.13L523.96 195.49L524.03 194.85L524.11 194.22L524.21 193.6L524.33 192.98L524.46 192.37L524.61 191.77L524.77 191.17L524.95 190.58L525.14 190L525.35 189.42L525.58 188.86L525.82 188.29L526.07 187.74L526.34 187.19L526.63 186.65L526.93 186.12L527.25 185.59L527.58 185.07L527.93 184.55L528.3 184.05L528.68 183.55L529.07 183.05L529.48 182.57L529.91 182.09L530.35 181.62L530.81 181.15L531.28 180.7L531.75 180.26L532.24 179.83L532.73 179.42L533.23 179.03L533.74 178.65L534.25 178.29L534.78 177.95L535.31 177.61L535.84 177.3L536.39 177L536.94 176.71L537.51 176.44L538.08 176.19L538.65 175.95L539.24 175.73L539.83 175.52L540.43 175.33L541.04 175.15L541.66 174.99L542.28 174.84L542.91 174.71L543.55 174.6L544.2 174.5L544.85 174.41L545.52 174.34L546.19 174.29L546.86 174.25L547.55 174.23L548.24 174.22L548.94 174.23L549.62 174.25ZM546.86 182.99L546.19 183.06L545.53 183.15L544.88 183.27L544.25 183.41L543.63 183.58L543.03 183.77L542.44 184L541.86 184.24L541.3 184.52L540.75 184.82L540.21 185.14L539.69 185.5L539.18 185.88L538.69 186.28L538.21 186.71L537.74 187.17L537.29 187.64L536.87 188.14L536.48 188.65L536.11 189.17L535.76 189.71L535.44 190.26L535.15 190.83L534.88 191.42L534.64 192.02L534.42 192.63L534.23 193.26L534.06 193.91L533.92 194.57L533.81 195.25L533.72 195.94L533.65 196.65L533.61 197.37L533.6 198.11L533.61 198.85L533.65 199.57L533.72 200.28L533.81 200.97L533.92 201.65L534.06 202.31L534.23 202.95L534.42 203.58L534.64 204.2L534.88 204.8L535.15 205.38L535.44 205.95L535.76 206.51L536.11 207.05L536.48 207.57L536.87 208.08L537.29 208.57L537.74 209.05L538.21 209.5L538.69 209.93L539.18 210.34L539.69 210.72L540.21 211.07L540.75 211.4L541.3 211.7L541.86 211.97L542.44 212.22L543.03 212.44L543.63 212.64L544.25 212.81L544.88 212.95L545.53 213.07L546.19 213.16L546.86 213.22L547.54 213.26L548.25 213.27L548.95 213.26L549.63 213.22L550.3 213.16L550.96 213.07L551.61 212.95L552.24 212.81L552.86 212.64L553.46 212.44L554.05 212.22L554.63 211.97L555.19 211.7L555.74 211.4L556.28 211.07L556.8 210.72L557.31 210.34L557.8 209.93L558.28 209.5L558.75 209.05L559.2 208.57L559.62 208.08L560.02 207.57L560.39 207.05L560.73 206.51L561.05 205.95L561.35 205.38L561.61 204.8L561.86 204.2L562.07 203.58L562.27 202.95L562.43 202.31L562.57 201.65L562.69 200.97L562.78 200.28L562.84 199.57L562.88 198.85L562.89 198.11L562.88 197.37L562.84 196.65L562.78 195.94L562.69 195.25L562.57 194.57L562.43 193.91L562.27 193.26L562.07 192.63L561.86 192.02L561.61 191.42L561.35 190.83L561.05 190.26L560.73 189.71L560.39 189.17L560.02 188.65L559.62 188.14L559.2 187.64L558.75 187.17L558.28 186.71L557.8 186.28L557.31 185.88L556.8 185.5L556.28 185.14L555.74 184.82L555.19 184.52L554.63 184.24L554.05 184L553.46 183.77L552.86 183.58L552.24 183.41L551.61 183.27L550.96 183.15L550.3 183.06L549.63 182.99L548.95 182.95L548.25 182.94L547.54 182.95L546.86 182.99Z" id="gL0In9SKr"></path><path d="M593.32 188.78C590.88 191.92 589.66 196.13 589.66 201.42C589.66 202.74 589.66 209.37 589.66 221.29L579.89 221.29L579.89 174.92L589.66 174.92C589.66 180.51 589.66 183.62 589.66 184.25C591.22 181.34 593.36 178.96 596.07 177.1C598.77 175.24 601.63 174.28 604.65 174.22C604.66 175.21 604.73 183.09 604.74 184.07C604.56 184.07 604.39 184.07 604.22 184.07C599.39 184.07 595.76 185.64 593.32 188.78Z" id="a1bYiJzkPM"></path><path d="M49.5 174.15L49.95 174.17L50.39 174.21L50.84 174.25L51.27 174.3L51.7 174.36L52.13 174.44L52.55 174.52L52.97 174.61L53.39 174.71L53.8 174.81L54.2 174.93L54.61 175.06L55 175.2L55.4 175.35L55.78 175.5L56.17 175.67L56.55 175.84L56.93 176.03L57.3 176.22L57.66 176.43L58.03 176.64L58.39 176.86L58.74 177.1L59.09 177.34L59.44 177.59L59.78 177.85L60.12 178.12L60.45 178.4L60.78 178.69L61.1 178.99L61.42 179.29L61.74 179.61L62.05 179.94L62.36 180.28L62.66 180.62L62.96 180.98L63.25 181.34L63.54 181.72L63.54 174.83L73.3 174.83L73.3 215.28L73.3 215.89L73.29 216.49L73.27 217.09L73.24 217.68L73.2 218.26L73.15 218.83L73.1 219.39L73.04 219.95L72.97 220.5L72.89 221.04L72.8 221.58L72.7 222.1L72.6 222.62L72.49 223.13L72.37 223.63L72.24 224.13L72.1 224.62L71.95 225.1L71.8 225.57L71.64 226.04L71.47 226.49L71.29 226.94L71.1 227.38L70.9 227.82L70.7 228.24L70.49 228.66L70.27 229.07L70.04 229.48L69.8 229.87L69.55 230.26L69.3 230.64L69.04 231.01L68.77 231.38L68.49 231.74L68.2 232.09L67.9 232.43L67.6 232.76L67.29 233.09L66.97 233.41L66.64 233.72L66.3 234.02L65.96 234.32L65.61 234.61L65.26 234.89L64.91 235.16L64.55 235.42L64.19 235.68L63.82 235.93L63.44 236.17L63.06 236.41L62.68 236.63L62.29 236.85L61.9 237.06L61.5 237.27L61.1 237.46L60.69 237.65L60.28 237.83L59.87 238L59.44 238.17L59.02 238.33L58.59 238.48L58.15 238.62L57.71 238.75L57.27 238.88L56.82 239L56.36 239.11L55.9 239.21L55.44 239.31L54.97 239.4L54.5 239.48L54.02 239.55L53.54 239.62L53.05 239.68L52.56 239.73L52.06 239.77L51.56 239.8L51.05 239.83L50.54 239.85L50.02 239.86L49.5 239.86L48.98 239.86L48.46 239.85L47.95 239.83L47.43 239.8L46.92 239.76L46.41 239.72L45.9 239.66L45.4 239.6L44.9 239.53L44.4 239.46L43.9 239.37L43.41 239.28L42.92 239.17L42.43 239.06L41.94 238.94L41.46 238.82L40.97 238.68L40.49 238.54L40.02 238.39L39.54 238.23L39.07 238.06L38.6 237.89L38.14 237.7L37.67 237.51L37.21 237.31L36.75 237.1L36.29 236.89L35.84 236.66L35.39 236.43L34.94 236.19L34.49 235.94L34.05 235.68L33.61 235.41L33.17 235.14L32.73 234.86L32.3 234.57L31.87 234.27L31.44 233.96L31.01 233.65L30.59 233.33L35.21 225.92L35.55 226.17L35.89 226.42L36.23 226.66L36.57 226.89L36.91 227.12L37.25 227.34L37.59 227.56L37.93 227.77L38.27 227.97L38.62 228.17L38.96 228.36L39.3 228.54L39.64 228.72L39.98 228.89L40.33 229.05L40.67 229.21L41.01 229.36L41.35 229.5L41.7 229.64L42.04 229.77L42.38 229.9L42.73 230.02L43.07 230.13L43.41 230.24L43.76 230.34L44.1 230.43L44.45 230.52L44.79 230.6L45.14 230.67L45.48 230.74L45.83 230.8L46.17 230.85L46.52 230.9L46.86 230.94L47.21 230.98L47.55 231.01L47.9 231.03L48.24 231.05L48.59 231.06L48.94 231.06L49.28 231.06L49.62 231.05L49.96 231.04L50.29 231.03L50.62 231L50.95 230.98L51.27 230.95L51.59 230.92L51.91 230.88L52.22 230.84L52.53 230.79L52.84 230.74L53.14 230.68L53.44 230.62L53.73 230.56L54.02 230.49L54.31 230.42L54.59 230.34L54.87 230.25L55.15 230.17L55.42 230.08L55.69 229.98L55.96 229.88L56.22 229.77L56.48 229.66L56.73 229.55L56.98 229.43L57.23 229.31L57.47 229.18L57.72 229.05L57.95 228.91L58.19 228.77L58.41 228.63L58.64 228.48L58.86 228.32L59.08 228.17L59.3 228L59.51 227.84L59.72 227.66L59.92 227.49L60.12 227.31L60.32 227.12L60.51 226.93L60.69 226.73L60.87 226.53L61.05 226.32L61.22 226.1L61.38 225.89L61.54 225.66L61.7 225.43L61.85 225.2L61.99 224.96L62.13 224.71L62.26 224.46L62.39 224.2L62.52 223.94L62.64 223.68L62.75 223.4L62.86 223.13L62.96 222.84L63.06 222.56L63.16 222.26L63.24 221.96L63.33 221.66L63.41 221.35L63.48 221.03L63.55 220.71L63.61 220.39L63.67 220.06L63.72 219.72L63.77 219.38L63.81 219.03L63.85 218.68L63.89 218.32L63.91 217.96L63.94 217.59L63.95 217.22L63.97 216.84L63.97 216.46L63.98 216.07L63.98 210.14L63.87 210.34L63.75 210.54L63.64 210.74L63.52 210.94L63.4 211.14L63.28 211.33L63.16 211.52L63.03 211.71L62.9 211.9L62.77 212.08L62.64 212.27L62.5 212.45L62.36 212.63L62.22 212.8L62.08 212.98L61.93 213.15L61.78 213.32L61.63 213.49L61.48 213.66L61.33 213.82L61.17 213.98L61.01 214.14L60.85 214.3L60.69 214.46L60.52 214.61L60.35 214.76L60.18 214.91L60.01 215.06L59.83 215.21L59.65 215.35L59.47 215.49L59.29 215.63L59.1 215.77L58.92 215.91L58.73 216.04L58.54 216.17L58.34 216.3L58.14 216.43L57.95 216.55L57.74 216.67L57.54 216.8L57.34 216.91L57.13 217.03L56.92 217.14L56.72 217.25L56.51 217.35L56.29 217.46L56.08 217.55L55.87 217.65L55.65 217.74L55.44 217.83L55.22 217.92L55 218.01L54.78 218.09L54.56 218.16L54.34 218.24L54.12 218.31L53.89 218.38L53.67 218.44L53.44 218.51L53.21 218.57L52.98 218.62L52.75 218.68L52.52 218.73L52.28 218.77L52.05 218.82L51.81 218.86L51.58 218.9L51.34 218.93L51.1 218.97L50.86 218.99L50.62 219.02L50.37 219.04L50.13 219.06L49.88 219.08L49.63 219.09L49.39 219.1L49.14 219.11L48.89 219.12L48.63 219.12L48.17 219.11L47.72 219.1L47.27 219.08L46.82 219.05L46.37 219.02L45.94 218.97L45.5 218.92L45.07 218.86L44.64 218.79L44.22 218.71L43.8 218.63L43.39 218.54L42.98 218.44L42.57 218.33L42.17 218.21L41.77 218.09L41.38 217.95L40.99 217.81L40.6 217.66L40.22 217.51L39.84 217.34L39.47 217.17L39.1 216.99L38.74 216.8L38.38 216.6L38.02 216.39L37.67 216.18L37.32 215.96L36.98 215.73L36.64 215.49L36.3 215.24L35.97 214.99L35.64 214.73L35.32 214.46L35 214.18L34.68 213.89L34.37 213.6L34.07 213.29L33.76 212.98L33.46 212.66L33.17 212.34L32.89 212.01L32.61 211.68L32.34 211.34L32.07 211L31.82 210.66L31.57 210.31L31.33 209.96L31.1 209.6L30.87 209.24L30.65 208.88L30.44 208.51L30.24 208.14L30.04 207.77L29.85 207.39L29.67 207L29.5 206.62L29.33 206.22L29.17 205.83L29.02 205.43L28.87 205.03L28.74 204.62L28.61 204.21L28.48 203.79L28.37 203.38L28.26 202.95L28.16 202.53L28.07 202.1L27.99 201.66L27.91 201.22L27.84 200.78L27.77 200.34L27.72 199.89L27.67 199.43L27.63 198.97L27.6 198.51L27.57 198.05L27.55 197.58L27.54 197.1L27.54 196.62L27.54 196.15L27.55 195.67L27.57 195.2L27.6 194.74L27.63 194.28L27.67 193.82L27.72 193.37L27.77 192.92L27.84 192.47L27.91 192.03L27.99 191.59L28.07 191.15L28.16 190.72L28.26 190.3L28.37 189.87L28.49 189.46L28.61 189.04L28.74 188.63L28.87 188.22L29.02 187.82L29.17 187.42L29.33 187.03L29.5 186.64L29.67 186.25L29.85 185.86L30.04 185.49L30.24 185.11L30.44 184.74L30.65 184.37L30.87 184.01L31.1 183.65L31.33 183.29L31.57 182.94L31.82 182.59L32.07 182.25L32.34 181.91L32.61 181.57L32.89 181.24L33.17 180.91L33.46 180.58L33.76 180.27L34.07 179.95L34.37 179.65L34.68 179.36L35 179.07L35.32 178.79L35.64 178.52L35.97 178.26L36.3 178.01L36.63 177.76L36.97 177.52L37.32 177.29L37.66 177.07L38.01 176.86L38.37 176.65L38.73 176.46L39.09 176.27L39.46 176.08L39.83 175.91L40.21 175.75L40.59 175.59L40.97 175.44L41.36 175.3L41.76 175.16L42.15 175.04L42.55 174.92L42.96 174.81L43.37 174.71L43.78 174.62L44.2 174.54L44.62 174.46L45.04 174.39L45.47 174.33L45.9 174.28L46.34 174.23L46.78 174.2L47.23 174.17L47.68 174.15L48.13 174.14L48.59 174.13L49.05 174.14L49.5 174.15ZM48.75 182.04L48.09 182.11L47.46 182.22L46.83 182.35L46.23 182.51L45.64 182.7L45.06 182.93L44.51 183.18L43.97 183.46L43.45 183.77L42.94 184.11L42.45 184.48L41.98 184.88L41.52 185.3L41.08 185.76L40.65 186.25L40.25 186.76L39.87 187.27L39.52 187.8L39.19 188.34L38.88 188.89L38.6 189.44L38.35 190.01L38.11 190.59L37.91 191.18L37.72 191.77L37.56 192.38L37.43 193L37.32 193.62L37.23 194.26L37.17 194.91L37.14 195.56L37.13 196.23L37.14 196.9L37.17 197.55L37.23 198.2L37.32 198.83L37.43 199.46L37.56 200.07L37.72 200.67L37.91 201.26L38.11 201.84L38.35 202.41L38.6 202.97L38.88 203.51L39.19 204.05L39.52 204.57L39.87 205.09L40.25 205.59L40.66 206.08L41.08 206.55L41.52 207L41.98 207.42L42.45 207.8L42.94 208.16L43.45 208.49L43.98 208.79L44.52 209.06L45.08 209.31L45.65 209.52L46.25 209.71L46.86 209.87L47.48 210L48.13 210.1L48.79 210.17L49.46 210.21L50.16 210.22L50.85 210.21L51.53 210.17L52.19 210.1L52.84 210L53.47 209.88L54.09 209.72L54.69 209.54L55.27 209.34L55.84 209.1L56.4 208.84L56.93 208.54L57.46 208.23L57.96 207.88L58.45 207.5L58.93 207.1L59.39 206.67L59.83 206.21L60.26 205.74L60.65 205.24L61.03 204.74L61.37 204.22L61.69 203.69L61.99 203.14L62.26 202.58L62.5 202.01L62.72 201.42L62.91 200.82L63.08 200.2L63.22 199.58L63.33 198.93L63.42 198.28L63.49 197.61L63.53 196.93L63.54 196.23L63.53 195.54L63.49 194.85L63.42 194.18L63.33 193.52L63.22 192.88L63.07 192.24L62.9 191.62L62.71 191.02L62.49 190.42L62.24 189.84L61.97 189.27L61.67 188.71L61.35 188.17L61 187.64L60.62 187.12L60.22 186.61L59.79 186.12L59.34 185.65L58.88 185.2L58.4 184.79L57.91 184.4L57.4 184.04L56.87 183.71L56.33 183.41L55.78 183.14L55.21 182.9L54.62 182.68L54.03 182.5L53.41 182.34L52.78 182.21L52.14 182.11L51.48 182.04L50.8 181.99L50.11 181.98L49.42 181.99L48.75 182.04Z" id="d9F3yG1pb"></path><path d="M106.32 174.16L107 174.2L107.67 174.26L108.34 174.32L108.99 174.41L109.64 174.51L110.28 174.62L110.91 174.76L111.53 174.9L112.15 175.06L112.76 175.24L113.36 175.43L113.95 175.64L114.54 175.86L115.11 176.1L115.68 176.36L116.24 176.63L116.8 176.91L117.34 177.21L117.88 177.53L118.41 177.86L118.94 178.21L119.45 178.57L119.96 178.95L120.46 179.34L120.95 179.75L121.44 180.17L121.91 180.61L122.38 181.06L122.84 181.53L123.28 182L123.71 182.48L124.12 182.97L124.51 183.46L124.89 183.96L125.26 184.47L125.61 184.98L125.94 185.5L126.26 186.03L126.56 186.56L126.85 187.1L127.12 187.65L127.37 188.21L127.61 188.77L127.84 189.34L128.05 189.91L128.24 190.49L128.42 191.08L128.58 191.68L128.73 192.28L128.86 192.89L128.98 193.51L129.08 194.13L129.16 194.76L129.23 195.4L129.29 196.05L129.33 196.7L129.35 197.35L129.36 198.02L129.35 198.68L129.33 199.34L129.29 199.99L129.23 200.64L129.16 201.27L129.08 201.91L128.98 202.53L128.86 203.15L128.73 203.76L128.58 204.36L128.42 204.95L128.24 205.54L128.05 206.13L127.84 206.7L127.61 207.27L127.37 207.83L127.12 208.39L126.85 208.93L126.56 209.48L126.26 210.01L125.94 210.54L125.61 211.06L125.26 211.57L124.89 212.08L124.51 212.58L124.12 213.07L123.71 213.56L123.28 214.04L122.84 214.51L122.38 214.97L121.91 215.43L121.44 215.87L120.95 216.29L120.46 216.7L119.96 217.09L119.45 217.47L118.94 217.83L118.41 218.18L117.88 218.51L117.35 218.82L116.8 219.12L116.24 219.41L115.68 219.68L115.11 219.93L114.54 220.17L113.95 220.4L113.36 220.6L112.76 220.8L112.15 220.97L111.53 221.13L110.91 221.28L110.28 221.41L109.64 221.53L108.99 221.63L108.34 221.71L107.67 221.78L107 221.84L106.32 221.87L105.64 221.9L104.95 221.9L104.25 221.9L103.57 221.87L102.89 221.84L102.22 221.78L101.56 221.71L100.9 221.63L100.25 221.53L99.62 221.41L98.98 221.28L98.36 221.13L97.74 220.97L97.14 220.8L96.54 220.6L95.94 220.4L95.36 220.17L94.78 219.93L94.21 219.68L93.65 219.41L93.09 219.12L92.55 218.82L92.01 218.51L91.48 218.18L90.96 217.83L90.44 217.47L89.93 217.09L89.43 216.7L88.94 216.29L88.46 215.87L87.98 215.43L87.51 214.97L87.05 214.51L86.61 214.04L86.19 213.56L85.78 213.07L85.38 212.58L85 212.08L84.64 211.57L84.29 211.06L83.95 210.54L83.64 210.01L83.33 209.48L83.05 208.93L82.78 208.39L82.52 207.83L82.28 207.27L82.06 206.7L81.85 206.13L81.65 205.54L81.47 204.95L81.31 204.36L81.16 203.76L81.03 203.15L80.92 202.53L80.82 201.91L80.73 201.27L80.66 200.64L80.61 199.99L80.57 199.34L80.54 198.68L80.54 198.02L80.54 197.35L80.57 196.7L80.61 196.05L80.66 195.4L80.73 194.76L80.82 194.13L80.92 193.51L81.03 192.89L81.16 192.28L81.31 191.68L81.47 191.08L81.65 190.49L81.85 189.91L82.06 189.34L82.28 188.77L82.52 188.21L82.78 187.65L83.05 187.1L83.33 186.56L83.64 186.03L83.95 185.5L84.29 184.98L84.64 184.47L85 183.96L85.38 183.46L85.78 182.97L86.19 182.48L86.61 182L87.05 181.53L87.51 181.06L87.98 180.61L88.46 180.17L88.94 179.75L89.43 179.34L89.93 178.95L90.44 178.57L90.96 178.21L91.48 177.86L92.01 177.53L92.55 177.21L93.09 176.91L93.65 176.63L94.21 176.36L94.78 176.1L95.36 175.86L95.94 175.64L96.53 175.43L97.14 175.24L97.74 175.06L98.36 174.9L98.98 174.76L99.61 174.62L100.25 174.51L100.9 174.41L101.56 174.32L102.22 174.26L102.89 174.2L103.57 174.16L104.25 174.14L104.95 174.13L105.64 174.14L106.32 174.16ZM103.56 182.9L102.89 182.97L102.23 183.06L101.58 183.18L100.95 183.32L100.33 183.49L99.73 183.69L99.14 183.91L98.56 184.16L98 184.43L97.45 184.73L96.91 185.06L96.39 185.41L95.88 185.79L95.39 186.19L94.91 186.62L94.44 187.08L94 187.56L93.57 188.05L93.18 188.56L92.81 189.08L92.46 189.62L92.14 190.17L91.85 190.74L91.58 191.33L91.34 191.93L91.12 192.54L90.93 193.17L90.76 193.82L90.62 194.48L90.51 195.16L90.42 195.85L90.35 196.56L90.31 197.28L90.3 198.02L90.31 198.76L90.35 199.48L90.42 200.19L90.51 200.88L90.62 201.56L90.76 202.22L90.93 202.86L91.12 203.49L91.34 204.11L91.58 204.71L91.85 205.29L92.14 205.86L92.46 206.42L92.81 206.96L93.18 207.48L93.57 207.99L94 208.48L94.44 208.96L94.91 209.42L95.39 209.85L95.88 210.25L96.39 210.63L96.91 210.98L97.45 211.31L98 211.61L98.56 211.88L99.14 212.13L99.73 212.35L100.33 212.55L100.95 212.72L101.58 212.86L102.23 212.98L102.89 213.07L103.56 213.14L104.25 213.17L104.95 213.19L105.65 213.17L106.33 213.14L107 213.07L107.66 212.98L108.31 212.86L108.94 212.72L109.56 212.55L110.16 212.35L110.75 212.13L111.33 211.88L111.89 211.61L112.44 211.31L112.98 210.98L113.5 210.63L114.01 210.25L114.51 209.85L114.99 209.42L115.45 208.96L115.9 208.48L116.32 207.99L116.72 207.48L117.09 206.96L117.43 206.42L117.75 205.86L118.05 205.29L118.31 204.71L118.56 204.11L118.77 203.49L118.97 202.86L119.13 202.22L119.27 201.56L119.39 200.88L119.48 200.19L119.54 199.48L119.58 198.76L119.59 198.02L119.58 197.28L119.54 196.56L119.48 195.85L119.39 195.16L119.27 194.48L119.13 193.82L118.97 193.17L118.77 192.54L118.56 191.93L118.31 191.33L118.05 190.74L117.75 190.17L117.43 189.62L117.09 189.08L116.72 188.56L116.32 188.05L115.9 187.56L115.45 187.08L114.99 186.62L114.51 186.19L114.01 185.79L113.5 185.41L112.98 185.06L112.44 184.73L111.89 184.43L111.33 184.16L110.75 183.91L110.16 183.69L109.56 183.49L108.94 183.32L108.31 183.18L107.66 183.06L107 182.97L106.33 182.9L105.65 182.86L104.95 182.85L104.25 182.86L103.56 182.9Z" id="isCpWumjg"></path><path d="M159.33 174.16L160.01 174.2L160.68 174.26L161.34 174.32L162 174.41L162.64 174.51L163.28 174.62L163.91 174.76L164.54 174.9L165.15 175.06L165.76 175.24L166.36 175.43L166.95 175.64L167.54 175.86L168.12 176.1L168.69 176.36L169.25 176.63L169.8 176.91L170.35 177.21L170.89 177.53L171.42 177.86L171.94 178.21L172.46 178.57L172.96 178.95L173.46 179.34L173.96 179.75L174.44 180.17L174.92 180.61L175.39 181.06L175.84 181.53L176.28 182L176.71 182.48L177.12 182.97L177.52 183.46L177.9 183.96L178.26 184.47L178.61 184.98L178.94 185.5L179.26 186.03L179.56 186.56L179.85 187.1L180.12 187.65L180.38 188.21L180.62 188.77L180.84 189.34L181.05 189.91L181.24 190.49L181.42 191.08L181.58 191.68L181.73 192.28L181.86 192.89L181.98 193.51L182.08 194.13L182.17 194.76L182.24 195.4L182.29 196.05L182.33 196.7L182.35 197.35L182.36 198.02L182.35 198.68L182.33 199.34L182.29 199.99L182.24 200.64L182.17 201.27L182.08 201.91L181.98 202.53L181.86 203.15L181.73 203.76L181.59 204.36L181.42 204.95L181.24 205.54L181.05 206.13L180.84 206.7L180.62 207.27L180.38 207.83L180.12 208.39L179.85 208.93L179.56 209.48L179.26 210.01L178.94 210.54L178.61 211.06L178.26 211.57L177.9 212.08L177.52 212.58L177.12 213.07L176.71 213.56L176.28 214.04L175.84 214.51L175.39 214.97L174.92 215.43L174.44 215.87L173.96 216.29L173.46 216.7L172.96 217.09L172.46 217.47L171.94 217.83L171.42 218.18L170.89 218.51L170.35 218.82L169.8 219.12L169.25 219.41L168.69 219.68L168.12 219.93L167.54 220.17L166.95 220.4L166.36 220.6L165.76 220.8L165.15 220.97L164.54 221.13L163.91 221.28L163.28 221.41L162.64 221.53L162 221.63L161.34 221.71L160.68 221.78L160.01 221.84L159.33 221.87L158.64 221.9L157.95 221.9L157.26 221.9L156.57 221.87L155.89 221.84L155.22 221.78L154.56 221.71L153.9 221.63L153.26 221.53L152.62 221.41L151.99 221.28L151.36 221.13L150.75 220.97L150.14 220.8L149.54 220.6L148.95 220.4L148.36 220.17L147.78 219.93L147.21 219.68L146.65 219.41L146.1 219.12L145.55 218.82L145.01 218.51L144.48 218.18L143.96 217.83L143.44 217.47L142.94 217.09L142.44 216.7L141.95 216.29L141.46 215.87L140.98 215.43L140.52 214.97L140.06 214.51L139.62 214.04L139.19 213.56L138.78 213.07L138.38 212.58L138 212.08L137.64 211.57L137.29 211.06L136.96 210.54L136.64 210.01L136.34 209.48L136.05 208.93L135.78 208.39L135.52 207.83L135.28 207.27L135.06 206.7L134.85 206.13L134.66 205.54L134.48 204.95L134.32 204.36L134.17 203.76L134.04 203.15L133.92 202.53L133.82 201.91L133.73 201.27L133.67 200.64L133.61 199.99L133.57 199.34L133.55 198.68L133.54 198.02L133.55 197.35L133.57 196.7L133.61 196.05L133.67 195.4L133.73 194.76L133.82 194.13L133.92 193.51L134.04 192.89L134.17 192.28L134.32 191.68L134.48 191.08L134.66 190.49L134.85 189.91L135.06 189.34L135.28 188.77L135.52 188.21L135.78 187.65L136.05 187.1L136.34 186.56L136.64 186.03L136.96 185.5L137.29 184.98L137.64 184.47L138 183.96L138.38 183.46L138.78 182.97L139.19 182.48L139.62 182L140.06 181.53L140.52 181.06L140.98 180.61L141.46 180.17L141.95 179.75L142.44 179.34L142.94 178.95L143.44 178.57L143.96 178.21L144.48 177.86L145.01 177.53L145.55 177.21L146.1 176.91L146.65 176.63L147.21 176.36L147.78 176.1L148.36 175.86L148.95 175.64L149.54 175.43L150.14 175.24L150.75 175.06L151.36 174.9L151.99 174.76L152.62 174.62L153.26 174.51L153.9 174.41L154.56 174.32L155.22 174.26L155.89 174.2L156.57 174.16L157.26 174.14L157.95 174.13L158.64 174.14L159.33 174.16ZM156.56 182.9L155.89 182.97L155.23 183.06L154.59 183.18L153.96 183.32L153.34 183.49L152.73 183.69L152.14 183.91L151.57 184.16L151 184.43L150.45 184.73L149.92 185.06L149.4 185.41L148.89 185.79L148.39 186.19L147.91 186.62L147.45 187.08L147 187.56L146.58 188.05L146.18 188.56L145.81 189.08L145.46 189.62L145.14 190.17L144.85 190.74L144.58 191.33L144.34 191.93L144.12 192.54L143.93 193.17L143.76 193.82L143.62 194.48L143.51 195.16L143.42 195.85L143.36 196.56L143.32 197.28L143.3 198.02L143.32 198.76L143.36 199.48L143.42 200.19L143.51 200.88L143.62 201.56L143.76 202.22L143.93 202.86L144.12 203.49L144.34 204.11L144.58 204.71L144.85 205.29L145.14 205.86L145.46 206.42L145.81 206.96L146.18 207.48L146.58 207.99L147 208.48L147.45 208.96L147.91 209.42L148.39 209.85L148.89 210.25L149.4 210.63L149.92 210.98L150.45 211.31L151 211.61L151.57 211.88L152.14 212.13L152.73 212.35L153.34 212.55L153.96 212.72L154.59 212.86L155.23 212.98L155.89 213.07L156.56 213.14L157.25 213.17L157.95 213.19L158.65 213.17L159.34 213.14L160.01 213.07L160.67 212.98L161.31 212.86L161.95 212.72L162.56 212.55L163.17 212.35L163.76 212.13L164.33 211.88L164.9 211.61L165.45 211.31L165.98 210.98L166.51 210.63L167.01 210.25L167.51 209.85L167.99 209.42L168.46 208.96L168.9 208.48L169.33 207.99L169.72 207.48L170.09 206.96L170.44 206.42L170.76 205.86L171.05 205.29L171.32 204.71L171.56 204.11L171.78 203.49L171.97 202.86L172.14 202.22L172.28 201.56L172.39 200.88L172.48 200.19L172.55 199.48L172.58 198.76L172.6 198.02L172.58 197.28L172.55 196.56L172.48 195.85L172.39 195.16L172.28 194.48L172.14 193.82L171.97 193.17L171.78 192.54L171.56 191.93L171.32 191.33L171.05 190.74L170.76 190.17L170.44 189.62L170.09 189.08L169.72 188.56L169.33 188.05L168.9 187.56L168.46 187.08L167.99 186.62L167.51 186.19L167.01 185.79L166.51 185.41L165.98 185.06L165.45 184.73L164.9 184.43L164.33 184.16L163.76 183.91L163.17 183.69L162.56 183.49L161.95 183.32L161.31 183.18L160.67 183.06L160.01 182.97L159.34 182.9L158.65 182.86L157.95 182.85L157.25 182.86L156.56 182.9Z" id="cjb2kYXm3"></path><path d="M224.29 221.2L224.29 214.23L224.02 214.61L223.74 214.98L223.45 215.34L223.16 215.69L222.86 216.03L222.56 216.36L222.25 216.68L221.93 216.99L221.61 217.3L221.28 217.59L220.94 217.87L220.6 218.14L220.25 218.41L219.9 218.66L219.54 218.91L219.17 219.14L218.8 219.37L218.42 219.58L218.03 219.79L217.64 219.99L217.25 220.17L216.84 220.35L216.43 220.52L216.02 220.68L215.59 220.82L215.16 220.96L214.73 221.09L214.29 221.21L213.84 221.32L213.39 221.42L212.93 221.51L212.46 221.6L211.99 221.67L211.51 221.73L211.03 221.78L210.54 221.83L210.04 221.86L209.54 221.88L209.03 221.9L208.51 221.9L208.07 221.9L207.64 221.89L207.2 221.87L206.77 221.84L206.35 221.8L205.92 221.75L205.5 221.7L205.08 221.64L204.67 221.57L204.25 221.49L203.84 221.4L203.43 221.31L203.03 221.2L202.63 221.09L202.23 220.97L201.83 220.84L201.44 220.71L201.05 220.56L200.66 220.41L200.27 220.25L199.89 220.08L199.51 219.9L199.14 219.71L198.76 219.52L198.39 219.32L198.02 219.11L197.66 218.89L197.3 218.66L196.94 218.42L196.58 218.18L196.23 217.92L195.88 217.66L195.53 217.39L195.18 217.12L194.84 216.83L194.5 216.54L194.16 216.24L193.83 215.92L193.5 215.61L193.17 215.28L192.85 214.94L192.53 214.61L192.23 214.26L191.93 213.91L191.64 213.56L191.36 213.2L191.08 212.83L190.82 212.46L190.56 212.09L190.31 211.7L190.07 211.32L189.84 210.93L189.61 210.53L189.39 210.13L189.19 209.72L188.99 209.31L188.79 208.89L188.61 208.47L188.43 208.04L188.27 207.61L188.11 207.17L187.96 206.72L187.81 206.28L187.68 205.82L187.55 205.36L187.43 204.9L187.32 204.43L187.22 203.95L187.13 203.47L187.04 202.99L186.96 202.5L186.89 202L186.83 201.5L186.78 200.99L186.73 200.48L186.7 199.96L186.67 199.44L186.65 198.91L186.64 198.38L186.63 197.84L186.64 197.31L186.65 196.77L186.67 196.25L186.7 195.73L186.74 195.21L186.78 194.7L186.84 194.19L186.9 193.69L186.97 193.2L187.05 192.71L187.14 192.23L187.24 191.75L187.34 191.28L187.45 190.81L187.58 190.35L187.71 189.89L187.84 189.44L187.99 189L188.15 188.56L188.31 188.12L188.48 187.7L188.66 187.27L188.85 186.85L189.05 186.44L189.25 186.04L189.47 185.63L189.69 185.24L189.92 184.85L190.16 184.46L190.41 184.08L190.66 183.71L190.93 183.34L191.2 182.97L191.48 182.62L191.77 182.26L192.07 181.92L192.37 181.58L192.69 181.24L193.01 180.91L193.34 180.58L193.68 180.26L194.02 179.95L194.37 179.65L194.71 179.36L195.06 179.07L195.42 178.79L195.77 178.52L196.13 178.26L196.5 178.01L196.86 177.76L197.23 177.52L197.6 177.29L197.98 177.07L198.36 176.86L198.74 176.65L199.13 176.45L199.51 176.26L199.91 176.08L200.3 175.91L200.7 175.74L201.1 175.59L201.51 175.44L201.91 175.3L202.33 175.16L202.74 175.04L203.16 174.92L203.58 174.81L204 174.71L204.43 174.62L204.86 174.53L205.29 174.46L205.73 174.39L206.17 174.33L206.61 174.28L207.06 174.23L207.51 174.2L207.96 174.17L208.42 174.15L208.88 174.13L209.34 174.13L209.8 174.14L210.26 174.15L210.71 174.17L211.16 174.21L211.6 174.25L212.04 174.31L212.48 174.37L212.91 174.44L213.33 174.53L213.76 174.62L214.17 174.72L214.59 174.84L214.99 174.96L215.4 175.09L215.79 175.23L216.19 175.39L216.58 175.55L216.96 175.72L217.34 175.9L217.72 176.09L218.09 176.29L218.46 176.51L218.82 176.73L219.18 176.96L219.53 177.2L219.88 177.45L220.23 177.71L220.57 177.98L220.9 178.26L221.23 178.55L221.56 178.84L221.88 179.15L222.2 179.47L222.51 179.8L222.82 180.14L223.12 180.49L223.42 180.85L223.72 181.21L224.01 181.59L224.29 181.98L224.29 156.52L234.05 156.52L234.05 221.2L224.29 221.2ZM209.33 182.73L208.7 182.8L208.09 182.9L207.49 183.02L206.89 183.17L206.31 183.35L205.74 183.55L205.18 183.79L204.63 184.05L204.08 184.34L203.55 184.65L203.03 184.99L202.52 185.37L202.02 185.76L201.53 186.19L201.05 186.64L200.58 187.12L200.13 187.62L199.7 188.14L199.3 188.67L198.93 189.21L198.58 189.76L198.25 190.33L197.96 190.92L197.69 191.51L197.44 192.12L197.22 192.75L197.03 193.39L196.86 194.04L196.72 194.7L196.6 195.38L196.51 196.08L196.45 196.78L196.41 197.5L196.39 198.24L196.41 198.97L196.45 199.69L196.51 200.39L196.61 201.08L196.72 201.75L196.87 202.41L197.04 203.05L197.24 203.67L197.46 204.29L197.71 204.88L197.99 205.46L198.29 206.02L198.62 206.57L198.98 207.11L199.36 207.63L199.77 208.13L200.21 208.62L200.67 209.09L201.15 209.54L201.64 209.97L202.13 210.37L202.64 210.74L203.15 211.09L203.68 211.42L204.21 211.71L204.76 211.98L205.31 212.23L205.87 212.45L206.44 212.64L207.02 212.81L207.61 212.95L208.21 213.07L208.81 213.16L209.43 213.22L210.06 213.26L210.69 213.28L211.33 213.26L211.95 213.22L212.56 213.16L213.16 213.07L213.75 212.95L214.33 212.81L214.9 212.64L215.46 212.44L216.01 212.22L216.55 211.97L217.07 211.7L217.59 211.4L218.09 211.07L218.59 210.72L219.07 210.34L219.54 209.93L220 209.5L220.46 209.05L220.89 208.57L221.3 208.08L221.68 207.57L222.04 207.05L222.37 206.51L222.68 205.96L222.97 205.4L223.23 204.82L223.46 204.22L223.67 203.61L223.86 202.98L224.02 202.34L224.16 201.69L224.27 201.02L224.35 200.34L224.42 199.64L224.45 198.92L224.47 198.19L224.45 197.46L224.42 196.75L224.35 196.05L224.27 195.36L224.16 194.68L224.02 194.02L223.86 193.37L223.67 192.74L223.46 192.11L223.23 191.51L222.97 190.91L222.68 190.33L222.37 189.76L222.04 189.21L221.68 188.67L221.3 188.14L220.89 187.62L220.46 187.12L220 186.64L219.54 186.19L219.07 185.76L218.58 185.37L218.09 184.99L217.58 184.65L217.06 184.34L216.53 184.05L215.99 183.79L215.44 183.55L214.87 183.35L214.3 183.17L213.71 183.02L213.11 182.9L212.5 182.8L211.88 182.73L211.25 182.69L210.6 182.68L209.96 182.69L209.33 182.73Z" id="a1ZlqnA87T"></path><path d="M80.32 235.76C80.62 235.63 82.1 235 84.78 233.86C87.43 232.69 88.91 232.04 89.2 231.9C89.52 232.59 97.27 248.59 131.41 248.59C165.72 248.59 174.34 232.42 174.68 231.73C175.56 232.15 182.53 235.52 183.4 235.95C182.97 236.86 172.29 258.28 131.41 258.28C90.38 258.28 80.71 236.68 80.32 235.76Z" id="dM1NZFYdy"></path></defs><g><g><use xlink:href="#c29CmuYPfn" opacity="1" fill="#ffffff" fill-opacity="1"></use><g><use xlink:href="#c29CmuYPfn" opacity="1" fill-opacity="0" stroke="#000000" stroke-width="1" stroke-opacity="0"></use></g></g><g><use xlink:href="#j1sM7FDqQA" opacity="1" fill="#ffffff" fill-opacity="1"></use><g><use xlink:href="#j1sM7FDqQA" opacity="1" fill-opacity="0" stroke="#000000" stroke-width="1" stroke-opacity="0"></use></g></g><g><use xlink:href="#bAkS1iJQb" opacity="1" fill="#ffffff" fill-opacity="1"></use><g><use xlink:href="#bAkS1iJQb" opacity="1" fill-opacity="0" stroke="#000000" stroke-width="1" stroke-opacity="0"></use></g></g><g><use xlink:href="#b7eugWXQQ" opacity="1" fill="#ffffff" fill-opacity="1"></use><g><use xlink:href="#b7eugWXQQ" opacity="1" fill-opacity="0" stroke="#000000" stroke-width="1" stroke-opacity="0"></use></g></g><g><use xlink:href="#e1M7HBXCb0" opacity="1" fill="#ffffff" fill-opacity="1"></use><g><use xlink:href="#e1M7HBXCb0" opacity="1" fill-opacity="0" stroke="#000000" stroke-width="1" stroke-opacity="0"></use></g></g><g><use xlink:href="#bH4FgBNfU" opacity="1" fill="#ffffff" fill-opacity="1"></use><g><use xlink:href="#bH4FgBNfU" opacity="1" fill-opacity="0" stroke="#000000" stroke-width="1" stroke-opacity="0"></use></g></g><g><use xlink:href="#c3hpASmbI" opacity="1" fill="#ffffff" fill-opacity="1"></use><g><use xlink:href="#c3hpASmbI" opacity="1" fill-opacity="0" stroke="#000000" stroke-width="1" stroke-opacity="0"></use></g></g><g><use xlink:href="#gL0In9SKr" opacity="1" fill="#ffffff" fill-opacity="1"></use><g><use xlink:href="#gL0In9SKr" opacity="1" fill-opacity="0" stroke="#000000" stroke-width="1" stroke-opacity="0"></use></g></g><g><use xlink:href="#a1bYiJzkPM" opacity="1" fill="#ffffff" fill-opacity="1"></use><g><use xlink:href="#a1bYiJzkPM" opacity="1" fill-opacity="0" stroke="#000000" stroke-width="1" stroke-opacity="0"></use></g></g><g><use xlink:href="#d9F3yG1pb" opacity="1" fill="#ffffff" fill-opacity="1"></use><g><use xlink:href="#d9F3yG1pb" opacity="1" fill-opacity="0" stroke="#000000" stroke-width="1" stroke-opacity="0"></use></g></g><g><use xlink:href="#isCpWumjg" opacity="1" fill="#ffffff" fill-opacity="1"></use><g><use xlink:href="#isCpWumjg" opacity="1" fill-opacity="0" stroke="#000000" stroke-width="1" stroke-opacity="0"></use></g></g><g><use xlink:href="#cjb2kYXm3" opacity="1" fill="#ffffff" fill-opacity="1"></use><g><use xlink:href="#cjb2kYXm3" opacity="1" fill-opacity="0" stroke="#000000" stroke-width="1" stroke-opacity="0"></use></g></g><g><use xlink:href="#a1ZlqnA87T" opacity="1" fill="#ffffff" fill-opacity="1"></use><g><use xlink:href="#a1ZlqnA87T" opacity="1" fill-opacity="0" stroke="#000000" stroke-width="1" stroke-opacity="0"></use></g></g><g><use xlink:href="#dM1NZFYdy" opacity="1" fill="#ffffff" fill-opacity="1"></use><g><use xlink:href="#dM1NZFYdy" opacity="1" fill-opacity="0" stroke="#000000" stroke-width="1" stroke-opacity="0"></use></g></g></g></svg>
