<?xml version="1.0" encoding="utf-8"?>
<!-- Generator: Adobe Illustrator 16.0.0, SVG Export Plug-In . SVG Version: 6.00 Build 0)  -->
<!DOCTYPE svg PUBLIC "-//W3C//DTD SVG 1.1//EN" "http://www.w3.org/Graphics/SVG/1.1/DTD/svg11.dtd">
<svg version="1.1" id="Layer_1" xmlns="http://www.w3.org/2000/svg" xmlns:xlink="http://www.w3.org/1999/xlink" x="0px" y="0px"
	 width="792px" height="612px" viewBox="0 0 792 612" enable-background="new 0 0 792 612" xml:space="preserve">
<g>
	<g>
		<path fill="#ffffff" d="M238.743,313.105v76.023h-16.357l-16.359-41.865v41.865h-15.489v-76.023h15.778l16.455,41.76v-41.76
			H238.743z"/>
	</g>
	<g>
		<path fill="#ffffff" d="M291.591,313.105v14.391h-26.329v13.688h20.908v14.391h-20.908v19.16h26.329v14.395h-44.334v-76.023
			h18.005H291.591z"/>
	</g>
	<g>
		<path fill="#ffffff" d="M318.205,389.129h-18.973v-76.023h18.973V389.129z"/>
	</g>
	<g>
		<path fill="#ffffff" d="M357.311,340.574v-8.312c0-3.041-2.034-6.389-7.067-6.389c-5.712,0-8.035,3.549-8.035,6.389v35.982
			c0,4.766,3.098,8.721,8.035,8.721c5.227,0,7.067-3.043,7.067-7.807v-7.297h-7.649v-14.193h23.427v7.096v14.699
			c0,13.684-7.164,20.576-23.524,20.576c-13.067,0-23.424-7.299-23.424-20.576v-36.49c0-13.686,8.131-20.58,24.393-20.58
			c15.294,0,22.555,7.299,22.555,20.58v7.602H357.311z"/>
	</g>
	<g>
		<path fill="#ffffff" d="M429.806,313.105v76.023h-17.034v-26.863h-15.876v26.863h-16.939v-76.023h16.939v34.26h15.876v-34.26
			H429.806z"/>
	</g>
	<g>
		<path fill="#ffffff" d="M487.107,366.523c0,7.398-1.839,12.975-5.42,16.93c-3.484,3.75-8.325,5.676-14.23,5.676h-12.582h-17.908
			v-76.023h3.29h7.164h14.616c17.617,0,20.615,10.846,20.615,19.156c0,6.08-1.644,11.049-5.903,14.395
			c1.162,0.709,2.421,1.52,3.39,2.33C483.333,352.029,487.107,357.301,487.107,366.523z M458.068,326.279h-4.937v16.219h4.937
			c5.323,0,9.099-2.736,9.099-8.311C467.167,329.625,464.649,326.279,458.068,326.279z M470.748,365.512
			c0-7.811-3.97-11.561-13.455-11.561h-4.161v22.406h4.646C465.521,376.357,470.748,374.631,470.748,365.512z"/>
	</g>
	<g>
		<path fill="#ffffff" d="M537.826,332.973v36.49c0,13.684-7.164,20.576-23.523,20.576c-13.067,0-23.231-7.197-23.231-20.576v-36.49
			c0-13.686,7.938-20.58,24.299-20.58C530.565,312.393,537.826,319.592,537.826,332.973z M522.048,332.262
			c0-3.041-1.645-6.389-6.971-6.389c-6.195,0-7.938,3.549-7.938,6.389l0.196,35.982c0,4.766,2.226,8.721,7.741,8.721
			c5.421,0,6.971-3.145,6.971-7.91V332.262z"/>
	</g>
	<g>
		<path fill="#ffffff" d="M567.539,362.973h-5.13v26.156h-16.265v-76.023h22.653c19.841,0,24.296,12.059,24.296,23.822
			c0,9.525-3.293,18.445-10.455,22.094l15.392,30.107h-17.426L567.539,362.973z M562.409,346.148h4.742
			c4.937,0,10.358-1.418,10.358-9.832c0-7.502-4.937-9.125-10.843-9.125h-4.258V346.148z"/>
	</g>
</g>
<g>
	<path fill-rule="evenodd" clip-rule="evenodd" fill="#ffffff" d="M518.773,191.402c26.416,0,52.62,0,78.846,0
		c0,36.646,0,73.14,0,109.666c-26.389,0-52.521,0-78.846,0C518.773,264.319,518.773,227.891,518.773,191.402z M547.015,290.25
		c4.489-1.05,8.969-2.129,13.483-3.12c1.63-0.355,2.449-0.83,2.446-2.259c-0.068-25.806-0.039-51.619-0.114-77.425
		c-0.002-0.663-24.562-7.309-36.111-9.969c-0.088-0.02-0.205,0.032-0.31,0.051c-0.122,10.735-0.283,21.471-0.342,32.208
		c-0.06,10.888-0.618,54.164,0.089,65.397C533.394,293.438,540.204,291.841,547.015,290.25z"/>
</g>
<g>
	<circle fill="#ffffff" cx="555.385" cy="246.234" r="3.518"/>
</g>
<g>
	<g>
		<path fill="#ffffff" d="M238.084,230.263v-11.847c0-4.334-3.102-9.103-10.779-9.103c-8.712,0-12.255,5.057-12.255,9.103v51.291
			c0,6.793,4.725,12.429,12.255,12.429c7.973,0,10.779-4.335,10.779-11.127v-10.402h-11.665v-20.228h35.733v10.114v20.95
			c0,19.505-10.926,29.332-35.881,29.332c-19.934,0-35.733-10.403-35.733-29.332v-52.016c0-19.505,12.404-29.33,37.211-29.33
			c23.33,0,34.404,10.404,34.404,29.33v10.836H238.084z"/>
	</g>
	<g>
		<path fill="#ffffff" d="M344.835,219.427v52.016c0,19.505-10.926,29.332-35.881,29.332c-19.933,0-35.438-10.259-35.438-29.332
			v-52.016c0-19.505,12.108-29.33,37.063-29.33C333.761,190.097,344.835,200.355,344.835,219.427z M320.767,218.416
			c0-4.334-2.511-9.103-10.633-9.103c-9.449,0-12.107,5.057-12.107,9.103l0.295,51.291c0,6.793,3.397,12.429,11.812,12.429
			c8.269,0,10.633-4.48,10.633-11.271V218.416z"/>
	</g>
	<g>
		<path fill="#ffffff" d="M426.043,219.427v52.016c0,19.505-10.927,29.332-35.883,29.332c-19.934,0-35.437-10.259-35.437-29.332
			v-52.016c0-19.505,12.107-29.33,37.063-29.33C414.97,190.097,426.043,200.355,426.043,219.427z M401.974,218.416
			c0-4.334-2.509-9.103-10.632-9.103c-9.449,0-12.107,5.057-12.107,9.103l0.296,51.291c0,6.793,3.396,12.429,11.811,12.429
			c8.27,0,10.632-4.48,10.632-11.271V218.416z"/>
	</g>
	<g>
		<path fill="#ffffff" d="M506.952,276.933c-2.66,12.138-7.977,22.542-27.761,22.542h-17.425h-24.364V191.108h24.364h19.492
			c14.914,0,23.182,6.647,26.282,22.974C509.167,222.896,509.167,266.241,506.952,276.933z M480.225,219.862
			c-1.33-7.947-6.939-8.381-14.767-8.381h-1.181v67.475h0.593c9.597-0.432,12.844-1.444,14.469-8.67
			C481.996,261.761,481.259,226.652,480.225,219.862z"/>
	</g>
</g>
<g>
	<path fill="#ffffff" d="M341.404,419.648c0.726,0,1.35-0.121,1.873-0.365c0.522-0.244,1.069-0.631,1.641-1.168l1.354,1.391
		c-1.319,1.463-2.92,2.193-4.804,2.193c-1.886,0-3.448-0.605-4.69-1.818c-1.243-1.213-1.863-2.746-1.863-4.6s0.633-3.4,1.898-4.637
		c1.267-1.236,2.865-1.854,4.797-1.854c1.932,0,3.546,0.713,4.841,2.139l-1.337,1.463c-0.594-0.57-1.156-0.971-1.686-1.195
		c-0.528-0.227-1.149-0.338-1.863-0.338c-1.26,0-2.318,0.406-3.173,1.221c-0.856,0.814-1.285,1.855-1.285,3.121
		s0.425,2.324,1.275,3.174S340.239,419.648,341.404,419.648z"/>
	<path fill="#ffffff" d="M359.004,419.838c-1.26,1.229-2.817,1.846-4.672,1.846s-3.412-0.617-4.672-1.846
		c-1.26-1.232-1.89-2.766-1.89-4.604c0-1.836,0.63-3.369,1.89-4.598c1.26-1.232,2.817-1.846,4.672-1.846s3.412,0.613,4.672,1.846
		c1.261,1.229,1.891,2.762,1.891,4.598C360.895,417.072,360.265,418.605,359.004,419.838z M357.462,412.035
		c-0.85-0.879-1.894-1.318-3.13-1.318c-1.236,0-2.279,0.439-3.129,1.318c-0.85,0.881-1.275,1.945-1.275,3.199
		c0,1.256,0.425,2.324,1.275,3.203s1.893,1.32,3.129,1.32c1.236,0,2.28-0.441,3.13-1.32c0.849-0.879,1.275-1.947,1.275-3.203
		C358.737,413.98,358.311,412.916,357.462,412.035z"/>
	<path fill="#ffffff" d="M372.896,409.094H375v12.463h-2.282l-7.062-9.092v9.092h-2.105v-12.463h2.105l7.24,9.309V409.094z"/>
	<path fill="#ffffff" d="M387.803,409.094h2.105v12.463h-2.283l-7.061-9.092v9.092h-2.105v-12.463h2.105l7.239,9.309V409.094z"/>
	<path fill="#ffffff" d="M402.121,409.094v1.979h-6.651v3.299h5.973v1.873h-5.973v3.334h6.866v1.979h-8.97v-12.463H402.121z"/>
	<path fill="#ffffff" d="M410.717,419.648c0.726,0,1.35-0.121,1.873-0.365c0.522-0.244,1.067-0.631,1.641-1.168l1.354,1.391
		c-1.318,1.463-2.921,2.193-4.805,2.193s-3.447-0.605-4.689-1.818s-1.864-2.746-1.864-4.6s0.634-3.4,1.899-4.637
		c1.268-1.236,2.865-1.854,4.798-1.854c1.931,0,3.544,0.713,4.841,2.139l-1.339,1.463c-0.593-0.57-1.154-0.971-1.685-1.195
		c-0.528-0.227-1.149-0.338-1.863-0.338c-1.259,0-2.318,0.406-3.175,1.221c-0.854,0.814-1.283,1.855-1.283,3.121
		s0.425,2.324,1.276,3.174C408.543,419.225,409.551,419.648,410.717,419.648z"/>
	<path fill="#ffffff" d="M422.86,411.02v10.537h-2.104V411.02h-3.78v-1.926h9.664v1.926H422.86z"/>
	<path fill="#ffffff" d="M428.922,409.094h2.104v12.463h-2.104V409.094z"/>
	<path fill="#ffffff" d="M443.829,409.094h2.105v12.463h-2.284l-7.061-9.092v9.092h-2.104v-12.463h2.104l7.239,9.309V409.094z"/>
	<path fill="#ffffff" d="M458.025,415.494h2.104v4.264c-1.178,1.295-2.859,1.941-5.047,1.941c-1.844,0-3.386-0.605-4.628-1.818
		s-1.862-2.746-1.862-4.6s0.632-3.4,1.897-4.637c1.267-1.236,2.798-1.854,4.593-1.854s3.288,0.523,4.477,1.568l-1.124,1.604
		c-0.486-0.414-0.979-0.703-1.471-0.863c-0.495-0.16-1.067-0.24-1.721-0.24c-1.262,0-2.318,0.406-3.173,1.221
		c-0.858,0.814-1.284,1.885-1.284,3.211c0,1.324,0.414,2.389,1.247,3.191c0.832,0.801,1.84,1.203,3.023,1.203
		c1.183,0,2.171-0.256,2.969-0.768V415.494z"/>
	<path fill="#ffffff" d="M473.467,419.648c0.725,0,1.35-0.121,1.874-0.365c0.521-0.244,1.066-0.631,1.639-1.168l1.354,1.391
		c-1.318,1.463-2.92,2.193-4.804,2.193s-3.447-0.605-4.688-1.818c-1.244-1.213-1.865-2.746-1.865-4.6s0.633-3.4,1.9-4.637
		c1.266-1.236,2.864-1.854,4.796-1.854c1.931,0,3.545,0.713,4.841,2.139l-1.338,1.463c-0.594-0.57-1.154-0.971-1.685-1.195
		c-0.529-0.227-1.149-0.338-1.863-0.338c-1.259,0-2.318,0.406-3.175,1.221c-0.855,0.814-1.284,1.855-1.284,3.121
		s0.426,2.324,1.277,3.174C471.293,419.225,472.301,419.648,473.467,419.648z"/>
	<path fill="#ffffff" d="M491.065,419.838c-1.261,1.229-2.816,1.846-4.671,1.846s-3.412-0.617-4.674-1.846
		c-1.26-1.232-1.89-2.766-1.89-4.604c0-1.836,0.63-3.369,1.89-4.598c1.262-1.232,2.819-1.846,4.674-1.846s3.41,0.613,4.671,1.846
		c1.262,1.229,1.89,2.762,1.89,4.598C492.955,417.072,492.327,418.605,491.065,419.838z M489.524,412.035
		c-0.851-0.879-1.894-1.318-3.13-1.318s-2.28,0.439-3.13,1.318c-0.85,0.881-1.275,1.945-1.275,3.199
		c0,1.256,0.426,2.324,1.275,3.203s1.894,1.32,3.13,1.32s2.279-0.441,3.13-1.32c0.849-0.879,1.274-1.947,1.274-3.203
		C490.799,413.98,490.373,412.916,489.524,412.035z"/>
	<path fill="#ffffff" d="M497.718,421.557h-2.104v-12.463h3.281l3.763,7.826l3.763-7.826h3.264v12.463h-2.104v-9.734l-4.353,8.648
		h-1.177l-4.333-8.648V421.557z"/>
	<path fill="#ffffff" d="M515.246,421.557h-2.104v-12.463h3.282l3.761,7.826l3.765-7.826h3.262v12.463h-2.103v-9.734l-4.351,8.648
		h-1.179l-4.333-8.648V421.557z"/>
	<path fill="#ffffff" d="M533.471,418.703c0.568,0.668,1.343,1,2.315,1c0.977,0,1.748-0.332,2.321-1
		c0.568-0.664,0.854-1.568,0.854-2.707v-6.902h2.104v6.99c0,1.795-0.492,3.176-1.479,4.145c-0.987,0.971-2.253,1.455-3.8,1.455
		c-1.545,0-2.812-0.484-3.797-1.455c-0.985-0.969-1.48-2.35-1.48-4.145v-6.99h2.105v6.902
		C532.614,417.135,532.898,418.039,533.471,418.703z"/>
	<path fill="#ffffff" d="M553.709,409.094h2.104v12.463h-2.281l-7.062-9.092v9.092h-2.104v-12.463h2.104l7.239,9.309V409.094z"/>
	<path fill="#ffffff" d="M559.271,409.094h2.106v12.463h-2.106V409.094z"/>
	<path fill="#ffffff" d="M569.545,411.02v10.537h-2.105V411.02h-3.78v-1.926h9.664v1.926H569.545z"/>
	<path fill="#ffffff" d="M575.604,409.094h2.106v12.463h-2.106V409.094z"/>
	<path fill="#ffffff" d="M589.924,409.094v1.979h-6.651v3.299h5.975v1.873h-5.975v3.334h6.866v1.979h-8.969v-12.463H589.924z"/>
	<path fill="#ffffff" d="M596.604,410.732c-0.614,0-1.116,0.127-1.507,0.375c-0.393,0.25-0.59,0.629-0.59,1.133
		c0,0.508,0.197,0.893,0.59,1.158c0.391,0.27,1.228,0.557,2.505,0.865s2.24,0.744,2.889,1.303s0.972,1.383,0.972,2.469
		c0,1.09-0.409,1.973-1.23,2.648c-0.819,0.678-1.896,1.016-3.227,1.016c-1.95,0-3.681-0.67-5.189-2.014l1.32-1.588
		c1.259,1.094,2.568,1.641,3.922,1.641c0.676,0,1.216-0.145,1.615-0.436c0.397-0.293,0.597-0.68,0.597-1.16
		c0-0.482-0.188-0.855-0.562-1.125c-0.376-0.266-1.02-0.51-1.937-0.73c-0.914-0.219-1.61-0.422-2.087-0.604
		c-0.475-0.186-0.896-0.426-1.265-0.725c-0.737-0.559-1.105-1.412-1.105-2.566c0-1.152,0.421-2.043,1.258-2.668
		c0.837-0.621,1.873-0.934,3.112-0.934c0.795,0,1.587,0.131,2.37,0.393c0.785,0.262,1.464,0.629,2.032,1.104l-1.123,1.588
		c-0.368-0.332-0.868-0.605-1.496-0.82C597.836,410.84,597.214,410.732,596.604,410.732z"/>
</g>
</svg>
