<?xml version="1.0" encoding="UTF-8" standalone="no"?>
<!DOCTYPE svg PUBLIC "-//W3C//DTD SVG 1.1//EN" "http://www.w3.org/Graphics/SVG/1.1/DTD/svg11.dtd">
<svg version="1.1" xmlns="http://www.w3.org/2000/svg" xmlns:xlink="http://www.w3.org/1999/xlink" preserveAspectRatio="xMidYMid meet" viewBox="36.197 136.28271428571432 577.201 101.76099999999994" width="550" height="75"><defs><path d="M192.01 215.82L191.92 215.99L191.78 216.24L191.6 216.56L191.38 216.93L191.11 217.36L190.79 217.85L190.41 218.38L189.99 218.96L189.5 219.58L188.96 220.24L188.37 220.94L187.71 221.66L186.98 222.41L186.2 223.18L185.35 223.97L184.42 224.77L183.43 225.58L182.37 226.4L181.23 227.22L180.02 228.04L178.73 228.85L177.36 229.65L175.9 230.45L174.37 231.22L172.75 231.97L171.04 232.7L169.24 233.39L167.36 234.06L165.38 234.68L163.3 235.27L161.13 235.81L158.86 236.3L156.49 236.74L154.02 237.12L151.44 237.44L148.76 237.7L145.97 237.89L143.07 238L140.07 238.04L137.05 238L134.14 237.89L131.35 237.7L128.68 237.44L126.11 237.11L123.65 236.73L121.29 236.29L119.04 235.79L116.88 235.25L114.83 234.65L112.88 234.02L111.01 233.35L109.24 232.65L107.57 231.92L105.98 231.16L104.47 230.38L103.05 229.59L101.72 228.78L100.46 227.96L99.29 227.13L98.18 226.3L97.16 225.48L96.2 224.66L95.32 223.85L94.5 223.05L93.75 222.28L93.06 221.52L92.43 220.79L91.87 220.1L91.36 219.43L90.9 218.8L90.5 218.22L90.16 217.68L89.86 217.19L89.6 216.76L89.4 216.38L89.23 216.06L89.11 215.81L89.03 215.63L88.98 215.52L93.44 213.63L97.86 211.67L97.9 211.75L97.97 211.88L98.07 212.07L98.2 212.3L98.37 212.58L98.57 212.9L98.81 213.27L99.1 213.66L99.42 214.1L99.79 214.56L100.2 215.06L100.67 215.57L101.18 216.11L101.74 216.67L102.35 217.25L103.02 217.84L103.75 218.44L104.53 219.04L105.38 219.65L106.28 220.27L107.25 220.88L108.28 221.49L109.38 222.09L110.55 222.68L111.79 223.25L113.11 223.82L114.49 224.36L115.95 224.88L117.49 225.38L119.11 225.84L120.81 226.28L122.6 226.68L124.47 227.05L126.42 227.38L128.46 227.67L130.6 227.91L132.82 228.1L135.14 228.24L137.55 228.33L140.07 228.35L142.59 228.32L145.02 228.24L147.36 228.1L149.6 227.9L151.76 227.66L153.83 227.37L155.81 227.04L157.71 226.67L159.52 226.26L161.25 225.82L162.91 225.34L164.48 224.84L165.98 224.32L167.4 223.77L168.75 223.2L170.02 222.62L171.23 222.02L172.36 221.41L173.44 220.8L174.44 220.18L175.38 219.56L176.26 218.94L177.08 218.33L177.84 217.72L178.54 217.13L179.19 216.55L179.79 215.98L180.33 215.44L180.82 214.91L181.26 214.41L181.65 213.95L182 213.51L182.31 213.1L182.57 212.74L182.79 212.41L182.97 212.13L183.12 211.89L183.23 211.7L183.3 211.57L183.34 211.49L192.06 215.71L192.01 215.82ZM394.23 154L394.68 154.02L395.12 154.06L395.56 154.1L396 154.15L396.43 154.21L396.86 154.28L397.28 154.36L397.7 154.45L398.12 154.55L398.53 154.66L398.93 154.78L399.34 154.91L399.73 155.05L400.13 155.19L400.51 155.35L400.9 155.52L401.28 155.69L401.66 155.88L402.03 156.07L402.39 156.27L402.76 156.49L403.12 156.71L403.47 156.94L403.82 157.18L404.17 157.44L404.51 157.7L404.85 157.97L405.18 158.25L405.51 158.54L405.83 158.83L406.15 159.14L406.47 159.46L406.78 159.79L407.09 160.12L407.39 160.47L407.69 160.82L407.98 161.19L408.27 161.56L408.27 154.68L418.03 154.68L418.03 195.13L418.03 195.74L418.02 196.34L418 196.94L417.97 197.53L417.93 198.11L417.88 198.68L417.83 199.24L417.77 199.8L417.7 200.35L417.62 200.89L417.53 201.43L417.43 201.95L417.33 202.47L417.22 202.98L417.1 203.48L416.97 203.98L416.83 204.47L416.68 204.95L416.53 205.42L416.37 205.88L416.2 206.34L416.02 206.79L415.83 207.23L415.63 207.67L415.43 208.09L415.22 208.51L415 208.92L414.77 209.33L414.53 209.72L414.28 210.11L414.03 210.49L413.77 210.86L413.5 211.23L413.22 211.58L412.93 211.93L412.63 212.28L412.33 212.61L412.02 212.94L411.69 213.26L411.37 213.57L411.03 213.87L410.69 214.17L410.34 214.45L409.99 214.73L409.64 215.01L409.28 215.27L408.92 215.53L408.55 215.78L408.17 216.02L407.79 216.26L407.41 216.48L407.02 216.7L406.63 216.91L406.23 217.12L405.83 217.31L405.42 217.5L405.01 217.68L404.6 217.85L404.18 218.02L403.75 218.18L403.32 218.33L402.88 218.47L402.44 218.6L402 218.73L401.55 218.85L401.1 218.96L400.64 219.06L400.17 219.16L399.7 219.25L399.23 219.33L398.75 219.4L398.27 219.47L397.78 219.52L397.29 219.57L396.79 219.62L396.29 219.65L395.78 219.68L395.27 219.7L394.76 219.71L394.24 219.71L393.71 219.71L393.19 219.7L392.68 219.68L392.16 219.65L391.65 219.61L391.14 219.57L390.64 219.51L390.13 219.45L389.63 219.38L389.13 219.3L388.63 219.22L388.14 219.12L387.65 219.02L387.16 218.91L386.67 218.79L386.19 218.67L385.7 218.53L385.23 218.39L384.75 218.24L384.27 218.08L383.8 217.91L383.33 217.73L382.87 217.55L382.4 217.36L381.94 217.16L381.48 216.95L381.02 216.73L380.57 216.51L380.12 216.28L379.67 216.03L379.22 215.79L378.78 215.53L378.34 215.26L377.9 214.99L377.46 214.71L377.03 214.42L376.6 214.12L376.17 213.81L375.74 213.5L375.32 213.17L379.94 205.76L380.28 206.02L380.62 206.27L380.96 206.51L381.3 206.74L381.64 206.97L381.98 207.19L382.32 207.41L382.66 207.62L383 207.82L383.35 208.01L383.69 208.2L384.03 208.39L384.37 208.56L384.71 208.73L385.06 208.9L385.4 209.06L385.74 209.21L386.08 209.35L386.43 209.49L386.77 209.62L387.11 209.75L387.46 209.87L387.8 209.98L388.15 210.09L388.49 210.18L388.83 210.28L389.18 210.37L389.52 210.45L389.87 210.52L390.21 210.59L390.56 210.65L390.9 210.7L391.25 210.75L391.59 210.79L391.94 210.83L392.28 210.86L392.63 210.88L392.97 210.9L393.32 210.91L393.67 210.91L394.01 210.91L394.35 210.9L394.69 210.89L395.02 210.87L395.35 210.85L395.68 210.83L396 210.8L396.32 210.77L396.64 210.73L396.95 210.69L397.26 210.64L397.57 210.59L397.87 210.53L398.17 210.47L398.46 210.41L398.75 210.34L399.04 210.26L399.32 210.19L399.6 210.1L399.88 210.02L400.15 209.92L400.42 209.83L400.69 209.73L400.95 209.62L401.21 209.51L401.46 209.4L401.71 209.28L401.96 209.16L402.2 209.03L402.44 208.9L402.68 208.76L402.91 208.62L403.14 208.48L403.37 208.33L403.59 208.17L403.81 208.01L404.03 207.85L404.24 207.68L404.45 207.51L404.65 207.33L404.85 207.15L405.05 206.97L405.24 206.77L405.42 206.58L405.6 206.37L405.78 206.17L405.95 205.95L406.11 205.73L406.27 205.51L406.42 205.28L406.57 205.05L406.72 204.8L406.86 204.56L406.99 204.31L407.12 204.05L407.25 203.79L407.36 203.52L407.48 203.25L407.59 202.97L407.69 202.69L407.79 202.4L407.88 202.11L407.97 201.81L408.06 201.51L408.13 201.2L408.21 200.88L408.28 200.56L408.34 200.24L408.4 199.91L408.45 199.57L408.5 199.23L408.54 198.88L408.58 198.53L408.61 198.17L408.64 197.81L408.66 197.44L408.68 197.07L408.69 196.69L408.7 196.31L408.71 195.92L408.71 189.99L408.59 190.19L408.48 190.39L408.37 190.59L408.25 190.79L408.13 190.98L408.01 191.18L407.89 191.37L407.76 191.56L407.63 191.75L407.5 191.93L407.37 192.11L407.23 192.3L407.09 192.47L406.95 192.65L406.81 192.83L406.66 193L406.51 193.17L406.37 193.34L406.21 193.5L406.06 193.67L405.9 193.83L405.74 193.99L405.58 194.15L405.42 194.31L405.25 194.46L405.08 194.61L404.91 194.76L404.74 194.91L404.56 195.06L404.38 195.2L404.2 195.34L404.02 195.48L403.83 195.62L403.65 195.75L403.46 195.89L403.27 196.02L403.07 196.15L402.87 196.28L402.67 196.4L402.47 196.52L402.27 196.64L402.07 196.76L401.86 196.88L401.65 196.99L401.44 197.1L401.23 197.2L401.02 197.3L400.81 197.4L400.6 197.5L400.38 197.59L400.17 197.68L399.95 197.77L399.73 197.85L399.51 197.93L399.29 198.01L399.07 198.09L398.85 198.16L398.62 198.23L398.39 198.29L398.17 198.35L397.94 198.41L397.71 198.47L397.48 198.52L397.25 198.57L397.01 198.62L396.78 198.67L396.54 198.71L396.31 198.74L396.07 198.78L395.83 198.81L395.59 198.84L395.34 198.87L395.1 198.89L394.86 198.91L394.61 198.93L394.36 198.94L394.11 198.95L393.87 198.96L393.61 198.96L393.36 198.96L392.9 198.96L392.45 198.95L391.99 198.93L391.55 198.9L391.1 198.86L390.66 198.82L390.23 198.77L389.8 198.71L389.37 198.64L388.95 198.56L388.53 198.48L388.12 198.38L387.71 198.28L387.3 198.17L386.9 198.06L386.5 197.93L386.11 197.8L385.72 197.66L385.33 197.51L384.95 197.35L384.57 197.19L384.2 197.01L383.83 196.83L383.47 196.64L383.11 196.44L382.75 196.24L382.4 196.03L382.05 195.8L381.7 195.57L381.37 195.34L381.03 195.09L380.7 194.84L380.37 194.57L380.05 194.3L379.73 194.03L379.41 193.74L379.1 193.44L378.8 193.14L378.49 192.83L378.2 192.51L377.9 192.19L377.62 191.86L377.34 191.53L377.07 191.19L376.8 190.85L376.55 190.51L376.3 190.16L376.06 189.81L375.83 189.45L375.6 189.09L375.38 188.73L375.17 188.36L374.97 187.99L374.77 187.61L374.58 187.23L374.4 186.85L374.23 186.46L374.06 186.07L373.9 185.68L373.75 185.28L373.6 184.88L373.47 184.47L373.34 184.06L373.21 183.64L373.1 183.22L372.99 182.8L372.89 182.38L372.8 181.94L372.71 181.51L372.64 181.07L372.57 180.63L372.5 180.18L372.45 179.73L372.4 179.28L372.36 178.82L372.32 178.36L372.3 177.89L372.28 177.42L372.27 176.95L372.27 176.47L372.27 175.99L372.28 175.52L372.3 175.05L372.32 174.59L372.36 174.12L372.4 173.67L372.45 173.21L372.5 172.76L372.57 172.32L372.64 171.87L372.71 171.44L372.8 171L372.89 170.57L372.99 170.14L373.1 169.72L373.21 169.3L373.34 168.89L373.47 168.48L373.6 168.07L373.75 167.67L373.9 167.27L374.06 166.87L374.23 166.48L374.4 166.1L374.58 165.71L374.77 165.33L374.97 164.96L375.17 164.59L375.38 164.22L375.6 163.85L375.83 163.49L376.06 163.14L376.3 162.79L376.55 162.44L376.8 162.09L377.07 161.75L377.34 161.42L377.62 161.08L377.9 160.76L378.2 160.43L378.49 160.11L378.8 159.8L379.1 159.5L379.41 159.21L379.73 158.92L380.05 158.64L380.37 158.37L380.7 158.11L381.03 157.86L381.36 157.61L381.7 157.37L382.04 157.14L382.39 156.92L382.74 156.71L383.1 156.5L383.46 156.3L383.82 156.11L384.19 155.93L384.56 155.76L384.94 155.59L385.32 155.44L385.7 155.29L386.09 155.15L386.48 155.01L386.88 154.89L387.28 154.77L387.69 154.66L388.09 154.56L388.51 154.47L388.92 154.38L389.35 154.31L389.77 154.24L390.2 154.18L390.63 154.13L391.07 154.08L391.51 154.04L391.96 154.02L392.41 154L392.86 153.98L393.32 153.98L393.78 153.98L394.23 154ZM58.16 153.91L58.61 153.94L59.05 153.97L59.5 154.01L59.93 154.06L60.36 154.13L60.79 154.2L61.21 154.28L61.63 154.37L62.05 154.47L62.46 154.58L62.86 154.7L63.27 154.82L63.66 154.96L64.06 155.11L64.44 155.26L64.83 155.43L65.21 155.61L65.59 155.79L65.96 155.98L66.32 156.19L66.69 156.4L67.05 156.63L67.4 156.86L67.75 157.1L68.1 157.35L68.44 157.61L68.78 157.88L69.11 158.16L69.44 158.45L69.76 158.75L70.08 159.06L70.4 159.37L70.71 159.7L71.02 160.04L71.32 160.38L71.62 160.74L71.91 161.1L72.2 161.48L72.2 154.59L81.96 154.59L81.96 195.04L81.96 195.65L81.95 196.26L81.93 196.85L81.9 197.44L81.86 198.02L81.81 198.59L81.76 199.16L81.7 199.71L81.63 200.26L81.55 200.8L81.46 201.34L81.36 201.86L81.26 202.38L81.15 202.89L81.03 203.4L80.9 203.89L80.76 204.38L80.61 204.86L80.46 205.33L80.3 205.8L80.13 206.25L79.95 206.7L79.76 207.15L79.56 207.58L79.36 208.01L79.15 208.42L78.93 208.84L78.7 209.24L78.46 209.63L78.21 210.02L77.96 210.4L77.7 210.78L77.43 211.14L77.15 211.5L76.86 211.85L76.56 212.19L76.26 212.52L75.95 212.85L75.63 213.17L75.3 213.48L74.96 213.78L74.62 214.08L74.27 214.37L73.92 214.65L73.57 214.92L73.21 215.19L72.85 215.44L72.48 215.69L72.1 215.93L71.72 216.17L71.34 216.4L70.95 216.61L70.56 216.83L70.16 217.03L69.76 217.23L69.35 217.41L68.94 217.59L68.53 217.77L68.1 217.93L67.68 218.09L67.25 218.24L66.81 218.38L66.37 218.52L65.93 218.64L65.48 218.76L65.02 218.87L64.56 218.98L64.1 219.07L63.63 219.16L63.16 219.24L62.68 219.31L62.2 219.38L61.71 219.44L61.22 219.49L60.72 219.53L60.22 219.56L59.71 219.59L59.2 219.61L58.68 219.62L58.16 219.63L57.64 219.62L57.12 219.61L56.61 219.59L56.09 219.56L55.58 219.52L55.07 219.48L54.56 219.43L54.06 219.36L53.56 219.29L53.06 219.22L52.56 219.13L52.07 219.04L51.58 218.94L51.09 218.83L50.6 218.71L50.12 218.58L49.63 218.45L49.15 218.3L48.68 218.15L48.2 217.99L47.73 217.82L47.26 217.65L46.8 217.46L46.33 217.27L45.87 217.07L45.41 216.86L44.95 216.65L44.5 216.42L44.05 216.19L43.6 215.95L43.15 215.7L42.71 215.44L42.27 215.18L41.83 214.9L41.39 214.62L40.96 214.33L40.53 214.03L40.1 213.73L39.67 213.41L39.25 213.09L43.87 205.68L44.21 205.93L44.55 206.18L44.89 206.42L45.23 206.65L45.57 206.88L45.91 207.1L46.25 207.32L46.59 207.53L46.93 207.73L47.27 207.93L47.62 208.12L47.96 208.3L48.3 208.48L48.64 208.65L48.99 208.81L49.33 208.97L49.67 209.12L50.01 209.27L50.36 209.4L50.7 209.54L51.04 209.66L51.39 209.78L51.73 209.89L52.07 210L52.42 210.1L52.76 210.19L53.11 210.28L53.45 210.36L53.8 210.43L54.14 210.5L54.49 210.56L54.83 210.62L55.18 210.66L55.52 210.71L55.87 210.74L56.21 210.77L56.56 210.79L56.9 210.81L57.25 210.82L57.6 210.82L57.94 210.82L58.28 210.81L58.62 210.8L58.95 210.79L59.28 210.77L59.61 210.74L59.93 210.71L60.25 210.68L60.57 210.64L60.88 210.6L61.19 210.55L61.5 210.5L61.8 210.45L62.1 210.38L62.39 210.32L62.68 210.25L62.97 210.18L63.25 210.1L63.53 210.02L63.81 209.93L64.08 209.84L64.35 209.74L64.62 209.64L64.88 209.54L65.14 209.43L65.39 209.31L65.64 209.19L65.89 209.07L66.13 208.94L66.38 208.81L66.61 208.68L66.85 208.54L67.07 208.39L67.3 208.24L67.52 208.09L67.74 207.93L67.96 207.76L68.17 207.6L68.38 207.43L68.58 207.25L68.78 207.07L68.98 206.88L69.17 206.69L69.35 206.49L69.53 206.29L69.71 206.08L69.88 205.87L70.04 205.65L70.2 205.42L70.36 205.19L70.51 204.96L70.65 204.72L70.79 204.47L70.92 204.22L71.05 203.97L71.18 203.71L71.3 203.44L71.41 203.17L71.52 202.89L71.62 202.61L71.72 202.32L71.82 202.02L71.9 201.73L71.99 201.42L72.07 201.11L72.14 200.8L72.21 200.48L72.27 200.15L72.33 199.82L72.38 199.48L72.43 199.14L72.47 198.8L72.51 198.44L72.55 198.09L72.57 197.72L72.6 197.35L72.61 196.98L72.63 196.6L72.63 196.22L72.64 195.83L72.64 189.9L72.53 190.1L72.41 190.31L72.3 190.51L72.18 190.7L72.06 190.9L71.94 191.09L71.82 191.28L71.69 191.47L71.56 191.66L71.43 191.85L71.3 192.03L71.16 192.21L71.02 192.39L70.88 192.57L70.74 192.74L70.59 192.91L70.44 193.08L70.29 193.25L70.14 193.42L69.99 193.58L69.83 193.75L69.67 193.91L69.51 194.06L69.35 194.22L69.18 194.37L69.01 194.53L68.84 194.68L68.67 194.82L68.49 194.97L68.31 195.11L68.13 195.26L67.95 195.4L67.76 195.53L67.58 195.67L67.39 195.8L67.2 195.93L67 196.06L66.8 196.19L66.61 196.31L66.4 196.44L66.2 196.56L66 196.68L65.79 196.79L65.58 196.9L65.37 197.01L65.17 197.12L64.95 197.22L64.74 197.32L64.53 197.41L64.31 197.51L64.1 197.6L63.88 197.68L63.66 197.77L63.44 197.85L63.22 197.93L63 198L62.78 198.07L62.55 198.14L62.33 198.21L62.1 198.27L61.87 198.33L61.64 198.39L61.41 198.44L61.18 198.49L60.94 198.54L60.71 198.58L60.47 198.62L60.24 198.66L60 198.7L59.76 198.73L59.52 198.76L59.28 198.78L59.03 198.8L58.79 198.82L58.54 198.84L58.29 198.86L58.05 198.87L57.8 198.87L57.55 198.88L57.29 198.88L56.83 198.88L56.38 198.86L55.93 198.84L55.48 198.82L55.03 198.78L54.6 198.73L54.16 198.68L53.73 198.62L53.3 198.55L52.88 198.48L52.46 198.39L52.05 198.3L51.64 198.2L51.23 198.09L50.83 197.97L50.43 197.85L50.04 197.71L49.65 197.57L49.26 197.42L48.88 197.27L48.5 197.1L48.13 196.93L47.76 196.75L47.4 196.56L47.04 196.36L46.68 196.15L46.33 195.94L45.98 195.72L45.64 195.49L45.3 195.25L44.96 195L44.63 194.75L44.3 194.49L43.98 194.22L43.66 193.94L43.34 193.65L43.03 193.36L42.73 193.06L42.42 192.75L42.12 192.43L41.83 192.1L41.55 191.77L41.27 191.44L41 191.11L40.73 190.77L40.48 190.42L40.23 190.07L39.99 189.72L39.76 189.37L39.53 189.01L39.31 188.64L39.1 188.27L38.9 187.9L38.7 187.53L38.51 187.15L38.33 186.76L38.16 186.38L37.99 185.99L37.83 185.59L37.68 185.19L37.53 184.79L37.4 184.38L37.27 183.97L37.14 183.56L37.03 183.14L36.92 182.72L36.82 182.29L36.73 181.86L36.64 181.42L36.57 180.99L36.5 180.54L36.43 180.1L36.38 179.65L36.33 179.19L36.29 178.74L36.26 178.27L36.23 177.81L36.21 177.34L36.2 176.86L36.2 176.39L36.2 175.91L36.21 175.44L36.23 174.97L36.26 174.5L36.29 174.04L36.33 173.58L36.38 173.13L36.43 172.68L36.5 172.23L36.57 171.79L36.65 171.35L36.73 170.92L36.82 170.49L36.92 170.06L37.03 169.64L37.15 169.22L37.27 168.8L37.4 168.39L37.53 167.99L37.68 167.58L37.83 167.18L37.99 166.79L38.16 166.4L38.33 166.01L38.51 165.63L38.7 165.25L38.9 164.87L39.1 164.5L39.31 164.13L39.53 163.77L39.76 163.41L39.99 163.05L40.23 162.7L40.48 162.35L40.73 162.01L41 161.67L41.27 161.33L41.55 161L41.83 160.67L42.12 160.35L42.42 160.03L42.73 159.72L43.03 159.41L43.34 159.12L43.66 158.83L43.98 158.56L44.3 158.29L44.63 158.02L44.96 157.77L45.29 157.52L45.63 157.29L45.98 157.06L46.32 156.83L46.67 156.62L47.03 156.41L47.39 156.22L47.75 156.03L48.12 155.85L48.49 155.67L48.87 155.51L49.25 155.35L49.63 155.2L50.02 155.06L50.42 154.93L50.81 154.8L51.21 154.68L51.62 154.58L52.03 154.47L52.44 154.38L52.86 154.3L53.28 154.22L53.7 154.15L54.13 154.09L54.56 154.04L55 153.99L55.44 153.96L55.89 153.93L56.34 153.91L56.79 153.9L57.25 153.89L57.71 153.9L58.16 153.91ZM326.44 154L326.9 154.01L327.36 154.04L327.82 154.07L328.27 154.11L328.72 154.16L329.17 154.21L329.61 154.27L330.05 154.34L330.49 154.41L330.92 154.49L331.35 154.58L331.77 154.68L332.19 154.78L332.61 154.89L333.03 155.01L333.44 155.14L333.85 155.27L334.25 155.41L334.65 155.56L335.05 155.71L335.44 155.87L335.83 156.04L336.22 156.21L336.6 156.39L336.98 156.58L337.35 156.78L337.73 156.98L338.09 157.19L338.46 157.41L338.82 157.64L339.18 157.87L339.53 158.11L339.88 158.35L340.23 158.61L340.57 158.87L340.91 159.13L341.25 159.41L341.58 159.69L341.91 159.98L342.23 160.27L342.54 160.57L342.84 160.88L343.14 161.19L343.42 161.5L343.7 161.82L343.97 162.15L344.23 162.48L344.48 162.82L344.73 163.16L344.96 163.51L345.19 163.86L345.41 164.22L345.62 164.58L345.82 164.95L346.02 165.33L346.2 165.71L346.38 166.09L346.55 166.48L346.71 166.88L346.87 167.28L347.01 167.69L347.15 168.1L347.28 168.52L347.4 168.94L347.51 169.37L347.61 169.8L347.71 170.24L347.79 170.68L347.87 171.13L347.94 171.59L348.01 172.05L348.06 172.52L348.11 172.99L348.14 173.47L348.17 173.95L348.19 174.44L348.2 174.93L348.21 175.43L348.21 182.14L311.86 182.14L311.88 182.39L311.9 182.64L311.93 182.89L311.97 183.13L312 183.37L312.05 183.61L312.1 183.85L312.15 184.08L312.21 184.32L312.27 184.55L312.34 184.77L312.42 185L312.5 185.22L312.58 185.44L312.67 185.66L312.76 185.87L312.86 186.08L312.96 186.29L313.07 186.5L313.18 186.71L313.3 186.91L313.42 187.11L313.55 187.31L313.69 187.5L313.82 187.7L313.97 187.89L314.11 188.07L314.26 188.26L314.42 188.44L314.58 188.62L314.75 188.8L314.92 188.98L315.1 189.15L315.28 189.32L315.47 189.49L315.66 189.65L315.86 189.82L316.06 189.98L316.26 190.14L316.47 190.29L316.69 190.44L316.9 190.59L317.12 190.74L317.34 190.88L317.56 191.02L317.78 191.15L318.01 191.28L318.23 191.41L318.46 191.53L318.69 191.65L318.92 191.76L319.15 191.87L319.38 191.98L319.61 192.08L319.85 192.18L320.09 192.27L320.33 192.36L320.57 192.45L320.81 192.53L321.05 192.61L321.3 192.69L321.54 192.76L321.79 192.83L322.04 192.89L322.29 192.95L322.54 193.01L322.8 193.06L323.05 193.11L323.31 193.15L323.57 193.19L323.83 193.23L324.09 193.26L324.36 193.29L324.62 193.32L324.89 193.34L325.15 193.36L325.42 193.37L325.69 193.38L325.97 193.38L326.24 193.39L326.67 193.38L327.1 193.37L327.52 193.36L327.94 193.33L328.35 193.3L328.76 193.26L329.16 193.22L329.56 193.17L329.95 193.11L330.34 193.04L330.72 192.97L331.09 192.89L331.46 192.81L331.83 192.71L332.19 192.61L332.54 192.51L332.89 192.39L333.24 192.27L333.58 192.15L333.91 192.01L334.24 191.87L334.56 191.72L334.88 191.57L335.19 191.41L335.5 191.24L335.8 191.06L336.1 190.88L336.39 190.69L336.68 190.5L336.96 190.3L337.24 190.09L337.51 189.87L337.78 189.65L338.04 189.42L338.29 189.18L338.54 188.94L338.79 188.68L339.03 188.43L339.26 188.16L339.49 187.89L345.07 194L344.69 194.38L344.31 194.75L343.92 195.12L343.53 195.47L343.13 195.81L342.72 196.15L342.31 196.47L341.89 196.79L341.47 197.1L341.04 197.39L340.6 197.68L340.16 197.95L339.72 198.22L339.27 198.48L338.81 198.72L338.35 198.96L337.88 199.19L337.4 199.41L336.92 199.62L336.44 199.82L335.95 200L335.45 200.18L334.95 200.35L334.44 200.51L333.93 200.66L333.41 200.8L332.88 200.94L332.35 201.06L331.82 201.17L331.27 201.27L330.73 201.36L330.17 201.44L329.61 201.52L329.05 201.58L328.48 201.63L327.9 201.68L327.32 201.71L326.73 201.74L326.14 201.75L325.54 201.75L325.06 201.75L324.57 201.74L324.09 201.72L323.62 201.69L323.15 201.65L322.68 201.61L322.21 201.56L321.75 201.5L321.3 201.43L320.84 201.35L320.39 201.26L319.95 201.17L319.5 201.07L319.06 200.96L318.63 200.84L318.2 200.72L317.77 200.58L317.35 200.44L316.92 200.29L316.51 200.13L316.09 199.97L315.68 199.79L315.28 199.61L314.88 199.42L314.48 199.22L314.08 199.01L313.69 198.8L313.3 198.57L312.92 198.34L312.54 198.1L312.16 197.85L311.79 197.6L311.42 197.33L311.05 197.06L310.69 196.78L310.33 196.49L309.98 196.2L309.62 195.89L309.28 195.58L308.93 195.26L308.6 194.93L308.27 194.6L307.95 194.26L307.63 193.92L307.33 193.57L307.03 193.21L306.75 192.85L306.47 192.49L306.2 192.11L305.94 191.74L305.69 191.35L305.44 190.96L305.21 190.57L304.98 190.17L304.76 189.77L304.55 189.35L304.35 188.94L304.16 188.52L303.98 188.09L303.8 187.66L303.63 187.22L303.48 186.77L303.33 186.32L303.19 185.87L303.05 185.41L302.93 184.94L302.81 184.47L302.71 183.99L302.61 183.51L302.52 183.02L302.44 182.52L302.36 182.02L302.3 181.52L302.24 181.01L302.2 180.49L302.16 179.97L302.13 179.44L302.11 178.91L302.09 178.37L302.09 177.82L302.09 177.28L302.11 176.74L302.13 176.21L302.16 175.68L302.2 175.16L302.25 174.64L302.3 174.13L302.37 173.63L302.44 173.13L302.53 172.64L302.62 172.15L302.72 171.66L302.83 171.19L302.94 170.72L303.07 170.25L303.21 169.79L303.35 169.34L303.5 168.89L303.66 168.44L303.83 168.01L304.01 167.57L304.2 167.15L304.4 166.73L304.6 166.31L304.82 165.9L305.04 165.5L305.27 165.1L305.51 164.71L305.76 164.32L306.01 163.94L306.28 163.56L306.55 163.19L306.84 162.83L307.13 162.47L307.43 162.12L307.74 161.77L308.06 161.43L308.39 161.09L308.72 160.76L309.07 160.43L309.42 160.11L309.77 159.8L310.13 159.5L310.48 159.21L310.85 158.92L311.21 158.64L311.58 158.37L311.95 158.11L312.33 157.86L312.71 157.61L313.09 157.37L313.47 157.14L313.86 156.92L314.25 156.71L314.65 156.5L315.04 156.3L315.44 156.12L315.85 155.93L316.25 155.76L316.66 155.59L317.07 155.44L317.49 155.29L317.91 155.15L318.33 155.01L318.75 154.89L319.18 154.77L319.61 154.66L320.05 154.56L320.48 154.47L320.92 154.38L321.37 154.31L321.81 154.24L322.26 154.18L322.72 154.13L323.17 154.08L323.63 154.05L324.09 154.02L324.56 154L325.03 153.98L325.5 153.98L325.97 153.98L326.44 154ZM558.28 154.01L558.96 154.05L559.63 154.1L560.3 154.17L560.95 154.26L561.6 154.36L562.24 154.47L562.87 154.6L563.49 154.75L564.11 154.91L564.72 155.09L565.32 155.28L565.91 155.49L566.49 155.71L567.07 155.95L567.64 156.21L568.2 156.48L568.76 156.76L569.3 157.06L569.84 157.38L570.37 157.71L570.9 158.05L571.41 158.42L571.92 158.79L572.42 159.19L572.91 159.59L573.4 160.02L573.87 160.46L574.34 160.91L574.8 161.38L575.24 161.85L575.67 162.33L576.08 162.82L576.47 163.31L576.85 163.81L577.22 164.32L577.57 164.83L577.9 165.35L578.22 165.88L578.52 166.41L578.81 166.95L579.08 167.5L579.33 168.06L579.57 168.62L579.8 169.19L580.01 169.76L580.2 170.34L580.38 170.93L580.54 171.53L580.69 172.13L580.82 172.74L580.94 173.36L581.04 173.98L581.12 174.61L581.19 175.25L581.25 175.89L581.29 176.55L581.31 177.2L581.32 177.87L581.31 178.53L581.29 179.19L581.25 179.84L581.19 180.49L581.12 181.12L581.04 181.75L580.94 182.38L580.82 182.99L580.69 183.6L580.54 184.21L580.38 184.8L580.2 185.39L580.01 185.98L579.8 186.55L579.57 187.12L579.33 187.68L579.08 188.24L578.81 188.78L578.52 189.33L578.22 189.86L577.9 190.39L577.57 190.91L577.22 191.42L576.85 191.93L576.47 192.43L576.08 192.92L575.67 193.41L575.24 193.89L574.8 194.36L574.34 194.82L573.87 195.28L573.4 195.72L572.91 196.14L572.42 196.55L571.92 196.94L571.41 197.32L570.9 197.68L570.37 198.03L569.84 198.36L569.3 198.68L568.76 198.98L568.2 199.26L567.64 199.53L567.07 199.78L566.5 200.02L565.91 200.25L565.32 200.45L564.72 200.65L564.11 200.82L563.49 200.98L562.87 201.13L562.24 201.26L561.6 201.38L560.95 201.48L560.3 201.56L559.63 201.63L558.96 201.69L558.28 201.72L557.6 201.75L556.9 201.75L556.21 201.75L555.52 201.72L554.85 201.69L554.18 201.63L553.51 201.56L552.86 201.48L552.21 201.38L551.57 201.26L550.94 201.13L550.32 200.98L549.7 200.82L549.09 200.65L548.49 200.45L547.9 200.25L547.31 200.02L546.74 199.78L546.17 199.53L545.61 199.26L545.05 198.98L544.5 198.68L543.97 198.36L543.44 198.03L542.91 197.68L542.4 197.32L541.89 196.94L541.39 196.55L540.9 196.14L540.41 195.72L539.94 195.28L539.47 194.82L539.01 194.36L538.57 193.89L538.14 193.41L537.73 192.92L537.34 192.43L536.96 191.93L536.59 191.42L536.24 190.91L535.91 190.39L535.59 189.86L535.29 189.32L535 188.78L534.73 188.24L534.48 187.68L534.24 187.12L534.01 186.55L533.8 185.97L533.61 185.39L533.43 184.8L533.27 184.21L533.12 183.6L532.99 182.99L532.87 182.38L532.77 181.75L532.69 181.12L532.62 180.49L532.56 179.84L532.52 179.19L532.5 178.53L532.49 177.87L532.5 177.2L532.52 176.55L532.56 175.89L532.62 175.25L532.69 174.61L532.77 173.98L532.87 173.36L532.99 172.74L533.12 172.13L533.27 171.53L533.43 170.93L533.61 170.34L533.8 169.76L534.01 169.19L534.24 168.62L534.48 168.06L534.73 167.5L535 166.95L535.29 166.41L535.59 165.88L535.91 165.35L536.24 164.83L536.59 164.32L536.96 163.81L537.34 163.31L537.73 162.82L538.14 162.33L538.57 161.85L539.01 161.38L539.47 160.91L539.94 160.46L540.41 160.02L540.9 159.59L541.39 159.19L541.89 158.79L542.4 158.42L542.91 158.05L543.44 157.71L543.97 157.38L544.5 157.06L545.05 156.76L545.6 156.48L546.17 156.21L546.74 155.95L547.31 155.71L547.9 155.49L548.49 155.28L549.09 155.09L549.7 154.91L550.32 154.75L550.94 154.6L551.57 154.47L552.21 154.36L552.86 154.26L553.51 154.17L554.18 154.1L554.85 154.05L555.52 154.01L556.21 153.99L556.9 153.98L557.6 153.99L558.28 154.01ZM490.86 162.35L491.15 161.93L491.45 161.52L491.75 161.11L492.06 160.72L492.37 160.34L492.69 159.98L493.01 159.62L493.34 159.27L493.67 158.94L494 158.61L494.34 158.3L494.68 157.99L495.03 157.7L495.38 157.42L495.74 157.15L496.1 156.89L496.47 156.65L496.84 156.41L497.21 156.18L497.59 155.97L497.97 155.76L498.36 155.57L498.75 155.39L499.15 155.22L499.55 155.06L499.96 154.91L500.37 154.77L500.78 154.65L501.2 154.53L501.63 154.43L502.06 154.33L502.49 154.25L502.93 154.18L503.37 154.12L503.82 154.07L504.27 154.03L504.72 154L505.18 153.99L505.65 153.98L506.11 153.98L506.57 154L507.03 154.02L507.48 154.05L507.94 154.08L508.38 154.13L508.83 154.18L509.27 154.24L509.71 154.31L510.14 154.38L510.57 154.47L511 154.56L511.42 154.66L511.85 154.77L512.26 154.89L512.68 155.01L513.09 155.15L513.49 155.29L513.9 155.44L514.3 155.59L514.7 155.76L515.09 155.93L515.48 156.11L515.87 156.3L516.25 156.5L516.63 156.71L517.01 156.92L517.38 157.14L517.75 157.37L518.12 157.61L518.48 157.86L518.84 158.11L519.2 158.37L519.55 158.64L519.9 158.92L520.25 159.21L520.59 159.5L520.93 159.8L521.27 160.11L521.6 160.43L521.93 160.76L522.25 161.09L522.56 161.42L522.86 161.77L523.15 162.11L523.44 162.46L523.72 162.82L523.98 163.18L524.25 163.55L524.5 163.93L524.74 164.3L524.98 164.69L525.21 165.08L525.43 165.47L525.64 165.87L525.84 166.28L526.03 166.69L526.22 167.1L526.4 167.53L526.57 167.95L526.73 168.38L526.88 168.82L527.03 169.26L527.17 169.71L527.29 170.17L527.41 170.62L527.53 171.09L527.63 171.56L527.73 172.03L527.81 172.51L527.89 173L527.96 173.49L528.02 173.98L528.08 174.49L528.12 174.99L528.16 175.5L528.19 176.02L528.21 176.54L528.22 177.07L528.23 177.61L528.22 178.14L528.21 178.67L528.19 179.19L528.16 179.71L528.12 180.22L528.08 180.73L528.03 181.24L527.96 181.73L527.89 182.23L527.82 182.72L527.73 183.2L527.63 183.68L527.53 184.15L527.42 184.62L527.3 185.08L527.17 185.54L527.04 186L526.89 186.44L526.74 186.89L526.58 187.33L526.41 187.76L526.24 188.19L526.05 188.61L525.86 189.03L525.66 189.44L525.45 189.85L525.23 190.25L525 190.65L524.77 191.05L524.52 191.43L524.27 191.82L524.01 192.2L523.75 192.57L523.47 192.94L523.19 193.3L522.9 193.66L522.6 194.01L522.29 194.36L521.97 194.7L521.65 195.04L521.32 195.37L520.98 195.7L520.65 196.01L520.31 196.32L519.96 196.62L519.62 196.91L519.27 197.19L518.92 197.46L518.57 197.72L518.22 197.98L517.86 198.23L517.5 198.47L517.13 198.7L516.77 198.92L516.4 199.13L516.03 199.34L515.65 199.54L515.28 199.72L514.9 199.91L514.52 200.08L514.13 200.24L513.74 200.4L513.35 200.54L512.96 200.68L512.56 200.81L512.17 200.93L511.76 201.05L511.36 201.15L510.95 201.25L510.54 201.34L510.13 201.42L509.72 201.49L509.3 201.55L508.88 201.6L508.45 201.65L508.03 201.69L507.6 201.72L507.17 201.74L506.73 201.75L506.3 201.75L505.86 201.75L505.43 201.74L504.99 201.71L504.56 201.68L504.14 201.63L503.71 201.58L503.29 201.52L502.87 201.45L502.45 201.37L502.03 201.28L501.62 201.17L501.2 201.06L500.79 200.94L500.39 200.82L499.98 200.68L499.58 200.53L499.18 200.37L498.78 200.2L498.38 200.02L497.99 199.84L497.59 199.64L497.2 199.43L496.82 199.22L496.43 198.99L496.05 198.76L495.67 198.51L495.29 198.26L494.91 198L494.54 197.72L494.16 197.44L493.79 197.15L493.43 196.85L493.06 196.53L492.7 196.21L492.34 195.88L491.98 195.54L491.62 195.19L491.27 194.83L490.92 194.46L490.57 194.09L490.57 201.06L480.8 201.06L480.8 136.37L490.57 136.37L490.57 162.79L490.86 162.35ZM114.98 153.92L115.66 153.96L116.33 154.02L117 154.09L117.65 154.17L118.3 154.27L118.94 154.39L119.57 154.52L120.19 154.66L120.81 154.83L121.42 155L122.02 155.2L122.61 155.4L123.2 155.63L123.77 155.87L124.34 156.12L124.9 156.39L125.46 156.67L126 156.97L126.54 157.29L127.07 157.62L127.6 157.97L128.11 158.33L128.62 158.71L129.12 159.1L129.61 159.51L130.1 159.93L130.57 160.37L131.04 160.82L131.5 161.29L131.94 161.76L132.37 162.24L132.78 162.73L133.17 163.22L133.55 163.72L133.92 164.23L134.27 164.74L134.6 165.26L134.92 165.79L135.22 166.32L135.51 166.87L135.78 167.41L136.03 167.97L136.27 168.53L136.5 169.1L136.71 169.67L136.9 170.26L137.08 170.85L137.24 171.44L137.39 172.05L137.52 172.66L137.64 173.27L137.74 173.9L137.82 174.53L137.89 175.16L137.95 175.81L137.99 176.46L138.01 177.12L138.02 177.78L138.01 178.45L137.99 179.1L137.95 179.76L137.89 180.4L137.82 181.04L137.74 181.67L137.64 182.29L137.52 182.91L137.39 183.52L137.24 184.12L137.08 184.72L136.9 185.31L136.71 185.89L136.5 186.46L136.27 187.03L136.03 187.59L135.78 188.15L135.51 188.7L135.22 189.24L134.92 189.77L134.6 190.3L134.27 190.82L133.92 191.33L133.55 191.84L133.17 192.34L132.78 192.83L132.37 193.32L131.94 193.8L131.5 194.27L131.04 194.74L130.57 195.19L130.1 195.63L129.61 196.05L129.12 196.46L128.62 196.85L128.11 197.23L127.6 197.59L127.07 197.94L126.54 198.27L126.01 198.59L125.46 198.89L124.9 199.17L124.34 199.44L123.77 199.69L123.2 199.93L122.61 200.16L122.02 200.37L121.42 200.56L120.81 200.73L120.19 200.9L119.57 201.04L118.94 201.17L118.3 201.29L117.65 201.39L117 201.47L116.33 201.54L115.66 201.6L114.98 201.64L114.3 201.66L113.61 201.67L112.91 201.66L112.23 201.64L111.55 201.6L110.88 201.54L110.22 201.47L109.56 201.39L108.91 201.29L108.27 201.17L107.64 201.04L107.02 200.9L106.4 200.73L105.8 200.56L105.2 200.37L104.6 200.16L104.02 199.93L103.44 199.69L102.87 199.44L102.31 199.17L101.75 198.89L101.21 198.59L100.67 198.27L100.14 197.94L99.62 197.59L99.1 197.23L98.59 196.85L98.09 196.46L97.6 196.05L97.12 195.63L96.64 195.19L96.17 194.74L95.71 194.27L95.27 193.8L94.85 193.32L94.44 192.83L94.04 192.34L93.66 191.84L93.3 191.33L92.95 190.82L92.61 190.3L92.3 189.77L91.99 189.24L91.71 188.7L91.44 188.15L91.18 187.59L90.94 187.03L90.71 186.46L90.51 185.89L90.31 185.31L90.13 184.72L89.97 184.12L89.82 183.52L89.69 182.91L89.58 182.29L89.48 181.67L89.39 181.04L89.32 180.4L89.27 179.76L89.23 179.1L89.2 178.45L89.2 177.78L89.2 177.12L89.23 176.46L89.27 175.81L89.32 175.16L89.39 174.53L89.48 173.9L89.58 173.27L89.69 172.66L89.82 172.05L89.97 171.44L90.13 170.85L90.31 170.26L90.51 169.67L90.71 169.1L90.94 168.53L91.18 167.97L91.44 167.41L91.71 166.87L91.99 166.32L92.3 165.79L92.61 165.26L92.95 164.74L93.3 164.23L93.66 163.72L94.04 163.22L94.44 162.73L94.85 162.24L95.27 161.76L95.71 161.29L96.17 160.82L96.64 160.37L97.12 159.93L97.6 159.51L98.09 159.1L98.59 158.71L99.1 158.33L99.62 157.97L100.14 157.62L100.67 157.29L101.21 156.97L101.75 156.67L102.31 156.39L102.87 156.12L103.44 155.87L104.02 155.63L104.6 155.4L105.19 155.2L105.8 155L106.4 154.83L107.02 154.66L107.64 154.52L108.27 154.39L108.91 154.27L109.56 154.17L110.22 154.09L110.88 154.02L111.55 153.96L112.23 153.92L112.91 153.9L113.61 153.89L114.3 153.9L114.98 153.92ZM167.99 153.92L168.67 153.96L169.34 154.02L170 154.09L170.66 154.17L171.3 154.27L171.94 154.39L172.57 154.52L173.2 154.66L173.81 154.83L174.42 155L175.02 155.2L175.61 155.4L176.2 155.63L176.78 155.87L177.35 156.12L177.91 156.39L178.46 156.67L179.01 156.97L179.55 157.29L180.08 157.62L180.6 157.97L181.12 158.33L181.62 158.71L182.12 159.1L182.62 159.51L183.1 159.93L183.58 160.37L184.05 160.82L184.5 161.29L184.94 161.76L185.37 162.24L185.78 162.73L186.18 163.22L186.56 163.72L186.92 164.23L187.27 164.74L187.6 165.26L187.92 165.79L188.22 166.32L188.51 166.87L188.78 167.41L189.04 167.97L189.28 168.53L189.5 169.1L189.71 169.67L189.9 170.26L190.08 170.85L190.24 171.44L190.39 172.05L190.52 172.66L190.64 173.27L190.74 173.9L190.83 174.53L190.9 175.16L190.95 175.81L190.99 176.46L191.01 177.12L191.02 177.78L191.01 178.45L190.99 179.1L190.95 179.76L190.9 180.4L190.83 181.04L190.74 181.67L190.64 182.29L190.52 182.91L190.39 183.52L190.25 184.12L190.08 184.72L189.9 185.31L189.71 185.89L189.5 186.46L189.28 187.03L189.04 187.59L188.78 188.15L188.51 188.7L188.22 189.24L187.92 189.77L187.6 190.3L187.27 190.82L186.92 191.33L186.56 191.84L186.18 192.34L185.78 192.83L185.37 193.32L184.94 193.8L184.5 194.27L184.05 194.74L183.58 195.19L183.1 195.63L182.62 196.05L182.12 196.46L181.62 196.85L181.12 197.23L180.6 197.59L180.08 197.94L179.55 198.27L179.01 198.59L178.46 198.89L177.91 199.17L177.35 199.44L176.78 199.69L176.2 199.93L175.61 200.16L175.02 200.37L174.42 200.56L173.81 200.73L173.2 200.9L172.57 201.04L171.94 201.17L171.3 201.29L170.66 201.39L170 201.47L169.34 201.54L168.67 201.6L167.99 201.64L167.3 201.66L166.61 201.67L165.92 201.66L165.23 201.64L164.55 201.6L163.88 201.54L163.22 201.47L162.56 201.39L161.92 201.29L161.28 201.17L160.65 201.04L160.02 200.9L159.41 200.73L158.8 200.56L158.2 200.37L157.61 200.16L157.02 199.93L156.44 199.69L155.87 199.44L155.31 199.17L154.76 198.89L154.21 198.59L153.67 198.27L153.14 197.94L152.62 197.59L152.1 197.23L151.6 196.85L151.1 196.46L150.61 196.05L150.12 195.63L149.64 195.19L149.18 194.74L148.72 194.27L148.28 193.8L147.85 193.32L147.44 192.83L147.04 192.34L146.66 191.84L146.3 191.33L145.95 190.82L145.62 190.3L145.3 189.77L145 189.24L144.71 188.7L144.44 188.15L144.18 187.59L143.94 187.03L143.72 186.46L143.51 185.89L143.32 185.31L143.14 184.72L142.98 184.12L142.83 183.52L142.7 182.91L142.58 182.29L142.48 181.67L142.39 181.04L142.32 180.4L142.27 179.76L142.23 179.1L142.21 178.45L142.2 177.78L142.21 177.12L142.23 176.46L142.27 175.81L142.32 175.16L142.39 174.53L142.48 173.9L142.58 173.27L142.7 172.66L142.83 172.05L142.98 171.44L143.14 170.85L143.32 170.26L143.51 169.67L143.72 169.1L143.94 168.53L144.18 167.97L144.44 167.41L144.71 166.87L145 166.32L145.3 165.79L145.62 165.26L145.95 164.74L146.3 164.23L146.66 163.72L147.04 163.22L147.44 162.73L147.85 162.24L148.28 161.76L148.72 161.29L149.18 160.82L149.64 160.37L150.12 159.93L150.61 159.51L151.1 159.1L151.6 158.71L152.1 158.33L152.62 157.97L153.14 157.62L153.67 157.29L154.21 156.97L154.76 156.67L155.31 156.39L155.87 156.12L156.44 155.87L157.02 155.63L157.61 155.4L158.2 155.2L158.8 155L159.41 154.83L160.02 154.66L160.65 154.52L161.28 154.39L161.92 154.27L162.56 154.17L163.22 154.09L163.88 154.02L164.55 153.96L165.23 153.92L165.92 153.9L166.61 153.89L167.3 153.9L167.99 153.92ZM232.95 200.97L232.95 193.99L232.68 194.37L232.4 194.74L232.11 195.1L231.82 195.45L231.52 195.79L231.22 196.12L230.91 196.44L230.59 196.76L230.27 197.06L229.94 197.35L229.6 197.63L229.26 197.91L228.91 198.17L228.56 198.42L228.2 198.67L227.83 198.9L227.46 199.13L227.08 199.34L226.69 199.55L226.3 199.75L225.91 199.93L225.5 200.11L225.09 200.28L224.68 200.44L224.25 200.59L223.82 200.73L223.39 200.85L222.95 200.97L222.5 201.08L222.05 201.19L221.59 201.28L221.12 201.36L220.65 201.43L220.17 201.49L219.69 201.54L219.2 201.59L218.7 201.62L218.2 201.65L217.69 201.66L217.17 201.66L216.73 201.66L216.3 201.65L215.86 201.63L215.43 201.6L215.01 201.56L214.58 201.52L214.16 201.46L213.74 201.4L213.33 201.33L212.91 201.25L212.5 201.16L212.09 201.07L211.69 200.97L211.29 200.85L210.89 200.73L210.49 200.61L210.1 200.47L209.71 200.32L209.32 200.17L208.93 200.01L208.55 199.84L208.17 199.66L207.8 199.48L207.42 199.28L207.05 199.08L206.68 198.87L206.32 198.65L205.96 198.42L205.6 198.18L205.24 197.94L204.89 197.69L204.54 197.43L204.19 197.16L203.84 196.88L203.5 196.59L203.16 196.3L202.82 196L202.49 195.69L202.16 195.37L201.83 195.04L201.51 194.71L201.19 194.37L200.89 194.02L200.59 193.67L200.3 193.32L200.02 192.96L199.74 192.59L199.48 192.22L199.22 191.85L198.97 191.47L198.73 191.08L198.5 190.69L198.27 190.29L198.05 189.89L197.85 189.48L197.65 189.07L197.45 188.65L197.27 188.23L197.09 187.8L196.93 187.37L196.77 186.93L196.62 186.49L196.47 186.04L196.34 185.58L196.21 185.12L196.09 184.66L195.98 184.19L195.88 183.71L195.79 183.23L195.7 182.75L195.62 182.26L195.55 181.76L195.49 181.26L195.44 180.75L195.39 180.24L195.36 179.72L195.33 179.2L195.31 178.68L195.3 178.14L195.29 177.6L195.3 177.07L195.31 176.53L195.33 176.01L195.36 175.49L195.4 174.97L195.44 174.46L195.5 173.96L195.56 173.46L195.63 172.96L195.71 172.47L195.8 171.99L195.9 171.51L196 171.04L196.11 170.57L196.24 170.11L196.37 169.66L196.5 169.21L196.65 168.76L196.81 168.32L196.97 167.89L197.14 167.46L197.32 167.03L197.51 166.62L197.71 166.2L197.91 165.8L198.13 165.4L198.35 165L198.58 164.61L198.82 164.22L199.07 163.84L199.32 163.47L199.59 163.1L199.86 162.74L200.14 162.38L200.43 162.03L200.73 161.68L201.03 161.34L201.35 161L201.67 160.67L202 160.34L202.34 160.03L202.68 159.72L203.03 159.41L203.37 159.12L203.72 158.83L204.08 158.55L204.43 158.28L204.79 158.02L205.16 157.77L205.52 157.52L205.89 157.28L206.26 157.05L206.64 156.83L207.02 156.62L207.4 156.41L207.79 156.22L208.17 156.03L208.57 155.84L208.96 155.67L209.36 155.51L209.76 155.35L210.17 155.2L210.57 155.06L210.98 154.93L211.4 154.8L211.82 154.68L212.24 154.57L212.66 154.47L213.09 154.38L213.52 154.3L213.95 154.22L214.39 154.15L214.83 154.09L215.27 154.04L215.72 153.99L216.17 153.96L216.62 153.93L217.08 153.91L217.54 153.9L218 153.89L218.46 153.9L218.92 153.91L219.37 153.94L219.82 153.97L220.26 154.02L220.7 154.07L221.14 154.13L221.57 154.21L221.99 154.29L222.42 154.38L222.83 154.49L223.25 154.6L223.65 154.72L224.06 154.85L224.45 155L224.85 155.15L225.24 155.31L225.62 155.48L226 155.66L226.38 155.86L226.75 156.06L227.12 156.27L227.48 156.49L227.84 156.72L228.19 156.96L228.54 157.21L228.89 157.47L229.23 157.74L229.56 158.02L229.89 158.31L230.22 158.61L230.54 158.92L230.86 159.23L231.17 159.56L231.48 159.9L231.78 160.25L232.08 160.61L232.38 160.98L232.67 161.35L232.95 161.74L232.95 136.28L242.71 136.28L242.71 200.97L232.95 200.97ZM438.19 162.92L438.3 162.71L438.41 162.51L438.52 162.3L438.64 162.1L438.76 161.9L438.88 161.7L439.01 161.5L439.13 161.31L439.26 161.12L439.4 160.93L439.53 160.74L439.67 160.55L439.81 160.37L439.95 160.19L440.1 160.01L440.25 159.84L440.4 159.66L440.55 159.49L440.71 159.32L440.87 159.16L441.03 158.99L441.2 158.83L441.36 158.67L441.53 158.51L441.71 158.36L441.88 158.21L442.06 158.05L442.24 157.91L442.42 157.76L442.61 157.62L442.8 157.47L442.99 157.34L443.19 157.2L443.38 157.06L443.58 156.93L443.78 156.8L443.99 156.67L444.2 156.55L444.41 156.42L444.62 156.3L444.83 156.19L445.04 156.07L445.26 155.96L445.47 155.85L445.69 155.75L445.91 155.65L446.12 155.55L446.34 155.45L446.56 155.36L446.78 155.27L447 155.18L447.22 155.1L447.45 155.02L447.67 154.94L447.89 154.86L448.12 154.79L448.34 154.72L448.57 154.66L448.8 154.59L449.03 154.53L449.25 154.48L449.48 154.42L449.71 154.37L449.95 154.33L450.18 154.28L450.41 154.24L450.64 154.2L450.88 154.17L451.11 154.14L451.35 154.11L451.59 154.08L451.83 154.06L452.06 154.04L452.3 154.02L452.54 154.01L452.79 154L453.03 153.99L453.27 153.98L453.52 153.98L453.91 153.99L454.29 153.99L454.68 154.01L455.05 154.03L455.43 154.06L455.8 154.09L456.17 154.13L456.53 154.17L456.89 154.23L457.25 154.28L457.6 154.35L457.95 154.41L458.3 154.49L458.64 154.57L458.98 154.66L459.31 154.75L459.64 154.85L459.97 154.95L460.29 155.07L460.61 155.18L460.92 155.31L461.24 155.43L461.54 155.57L461.85 155.71L462.15 155.86L462.44 156.01L462.74 156.17L463.03 156.33L463.31 156.5L463.59 156.68L463.87 156.86L464.14 157.05L464.41 157.25L464.68 157.45L464.94 157.66L465.2 157.87L465.46 158.09L465.71 158.31L465.96 158.54L466.2 158.78L466.44 159.02L466.67 159.27L466.9 159.52L467.12 159.78L467.33 160.04L467.54 160.31L467.75 160.59L467.94 160.87L468.13 161.15L468.32 161.44L468.5 161.74L468.67 162.04L468.83 162.35L468.99 162.66L469.15 162.97L469.3 163.3L469.44 163.62L469.57 163.96L469.7 164.3L469.83 164.64L469.95 164.99L470.06 165.34L470.16 165.7L470.26 166.07L470.36 166.44L470.44 166.82L470.53 167.2L470.6 167.58L470.67 167.97L470.73 168.37L470.79 168.77L470.84 169.18L470.89 169.6L470.93 170.01L470.96 170.44L470.99 170.87L471.01 171.3L471.02 171.74L471.03 172.19L471.04 172.64L471.04 201.06L461.27 201.06L461.27 175.6L461.27 174.97L461.25 174.35L461.21 173.75L461.17 173.17L461.11 172.6L461.03 172.05L460.95 171.51L460.85 170.99L460.73 170.49L460.61 170L460.47 169.52L460.32 169.07L460.15 168.63L459.97 168.2L459.78 167.79L459.57 167.4L459.35 167.03L459.12 166.67L458.87 166.32L458.61 165.99L458.34 165.68L458.06 165.38L457.76 165.1L457.44 164.84L457.12 164.59L456.78 164.36L456.43 164.14L456.06 163.94L455.68 163.76L455.29 163.59L454.88 163.44L454.47 163.3L454.03 163.18L453.59 163.08L453.13 162.99L452.66 162.92L452.17 162.86L451.67 162.82L451.16 162.8L450.64 162.79L450.39 162.79L450.14 162.8L449.89 162.81L449.64 162.82L449.39 162.84L449.15 162.86L448.91 162.89L448.67 162.92L448.43 162.96L448.19 163L447.96 163.04L447.72 163.09L447.49 163.14L447.26 163.2L447.03 163.26L446.8 163.33L446.58 163.4L446.35 163.47L446.13 163.55L445.91 163.63L445.69 163.71L445.47 163.8L445.26 163.9L445.04 164L444.83 164.1L444.62 164.21L444.41 164.32L444.2 164.43L443.99 164.55L443.79 164.68L443.59 164.8L443.39 164.94L443.19 165.07L442.99 165.21L442.79 165.36L442.6 165.51L442.4 165.66L442.21 165.82L442.02 165.98L441.84 166.14L441.65 166.31L441.47 166.49L441.29 166.67L441.12 166.85L440.96 167.03L440.79 167.22L440.64 167.41L440.48 167.61L440.34 167.81L440.19 168.02L440.06 168.22L439.92 168.44L439.79 168.65L439.67 168.87L439.55 169.1L439.43 169.32L439.32 169.56L439.22 169.79L439.12 170.03L439.02 170.27L438.93 170.52L438.84 170.77L438.76 171.03L438.68 171.29L438.61 171.55L438.54 171.81L438.48 172.09L438.42 172.36L438.37 172.64L438.32 172.92L438.27 173.21L438.23 173.49L438.2 173.79L438.17 174.09L438.14 174.39L438.12 174.69L438.11 175L438.09 175.31L438.09 175.63L438.09 175.95L438.09 201.06L428.32 201.06L428.32 136.46L438.09 136.46L438.09 163.14L438.19 162.92ZM278.55 153.99L278.93 154.01L279.31 154.03L279.68 154.06L280.06 154.09L280.42 154.13L280.79 154.17L281.15 154.23L281.5 154.28L281.86 154.35L282.21 154.41L282.55 154.49L282.89 154.57L283.23 154.66L283.56 154.75L283.9 154.85L284.22 154.95L284.54 155.07L284.86 155.18L285.18 155.31L285.49 155.43L285.8 155.57L286.1 155.71L286.4 155.86L286.7 156.01L286.99 156.17L287.28 156.33L287.56 156.5L287.85 156.68L288.12 156.86L288.4 157.05L288.67 157.25L288.93 157.45L289.2 157.66L289.46 157.87L289.71 158.09L289.96 158.31L290.21 158.54L290.45 158.78L290.69 159.02L290.92 159.27L291.15 159.52L291.37 159.78L291.59 160.04L291.8 160.31L292 160.59L292.2 160.87L292.39 161.15L292.57 161.44L292.75 161.74L292.92 162.04L293.09 162.35L293.25 162.66L293.4 162.97L293.55 163.3L293.69 163.62L293.83 163.96L293.96 164.3L294.08 164.64L294.2 164.99L294.31 165.34L294.42 165.7L294.52 166.07L294.61 166.44L294.7 166.82L294.78 167.2L294.86 167.58L294.93 167.97L294.99 168.37L295.05 168.77L295.1 169.18L295.14 169.6L295.18 170.01L295.22 170.44L295.24 170.87L295.27 171.3L295.28 171.74L295.29 172.19L295.29 172.64L295.29 201.06L285.53 201.06L285.53 175.6L285.52 174.97L285.5 174.35L285.47 173.75L285.42 173.17L285.36 172.6L285.29 172.05L285.2 171.51L285.1 170.99L284.99 170.49L284.86 170L284.72 169.52L284.57 169.07L284.4 168.63L284.23 168.2L284.03 167.79L283.83 167.4L283.61 167.03L283.37 166.67L283.13 166.32L282.87 165.99L282.6 165.68L282.31 165.38L282.01 165.1L281.7 164.84L281.37 164.59L281.04 164.36L280.68 164.14L280.32 163.94L279.94 163.76L279.55 163.59L279.14 163.44L278.72 163.3L278.29 163.18L277.84 163.08L277.39 162.99L276.91 162.92L276.43 162.86L275.93 162.82L275.42 162.8L274.89 162.79L274.64 162.79L274.39 162.8L274.14 162.81L273.89 162.82L273.65 162.84L273.41 162.86L273.16 162.89L272.92 162.92L272.68 162.96L272.45 163L272.21 163.04L271.98 163.09L271.74 163.14L271.51 163.2L271.28 163.26L271.06 163.33L270.83 163.4L270.61 163.47L270.38 163.55L270.16 163.63L269.94 163.71L269.73 163.8L269.51 163.9L269.3 164L269.08 164.1L268.87 164.21L268.66 164.32L268.46 164.43L268.25 164.55L268.05 164.68L267.84 164.8L267.64 164.94L267.44 165.07L267.24 165.21L267.05 165.36L266.85 165.51L266.66 165.66L266.47 165.82L266.28 165.98L266.09 166.14L265.9 166.31L265.72 166.49L265.55 166.67L265.38 166.85L265.21 167.03L265.05 167.22L264.89 167.41L264.74 167.61L264.59 167.81L264.45 168.02L264.31 168.22L264.18 168.44L264.05 168.65L263.92 168.87L263.8 169.1L263.69 169.32L263.58 169.56L263.47 169.79L263.37 170.03L263.28 170.27L263.18 170.52L263.1 170.77L263.02 171.03L262.94 171.29L262.87 171.55L262.8 171.81L262.73 172.09L262.68 172.36L262.62 172.64L262.57 172.92L262.53 173.21L262.49 173.49L262.45 173.79L262.42 174.09L262.4 174.39L262.38 174.69L262.36 175L262.35 175.31L262.34 175.63L262.34 175.95L262.34 201.06L252.57 201.06L252.57 154.68L262.34 154.68L262.34 163.14L262.46 162.92L262.58 162.71L262.7 162.51L262.83 162.3L262.95 162.1L263.08 161.9L263.22 161.7L263.35 161.5L263.49 161.31L263.63 161.12L263.77 160.93L263.91 160.74L264.06 160.55L264.2 160.37L264.35 160.19L264.51 160.01L264.66 159.84L264.82 159.66L264.98 159.49L265.14 159.32L265.3 159.16L265.47 158.99L265.64 158.83L265.81 158.67L265.98 158.51L266.15 158.36L266.33 158.21L266.51 158.05L266.69 157.91L266.87 157.76L267.06 157.62L267.25 157.47L267.44 157.34L267.63 157.2L267.83 157.06L268.02 156.93L268.22 156.8L268.42 156.67L268.63 156.55L268.83 156.42L269.04 156.3L269.25 156.19L269.46 156.07L269.67 155.96L269.88 155.85L270.09 155.75L270.3 155.65L270.51 155.55L270.73 155.45L270.94 155.36L271.16 155.27L271.38 155.18L271.59 155.1L271.81 155.02L272.03 154.94L272.25 154.86L272.47 154.79L272.69 154.72L272.91 154.66L273.14 154.59L273.36 154.53L273.58 154.48L273.81 154.42L274.04 154.37L274.26 154.33L274.49 154.28L274.72 154.24L274.95 154.2L275.18 154.17L275.41 154.14L275.64 154.11L275.88 154.08L276.11 154.06L276.34 154.04L276.58 154.02L276.82 154.01L277.05 154L277.29 153.99L277.53 153.98L277.77 153.98L278.16 153.99L278.55 153.99ZM613.36 163.83L613.31 163.83L613.28 163.83L613.21 163.83L613.14 163.83L613.08 163.83L612.96 163.83L612.88 163.83L612.4 163.84L611.93 163.85L611.47 163.88L611.01 163.92L610.56 163.96L610.13 164.02L609.69 164.09L609.27 164.17L608.86 164.26L608.45 164.36L608.05 164.47L607.66 164.59L607.28 164.72L606.9 164.86L606.53 165.01L606.17 165.17L605.82 165.34L605.48 165.53L605.14 165.72L604.82 165.92L604.5 166.14L604.18 166.36L603.88 166.6L603.58 166.85L603.3 167.1L603.02 167.37L602.74 167.65L602.48 167.93L602.22 168.23L601.98 168.54L601.74 168.86L601.5 169.18L601.28 169.51L601.06 169.85L600.86 170.2L600.66 170.55L600.47 170.91L600.28 171.28L600.11 171.66L599.94 172.04L599.78 172.43L599.63 172.82L599.49 173.23L599.36 173.64L599.23 174.05L599.11 174.48L599 174.91L598.9 175.35L598.81 175.8L598.72 176.25L598.65 176.71L598.58 177.18L598.52 177.66L598.46 178.14L598.42 178.63L598.38 179.12L598.35 179.63L598.33 180.14L598.32 180.66L598.32 181.18L598.32 201.06L588.55 201.06L588.55 154.68L598.32 154.68L598.32 164.01L598.48 163.72L598.64 163.43L598.8 163.15L598.97 162.87L599.15 162.6L599.33 162.33L599.51 162.06L599.69 161.79L599.88 161.53L600.07 161.28L600.27 161.02L600.47 160.77L600.68 160.52L600.88 160.28L601.1 160.04L601.31 159.8L601.53 159.57L601.75 159.34L601.98 159.12L602.21 158.89L602.45 158.67L602.68 158.46L602.93 158.25L603.17 158.04L603.42 157.83L603.67 157.63L603.93 157.43L604.19 157.24L604.46 157.05L604.73 156.86L605 156.68L605.27 156.5L605.54 156.33L605.81 156.16L606.09 156.01L606.36 155.85L606.64 155.71L606.92 155.56L607.2 155.43L607.48 155.3L607.76 155.18L608.04 155.06L608.33 154.95L608.61 154.84L608.9 154.75L609.18 154.65L609.47 154.57L609.76 154.48L610.05 154.41L610.34 154.34L610.63 154.28L610.93 154.22L611.22 154.17L611.52 154.13L611.81 154.09L612.11 154.05L612.41 154.03L612.71 154.01L613.01 153.99L613.31 153.98L613.4 163.83L613.36 163.83ZM355.09 201.06L355.09 154.68L364.86 154.68L364.86 201.06L355.09 201.06ZM217.99 162.49L217.36 162.56L216.75 162.66L216.15 162.78L215.55 162.93L214.97 163.11L214.4 163.32L213.84 163.55L213.29 163.81L212.74 164.1L212.21 164.41L211.69 164.76L211.18 165.13L210.68 165.53L210.19 165.95L209.71 166.4L209.24 166.88L208.79 167.39L208.36 167.9L207.96 168.43L207.59 168.97L207.24 169.53L206.91 170.1L206.62 170.68L206.35 171.28L206.1 171.89L205.88 172.51L205.69 173.15L205.52 173.8L205.38 174.47L205.26 175.14L205.17 175.84L205.11 176.54L205.07 177.26L205.05 178L205.07 178.73L205.11 179.45L205.17 180.15L205.27 180.84L205.38 181.51L205.53 182.17L205.7 182.81L205.9 183.44L206.12 184.05L206.37 184.64L206.65 185.22L206.95 185.79L207.28 186.34L207.64 186.87L208.02 187.39L208.43 187.89L208.87 188.38L209.33 188.85L209.81 189.3L210.3 189.73L210.79 190.13L211.3 190.51L211.81 190.85L212.34 191.18L212.87 191.47L213.42 191.75L213.97 191.99L214.53 192.21L215.1 192.4L215.68 192.57L216.27 192.71L216.87 192.83L217.47 192.92L218.09 192.99L218.72 193.02L219.35 193.04L219.99 193.02L220.61 192.99L221.22 192.92L221.82 192.83L222.41 192.71L222.99 192.57L223.56 192.4L224.12 192.2L224.67 191.98L225.21 191.73L225.73 191.46L226.25 191.16L226.75 190.83L227.25 190.48L227.73 190.1L228.2 189.7L228.66 189.27L229.12 188.81L229.55 188.33L229.96 187.84L230.34 187.33L230.7 186.81L231.03 186.28L231.34 185.72L231.63 185.16L231.89 184.58L232.12 183.98L232.33 183.37L232.52 182.75L232.68 182.11L232.82 181.45L232.93 180.78L233.01 180.1L233.08 179.4L233.11 178.68L233.13 177.96L233.11 177.23L233.08 176.51L233.01 175.81L232.93 175.12L232.82 174.44L232.68 173.78L232.52 173.13L232.33 172.5L232.12 171.88L231.89 171.27L231.63 170.67L231.34 170.09L231.03 169.52L230.7 168.97L230.34 168.43L229.96 167.9L229.55 167.39L229.12 166.88L228.66 166.4L228.2 165.95L227.73 165.53L227.24 165.13L226.75 164.76L226.24 164.41L225.72 164.1L225.19 163.81L224.65 163.55L224.1 163.32L223.53 163.11L222.96 162.93L222.37 162.78L221.77 162.66L221.16 162.56L220.54 162.49L219.91 162.45L219.26 162.44L218.62 162.45L217.99 162.49ZM555.52 162.75L554.85 162.82L554.19 162.91L553.54 163.03L552.91 163.17L552.29 163.34L551.69 163.54L551.1 163.76L550.52 164.01L549.96 164.28L549.41 164.58L548.87 164.91L548.35 165.26L547.84 165.64L547.35 166.04L546.87 166.47L546.4 166.93L545.95 167.41L545.53 167.9L545.14 168.41L544.77 168.93L544.42 169.47L544.1 170.02L543.81 170.59L543.54 171.18L543.3 171.78L543.08 172.39L542.89 173.02L542.72 173.67L542.58 174.33L542.47 175.01L542.38 175.7L542.31 176.41L542.27 177.13L542.26 177.87L542.27 178.61L542.31 179.33L542.38 180.04L542.47 180.73L542.58 181.41L542.72 182.07L542.89 182.71L543.08 183.35L543.3 183.96L543.54 184.56L543.81 185.15L544.1 185.72L544.42 186.27L544.77 186.81L545.14 187.33L545.53 187.84L545.95 188.33L546.4 188.81L546.87 189.27L547.35 189.7L547.84 190.1L548.35 190.48L548.87 190.83L549.41 191.16L549.96 191.46L550.52 191.73L551.1 191.98L551.69 192.2L552.29 192.4L552.91 192.57L553.54 192.71L554.19 192.83L554.85 192.92L555.52 192.98L556.2 193.02L556.91 193.04L557.61 193.02L558.29 192.98L558.96 192.92L559.62 192.83L560.27 192.71L560.9 192.57L561.52 192.4L562.12 192.2L562.71 191.98L563.29 191.73L563.85 191.46L564.4 191.16L564.94 190.83L565.46 190.48L565.97 190.1L566.46 189.7L566.94 189.27L567.41 188.81L567.86 188.33L568.28 187.84L568.68 187.33L569.05 186.81L569.39 186.27L569.71 185.72L570.01 185.15L570.27 184.56L570.52 183.96L570.73 183.35L570.93 182.71L571.09 182.07L571.23 181.41L571.35 180.73L571.44 180.04L571.5 179.33L571.54 178.61L571.55 177.87L571.54 177.13L571.5 176.41L571.44 175.7L571.35 175.01L571.23 174.33L571.09 173.67L570.93 173.02L570.73 172.39L570.52 171.78L570.27 171.18L570.01 170.59L569.71 170.02L569.39 169.47L569.05 168.93L568.68 168.41L568.28 167.9L567.86 167.41L567.41 166.93L566.94 166.47L566.46 166.04L565.97 165.64L565.46 165.26L564.94 164.91L564.4 164.58L563.85 164.28L563.29 164.01L562.71 163.76L562.12 163.54L561.52 163.34L560.9 163.17L560.27 163.03L559.62 162.91L558.96 162.82L558.29 162.75L557.61 162.71L556.91 162.7L556.2 162.71L555.52 162.75ZM502.97 162.58L502.35 162.65L501.74 162.74L501.15 162.87L500.56 163.02L499.98 163.19L499.42 163.4L498.87 163.63L498.33 163.89L497.79 164.17L497.28 164.48L496.77 164.82L496.27 165.19L495.79 165.58L495.31 166.01L494.85 166.45L494.4 166.93L493.97 167.42L493.56 167.93L493.17 168.46L492.82 169L492.48 169.55L492.17 170.11L491.89 170.69L491.63 171.28L491.39 171.89L491.18 172.51L491 173.14L490.84 173.79L490.7 174.45L490.59 175.12L490.5 175.81L490.44 176.51L490.4 177.23L490.39 177.95L490.4 178.68L490.44 179.4L490.5 180.1L490.59 180.78L490.7 181.45L490.84 182.11L491 182.75L491.18 183.37L491.39 183.98L491.63 184.58L491.89 185.16L492.17 185.72L492.48 186.28L492.82 186.81L493.17 187.33L493.56 187.84L493.97 188.33L494.4 188.81L494.85 189.27L495.31 189.7L495.79 190.1L496.27 190.48L496.76 190.83L497.27 191.16L497.78 191.46L498.31 191.73L498.85 191.98L499.39 192.2L499.95 192.4L500.52 192.57L501.1 192.71L501.69 192.83L502.29 192.92L502.91 192.98L503.53 193.02L504.16 193.04L504.8 193.02L505.42 192.99L506.04 192.92L506.65 192.83L507.25 192.71L507.84 192.57L508.41 192.4L508.99 192.21L509.55 191.99L510.1 191.75L510.64 191.47L511.18 191.18L511.7 190.86L512.22 190.51L512.72 190.13L513.22 189.73L513.71 189.3L514.19 188.85L514.65 188.38L515.09 187.89L515.49 187.39L515.88 186.87L516.23 186.34L516.56 185.79L516.87 185.22L517.14 184.64L517.39 184.05L517.62 183.44L517.81 182.81L517.99 182.17L518.13 181.51L518.25 180.84L518.34 180.15L518.41 179.45L518.45 178.73L518.46 178L518.45 177.26L518.41 176.55L518.34 175.84L518.25 175.15L518.14 174.47L518 173.81L517.83 173.16L517.63 172.52L517.41 171.9L517.17 171.29L516.9 170.7L516.6 170.12L516.28 169.55L515.93 169L515.56 168.46L515.16 167.94L514.73 167.43L514.28 166.93L513.81 166.45L513.33 166.01L512.84 165.58L512.33 165.19L511.82 164.82L511.3 164.48L510.77 164.17L510.23 163.89L509.68 163.63L509.12 163.4L508.54 163.19L507.96 163.02L507.37 162.87L506.76 162.74L506.15 162.65L505.53 162.58L504.89 162.54L504.25 162.53L503.61 162.54L502.97 162.58ZM165.22 162.66L164.55 162.73L163.89 162.82L163.25 162.94L162.61 163.08L162 163.25L161.39 163.45L160.8 163.67L160.23 163.92L159.66 164.19L159.11 164.49L158.58 164.82L158.06 165.17L157.55 165.55L157.05 165.95L156.57 166.38L156.11 166.84L155.66 167.32L155.24 167.81L154.84 168.32L154.47 168.84L154.12 169.38L153.8 169.93L153.51 170.5L153.24 171.09L153 171.69L152.78 172.3L152.59 172.94L152.42 173.58L152.28 174.24L152.17 174.92L152.08 175.61L152.02 176.32L151.98 177.04L151.96 177.78L151.98 178.52L152.02 179.24L152.08 179.95L152.17 180.64L152.28 181.32L152.42 181.98L152.59 182.63L152.78 183.26L153 183.87L153.24 184.47L153.51 185.06L153.8 185.63L154.12 186.18L154.47 186.72L154.84 187.24L155.24 187.75L155.66 188.24L156.11 188.72L156.57 189.18L157.05 189.61L157.55 190.01L158.06 190.39L158.58 190.74L159.11 191.07L159.66 191.37L160.23 191.64L160.8 191.89L161.39 192.11L162 192.31L162.61 192.48L163.25 192.62L163.89 192.74L164.55 192.83L165.22 192.9L165.91 192.94L166.61 192.95L167.31 192.94L168 192.9L168.67 192.83L169.33 192.74L169.97 192.62L170.61 192.48L171.22 192.31L171.83 192.11L172.42 191.89L172.99 191.64L173.56 191.37L174.11 191.07L174.64 190.74L175.17 190.39L175.67 190.01L176.17 189.61L176.65 189.18L177.12 188.72L177.56 188.24L177.99 187.75L178.38 187.24L178.75 186.72L179.1 186.18L179.42 185.63L179.71 185.06L179.98 184.47L180.22 183.87L180.44 183.26L180.63 182.63L180.8 181.98L180.94 181.32L181.05 180.64L181.14 179.95L181.21 179.24L181.24 178.52L181.26 177.78L181.24 177.04L181.21 176.32L181.14 175.61L181.05 174.92L180.94 174.24L180.8 173.58L180.63 172.94L180.44 172.3L180.22 171.69L179.98 171.09L179.71 170.5L179.42 169.93L179.1 169.38L178.75 168.84L178.38 168.32L177.99 167.81L177.56 167.32L177.12 166.84L176.65 166.38L176.17 165.95L175.67 165.55L175.17 165.17L174.64 164.82L174.11 164.49L173.56 164.19L172.99 163.92L172.42 163.67L171.83 163.45L171.22 163.25L170.61 163.08L169.97 162.94L169.33 162.82L168.67 162.73L168 162.66L167.31 162.62L166.61 162.61L165.91 162.62L165.22 162.66ZM112.22 162.66L111.55 162.73L110.89 162.82L110.24 162.94L109.61 163.08L108.99 163.25L108.39 163.45L107.8 163.67L107.22 163.92L106.66 164.19L106.11 164.49L105.57 164.82L105.05 165.17L104.54 165.55L104.05 165.95L103.57 166.38L103.1 166.84L102.66 167.32L102.23 167.81L101.84 168.32L101.47 168.84L101.12 169.38L100.8 169.93L100.51 170.5L100.24 171.09L100 171.69L99.78 172.3L99.59 172.94L99.42 173.58L99.28 174.24L99.17 174.92L99.08 175.61L99.01 176.32L98.97 177.04L98.96 177.78L98.97 178.52L99.01 179.24L99.08 179.95L99.17 180.64L99.28 181.32L99.42 181.98L99.59 182.63L99.78 183.26L100 183.87L100.24 184.47L100.51 185.06L100.8 185.63L101.12 186.18L101.47 186.72L101.84 187.24L102.23 187.75L102.66 188.24L103.1 188.72L103.57 189.18L104.05 189.61L104.54 190.01L105.05 190.39L105.57 190.74L106.11 191.07L106.66 191.37L107.22 191.64L107.8 191.89L108.39 192.11L108.99 192.31L109.61 192.48L110.24 192.62L110.89 192.74L111.55 192.83L112.22 192.9L112.91 192.94L113.61 192.95L114.31 192.94L114.99 192.9L115.66 192.83L116.32 192.74L116.97 192.62L117.6 192.48L118.22 192.31L118.82 192.11L119.41 191.89L119.99 191.64L120.55 191.37L121.1 191.07L121.64 190.74L122.16 190.39L122.67 190.01L123.17 189.61L123.65 189.18L124.11 188.72L124.56 188.24L124.98 187.75L125.38 187.24L125.75 186.72L126.09 186.18L126.41 185.63L126.71 185.06L126.97 184.47L127.22 183.87L127.43 183.26L127.63 182.63L127.79 181.98L127.93 181.32L128.05 180.64L128.14 179.95L128.2 179.24L128.24 178.52L128.25 177.78L128.24 177.04L128.2 176.32L128.14 175.61L128.05 174.92L127.93 174.24L127.79 173.58L127.63 172.94L127.43 172.3L127.22 171.69L126.97 171.09L126.71 170.5L126.41 169.93L126.09 169.38L125.75 168.84L125.38 168.32L124.98 167.81L124.56 167.32L124.11 166.84L123.65 166.38L123.17 165.95L122.67 165.55L122.16 165.17L121.64 164.82L121.1 164.49L120.55 164.19L119.99 163.92L119.41 163.67L118.82 163.45L118.22 163.25L117.6 163.08L116.97 162.94L116.32 162.82L115.66 162.73L114.99 162.66L114.31 162.62L113.61 162.61L112.91 162.62L112.22 162.66ZM393.48 161.89L392.83 161.96L392.19 162.06L391.56 162.2L390.96 162.36L390.37 162.55L389.8 162.77L389.24 163.02L388.7 163.31L388.18 163.62L387.67 163.96L387.18 164.33L386.71 164.72L386.25 165.15L385.81 165.61L385.39 166.1L384.98 166.61L384.6 167.12L384.25 167.65L383.92 168.19L383.61 168.74L383.33 169.29L383.08 169.86L382.85 170.44L382.64 171.03L382.45 171.62L382.3 172.23L382.16 172.85L382.05 173.47L381.97 174.11L381.9 174.76L381.87 175.41L381.86 176.08L381.87 176.75L381.9 177.4L381.97 178.05L382.05 178.68L382.16 179.3L382.3 179.92L382.45 180.52L382.64 181.11L382.85 181.69L383.08 182.26L383.33 182.81L383.61 183.36L383.92 183.9L384.25 184.42L384.6 184.94L384.98 185.44L385.39 185.93L385.81 186.41L386.25 186.85L386.71 187.27L387.18 187.65L387.67 188.01L388.18 188.34L388.71 188.64L389.25 188.91L389.81 189.16L390.38 189.37L390.98 189.56L391.59 189.71L392.21 189.84L392.86 189.94L393.52 190.02L394.2 190.06L394.89 190.07L395.58 190.06L396.26 190.02L396.93 189.95L397.57 189.85L398.21 189.73L398.82 189.57L399.42 189.39L400.01 189.19L400.58 188.95L401.13 188.69L401.67 188.39L402.19 188.08L402.7 187.73L403.19 187.35L403.66 186.95L404.12 186.52L404.57 186.06L404.99 185.59L405.39 185.09L405.76 184.59L406.1 184.07L406.42 183.54L406.72 182.99L406.99 182.43L407.23 181.85L407.45 181.27L407.64 180.67L407.81 180.05L407.95 179.42L408.07 178.78L408.16 178.13L408.22 177.46L408.26 176.78L408.27 176.08L408.26 175.38L408.22 174.7L408.15 174.03L408.06 173.37L407.95 172.73L407.8 172.09L407.63 171.47L407.44 170.87L407.22 170.27L406.97 169.69L406.7 169.12L406.4 168.56L406.08 168.02L405.73 167.49L405.35 166.97L404.95 166.46L404.52 165.97L404.07 165.5L403.61 165.05L403.13 164.64L402.64 164.25L402.13 163.89L401.6 163.56L401.06 163.26L400.51 162.99L399.94 162.75L399.36 162.53L398.76 162.34L398.14 162.19L397.51 162.06L396.87 161.96L396.21 161.89L395.53 161.84L394.85 161.83L394.16 161.84L393.48 161.89ZM57.41 161.8L56.75 161.87L56.11 161.98L55.49 162.11L54.89 162.27L54.3 162.47L53.72 162.69L53.17 162.94L52.63 163.22L52.1 163.53L51.6 163.87L51.11 164.24L50.64 164.64L50.18 165.07L49.74 165.52L49.31 166.01L48.91 166.52L48.53 167.04L48.18 167.56L47.85 168.1L47.54 168.65L47.26 169.21L47.01 169.77L46.77 170.35L46.57 170.94L46.38 171.53L46.22 172.14L46.09 172.76L45.98 173.39L45.89 174.02L45.83 174.67L45.8 175.33L45.79 175.99L45.8 176.66L45.83 177.32L45.89 177.96L45.98 178.6L46.09 179.22L46.22 179.83L46.38 180.43L46.57 181.02L46.77 181.6L47.01 182.17L47.26 182.73L47.54 183.27L47.85 183.81L48.18 184.33L48.53 184.85L48.91 185.35L49.32 185.84L49.74 186.32L50.18 186.76L50.64 187.18L51.11 187.56L51.6 187.92L52.11 188.25L52.64 188.55L53.18 188.83L53.74 189.07L54.31 189.28L54.91 189.47L55.52 189.63L56.14 189.76L56.79 189.86L57.45 189.93L58.12 189.97L58.82 189.99L59.51 189.97L60.19 189.93L60.85 189.86L61.5 189.76L62.13 189.64L62.75 189.49L63.35 189.31L63.93 189.1L64.5 188.86L65.06 188.6L65.59 188.31L66.12 187.99L66.62 187.64L67.11 187.27L67.59 186.86L68.05 186.43L68.49 185.98L68.92 185.5L69.31 185.01L69.69 184.5L70.03 183.98L70.35 183.45L70.65 182.9L70.92 182.34L71.16 181.77L71.38 181.18L71.57 180.58L71.74 179.97L71.88 179.34L71.99 178.7L72.08 178.04L72.15 177.37L72.19 176.69L72.2 175.99L72.19 175.3L72.15 174.61L72.08 173.94L71.99 173.29L71.88 172.64L71.73 172.01L71.56 171.39L71.37 170.78L71.15 170.18L70.9 169.6L70.63 169.03L70.33 168.47L70.01 167.93L69.66 167.4L69.28 166.88L68.88 166.37L68.45 165.88L68 165.41L67.54 164.96L67.06 164.55L66.57 164.16L66.06 163.8L65.53 163.48L64.99 163.17L64.44 162.9L63.87 162.66L63.28 162.44L62.69 162.26L62.07 162.1L61.44 161.97L60.8 161.87L60.14 161.8L59.46 161.76L58.77 161.74L58.08 161.76L57.41 161.8ZM324.14 162.43L323.34 162.52L322.56 162.66L321.8 162.83L321.04 163.05L320.3 163.3L319.57 163.59L318.86 163.92L318.15 164.29L317.46 164.69L316.79 165.14L316.12 165.62L315.49 166.14L314.91 166.68L314.38 167.25L313.9 167.85L313.47 168.48L313.09 169.13L312.77 169.81L312.49 170.52L312.26 171.25L312.08 172.02L311.96 172.81L311.88 173.62L311.86 174.47L338.44 174.47L338.42 173.59L338.36 172.73L338.25 171.92L338.1 171.13L337.9 170.38L337.66 169.65L337.38 168.96L337.06 168.3L336.69 167.68L336.28 167.08L335.82 166.52L335.32 165.99L334.78 165.49L334.21 165.02L333.61 164.6L333 164.21L332.37 163.85L331.71 163.54L331.04 163.26L330.35 163.02L329.63 162.81L328.9 162.65L328.14 162.52L327.37 162.42L326.57 162.37L325.76 162.35L324.94 162.37L324.14 162.43ZM362.5 137.68L363.57 138.35L364.46 139.24L365.13 140.31L365.56 141.52L365.71 142.83L365.56 144.15L365.13 145.36L364.46 146.42L363.57 147.31L362.5 147.99L361.3 148.42L359.98 148.57L358.66 148.42L357.45 147.99L356.39 147.31L355.5 146.42L354.82 145.36L354.39 144.15L354.24 142.83L354.39 141.52L354.82 140.31L355.5 139.24L356.39 138.35L357.45 137.68L358.66 137.24L359.98 137.09L361.3 137.24L362.5 137.68Z" id="c158ztFitP"></path></defs><g><use xlink:href="#c158ztFitP" opacity="1" fill="#393a39" fill-opacity="1"></use><g><use xlink:href="#c158ztFitP" opacity="1" fill-opacity="0" stroke="#000000" stroke-width="1" stroke-opacity="0"></use></g></g></svg>
