<?xml version="1.0" encoding="utf-8"?>
<!-- Generator: Adobe Illustrator 16.0.0, SVG Export Plug-In . SVG Version: 6.00 Build 0)  -->
<!DOCTYPE svg PUBLIC "-//W3C//DTD SVG 1.1//EN" "http://www.w3.org/Graphics/SVG/1.1/DTD/svg11.dtd">
<svg version="1.1" id="Layer_1" xmlns="http://www.w3.org/2000/svg" xmlns:xlink="http://www.w3.org/1999/xlink" x="0px" y="0px"
	 width="792px" height="612px" viewBox="0 0 792 612" enable-background="new 0 0 792 612" xml:space="preserve">
<path fill="#393A39" d="M425.342,253.546c0,3.168,2.565,5.741,5.739,5.741c3.171,0,5.735-2.572,5.735-5.741s-2.564-5.74-5.735-5.74
	C427.907,247.806,425.342,250.377,425.342,253.546z"/>
<g>
	<g>
		<path fill="#393A39" d="M333.44,286.666v25.106h-9.764v-46.377h9.764v8.456c1.569-2.847,3.734-5.083,6.496-6.712
			c2.757-1.625,5.735-2.442,8.936-2.442c5.23,0,9.458,1.6,12.683,4.796c3.227,3.195,4.84,7.816,4.84,13.859v28.421h-9.765v-25.456
			c0-8.541-3.544-12.814-10.635-12.814c-3.372,0-6.305,1.12-8.803,3.356C334.689,279.096,333.44,282.365,333.44,286.666z"/>
	</g>
	<g>
		<path fill="#393A39" d="M419.31,292.853h-36.351c0.229,3.374,1.771,6.091,4.617,8.153c2.848,2.063,6.104,3.095,9.767,3.095
			c5.807,0,10.227-1.833,13.249-5.495l5.581,6.104c-5,5.174-11.509,7.759-19.529,7.759c-6.511,0-12.045-2.164-16.609-6.494
			c-4.56-4.328-6.843-10.14-6.843-17.437c0-7.292,2.326-13.089,6.975-17.391c4.65-4.298,10.127-6.452,16.435-6.452
			c6.303,0,11.667,1.905,16.084,5.71c4.416,3.809,6.625,9.053,6.625,15.737V292.853z M382.959,285.182h26.586
			c0-3.893-1.22-6.885-3.663-8.98c-2.438-2.092-5.447-3.138-9.021-3.138c-3.574,0-6.788,1.091-9.635,3.27
			C384.38,278.512,382.959,281.466,382.959,285.182z"/>
	</g>
	<g>
		<path fill="#393A39" d="M435.961,311.771h-9.765v-46.377h9.765V311.771z"/>
	</g>
	<g>
		<path fill="#393A39" d="M489.136,265.394v40.449c0,8.196-2.222,14.341-6.669,18.438c-4.444,4.096-10.153,6.146-17.129,6.146
			s-13.283-2.18-18.918-6.539l4.62-7.409c4.534,3.428,9.111,5.144,13.729,5.144c4.619,0,8.282-1.191,10.984-3.574
			c2.703-2.385,4.054-6.189,4.054-11.419v-5.93c-1.452,2.732-3.529,4.911-6.232,6.538s-5.741,2.441-9.111,2.441
			c-6.159,0-11.217-2.15-15.167-6.452c-3.954-4.299-5.93-9.645-5.93-16.041c0-6.393,1.976-11.738,5.93-16.04
			c3.95-4.298,8.992-6.452,15.124-6.452c6.131,0,11.116,2.529,14.952,7.584v-6.885H489.136z M452.958,286.795
			c0,3.808,1.177,7.091,3.529,9.852c2.354,2.761,5.521,4.14,9.505,4.14c3.979,0,7.204-1.335,9.675-4.009
			c2.472-2.673,3.706-6.002,3.706-9.983c0-3.98-1.251-7.352-3.751-10.111c-2.499-2.76-5.723-4.142-9.675-4.142
			c-3.953,0-7.105,1.423-9.46,4.271C454.135,279.663,452.958,282.99,452.958,286.795z"/>
	</g>
	<g>
		<path fill="#393A39" d="M509.187,286.666v25.106h-9.764v-64.597h9.764v26.676c1.395-2.847,3.501-5.083,6.321-6.712
			c2.821-1.625,5.853-2.442,9.109-2.442c5.232,0,9.459,1.6,12.685,4.796c3.226,3.195,4.837,7.816,4.837,13.859v28.421h-9.764
			v-25.456c0-8.541-3.546-12.814-10.635-12.814c-3.369,0-6.308,1.12-8.803,3.356C510.436,279.096,509.187,282.365,509.187,286.666z"
			/>
	</g>
	<g>
		<path fill="#393A39" d="M576.748,264.695c6.22,0,11.537,2.153,15.953,6.452c4.417,4.302,6.628,10.026,6.628,17.173
			c0,7.149-2.196,12.961-6.581,17.436c-4.393,4.477-9.505,6.713-15.348,6.713c-5.838,0-11.086-2.557-15.731-7.669v6.972h-9.767
			v-64.685h9.767v26.415C565.502,267.632,570.527,264.695,576.748,264.695z M561.492,288.669c0,4.419,1.336,8.037,4.01,10.854
			c2.674,2.821,5.928,4.228,9.764,4.228s7.177-1.393,10.025-4.184c2.849-2.79,4.271-6.409,4.271-10.854
			c0-4.445-1.395-8.134-4.182-11.07c-2.793-2.934-6.133-4.402-10.028-4.402c-3.895,0-7.177,1.468-9.851,4.402
			C562.828,280.579,561.492,284.252,561.492,288.669z"/>
	</g>
	<g>
		<path fill="#393A39" d="M645.444,305.539c-4.651,4.621-10.461,6.93-17.438,6.93c-6.974,0-12.787-2.309-17.436-6.93
			c-4.651-4.623-6.974-10.274-6.974-16.956c0-6.683,2.322-12.335,6.974-16.957c4.648-4.621,10.462-6.931,17.436-6.931
			c6.977,0,12.786,2.311,17.438,6.931c4.648,4.622,6.975,10.274,6.975,16.957C652.419,295.265,650.093,300.917,645.444,305.539z
			 M617.504,299.523c2.758,2.821,6.26,4.228,10.503,4.228s7.744-1.407,10.506-4.228c2.759-2.817,4.143-6.464,4.143-10.939
			c0-4.474-1.384-8.122-4.143-10.941c-2.762-2.817-6.263-4.228-10.506-4.228s-7.745,1.41-10.503,4.228
			c-2.762,2.819-4.14,6.467-4.14,10.941C613.364,293.059,614.742,296.706,617.504,299.523z"/>
	</g>
	<g>
		<path fill="#393A39" d="M683.979,274.547c-4.825,0-8.458,1.568-10.902,4.708c-2.438,3.137-3.658,7.353-3.658,12.641v19.875h-9.767
			v-46.377h9.767v9.328c1.566-2.905,3.706-5.29,6.408-7.147c2.7-1.861,5.562-2.82,8.586-2.879l0.087,9.852
			C684.325,274.547,684.15,274.547,683.979,274.547z"/>
	</g>
</g>
<g>
	<g>
		<path fill="#393A39" d="M153.066,265.307v40.449c0,8.196-2.225,14.34-6.667,18.438c-4.448,4.098-10.158,6.146-17.133,6.146
			c-6.974,0-13.281-2.178-18.918-6.538l4.621-7.41c4.533,3.428,9.11,5.145,13.73,5.145c4.621,0,8.282-1.191,10.985-3.574
			c2.703-2.383,4.055-6.191,4.055-11.421v-5.927c-1.455,2.73-3.532,4.911-6.233,6.536c-2.702,1.63-5.741,2.443-9.111,2.443
			c-6.16,0-11.217-2.149-15.169-6.453c-3.953-4.3-5.927-9.646-5.927-16.04c0-6.392,1.975-11.738,5.927-16.041
			c3.953-4.3,8.994-6.452,15.126-6.452c6.13,0,11.114,2.53,14.952,7.585v-6.886H153.066z M116.887,286.708
			c0,3.809,1.176,7.092,3.53,9.85c2.355,2.762,5.521,4.143,9.502,4.143c3.98,0,7.205-1.339,9.676-4.011
			c2.471-2.672,3.707-6,3.707-9.982c0-3.98-1.252-7.353-3.749-10.113c-2.501-2.758-5.727-4.139-9.679-4.139
			c-3.953,0-7.103,1.423-9.458,4.27C118.063,279.573,116.887,282.901,116.887,286.708z"/>
	</g>
	<g>
		<path fill="#393A39" d="M202.144,305.45c-4.649,4.62-10.461,6.931-17.437,6.931c-6.972,0-12.784-2.311-17.433-6.931
			c-4.653-4.621-6.975-10.272-6.975-16.954c0-6.683,2.322-12.336,6.975-16.957c4.648-4.62,10.461-6.931,17.433-6.931
			c6.976,0,12.787,2.311,17.437,6.931c4.65,4.621,6.976,10.274,6.976,16.957C209.12,295.178,206.794,300.83,202.144,305.45z
			 M174.206,299.434c2.756,2.822,6.262,4.23,10.501,4.23c4.243,0,7.746-1.408,10.509-4.23c2.757-2.817,4.139-6.464,4.139-10.938
			c0-4.477-1.382-8.123-4.139-10.942c-2.764-2.817-6.266-4.228-10.509-4.228c-4.24,0-7.745,1.411-10.501,4.228
			c-2.763,2.82-4.143,6.465-4.143,10.942C170.063,292.97,171.443,296.617,174.206,299.434z"/>
	</g>
	<g>
		<path fill="#393A39" d="M255.148,305.45c-4.651,4.62-10.46,6.931-17.437,6.931c-6.973,0-12.783-2.311-17.434-6.931
			c-4.65-4.621-6.974-10.272-6.974-16.954c0-6.683,2.324-12.336,6.974-16.957c4.651-4.62,10.461-6.931,17.434-6.931
			c6.977,0,12.785,2.311,17.437,6.931c4.648,4.621,6.974,10.274,6.974,16.957C262.122,295.178,259.797,300.83,255.148,305.45z
			 M227.207,299.434c2.762,2.822,6.263,4.23,10.505,4.23s7.743-1.408,10.507-4.23c2.762-2.817,4.14-6.464,4.14-10.938
			c0-4.477-1.378-8.123-4.14-10.942c-2.764-2.817-6.265-4.228-10.507-4.228s-7.743,1.411-10.505,4.228
			c-2.76,2.82-4.141,6.465-4.141,10.942C223.066,292.97,224.447,296.617,227.207,299.434z"/>
	</g>
	<g>
		<path fill="#393A39" d="M272.932,305.755c-4.359-4.417-6.538-10.229-6.538-17.436c0-7.204,2.237-12.958,6.712-17.26
			c4.477-4.3,9.807-6.452,15.995-6.452c6.191,0,11.175,2.617,14.952,7.848v-25.458h9.762v64.683h-9.762v-6.972
			c-3.603,5.114-8.864,7.671-15.779,7.671C282.406,312.381,277.29,310.172,272.932,305.755z M276.156,288.713
			c0,4.446,1.427,8.065,4.274,10.853c2.846,2.79,6.188,4.186,10.023,4.186c3.837,0,7.092-1.411,9.764-4.228
			c2.673-2.819,4.01-6.439,4.01-10.854c0-4.417-1.337-8.107-4.01-11.071c-2.671-2.966-5.956-4.446-9.852-4.446
			c-3.891,0-7.234,1.48-10.024,4.446C277.552,280.562,276.156,284.268,276.156,288.713z"/>
	</g>
</g>
<g>
	<path fill="#393A39" d="M211.167,348.758c-41.022,0-50.696-21.598-51.085-22.521l4.455-1.896l4.428-1.96
		c0.314,0.684,8.066,16.688,42.202,16.688c34.311,0,42.931-16.176,43.278-16.867l8.72,4.221
		C262.729,327.337,252.049,348.758,211.167,348.758z"/>
</g>
<g>
	<path fill="#393A39" d="M414.169,362.401l-1.314,2.983h-2.365l5.784-13.123h2.364l5.783,13.123h-2.367l-1.312-2.983H414.169z
		 M419.837,360.355l-2.384-5.409l-2.383,5.409H419.837z"/>
	<path fill="#393A39" d="M439.475,363.375c0.766,0,1.419-0.126,1.972-0.383c0.553-0.256,1.129-0.667,1.729-1.229l1.428,1.461
		c-1.392,1.541-3.076,2.313-5.062,2.313c-1.982,0-3.629-0.641-4.938-1.917c-1.308-1.274-1.961-2.892-1.961-4.844
		c0-1.95,0.666-3.578,1.998-4.882c1.332-1.299,3.017-1.95,5.051-1.95c2.035,0,3.731,0.749,5.098,2.251l-1.408,1.541
		c-0.625-0.604-1.218-1.021-1.772-1.258c-0.56-0.239-1.214-0.359-1.963-0.359c-1.326,0-2.442,0.431-3.341,1.289
		c-0.904,0.857-1.354,1.951-1.354,3.287c0,1.331,0.45,2.445,1.343,3.34C437.188,362.932,438.249,363.375,439.475,363.375z"/>
	<path fill="#393A39" d="M459.059,363.572c-1.329,1.297-2.968,1.945-4.923,1.945c-1.951,0-3.589-0.648-4.917-1.945
		s-1.989-2.908-1.989-4.842s0.661-3.549,1.989-4.844s2.966-1.942,4.917-1.942c1.955,0,3.594,0.647,4.923,1.942
		c1.323,1.295,1.989,2.91,1.989,4.844S460.382,362.275,459.059,363.572z M457.434,355.358c-0.896-0.924-1.994-1.39-3.298-1.39
		c-1.3,0-2.396,0.466-3.291,1.39c-0.896,0.927-1.343,2.052-1.343,3.372c0,1.318,0.447,2.441,1.343,3.367
		c0.896,0.928,1.991,1.391,3.291,1.391c1.304,0,2.401-0.463,3.298-1.391c0.896-0.926,1.34-2.049,1.34-3.367
		C458.773,357.41,458.329,356.285,457.434,355.358z"/>
	<path fill="#393A39" d="M467.111,365.385h-2.215v-13.123h3.455l3.962,8.241l3.958-8.241h3.438v13.123h-2.216v-10.252l-4.582,9.105
		h-1.239l-4.561-9.105V365.385z"/>
	<path fill="#393A39" d="M486.616,365.385h-2.215v-13.123h3.455l3.96,8.241l3.965-8.241h3.434v13.123h-2.216v-10.252l-4.579,9.105
		h-1.238l-4.565-9.105V365.385z"/>
	<path fill="#393A39" d="M506.853,362.381c0.604,0.701,1.417,1.053,2.443,1.053c1.024,0,1.84-0.352,2.441-1.053
		c0.602-0.699,0.899-1.652,0.899-2.852v-7.268h2.214v7.361c0,1.889-0.515,3.344-1.556,4.363c-1.04,1.021-2.373,1.531-3.999,1.531
		c-1.625,0-2.961-0.511-3.998-1.531c-1.041-1.02-1.559-2.475-1.559-4.363v-7.361h2.216v7.268
		C505.955,360.729,506.257,361.682,506.853,362.381z"/>
	<path fill="#393A39" d="M529.215,352.262h2.216v13.123h-2.401l-7.436-9.575v9.575h-2.219v-13.123h2.219l7.621,9.801V352.262z"/>
	<path fill="#393A39" d="M536.124,352.262h2.219v13.123h-2.219V352.262z"/>
	<path fill="#393A39" d="M547.988,354.288v11.097h-2.213v-11.097h-3.979v-2.026h10.174v2.026H547.988z"/>
	<path fill="#393A39" d="M560.586,365.385h-2.255v-5.182l-4.879-7.941h2.421l3.586,5.971l3.588-5.971h2.421l-4.882,7.941V365.385z"
		/>
	<path fill="#393A39" d="M584.225,352.262h2.214v13.123h-2.402l-7.438-9.575v9.575h-2.213v-13.123h2.213l7.626,9.801V352.262z"/>
	<path fill="#393A39" d="M600.35,352.262v2.086h-7.005v3.471h6.294v1.972h-6.294v3.513h7.229v2.082h-9.442v-13.123H600.35z"/>
	<path fill="#393A39" d="M609.416,354.288v11.097h-2.213v-11.097h-3.979v-2.026h10.174v2.026H609.416z"/>
	<path fill="#393A39" d="M620.945,361.707l2.928-9.445h1.991l2.927,9.445l3.305-9.445h2.385l-4.581,13.123h-2.196l-2.762-8.992
		h-0.148l-2.759,8.992h-2.196l-4.584-13.123h2.388L620.945,361.707z"/>
	<path fill="#393A39" d="M648.429,363.572c-1.325,1.297-2.965,1.945-4.919,1.945s-3.591-0.648-4.918-1.945s-1.991-2.908-1.991-4.842
		s0.664-3.549,1.991-4.844s2.964-1.942,4.918-1.942s3.594,0.647,4.919,1.942c1.327,1.295,1.993,2.91,1.993,4.844
		S649.756,362.275,648.429,363.572z M646.806,355.358c-0.895-0.924-1.994-1.39-3.296-1.39c-1.299,0-2.398,0.466-3.293,1.39
		c-0.895,0.927-1.341,2.052-1.341,3.372c0,1.318,0.446,2.441,1.341,3.367c0.895,0.928,1.994,1.391,3.293,1.391
		c1.302,0,2.401-0.463,3.296-1.391c0.895-0.926,1.342-2.049,1.342-3.367C648.147,357.41,647.7,356.285,646.806,355.358z"/>
	<path fill="#393A39" d="M664.744,356.522c0,2.167-0.947,3.53-2.835,4.093l3.437,4.77h-2.817l-3.136-4.41h-2.91v4.41h-2.213v-13.123
		h4.879c2.005,0,3.436,0.336,4.302,1.014C664.312,353.951,664.744,355.035,664.744,356.522z M661.794,358.385
		c0.453-0.391,0.678-1.012,0.678-1.871c0-0.855-0.23-1.446-0.691-1.764c-0.464-0.321-1.294-0.48-2.48-0.48h-2.817v4.695h2.764
		C660.495,358.965,661.347,358.77,661.794,358.385z"/>
	<path fill="#393A39" d="M668.987,352.262h2.214v6.402l6.009-6.402h2.815l-5.275,5.744l5.352,7.379h-2.63l-4.354-5.745l-1.917,2.067
		v3.678h-2.214V352.262z"/>
</g>
</svg>
